<svg width="602" height="677" viewBox="0 0 602 677" fill="none" xmlns="http://www.w3.org/2000/svg">
<g filter="url(#filter0_i_573_4455)">
<rect x="1" y="1" width="600" height="675" rx="17" fill="url(#paint0_linear_573_4455)"/>
<path fill-rule="evenodd" clip-rule="evenodd" d="M301.867 260.322C300.163 259.384 299.006 257.574 299.006 255.496C299.006 252.468 301.471 250 304.5 250C307.53 250 309.994 252.468 309.994 255.496C309.994 257.635 308.767 259.493 306.979 260.401L325.189 304.053L350.374 278.736C349.881 277.913 349.598 276.95 349.598 275.927C349.598 272.892 352.063 270.431 355.092 270.431C358.121 270.431 360.586 272.892 360.586 275.927C360.586 278.955 358.121 281.423 355.092 281.423C354.052 281.423 353.08 281.136 352.25 280.631L326.299 306.716L333.95 325.056H370.222C370.874 322.747 372.996 321.059 375.506 321.059C378.536 321.059 381 323.521 381 326.555C381 329.59 378.536 332.051 375.506 332.051C372.876 332.051 370.671 330.193 370.137 327.719H335.062L353.502 371.919C354.005 371.767 354.539 371.688 355.092 371.688C358.121 371.688 360.586 374.155 360.586 377.184C360.586 380.218 358.121 382.68 355.092 382.68C352.462 382.68 350.257 380.821 349.723 378.348H305.674L305.665 393.13C308.137 393.666 309.994 395.872 309.994 398.504C309.994 401.532 307.53 404 304.5 404C301.471 404 299.006 401.532 299.006 398.504C299.006 395.987 300.699 393.867 303.003 393.215L303.011 378.348H259.278C258.744 380.821 256.539 382.68 253.909 382.68C250.879 382.68 248.414 380.218 248.414 377.184C248.414 374.155 250.879 371.688 253.909 371.688C254.354 371.688 254.787 371.743 255.202 371.84L273.665 327.719H238.863C238.329 330.193 236.125 332.051 233.495 332.051C230.466 332.051 228 329.59 228 326.555C228 323.521 230.466 321.059 233.495 321.059C236.004 321.059 238.126 322.747 238.778 325.056H274.78L282.427 306.777L256.536 280.752C255.756 281.179 254.86 281.423 253.909 281.423C250.879 281.423 248.414 278.955 248.414 275.927C248.414 272.892 250.879 270.431 253.909 270.431C256.938 270.431 259.402 272.892 259.402 275.927C259.402 277.042 259.069 278.078 258.496 278.943L283.54 304.12L301.867 260.322ZM305.664 395.92L305.663 397.596L303 397.59L303.001 396.103C302.201 396.603 301.669 397.492 301.669 398.504C301.669 400.064 302.939 401.337 304.5 401.337C306.062 401.337 307.332 400.064 307.332 398.504C307.332 397.352 306.646 396.365 305.664 395.92ZM254.147 374.363C254.069 374.356 253.989 374.35 253.909 374.35C252.348 374.35 251.077 375.624 251.077 377.184C251.077 378.744 252.348 380.017 253.909 380.017C255.056 380.017 256.045 379.335 256.489 378.348H252.48L254.147 374.363ZM352.511 378.348C352.955 379.335 353.946 380.017 355.092 380.017C356.653 380.017 357.923 378.744 357.923 377.184C357.923 375.624 356.653 374.35 355.092 374.35C354.902 374.35 354.717 374.369 354.538 374.405L356.183 378.348H352.511ZM259.193 375.685C259.087 375.307 258.94 374.941 258.758 374.606L303.037 330.095L303.012 375.685H259.193ZM350.129 374.826C349.999 375.1 349.891 375.386 349.807 375.685H305.675L305.7 330.169L350.129 374.826ZM307.019 327.719L350.342 371.267L332.176 327.719H307.019ZM276.551 327.719L258.335 371.255L301.645 327.719H276.551ZM372.925 327.719C373.37 328.7 374.359 329.389 375.506 329.389C377.067 329.389 378.337 328.115 378.337 326.555C378.337 324.995 377.067 323.722 375.506 323.722C374.496 323.722 373.607 324.252 373.106 325.056H375.486V327.719H372.925ZM235.894 325.056C235.394 324.252 234.505 323.722 233.495 323.722C231.933 323.722 230.663 324.995 230.663 326.555C230.663 328.115 231.933 329.389 233.495 329.389C234.641 329.389 235.631 328.7 236.075 327.719H233.474V325.056H235.894ZM277.666 325.056H300.61L284.46 308.818L277.666 325.056ZM308.054 325.056H331.064L324.266 308.757L308.054 325.056ZM285.572 306.161L303.041 323.722L303.074 264.337L285.572 306.161ZM305.703 323.637L323.156 306.094L305.736 264.337L305.703 323.637ZM354.241 278.626C354.51 278.711 354.796 278.76 355.092 278.76C356.653 278.76 357.923 277.487 357.923 275.927C357.923 274.361 356.653 273.093 355.092 273.093C353.531 273.093 352.26 274.361 352.26 275.927C352.26 276.201 352.3 276.469 352.376 276.725L354.127 274.964L356.016 276.847L354.241 278.626ZM256.537 276.975C256.668 276.652 256.74 276.298 256.74 275.927C256.74 274.361 255.47 273.093 253.909 273.093C252.348 273.093 251.077 274.361 251.077 275.927C251.077 277.487 252.348 278.76 253.909 278.76C254.108 278.76 254.304 278.736 254.492 278.699L252.648 276.847L254.536 274.964L256.537 276.975ZM305.949 257.927C306.776 257.434 307.332 256.532 307.332 255.496C307.332 253.936 306.062 252.663 304.5 252.663C302.939 252.663 301.669 253.936 301.669 255.496C301.669 256.465 302.16 257.324 302.906 257.836L304.41 254.241L305.949 257.927Z" fill="white"/>
<rect x="0.5" y="0.5" width="601" height="676" rx="17.5" stroke="white"/>
</g>
<defs>
<filter id="filter0_i_573_4455" x="0" y="0" width="602" height="681" filterUnits="userSpaceOnUse" color-interpolation-filters="sRGB">
<feFlood flood-opacity="0" result="BackgroundImageFix"/>
<feBlend mode="normal" in="SourceGraphic" in2="BackgroundImageFix" result="shape"/>
<feColorMatrix in="SourceAlpha" type="matrix" values="0 0 0 0 0 0 0 0 0 0 0 0 0 0 0 0 0 0 127 0" result="hardAlpha"/>
<feOffset dy="4"/>
<feGaussianBlur stdDeviation="12"/>
<feComposite in2="hardAlpha" operator="arithmetic" k2="-1" k3="1"/>
<feColorMatrix type="matrix" values="0 0 0 0 0.709804 0 0 0 0 0.52549 0 0 0 0 0.247059 0 0 0 0.24 0"/>
<feBlend mode="normal" in2="shape" result="effect1_innerShadow_573_4455"/>
</filter>
<linearGradient id="paint0_linear_573_4455" x1="301" y1="1" x2="523.5" y2="669" gradientUnits="userSpaceOnUse">
<stop/>
<stop offset="0.481046" stop-color="#0F3554"/>
<stop offset="0.61402" stop-color="#12113E" stop-opacity="0.58"/>
<stop offset="1" stop-color="#1B0205"/>
</linearGradient>
</defs>
</svg>
