<?xml version="1.0" standalone="no"?>
<!DOCTYPE svg PUBLIC "-//W3C//DTD SVG 20010904//EN"
 "http://www.w3.org/TR/2001/REC-SVG-20010904/DTD/svg10.dtd">
<svg version="1.0" xmlns="http://www.w3.org/2000/svg"
 width="1280.000000pt" height="887.000000pt" viewBox="0 0 1280.000000 887.000000"
 preserveAspectRatio="xMidYMid meet">
<metadata>
Created by potrace 1.15, written by Peter Selinger 2001-2017
</metadata>
<g transform="translate(0.000000,887.000000) scale(0.100000,-0.100000)"
fill="#000000" stroke="none">
<path d="M0 4435 l0 -4435 6400 0 6400 0 0 4435 0 4435 -6400 0 -6400 0 0
-4435z m2056 3995 c51 -45 115 -71 187 -78 43 -4 75 -14 108 -35 82 -50 173
-49 250 3 31 21 56 30 85 30 98 0 204 56 252 134 l27 43 27 -43 c49 -77 154
-134 249 -134 25 0 55 -11 90 -32 46 -29 60 -33 124 -33 64 0 78 4 124 33 35
21 65 32 90 32 96 0 200 57 251 137 17 26 30 42 30 36 0 -6 18 -34 39 -61 51
-64 123 -100 216 -108 47 -5 77 -13 90 -25 73 -66 212 -63 295 6 8 7 42 15 76
18 108 9 204 68 246 150 l14 28 29 -46 c52 -82 153 -134 261 -135 28 0 47 -6
59 -20 54 -59 193 -66 268 -13 32 22 58 31 103 35 86 8 156 42 209 100 25 28
45 54 45 59 0 19 16 7 40 -32 44 -71 158 -129 256 -129 26 0 46 -6 55 -17 57
-68 241 -68 298 0 9 11 29 17 55 17 98 0 212 58 256 129 24 39 40 51 40 32 0
-5 20 -31 45 -59 53 -58 123 -92 209 -100 45 -4 71 -13 103 -35 75 -53 214
-46 268 13 12 14 31 20 59 20 108 1 209 53 261 135 l29 46 14 -28 c42 -82 138
-141 246 -150 34 -3 68 -11 76 -18 83 -69 222 -72 295 -6 13 12 43 20 90 25
93 8 165 44 216 108 21 27 39 55 39 61 0 6 13 -10 30 -36 51 -80 155 -137 251
-137 25 0 55 -11 90 -32 46 -29 60 -33 124 -33 64 0 78 4 124 33 35 21 65 32
90 32 95 0 201 57 249 134 l27 43 27 -43 c49 -78 154 -134 252 -134 29 0 54
-9 85 -30 77 -52 168 -53 250 -3 33 21 65 31 108 35 104 10 202 69 242 145
l17 34 32 -49 c53 -83 150 -132 258 -132 27 0 47 -6 55 -17 24 -28 92 -53 147
-53 50 0 113 23 152 55 8 7 42 15 76 18 66 5 153 38 180 68 25 28 31 24 39
-23 9 -57 37 -119 73 -165 17 -21 33 -54 37 -73 9 -44 37 -99 69 -137 29 -34
106 -78 156 -88 19 -4 51 -19 70 -34 50 -40 87 -57 153 -71 31 -7 57 -16 57
-20 0 -4 -9 -15 -19 -24 -30 -27 -63 -114 -69 -180 -4 -45 -13 -71 -35 -103
-53 -75 -46 -214 13 -268 14 -12 20 -31 20 -59 1 -108 50 -205 131 -258 l50
-32 -28 -14 c-82 -42 -141 -138 -150 -246 -3 -34 -11 -68 -18 -76 -32 -39 -55
-102 -55 -152 0 -55 25 -123 53 -147 12 -9 17 -29 17 -60 0 -105 52 -204 135
-259 l45 -30 -30 -12 c-39 -16 -97 -82 -122 -138 -11 -24 -23 -72 -26 -105 -4
-43 -14 -75 -39 -115 -26 -45 -33 -66 -33 -109 0 -57 17 -108 50 -150 13 -16
20 -41 20 -68 0 -99 55 -203 134 -253 l43 -27 -43 -27 c-77 -48 -134 -154
-134 -249 0 -25 -11 -55 -32 -90 -29 -46 -33 -60 -33 -124 0 -64 4 -78 33
-124 21 -35 32 -65 32 -90 0 -95 57 -201 134 -249 l43 -27 -43 -27 c-79 -50
-134 -154 -134 -253 0 -27 -7 -52 -20 -68 -33 -42 -50 -93 -50 -150 0 -43 7
-64 33 -109 25 -40 35 -72 39 -115 3 -33 15 -81 26 -105 25 -56 83 -122 122
-138 l30 -12 -45 -30 c-83 -55 -135 -154 -135 -259 0 -31 -5 -51 -17 -60 -28
-24 -53 -92 -53 -147 0 -50 23 -113 55 -152 7 -8 15 -42 18 -76 9 -108 68
-204 150 -246 l28 -14 -50 -32 c-81 -53 -130 -150 -131 -258 0 -28 -6 -47 -20
-59 -59 -54 -66 -193 -13 -268 22 -32 31 -58 35 -103 6 -66 39 -153 69 -180
10 -9 19 -20 19 -24 0 -4 -26 -13 -57 -20 -66 -14 -103 -31 -153 -71 -19 -15
-51 -30 -70 -34 -44 -9 -99 -37 -137 -69 -34 -29 -78 -106 -88 -156 -4 -19
-20 -52 -37 -73 -36 -46 -64 -108 -73 -164 -8 -48 -14 -52 -39 -24 -27 30
-114 63 -180 68 -34 3 -68 11 -76 18 -39 32 -102 55 -152 55 -55 0 -123 -25
-147 -53 -8 -11 -28 -17 -55 -17 -108 0 -205 -49 -258 -132 l-32 -49 -17 34
c-40 76 -138 135 -242 145 -43 4 -75 14 -108 35 -82 50 -173 49 -250 -3 -31
-21 -56 -30 -85 -30 -98 0 -204 -56 -252 -134 l-27 -43 -27 43 c-49 77 -154
134 -249 134 -25 0 -55 11 -90 33 -46 28 -60 32 -124 32 -64 0 -78 -4 -124
-32 -35 -22 -65 -33 -90 -33 -96 0 -200 -57 -251 -137 -17 -26 -30 -42 -30
-36 0 6 -18 34 -39 61 -51 64 -123 100 -216 108 -47 5 -77 13 -90 25 -73 66
-212 63 -295 -6 -8 -7 -42 -15 -76 -18 -108 -9 -204 -68 -246 -150 l-14 -28
-29 46 c-52 82 -153 134 -261 135 -28 0 -47 6 -59 20 -54 59 -193 66 -268 13
-32 -22 -58 -31 -103 -35 -86 -8 -156 -42 -209 -100 -25 -28 -45 -54 -45 -59
0 -19 -16 -7 -40 32 -44 71 -158 129 -256 129 -26 0 -46 6 -55 17 -57 68 -241
68 -298 0 -9 -11 -29 -17 -55 -17 -98 0 -212 -58 -256 -129 -24 -39 -40 -51
-40 -32 0 5 -20 31 -45 59 -53 58 -123 92 -209 100 -45 4 -71 13 -103 35 -75
53 -214 46 -268 -13 -12 -14 -31 -20 -59 -20 -108 -1 -209 -53 -261 -135 l-29
-46 -14 28 c-42 82 -138 141 -246 150 -34 3 -68 11 -76 18 -83 69 -222 72
-295 6 -13 -12 -43 -20 -90 -25 -93 -8 -165 -44 -216 -108 -21 -27 -39 -55
-39 -61 0 -6 -13 10 -30 36 -51 80 -155 137 -251 137 -25 0 -55 11 -90 33 -46
28 -60 32 -124 32 -64 0 -78 -4 -124 -32 -35 -22 -65 -33 -90 -33 -95 0 -201
-57 -249 -134 l-27 -43 -27 43 c-49 78 -154 134 -252 134 -29 0 -54 9 -85 30
-77 52 -168 53 -250 3 -33 -21 -65 -31 -108 -35 -104 -10 -202 -69 -242 -145
l-17 -34 -32 49 c-53 83 -150 132 -258 132 -27 0 -47 6 -55 17 -24 28 -92 53
-147 53 -50 0 -113 -23 -152 -55 -8 -7 -42 -15 -76 -18 -66 -5 -153 -38 -180
-68 -25 -28 -31 -24 -39 23 -9 57 -37 119 -73 165 -17 21 -33 54 -37 73 -10
50 -54 127 -88 156 -38 32 -93 60 -137 69 -19 4 -51 19 -70 34 -50 40 -87 57
-153 71 -31 7 -57 16 -57 20 0 4 9 15 19 24 30 27 63 114 69 180 4 45 13 71
35 103 53 75 46 214 -13 268 -14 12 -20 31 -20 59 -1 108 -50 205 -131 258
l-50 32 28 14 c82 42 141 138 150 246 3 34 11 68 18 76 32 39 55 102 55 152 0
55 -25 123 -53 147 -12 9 -17 29 -17 60 0 105 -52 204 -135 259 l-45 30 30 12
c39 16 97 82 122 138 11 24 23 72 26 105 4 43 14 75 39 115 26 45 33 66 33
109 0 57 -17 108 -50 150 -13 16 -20 41 -20 68 0 99 -56 204 -134 253 l-43 27
43 27 c77 49 134 154 134 249 0 25 11 55 33 90 28 46 32 60 32 124 0 64 -4 78
-33 124 -21 35 -32 65 -32 90 0 95 -57 201 -134 249 l-43 27 43 27 c79 50 134
154 134 253 0 27 7 52 20 68 33 42 50 93 50 150 0 43 -7 64 -33 109 -25 40
-35 72 -39 115 -3 33 -15 81 -26 105 -25 56 -83 122 -122 138 l-30 12 45 30
c83 55 135 154 135 259 0 31 5 51 17 60 28 24 53 92 53 147 0 50 -23 113 -55
152 -7 8 -15 42 -18 76 -9 108 -68 204 -150 246 l-28 14 50 32 c81 53 130 150
131 258 0 28 6 47 20 59 59 54 66 193 13 268 -22 32 -31 58 -35 103 -6 66 -39
153 -69 180 -10 9 -19 20 -19 24 0 4 26 13 58 20 65 14 102 31 152 71 19 15
51 30 70 34 44 9 99 37 137 69 34 29 78 106 88 156 4 19 20 52 37 73 36 46 64
108 73 165 8 47 14 51 39 23 27 -30 114 -63 180 -68 34 -3 68 -11 76 -18 39
-32 102 -55 152 -55 55 0 123 25 147 53 8 11 28 17 55 17 108 0 205 49 258
132 l32 49 17 -34 c10 -19 35 -49 55 -67z"/>
</g>
</svg>
