<?xml version="1.0" standalone="no"?>
<!DOCTYPE svg PUBLIC "-//W3C//DTD SVG 20010904//EN"
 "http://www.w3.org/TR/2001/REC-SVG-20010904/DTD/svg10.dtd">
<svg version="1.0" xmlns="http://www.w3.org/2000/svg"
 width="1280.000000pt" height="960.000000pt" viewBox="0 0 1280.000000 960.000000"
 preserveAspectRatio="xMidYMid meet">
<metadata>
Created by potrace 1.15, written by Peter Selinger 2001-2017
</metadata>
<g transform="translate(0.000000,960.000000) scale(0.100000,-0.100000)"
fill="#000000" stroke="none">
<path d="M7025 9419 c-28 -28 -90 -77 -139 -110 -95 -63 -155 -132 -157 -178
0 -14 -4 -35 -8 -46 -7 -17 -12 -13 -34 30 -34 67 -97 125 -186 171 -41 21
-115 67 -165 101 -56 39 -76 50 -51 28 22 -20 94 -72 160 -115 199 -131 231
-175 291 -405 l34 -129 -40 -91 c-21 -50 -51 -122 -65 -160 -58 -154 -151
-352 -207 -438 -32 -51 -71 -116 -85 -144 -15 -29 -30 -53 -34 -53 -4 0 -34
29 -67 65 -40 43 -81 74 -119 92 -32 16 -62 34 -67 42 -6 10 -10 11 -16 1 -4
-6 -16 -10 -26 -8 -15 3 -10 8 19 22 46 23 100 87 117 141 20 63 79 152 133
201 27 24 46 44 43 44 -13 0 -107 -94 -141 -140 -18 -25 -41 -66 -51 -90 -22
-57 -77 -116 -132 -140 -71 -32 -250 -60 -284 -46 -25 11 -51 88 -46 133 5 43
-10 111 -36 161 -10 19 -16 35 -14 36 2 1 31 11 66 21 34 10 60 20 58 22 -2 2
-28 -3 -57 -11 -30 -8 -92 -20 -139 -26 -47 -6 -93 -13 -102 -16 -14 -4 -18 4
-21 53 l-3 58 -2 -61 c-2 -58 -4 -62 -31 -73 -32 -14 -86 -68 -124 -124 -13
-21 -27 -34 -30 -29 -4 5 -11 40 -17 78 -14 85 -6 189 25 310 38 151 88 230
169 271 62 31 118 70 171 119 45 40 34 35 -40 -21 -27 -21 -81 -53 -120 -70
-38 -18 -84 -48 -101 -66 -111 -120 -174 -410 -129 -594 8 -33 14 -70 15 -81
0 -30 -88 -162 -161 -240 -61 -65 -109 -150 -109 -191 0 -34 -17 -28 -29 10
-15 44 -83 109 -151 142 -92 46 -167 103 -272 204 l-99 96 15 89 c9 49 16 101
16 115 0 15 16 56 35 91 40 75 47 107 9 40 -14 -25 -27 -47 -29 -49 -2 -2 -4
82 -5 185 -1 161 -5 213 -30 349 -24 139 -28 149 -23 80 16 -254 25 -566 18
-621 -6 -48 -11 -57 -46 -81 -21 -16 -41 -36 -45 -45 -3 -10 -9 -18 -13 -18
-4 0 -33 52 -64 115 -31 63 -58 115 -61 115 -4 0 50 -131 95 -228 21 -46 17
-68 -10 -56 -9 4 -34 10 -56 15 -127 25 -307 84 -396 130 -23 11 -43 19 -45
16 -7 -7 203 -106 283 -133 104 -34 166 -71 235 -138 l57 -56 -14 -39 c-7 -22
-11 -42 -8 -45 18 -18 -20 -2 -44 18 -52 44 -133 86 -286 147 -404 163 -452
198 -550 401 -39 81 -155 248 -172 248 -3 0 17 -28 43 -62 52 -66 111 -176
133 -243 15 -51 49 -98 108 -152 l46 -43 -60 1 c-58 1 -134 -19 -162 -43 -7
-6 -15 -9 -16 -7 -1 2 -13 27 -26 54 -23 50 -109 195 -116 195 -2 0 19 -42 46
-93 27 -51 55 -112 63 -135 l15 -42 -47 -35 c-26 -19 -73 -48 -105 -66 -32
-17 -56 -33 -54 -36 6 -6 70 27 149 77 34 21 63 38 64 37 1 -1 16 -26 33 -55
30 -51 30 -53 9 -46 -13 4 -30 6 -38 5 -28 -3 -75 -1 -95 5 -19 5 -19 4 -2 -6
10 -7 45 -15 77 -20 67 -9 129 -51 233 -158 l58 -59 -138 19 c-172 22 -325 60
-372 91 -20 13 -67 34 -106 47 -38 13 -94 34 -124 46 -53 24 -54 24 -48 62 5
25 3 32 -3 22 -5 -8 -10 -23 -10 -32 0 -22 -2 -22 -50 2 -52 27 -52 18 0 -11
34 -19 40 -28 40 -56 0 -19 7 -49 14 -68 14 -32 13 -35 -1 -35 -22 0 -289 155
-333 193 -50 44 -81 90 -96 144 -10 40 -13 43 -13 18 -1 -39 29 -102 69 -148
l32 -37 -49 6 c-26 3 -53 7 -59 9 -29 9 -242 -30 -231 -42 2 -2 33 3 68 12 35
8 89 15 119 15 71 0 171 -24 186 -44 6 -9 14 -13 17 -10 5 5 197 -103 197
-111 0 -2 -26 -11 -57 -20 -66 -19 -64 -20 -109 68 -14 27 -27 47 -30 45 -2
-3 9 -31 26 -64 16 -32 30 -64 30 -71 0 -6 -16 -17 -36 -23 -19 -7 -33 -14
-31 -17 3 -2 21 3 41 11 19 8 38 12 40 8 2 -4 19 -43 36 -87 18 -44 36 -85 42
-92 5 -7 7 -17 3 -23 -3 -5 -2 -10 3 -10 6 0 21 -17 33 -37 13 -21 27 -42 30
-48 5 -6 -11 -9 -42 -7 -41 3 -55 0 -84 -22 -19 -15 -61 -40 -92 -57 -77 -40
-27 -27 63 17 77 37 120 42 162 20 31 -16 166 -153 202 -205 l24 -34 -50 -45
c-44 -41 -45 -51 -1 -14 16 14 21 12 64 -29 81 -77 106 -112 64 -90 -30 16
-91 28 -351 66 -135 19 -310 46 -390 60 -80 13 -192 26 -250 29 l-105 5 105
-14 c107 -15 233 -41 260 -55 15 -8 -15 -16 -90 -23 -19 -2 28 -4 105 -5 143
-1 505 -46 627 -77 52 -14 146 -50 157 -60 4 -4 -48 -66 -102 -123 -12 -13
-37 -32 -54 -43 l-33 -21 -26 21 c-15 12 -32 21 -38 21 -25 0 -135 60 -201
109 l-70 52 65 -60 c36 -33 91 -75 123 -93 126 -71 130 -69 -118 -64 -161 3
-197 2 -135 -4 47 -5 128 -14 180 -20 63 -8 111 -8 142 -2 55 11 78 -5 78 -52
0 -15 11 -47 24 -71 14 -24 34 -72 45 -107 12 -37 20 -53 20 -38 0 14 -10 57
-23 95 -14 39 -23 71 -21 73 2 2 17 -33 34 -78 32 -81 67 -227 58 -236 -3 -3
-40 12 -83 33 -44 22 -118 54 -166 73 l-88 35 -1 65 c-1 84 -16 128 -17 48 -1
-76 -9 -101 -30 -92 -10 4 -118 39 -242 79 -364 117 -384 128 -440 234 -17 32
-54 80 -83 107 l-51 49 41 -46 c22 -25 55 -75 72 -112 20 -42 48 -80 78 -107
42 -36 44 -41 21 -35 -39 10 -161 -13 -227 -42 -31 -14 -108 -43 -171 -64 -63
-21 -110 -38 -104 -39 16 0 204 56 289 86 44 16 102 28 155 31 98 6 130 -1
470 -113 l195 -63 1 -46 c2 -50 2 -50 -28 -34 -12 7 -108 15 -217 20 -108 5
-227 13 -266 18 -38 6 -71 8 -73 7 -7 -7 101 -26 232 -41 207 -24 278 -36 318
-52 l36 -15 -18 -51 c-10 -29 -39 -106 -64 -171 -26 -66 -52 -150 -58 -187
l-12 -67 -45 28 c-33 20 -65 29 -114 33 -66 6 -126 28 -177 64 -22 16 -23 16
-12 1 27 -34 110 -78 178 -95 38 -9 81 -25 97 -35 33 -24 57 -77 57 -130 l0
-39 -127 5 c-147 6 -223 23 -308 70 -85 48 -222 116 -232 116 -4 0 35 -24 87
-53 52 -28 111 -64 130 -78 40 -30 139 -69 175 -69 14 0 25 -4 25 -10 0 -5 -8
-10 -18 -10 -27 0 -71 -51 -78 -90 -8 -41 -36 -101 -71 -150 l-24 -35 31 35
c18 19 47 67 65 105 18 39 44 79 57 91 35 31 94 44 202 44 l96 0 -1 -102 c0
-57 -4 -112 -8 -122 -7 -18 -9 -16 -19 11 -13 39 -103 173 -128 193 -13 10
-11 4 7 -20 39 -55 74 -120 98 -183 27 -74 27 -88 -2 -57 -12 14 -35 37 -52
50 -27 22 -26 20 6 -15 61 -68 79 -97 79 -125 0 -26 -2 -27 -67 -33 -38 -4
-113 -12 -168 -18 -55 -6 -143 -9 -195 -6 -71 4 -85 3 -55 -4 22 -5 138 -12
257 -16 169 -4 218 -9 218 -19 0 -21 -31 -25 -110 -14 -41 5 -133 10 -205 10
-191 0 -278 30 -360 122 -70 78 -265 212 -282 194 -4 -3 -1 -6 5 -6 16 0 141
-87 184 -128 20 -19 51 -56 69 -82 32 -47 96 -96 153 -116 l30 -11 -33 -11
c-49 -17 -107 -68 -150 -131 -37 -53 -115 -133 -191 -194 -48 -39 -18 -23 57
30 35 25 96 81 138 125 130 141 173 158 385 157 179 -1 195 -8 99 -42 -41 -15
-92 -34 -114 -42 -82 -31 24 -4 127 31 98 34 151 41 177 25 13 -8 13 -12 1
-28 -40 -52 -70 -78 -115 -99 -60 -29 -36 -32 29 -4 l46 19 -16 -32 c-41 -80
-88 -139 -127 -159 -35 -17 -69 -21 -246 -29 -338 -15 -353 -24 -55 -32 174
-5 270 -4 288 3 35 13 33 14 39 -19 3 -16 30 -57 59 -91 80 -94 121 -144 141
-171 l18 -24 -12 25 c-7 14 -45 76 -86 139 -81 127 -88 157 -49 206 24 30 25
30 139 33 l116 4 20 -33 c12 -19 33 -63 48 -98 27 -62 27 -64 7 -79 -14 -11
-15 -13 -2 -9 12 4 20 -4 31 -31 18 -44 16 -48 -15 -29 -12 8 -49 22 -82 32
-32 9 -83 27 -114 41 -104 46 -63 17 71 -49 118 -59 217 -125 217 -146 0 -4
-29 -18 -65 -31 -43 -16 -88 -44 -137 -87 -40 -34 -79 -62 -86 -63 -12 0 -270
189 -392 288 -30 24 27 -37 128 -136 l183 -180 -53 -17 c-29 -10 -111 -45
-181 -78 l-128 -60 -41 29 c-49 34 -105 103 -168 205 -25 40 -89 118 -144 173
-54 56 -80 80 -58 54 75 -85 133 -172 174 -258 42 -87 91 -158 137 -197 23
-20 24 -23 7 -23 -50 0 -138 -39 -219 -97 -49 -34 -105 -67 -125 -73 -53 -14
-229 -12 -355 5 -131 17 -232 45 -329 89 -73 34 -281 106 -302 105 -6 0 32
-17 84 -38 52 -20 145 -63 205 -94 61 -31 129 -62 153 -69 50 -15 53 -24 11
-33 -43 -10 -102 -66 -159 -150 -50 -75 -125 -156 -200 -219 l-45 -38 50 33
c52 34 167 146 272 265 54 62 67 72 113 82 30 7 57 9 64 4 6 -5 37 -30 69 -55
31 -26 115 -84 185 -131 169 -112 183 -127 192 -213 3 -37 4 -90 2 -116 -4
-42 -9 -52 -36 -68 -17 -10 -49 -19 -72 -19 -48 0 -149 -47 -185 -86 -26 -29
-18 -26 50 19 35 24 57 31 115 35 39 2 79 8 88 13 13 7 20 0 33 -36 10 -24 15
-51 12 -59 -3 -8 -30 -27 -59 -42 -29 -15 -68 -40 -86 -55 -28 -25 -41 -29
-92 -29 -32 0 -105 -9 -162 -19 -204 -39 -288 -36 -398 12 -70 30 -178 56
-255 61 -38 3 -59 3 -45 0 119 -23 177 -41 255 -78 84 -40 149 -62 203 -68 21
-3 18 -7 -26 -41 -32 -24 -65 -63 -91 -106 -49 -83 -63 -95 -98 -86 -39 9
-272 6 -313 -5 -27 -7 -19 -8 37 -4 70 6 244 -11 272 -26 11 -6 1 -22 -40 -66
l-54 -59 67 58 c60 52 69 56 93 47 39 -15 148 -12 188 5 20 8 39 15 41 15 3 0
-8 -24 -23 -54 -16 -29 -34 -77 -42 -106 l-13 -53 -71 6 c-46 3 -102 17 -160
40 -89 34 -255 78 -291 76 -11 0 22 -12 71 -27 50 -16 135 -49 190 -74 55 -25
116 -49 135 -53 64 -13 63 -17 -17 -90 l-77 -70 -143 3 c-141 3 -295 -15 -333
-39 -12 -9 -12 -10 3 -5 59 18 203 27 287 17 143 -18 142 -16 55 -90 -41 -34
-75 -65 -75 -67 0 -2 43 27 95 66 90 67 97 70 150 70 31 0 55 -4 55 -10 0 -6
-14 -47 -31 -91 -26 -67 -36 -82 -62 -93 -28 -12 -29 -14 -7 -11 14 1 36 7 50
12 25 10 25 10 28 -43 3 -46 -9 -133 -33 -254 -3 -14 6 9 20 50 14 41 32 118
41 170 8 52 17 96 19 99 2 2 65 7 138 11 106 5 143 11 176 27 36 18 41 19 35
5 -4 -10 -9 -38 -12 -64 -3 -37 1 -57 21 -93 35 -61 49 -109 57 -185 l7 -65 1
85 c1 64 -4 99 -19 140 -46 122 -34 173 64 268 l54 54 50 -15 c51 -15 134 -55
167 -80 19 -14 18 -17 -27 -80 -25 -35 -84 -100 -129 -143 -69 -65 -75 -72
-33 -43 27 19 94 78 148 131 85 83 102 96 118 87 23 -12 23 -13 0 -107 -11
-43 -25 -112 -32 -155 l-13 -78 -67 -57 c-36 -31 -75 -62 -85 -69 -18 -12 -18
-12 1 -6 l20 6 -20 -24 c-11 -13 -1 -7 22 13 41 36 162 103 170 94 11 -11 -86
-245 -115 -279 -8 -9 -53 -36 -98 -59 -83 -42 -83 -42 -104 -23 -12 11 -38 51
-57 89 -43 85 -71 128 -145 228 -74 98 -94 111 -32 21 26 -37 69 -115 96 -173
27 -58 60 -126 73 -153 13 -27 19 -50 13 -53 -5 -3 -118 -8 -251 -10 -283 -5
-409 -21 -177 -23 80 -1 185 -8 235 -16 52 -8 114 -12 147 -8 63 6 72 -2 36
-33 -82 -71 -223 -143 -338 -173 -48 -13 -64 -20 -45 -20 40 -1 172 33 246 63
66 27 65 15 -6 -37 -22 -17 -31 -27 -21 -23 32 11 157 98 163 112 15 41 206
46 367 9 60 -13 111 -27 114 -30 3 -2 -15 -14 -39 -25 -24 -11 -35 -18 -24
-15 97 29 97 29 160 -3 33 -16 83 -48 110 -71 48 -39 136 -81 173 -81 26 0
-133 -144 -203 -184 -33 -19 -107 -51 -165 -72 -92 -33 -117 -37 -201 -38 -94
-1 -96 0 -190 46 -83 42 -246 95 -256 84 -3 -2 20 -12 49 -21 76 -25 137 -57
195 -104 68 -53 119 -65 246 -58 176 10 336 74 462 186 80 70 159 119 319 199
l151 75 74 -39 c41 -22 102 -56 135 -78 64 -41 172 -86 206 -86 26 0 25 -14
-2 -37 -13 -10 -40 -44 -61 -76 -22 -34 -56 -69 -81 -85 -79 -49 -82 -52 -27
-31 67 25 103 49 161 109 51 52 110 82 219 113 64 18 105 21 266 22 159 0 196
3 224 18 42 21 38 22 45 -8 8 -33 66 -59 178 -79 100 -18 255 -69 277 -91 13
-13 6 -23 -57 -85 -40 -38 -72 -77 -72 -87 0 -14 3 -14 23 4 12 11 47 35 78
53 57 33 96 79 91 105 -2 10 6 15 25 15 41 0 115 25 160 53 68 43 142 77 231
107 48 16 80 29 71 29 -33 2 -210 -48 -296 -83 -137 -55 -165 -55 -315 -7 -69
23 -168 51 -220 62 -137 30 -137 30 -33 143 48 52 138 141 201 197 126 111
148 138 159 186 3 18 13 33 20 33 25 0 37 39 31 103 -8 88 -8 86 6 148 11 51
21 66 114 165 56 60 105 106 109 102 4 -3 13 -28 21 -55 13 -46 14 -46 8 -8
-3 22 -8 49 -11 59 -6 21 -4 20 162 -2 l50 -7 -3 -135 c-1 -74 -7 -168 -13
-208 -6 -41 -9 -76 -6 -78 7 -7 47 193 47 236 0 22 4 40 8 40 18 0 46 -42 58
-87 l13 -48 0 39 c1 22 -10 62 -24 92 -14 29 -28 73 -31 97 -6 40 -4 45 17 50
13 4 41 7 61 7 36 0 37 0 66 -77 63 -163 77 -216 76 -288 -1 -61 -6 -78 -39
-135 -20 -36 -51 -85 -69 -110 -18 -25 -36 -52 -40 -60 -8 -13 -7 -13 6 0 22
23 110 130 140 171 16 21 32 63 40 103 l14 67 23 -25 c37 -39 129 -63 267 -70
67 -3 128 -8 137 -11 12 -5 14 -23 11 -98 -27 -640 -64 -805 -270 -1219 -76
-151 -82 -168 -66 -177 41 -22 310 -34 727 -34 408 1 625 11 658 30 12 7 4 34
-45 161 -73 190 -130 403 -158 592 -12 80 -48 282 -81 450 l-60 304 7 346 c3
190 8 347 10 349 2 2 35 -17 74 -43 38 -25 70 -44 70 -42 0 2 -31 27 -70 56
-38 29 -70 57 -70 63 0 7 15 83 34 170 l33 157 -32 133 c-18 72 -35 175 -39
227 -4 52 -16 160 -27 239 -10 79 -17 147 -14 149 3 3 16 0 30 -6 14 -7 40
-12 58 -12 77 0 212 -59 322 -140 57 -42 115 -104 115 -123 0 -14 67 -157 74
-157 2 0 -7 30 -20 68 -13 37 -24 78 -24 92 0 14 -8 36 -17 50 -15 21 -15 23
-1 17 19 -7 101 -21 209 -37 42 -6 105 -20 140 -30 34 -11 65 -18 67 -16 10
11 -137 55 -328 101 -79 19 -141 46 -227 101 -89 57 -165 91 -243 109 -105 25
-160 45 -160 58 0 37 57 238 101 355 80 212 87 225 134 235 22 5 85 19 139 33
95 22 101 23 119 6 19 -16 20 -16 9 4 -11 20 -7 22 81 42 51 12 175 32 277 46
102 14 233 34 290 45 58 11 132 21 165 23 l59 3 12 -42 c15 -52 77 -147 204
-318 53 -71 100 -136 104 -143 5 -8 -8 -27 -36 -53 l-43 -41 47 37 46 36 36
-60 c43 -74 78 -153 160 -363 99 -252 139 -340 216 -469 40 -65 74 -119 76
-119 11 0 -15 67 -79 205 -38 83 -119 276 -179 430 -60 154 -127 309 -149 344
-22 35 -39 64 -37 65 29 20 107 59 155 79 80 33 139 81 168 137 l23 45 11 -41
c17 -65 59 -131 108 -172 24 -20 73 -71 108 -112 105 -124 108 -127 74 -76
-40 62 -109 148 -164 206 -43 45 -99 143 -93 162 2 5 24 -16 50 -49 25 -32 74
-80 108 -108 51 -41 69 -65 107 -140 78 -154 78 -152 36 -242 -47 -102 -63
-190 -50 -280 16 -115 14 -203 -8 -258 -27 -69 -70 -141 -117 -195 -45 -51
-178 -246 -178 -261 0 -16 -82 -46 -159 -58 -72 -11 -205 -50 -197 -58 2 -2
28 3 58 12 29 9 89 18 133 21 83 6 157 27 176 50 19 23 29 16 29 -21 0 -48 21
-95 63 -141 41 -46 64 -89 88 -164 21 -65 25 -47 5 25 -15 60 -39 108 -76 155
-37 48 -54 103 -46 153 13 80 155 242 234 268 20 6 49 26 64 43 l26 31 22 -47
c11 -26 42 -83 67 -125 71 -120 190 -371 207 -439 17 -65 12 -128 -19 -264 -8
-36 -17 -110 -20 -165 l-4 -100 13 105 c8 58 26 141 42 185 22 62 28 99 29
162 l0 82 20 -23 c29 -35 103 -73 155 -81 72 -11 151 -35 213 -66 31 -16 57
-27 57 -25 0 12 -131 76 -195 96 -141 44 -159 53 -208 103 -35 36 -70 92 -129
211 -44 88 -100 196 -124 238 -24 43 -44 80 -44 83 0 23 108 -44 183 -113 33
-31 44 -38 33 -21 -22 35 -139 133 -198 167 -53 30 -65 53 -98 195 -27 116
-26 129 15 291 22 87 35 163 35 203 l0 65 48 -35 c26 -19 70 -42 97 -51 83
-27 150 -72 250 -167 144 -139 196 -242 181 -367 -7 -58 10 -252 25 -287 6
-13 7 -5 3 25 -9 57 -6 232 4 285 8 42 -6 134 -26 172 -17 32 -16 33 25 12 21
-10 48 -19 60 -19 28 0 28 0 3 -125 -11 -55 -22 -154 -24 -220 -5 -123 -4
-122 15 28 10 84 61 292 74 306 4 3 52 6 108 6 l101 0 54 -145 c29 -80 57
-170 61 -200 6 -35 9 -44 10 -24 2 47 10 47 51 -4 21 -26 54 -62 74 -81 27
-27 43 -56 67 -128 17 -52 33 -92 36 -89 3 2 -3 28 -12 55 -9 28 -15 56 -13
62 2 7 30 -23 62 -65 32 -42 61 -76 63 -76 5 0 -50 82 -104 152 -27 35 -43 67
-43 85 0 15 -5 46 -9 68 l-9 40 65 -70 c36 -38 86 -98 110 -132 25 -35 47 -63
49 -63 3 0 2 6 -2 13 -42 69 -85 132 -126 185 -27 34 -64 91 -84 127 -41 74
-165 367 -159 373 16 16 492 -209 803 -379 96 -54 53 -22 -100 74 -287 177
-524 298 -662 339 -76 22 -80 25 -117 80 -21 31 -56 77 -78 101 -51 60 -95
139 -115 207 l-16 54 42 -39 42 -40 -44 53 -43 54 -6 121 c-3 67 -5 144 -3
171 l3 49 31 -34 30 -34 -31 41 c-27 37 -30 46 -24 91 5 49 -15 140 -40 171
-7 9 0 12 33 12 38 0 55 -9 159 -88 64 -49 148 -108 187 -131 39 -24 91 -63
115 -87 l44 -45 0 -207 0 -207 49 -102 c28 -56 52 -101 54 -99 2 3 -13 45 -33
96 -20 50 -35 96 -33 102 2 6 19 -10 38 -35 19 -24 61 -61 93 -82 62 -41 140
-121 193 -199 19 -28 34 -47 34 -42 0 22 -99 151 -158 206 -37 34 -84 78 -104
96 -71 67 -82 105 -89 319 -6 205 -15 247 -72 330 l-27 40 68 6 c37 4 99 19
137 34 67 27 69 27 82 9 7 -10 40 -59 72 -109 33 -49 102 -135 154 -191 l95
-100 -13 -65 c-7 -35 -15 -98 -18 -139 -6 -74 -6 -73 13 30 10 58 23 116 28
129 9 24 9 24 35 -20 37 -63 49 -136 37 -216 -7 -43 -7 -90 0 -147 10 -84 37
-192 46 -183 2 2 1 15 -4 28 -5 13 -15 58 -22 100 -10 61 -10 88 1 150 20 109
16 206 -11 259 l-22 43 38 -23 c47 -27 151 -32 259 -12 41 8 103 11 150 8 62
-4 71 -3 40 4 -22 5 -116 8 -210 7 -169 -2 -170 -2 -225 26 -78 41 -85 50 -72
84 14 34 17 135 7 183 l-8 35 34 -32 c44 -42 108 -69 194 -82 96 -15 157 -35
234 -76 36 -20 55 -27 41 -16 -48 38 -170 92 -257 114 -112 29 -180 64 -229
120 -50 57 -168 262 -161 280 3 8 53 48 111 90 120 85 154 97 355 118 91 10
138 10 230 0 202 -22 209 -21 91 4 -63 14 -132 28 -152 32 -21 3 -38 8 -38 12
1 10 152 80 216 101 32 10 52 19 44 19 -23 1 -156 -37 -226 -64 -53 -21 -252
-75 -277 -75 -5 0 -5 5 -1 11 3 6 -7 4 -22 -4 -16 -8 -63 -22 -104 -32 -86
-21 -172 -53 -236 -89 -24 -13 -46 -21 -48 -17 -3 4 -15 34 -27 67 -24 64 -78
140 -123 172 l-28 20 48 7 c90 12 101 16 170 66 64 46 70 48 82 32 25 -35 134
-163 139 -163 2 0 -4 11 -14 23 -70 90 -113 151 -113 161 0 30 92 59 355 112
245 50 279 55 365 51 67 -4 115 -13 165 -31 38 -14 71 -24 72 -22 8 8 -125 59
-182 69 l-65 12 105 34 c59 18 104 35 102 37 -2 2 -57 -9 -123 -26 -65 -16
-213 -46 -329 -65 -309 -53 -386 -71 -435 -99 -25 -14 -48 -26 -52 -26 -4 0
-16 17 -27 38 -25 48 -80 100 -128 122 l-38 17 35 7 c55 12 140 73 198 142 29
35 68 75 86 89 l34 26 127 -26 c127 -26 201 -31 89 -6 -32 7 -88 22 -124 33
l-65 20 35 31 c33 28 28 27 -35 -12 -15 -10 -33 -11 -65 -4 l-45 10 38 16 c21
9 89 67 155 132 64 64 142 135 172 158 68 50 81 63 55 49 -34 -17 -147 -103
-200 -151 l-50 -46 -235 9 c-199 8 -241 7 -276 -6 l-42 -15 -5 48 c-4 29 -27
89 -61 156 -30 59 -55 105 -55 102 -1 -4 18 -53 41 -110 55 -134 57 -192 11
-259 -39 -57 -70 -86 -107 -99 -15 -6 -52 -28 -82 -47 l-55 -36 -132 37 c-156
43 -257 77 -257 86 0 3 40 8 88 11 73 4 102 11 168 41 43 19 104 40 134 46 30
6 64 13 75 15 11 2 2 4 -20 5 -43 1 -145 -25 -240 -61 -49 -18 -80 -22 -175
-23 l-115 0 -90 54 c-49 30 -145 92 -212 137 -67 46 -145 93 -172 105 l-50 22
25 36 c16 25 24 49 24 80 0 93 70 181 176 221 88 33 213 64 222 56 4 -4 8 -67
10 -139 1 -73 9 -157 17 -187 l14 -55 -7 65 c-7 67 -8 135 -3 231 2 30 1 64
-3 76 -6 18 6 24 123 63 130 43 130 43 253 38 87 -3 114 -1 93 5 -17 6 -116
11 -221 11 l-191 1 -67 34 c-67 34 -250 196 -298 264 -21 29 -18 28 42 -16 36
-26 73 -52 83 -58 34 -19 16 -1 -38 40 -30 22 -73 59 -96 80 l-43 39 43 65
c23 35 50 72 61 82 22 20 29 20 476 -30 375 -42 435 -60 561 -167 l48 -42 -45
48 c-25 27 -72 66 -104 87 l-59 39 109 0 c166 0 157 16 -13 23 -81 3 -292 23
-468 45 -176 22 -353 43 -393 47 -40 4 -71 10 -69 14 28 52 70 152 74 178 3
18 7 33 10 33 2 0 36 -16 76 -35 73 -36 74 -34 2 11 l-40 25 34 -7 c18 -3 65
-19 105 -36 98 -40 238 -89 243 -85 2 2 -18 12 -44 22 -27 10 -97 42 -157 71
-59 30 -115 54 -123 54 -34 0 2 19 50 25 82 12 136 7 202 -19 63 -26 146 -48
95 -26 -14 6 -56 27 -95 45 -38 19 -78 35 -88 37 -21 4 265 149 341 173 29 9
51 19 49 22 -8 8 -155 -46 -275 -101 -119 -54 -193 -81 -314 -114 l-66 -19 -7
61 c-4 34 -13 88 -21 121 -7 33 -14 93 -14 133 0 53 -3 71 -12 66 -8 -5 -9
-53 -5 -175 3 -93 3 -170 -1 -173 -4 -2 -35 17 -69 43 -34 27 -90 61 -125 76
-62 27 -63 28 -63 66 0 25 -8 46 -22 61 -12 13 -31 43 -42 68 -17 38 -21 41
-21 19 0 -14 11 -48 25 -75 29 -57 31 -79 9 -88 -26 -10 -147 -7 -231 6 -43 7
-95 12 -115 12 l-37 0 19 31 c10 16 43 85 73 152 54 121 160 317 176 328 5 2
44 -4 86 -15 47 -12 106 -19 149 -18 l71 1 -75 7 c-93 9 -172 27 -196 44 -17
13 -17 16 9 55 16 23 44 60 64 81 l35 40 85 -80 c46 -44 94 -85 106 -92 12 -6
-13 22 -56 61 -42 40 -86 86 -97 101 l-21 29 48 21 c27 12 91 28 143 36 99 15
228 45 270 64 28 12 32 12 -100 -16 -36 -7 -108 -17 -160 -20 -72 -5 -110 -13
-157 -34 -57 -26 -63 -27 -76 -12 -19 21 -39 147 -38 227 2 72 25 170 57 244
14 30 23 56 21 58 -2 2 -18 -27 -35 -64 -32 -71 -62 -171 -62 -210 0 -13 -4
-23 -10 -23 -13 0 -60 157 -61 206 -1 21 -5 53 -10 69 -11 42 -1 -106 12 -170
6 -27 18 -71 27 -97 14 -44 14 -51 0 -81 -32 -68 -142 -113 -381 -157 -61 -12
-132 -29 -157 -39 -25 -10 -88 -29 -142 -42 -92 -22 -98 -22 -140 -6 -23 10
-54 26 -67 36 l-25 19 42 66 c52 84 46 86 -9 4 -23 -35 -43 -64 -45 -66 -1 -2
-27 13 -58 34 l-57 37 38 41 38 41 -40 -37 c-23 -21 -46 -38 -52 -38 -6 0 -17
26 -23 58 -6 31 -13 66 -15 78 -9 44 122 135 218 151 32 6 78 6 104 2 27 -4
113 -10 193 -13 l145 -5 -126 14 c-69 8 -155 21 -191 29 -73 17 -163 9 -216
-18 -43 -22 -45 -21 -22 23 29 58 35 137 17 218 -9 37 -18 80 -20 96 l-4 27
76 2 c46 1 58 3 31 5 -99 7 -110 11 -110 43 0 16 9 44 20 62 20 35 110 245
110 256 0 4 -28 -49 -62 -118 l-62 -125 -6 40 -7 40 -2 -48 c0 -26 -10 -66
-21 -87 l-20 -40 -38 16 c-27 11 -53 14 -95 9 -71 -8 -82 -2 -62 33 32 57 55
125 55 162 0 52 26 186 50 256 11 31 18 59 16 61 -10 10 -71 -193 -86 -289
-12 -77 -57 -190 -74 -185 -6 2 -28 28 -48 57 -51 71 -49 53 2 -22 l40 -60
-59 -58 c-33 -32 -101 -87 -153 -123 -97 -67 -211 -130 -192 -106 25 33 192
267 213 299 21 34 21 34 -11 -4 -18 -22 -67 -80 -108 -128 -41 -49 -94 -114
-118 -146 -55 -73 -70 -82 -93 -53 -10 12 -35 27 -56 33 -22 6 -54 27 -77 51
-26 27 -35 33 -26 16 17 -33 71 -89 86 -89 6 0 22 -9 35 -20 l24 -20 -45 -42
c-25 -24 -53 -54 -62 -68 l-17 -25 1 50 c1 72 -16 132 -62 217 -22 41 -49 100
-59 131 l-20 57 39 85 c22 47 37 85 35 85 -3 0 -21 -32 -41 -72 -26 -51 -38
-68 -44 -57 -4 8 -17 58 -29 112 -36 168 -10 249 107 329 71 48 133 102 175
152 21 26 36 46 35 46 -2 0 -26 -23 -53 -51z m-2598 -521 c-3 -8 -6 -5 -6 6
-1 11 2 17 5 13 3 -3 4 -12 1 -19z m3203 -108 c0 -5 -7 -10 -16 -10 -8 0 -12
5 -9 10 3 6 10 10 16 10 5 0 9 -4 9 -10z m173 -19 l25 -10 -17 -55 c-19 -62
-31 -80 -31 -47 0 22 -39 84 -69 109 -12 10 -8 12 26 12 23 0 53 -4 66 -9z
m-97 -36 c49 -53 57 -96 55 -289 l-2 -170 -96 -100 -96 -101 -136 -58 c-75
-32 -176 -70 -226 -83 -49 -13 -120 -40 -158 -58 -63 -31 -67 -32 -60 -12 4
11 7 82 8 156 0 129 2 138 33 210 17 41 52 110 77 153 43 73 50 79 118 113 76
39 148 85 259 166 67 50 165 107 182 108 5 0 24 -16 42 -35z m180 -62 c14
-133 8 -208 -22 -263 -15 -27 -37 -59 -50 -71 l-24 -22 0 37 c0 144 53 417 78
402 5 -3 13 -40 18 -83z m-1028 -110 c41 -78 56 -150 48 -226 -9 -73 -55 -243
-125 -455 -57 -172 -85 -232 -107 -232 -25 0 -136 40 -194 70 -30 16 -70 32
-87 35 -34 7 -37 13 -27 52 6 23 7 23 58 -13 l51 -36 -49 44 -48 43 25 50 c13
28 54 98 90 157 35 59 88 162 116 230 65 154 94 204 129 222 15 8 38 29 51 48
l24 33 -24 -21 c-27 -24 -62 -44 -77 -44 -9 0 48 175 65 203 3 5 16 -15 28
-46 13 -30 37 -82 53 -114z m162 -248 c-57 -125 -71 -178 -69 -270 2 -135 0
-148 -31 -210 -26 -54 -176 -232 -186 -222 -3 2 9 33 25 68 17 35 65 179 106
319 42 140 88 275 102 300 26 45 83 113 90 106 2 -2 -14 -43 -37 -91z m-1358
21 c14 -36 18 -69 16 -135 -1 -63 2 -95 14 -118 l16 -33 -94 0 -94 0 0 33 c0
19 -11 65 -24 103 -13 38 -27 92 -31 121 -8 58 -7 59 90 73 80 12 86 10 107
-44z m-1253 -26 c-4 -30 -11 -66 -14 -78 l-6 -24 -19 25 c-28 35 -25 61 11
102 18 20 33 34 34 33 2 -2 -1 -28 -6 -58z m1045 -24 c3 -30 15 -83 26 -118
11 -34 20 -75 20 -89 0 -25 -2 -26 -70 -31 -49 -4 -86 -13 -121 -32 l-51 -26
7 22 c4 13 9 52 12 87 6 74 49 158 108 210 51 44 61 41 69 -23z m-1578 -96
c286 -120 327 -140 404 -204 43 -35 60 -55 60 -73 0 -13 9 -41 20 -63 11 -22
20 -41 20 -44 0 -3 -22 4 -49 15 -34 15 -59 34 -81 65 -37 52 -47 58 -20 12
l19 -33 -162 -3 -162 -3 -63 30 c-57 28 -175 94 -229 129 -13 8 -23 12 -23 9
0 -3 48 -38 108 -78 59 -39 109 -73 112 -76 3 -2 -24 -1 -60 2 l-65 7 -114
112 c-62 61 -134 142 -158 180 -52 79 -50 88 33 111 95 28 147 16 410 -95z
m438 15 c5 -13 -1 -12 -24 5 -41 29 -48 45 -12 26 16 -8 32 -22 36 -31z m3456
-12 c0 -10 3 -34 6 -55 l6 -36 -66 -4 c-36 -1 -66 -1 -66 2 0 8 104 110 112
110 4 0 8 -8 8 -17z m1162 -58 l3 -55 -35 6 c-74 12 -75 14 -36 41 19 14 38
34 41 44 12 35 23 19 27 -36z m-4557 34 c11 -17 -1 -21 -15 -4 -8 9 -8 15 -2
15 6 0 14 -5 17 -11z m130 -120 c98 -89 179 -149 270 -199 85 -47 129 -92 150
-154 l18 -53 -36 -72 -36 -72 -15 33 c-20 47 -77 99 -182 168 -74 49 -93 66
-98 90 -8 44 -60 144 -122 236 -52 77 -64 104 -46 104 5 0 49 -36 97 -81z
m-1517 -8 c63 -27 121 -56 130 -63 33 -24 72 -62 72 -69 0 -4 -25 -19 -57 -33
-69 -32 -66 -44 4 -14 28 11 58 18 66 15 16 -6 41 -81 52 -157 l6 -45 -53 56
c-29 32 -91 81 -138 111 -122 79 -184 131 -203 171 -20 42 -23 92 -4 84 6 -3
63 -28 125 -56z m2233 -42 c-20 -53 -153 -240 -206 -289 l-27 -25 8 30 c13 55
55 126 109 185 30 32 71 84 92 115 43 66 52 60 24 -16z m2563 62 c16 -6 4 -20
-73 -87 -112 -96 -175 -139 -218 -149 -36 -7 -43 4 -17 25 8 8 33 44 55 81 56
97 84 127 122 132 55 7 111 6 131 -2z m1121 -3 c14 -6 25 -14 25 -17 0 -26
-28 -97 -58 -149 l-37 -64 -50 5 c-46 4 -55 1 -105 -34 -46 -32 -69 -61 -133
-164 -92 -146 -174 -232 -261 -275 -56 -27 -346 -112 -355 -104 -8 7 33 133
66 199 52 103 72 126 167 184 47 29 86 55 86 57 0 5 -126 -62 -149 -80 -19
-14 -17 -11 77 132 41 62 96 135 121 161 58 62 82 66 350 56 125 -5 201 -4
204 2 4 6 -57 12 -160 16 -92 4 -171 11 -177 17 -7 7 -4 10 10 10 10 0 73 13
139 29 130 32 200 38 240 19z m-4473 -75 c50 -75 63 -98 79 -140 8 -22 -7 -11
-65 47 -57 56 -76 81 -76 101 0 25 9 59 15 59 1 0 23 -30 47 -67z m1625 57
c28 0 40 -9 77 -57 25 -31 44 -59 42 -60 -6 -6 -277 66 -319 85 l-42 19 70 7
c39 4 77 9 85 11 8 2 24 1 35 -1 11 -2 35 -4 52 -4z m1870 -37 l22 -15 -26
-51 c-14 -29 -42 -65 -61 -82 -34 -29 -35 -29 -26 -5 5 14 9 64 9 111 l0 87
30 -16 c17 -8 40 -21 52 -29z m-117 -48 c0 -94 -19 -146 -98 -268 -67 -103
-103 -173 -122 -232 -7 -22 -21 -54 -31 -71 -11 -18 -28 -57 -38 -87 -32 -92
-85 -163 -250 -331 -86 -89 -191 -204 -233 -256 -74 -94 -172 -196 -186 -194
-4 0 -36 14 -71 30 l-63 29 6 120 c3 66 1 138 -4 160 -12 51 1 70 141 220 174
187 217 252 233 354 14 92 67 151 258 289 72 52 93 62 127 62 51 0 56 -10 64
-135 11 -148 22 -155 21 -12 0 72 -3 141 -7 152 -5 16 5 28 48 58 29 22 84 72
122 112 37 40 71 73 76 74 4 0 7 -33 7 -74z m1163 32 c-16 -17 -18 -17 -21 -3
-2 10 -1 24 2 33 5 12 9 13 21 3 14 -11 14 -15 -2 -33z m-3473 21 c0 -24 -34
-104 -54 -126 -11 -12 -40 -34 -64 -48 -24 -14 -42 -28 -39 -30 2 -3 22 5 43
18 36 21 32 15 -52 -97 -50 -66 -108 -146 -128 -177 -33 -49 -43 -58 -79 -64
l-42 -8 33 -5 34 -6 -30 -41 c-22 -30 -39 -43 -64 -47 -53 -8 -62 9 -66 124
l-4 100 44 52 c25 29 84 105 132 169 92 125 134 161 213 183 63 17 123 19 123
3z m766 -86 c53 -49 70 -70 66 -85 -4 -17 -6 -17 -26 6 -12 14 -44 45 -72 69
-28 24 -64 58 -80 77 l-28 34 34 -18 c19 -10 67 -47 106 -83z m-671 76 c-11
-6 -35 -25 -54 -42 l-33 -31 7 35 c10 49 11 50 58 50 36 -1 39 -2 22 -12z
m1882 -65 c-54 -81 -101 -127 -222 -218 -49 -38 -103 -80 -119 -94 -42 -38
-91 -119 -104 -172 -24 -95 -65 -145 -290 -352 -38 -35 -64 -52 -67 -45 -2 7
-16 55 -31 107 -23 82 -25 104 -19 175 4 44 11 88 15 97 5 8 87 95 183 191
197 200 213 210 429 282 73 24 162 58 198 74 36 17 67 29 69 27 2 -2 -17 -35
-42 -72z m-1577 16 c69 -21 166 -48 215 -60 50 -11 102 -28 118 -37 29 -17 67
-85 67 -118 -1 -32 -39 -105 -99 -189 -62 -86 -87 -140 -69 -151 6 -4 -22 -17
-61 -29 -40 -13 -141 -57 -224 -98 -181 -90 -297 -137 -336 -137 l-29 0 -4 94
c-2 79 -7 99 -25 125 -28 38 -29 37 3 45 27 7 86 42 145 88 29 22 55 30 145
42 163 23 169 25 52 19 -60 -3 -108 -2 -108 1 0 3 35 24 78 46 42 22 66 38 52
34 -14 -3 -62 -25 -106 -49 -56 -29 -100 -45 -140 -49 -33 -4 -92 -16 -132
-27 -59 -15 -81 -17 -112 -9 -21 6 -58 7 -82 4 l-42 -7 18 29 c61 96 200 278
256 335 57 59 72 68 113 74 34 5 58 3 89 -10 61 -25 169 -55 193 -54 11 0 0 6
-25 13 -25 7 -74 25 -110 41 -36 15 -87 30 -115 34 l-50 6 55 22 c69 28 103
24 270 -28z m2130 7 l53 -25 -34 -5 c-19 -3 -53 -7 -76 -9 l-42 -5 17 34 c8
19 19 34 23 34 4 0 31 -11 59 -24z m-5145 -51 c175 -110 385 -291 385 -333 l0
-25 -78 6 c-88 7 -236 59 -422 150 -17 8 -42 46 -77 117 -29 58 -52 108 -53
112 0 9 69 26 116 27 33 1 57 -9 129 -54z m375 31 c25 -8 40 -15 34 -15 -6 -1
-25 -4 -42 -7 -24 -5 -32 -2 -41 15 -14 25 -10 25 49 7z m4971 -43 c-22 -27
-84 -113 -138 -192 -91 -134 -103 -147 -166 -185 -62 -38 -158 -111 -264 -202
l-43 -37 0 64 c0 71 12 96 83 184 90 109 141 161 176 177 28 13 31 17 14 17
-12 1 -24 5 -28 11 -9 14 51 126 72 135 29 12 216 44 225 39 4 -3 8 -1 8 4 0
8 57 28 88 31 7 0 -5 -20 -27 -46z m-4697 -13 c71 -11 135 -25 142 -31 22 -18
71 -111 79 -149 4 -19 23 -57 42 -83 34 -46 34 -48 12 -43 -71 15 -107 15
-225 1 -187 -22 -207 -21 -247 14 -30 27 -35 39 -46 110 -6 45 -21 106 -31
137 -11 32 -20 59 -20 61 0 10 184 0 294 -17z m1026 -185 c14 -27 27 -54 29
-60 2 -5 -36 28 -84 75 -73 71 -135 157 -135 187 0 20 168 -158 190 -202z
m-738 145 c17 0 21 -20 33 -165 l6 -70 -31 34 c-16 19 -37 58 -46 85 -10 28
-25 64 -36 81 -26 43 -23 48 20 41 20 -3 44 -6 54 -6z m91 -23 c-13 -5 -28
-23 -35 -39 -13 -28 -13 -28 -20 -6 -16 56 -11 64 35 59 37 -3 40 -5 20 -14z
m349 2 c19 -10 54 -77 45 -86 -3 -2 -70 18 -149 46 l-143 50 113 0 c63 1 122
-4 134 -10z m4549 -27 c-5 -9 -30 -53 -56 -97 -26 -44 -81 -149 -121 -233 -40
-84 -90 -180 -110 -214 l-38 -61 -15 24 c-26 39 -83 88 -118 101 -39 14 -41
21 -10 35 70 33 162 144 251 303 26 47 67 102 89 122 36 32 49 37 90 38 42 0
47 -2 38 -18z m-4646 -58 c154 -56 156 -57 182 -101 41 -71 95 -104 256 -158
128 -42 150 -53 186 -89 l41 -42 -12 -106 c-10 -97 -13 -107 -35 -117 -30 -14
-63 -14 -63 -1 0 5 -24 20 -52 32 -118 50 -248 118 -333 174 -50 33 -162 97
-250 142 -209 108 -210 109 -209 181 1 174 24 181 289 85z m196 37 c24 -16 62
-46 84 -65 l40 -36 -30 6 c-83 18 -116 38 -135 82 -11 23 -16 42 -11 42 4 0
27 -13 52 -29z m3423 -81 c-57 -79 -111 -138 -64 -70 77 112 113 160 117 156
3 -3 -21 -42 -53 -86z m-1298 5 c35 -14 91 -32 126 -41 35 -9 64 -17 66 -19 9
-8 -85 -148 -111 -166 -18 -12 -58 -47 -89 -77 l-57 -55 -7 29 c-4 16 -18 52
-32 79 -21 41 -27 68 -30 152 -2 57 -1 110 2 119 8 20 43 15 132 -21z m-3536
-95 c60 -35 121 -59 194 -75 l29 -6 -29 -15 c-42 -22 -73 -54 -96 -98 l-20
-39 -27 34 c-14 19 -58 70 -96 114 -77 87 -135 160 -135 168 0 9 106 -41 180
-83z m1794 -9 c10 -9 27 -29 39 -45 l20 -28 -22 11 c-27 15 -123 99 -134 118
-9 14 60 -26 97 -56z m-290 38 c94 -28 133 -49 181 -98 21 -23 37 -41 34 -41
-3 0 -51 15 -107 34 -102 34 -162 69 -182 106 -13 25 -13 25 74 -1z m1870
-210 c9 -22 16 -41 16 -42 0 -1 -39 2 -87 8 -106 13 -106 13 -25 135 l57 85
12 -73 c6 -40 18 -91 27 -113z m-2501 112 c19 -8 26 -17 25 -38 -1 -43 21
-114 48 -155 13 -21 24 -40 24 -42 0 -3 -19 1 -41 9 -57 20 -139 19 -191 -4
l-43 -18 -113 118 c-63 66 -112 119 -110 120 1 1 55 7 118 14 121 14 240 12
283 -4z m-451 -30 c42 -34 221 -231 214 -238 -3 -3 -43 -16 -88 -29 -100 -27
-74 -31 35 -5 l77 18 49 -66 c68 -92 124 -182 117 -188 -11 -12 -59 9 -96 43
-22 20 -94 64 -160 98 -66 34 -117 65 -113 69 3 4 0 7 -9 7 -24 0 -57 43 -73
96 -19 61 -20 200 -2 207 20 9 23 8 49 -12z m1583 -79 c-3 -3 -12 1 -20 9 -12
12 -13 21 -3 54 l11 40 9 -49 c5 -27 6 -51 3 -54z m-1679 -23 c1 -101 0 -106
-38 -187 -38 -81 -39 -82 -62 -67 -34 23 -78 82 -110 151 l-28 61 28 40 c16
22 43 50 60 61 33 22 122 52 139 48 6 -2 10 -47 11 -107z m749 48 c140 -69
236 -125 323 -189 31 -23 115 -72 189 -110 73 -38 133 -71 133 -73 0 -8 -291
-155 -308 -155 -21 0 -90 87 -128 163 -13 26 -26 47 -29 47 -5 0 10 -41 26
-73 7 -12 -8 0 -31 27 -24 26 -86 84 -139 128 -114 96 -153 145 -175 220 -19
67 -20 78 -3 78 6 0 71 -29 142 -63z m3920 12 c-13 -24 -39 -86 -56 -136 -17
-51 -32 -93 -33 -93 -36 0 -223 -43 -235 -54 -24 -22 -29 -20 -23 9 3 17 42
58 109 118 105 92 254 209 260 203 2 -2 -8 -23 -22 -47z m-2405 9 c-62 -38
-144 -68 -190 -67 -39 0 -42 1 -25 11 29 18 207 77 230 78 15 0 12 -5 -15 -22z
m-265 -7 c30 -6 29 -7 -34 -39 -59 -29 -91 -39 -91 -28 0 3 9 21 21 40 22 38
37 42 104 27z m-470 -11 c3 -6 -1 -7 -9 -4 -18 7 -21 14 -7 14 6 0 13 -4 16
-10z m1747 -100 c-6 -16 -11 -20 -16 -11 -4 6 -2 19 5 27 16 20 21 12 11 -16z
m-1155 10 c36 -13 50 -40 58 -112 3 -29 8 -68 11 -87 5 -32 5 -33 -22 -27 -16
4 -47 25 -70 46 -43 39 -122 85 -131 76 -3 -2 13 -14 34 -24 21 -11 58 -41 82
-67 42 -46 111 -81 135 -69 6 3 -7 -10 -29 -30 -22 -19 -42 -35 -45 -36 -3 0
-41 38 -83 85 -43 46 -104 105 -137 131 -57 44 -59 48 -44 65 46 51 165 75
241 49z m925 -29 c4 -1 14 -8 23 -18 22 -21 15 -86 -30 -293 -52 -239 -79
-328 -123 -416 -39 -78 -43 -82 -111 -118 l-70 -36 -63 35 c-76 43 -180 116
-185 131 -2 6 58 22 149 39 181 35 176 43 -10 17 -120 -16 -133 -17 -128 -3
32 95 110 410 103 417 -2 2 -11 -22 -21 -54 -10 -31 -31 -80 -46 -108 -16 -28
-40 -86 -55 -130 -15 -43 -33 -90 -39 -102 -12 -23 -13 -23 -64 32 -43 47
-172 211 -207 263 -22 32 44 71 450 261 222 104 222 104 427 83z m-3283 -62
c9 -26 8 -28 -7 -20 -10 5 -26 19 -37 31 -16 18 -17 23 -5 30 18 11 36 -3 49
-41z m1995 10 c-8 -13 -24 -1 -24 18 0 13 3 13 15 3 8 -7 12 -16 9 -21z
m-1734 -11 c0 -6 11 -26 25 -44 l24 -32 -37 -4 c-20 -3 -45 -8 -54 -12 -15 -7
-15 -1 5 52 19 53 37 72 37 40z m594 2 c111 -47 259 -172 326 -275 23 -36 40
-68 37 -71 -7 -8 -66 19 -142 65 -63 38 -179 90 -235 106 -14 4 22 -17 80 -47
58 -29 130 -72 161 -96 31 -23 78 -49 105 -57 35 -10 54 -23 65 -44 16 -27 16
-31 -2 -60 -18 -30 -21 -31 -91 -31 -119 0 -131 7 -240 133 -53 62 -116 137
-139 167 -24 30 -70 88 -102 128 -32 41 -57 75 -55 77 35 29 170 32 232 5z
m1086 -13 c0 -18 -2 -19 -10 -7 -13 20 -13 43 0 35 6 -3 10 -16 10 -28z m1539
-9 c11 -24 34 -101 51 -171 27 -109 30 -131 18 -147 -118 -164 -163 -221 -198
-249 -32 -26 -41 -29 -36 -15 13 44 26 120 56 316 28 190 59 308 80 308 5 0
17 -19 29 -42z m1859 14 c18 -13 43 -43 57 -67 l26 -43 -92 -121 c-61 -80 -98
-121 -111 -121 -21 0 -169 56 -244 92 -41 20 -59 23 -112 18 -34 -3 -62 -1
-62 3 0 5 13 28 30 52 16 23 32 61 36 84 6 39 9 42 58 56 28 8 98 28 156 44
128 37 208 38 258 3z m-818 -5 c0 -7 -7 -22 -15 -33 -13 -17 -13 -16 -3 14 13
34 18 40 18 19z m-2426 -44 c24 -21 45 -42 45 -46 1 -7 -119 1 -127 9 -7 5 19
74 28 74 5 0 29 -17 54 -37z m3726 -3 c127 -9 172 -17 225 -40 40 -18 175
-103 175 -112 0 -3 -33 -30 -72 -59 -40 -29 -95 -73 -123 -96 -56 -49 -137
-83 -195 -83 -70 0 -312 51 -306 65 2 7 -9 65 -25 129 l-29 117 22 30 c41 55
76 71 143 64 33 -4 116 -10 185 -15z m-3920 -31 c0 -9 -40 -23 -46 -16 -3 2 1
17 8 32 11 25 13 25 25 9 7 -10 13 -21 13 -25z m2899 -27 c-19 -56 -99 -140
-217 -230 -130 -99 -282 -198 -282 -183 0 5 34 57 76 117 162 232 208 274 328
303 109 26 107 26 95 -7z m-4344 -57 c66 -32 133 -74 168 -104 31 -28 75 -55
95 -61 21 -5 60 -26 85 -46 48 -37 61 -60 30 -50 -40 12 -163 35 -227 41 -62
7 -79 14 -165 70 -53 34 -131 83 -174 109 -42 26 -74 52 -71 58 3 5 20 18 38
29 44 28 90 18 221 -46z m1469 10 c3 -8 8 -37 12 -63 6 -47 5 -50 -32 -81
l-39 -32 -6 28 c-4 16 -7 56 -8 90 -1 56 1 62 22 66 40 8 45 7 51 -8z m216 -5
c80 -11 76 -9 139 -96 28 -38 29 -43 15 -62 -13 -20 -17 -20 -37 -8 -29 19
-123 46 -158 46 -64 0 -99 41 -99 117 0 24 -10 24 140 3z m2320 10 c0 -5 -50
-76 -111 -156 -60 -81 -132 -185 -159 -233 -34 -61 -72 -109 -128 -164 l-80
-77 -29 16 -29 17 105 141 c68 92 160 198 265 304 88 89 161 162 163 162 2 0
3 -4 3 -10z m1016 -125 c25 -85 28 -105 16 -105 -8 0 -54 5 -102 12 l-88 11
67 93 c36 51 68 93 71 93 3 1 19 -46 36 -104z m-5273 47 c108 -78 186 -138
186 -143 1 -4 -24 -10 -54 -14 -37 -4 -94 -26 -176 -67 -96 -48 -123 -57 -130
-47 -14 23 -10 104 7 144 14 35 111 155 124 155 3 -1 22 -13 43 -28z m1479
-19 c25 -29 36 -55 43 -105 l7 -46 -53 -36 c-52 -35 -57 -36 -146 -36 -93 0
-93 0 -133 36 -22 20 -40 39 -40 43 0 10 276 160 296 161 6 0 18 -8 26 -17z
m4575 -42 c-9 -44 -44 -113 -75 -148 -22 -25 -37 -32 -81 -37 l-54 -5 21 22
c12 13 25 38 28 57 10 51 39 87 92 115 64 33 76 32 69 -4z m-4110 -16 c71 -8
126 -31 116 -50 -13 -22 -154 -175 -162 -175 -7 0 -43 103 -67 192 l-12 48 36
-5 c21 -2 60 -7 89 -10z m2826 -16 c40 -17 101 -40 137 -51 36 -11 68 -23 73
-27 4 -4 -13 -39 -38 -77 -25 -38 -54 -87 -64 -109 -11 -22 -31 -66 -46 -98
-42 -91 -43 -91 -242 -127 -60 -11 -155 -33 -212 -50 -96 -29 -113 -31 -251
-29 -90 0 -156 -3 -168 -10 -43 -23 -42 -10 6 96 l37 82 150 102 c82 56 208
148 278 205 122 97 132 103 186 109 31 4 61 8 66 10 6 2 11 4 13 4 2 1 35 -13
75 -30z m-3035 -64 c1 -41 0 -75 -3 -75 -16 0 -65 32 -65 43 0 6 -3 22 -6 34
-5 16 2 27 32 47 21 14 39 26 39 26 0 0 1 -34 3 -75z m415 18 c12 -21 52 -85
90 -142 37 -57 67 -105 65 -107 -2 -2 -35 17 -72 42 -75 50 -83 44 -11 -7 25
-18 45 -35 45 -38 0 -3 -31 -18 -68 -33 -57 -23 -83 -28 -158 -28 l-91 0 -25
63 -25 64 106 111 c58 61 110 111 114 111 4 1 18 -16 30 -36z m-2363 -33 c0
-16 -4 -30 -9 -30 -13 0 -21 27 -15 45 10 25 24 17 24 -15z m1315 10 c3 -5 2
-10 -4 -10 -5 0 -13 5 -16 10 -3 6 -2 10 4 10 5 0 13 -4 16 -10z m4748 -7
c-11 -33 -45 -62 -100 -84 -51 -21 -56 -21 -86 -6 l-32 16 31 0 c40 1 133 42
158 70 23 26 38 27 29 4z m-5713 -23 c0 -5 -18 -28 -40 -50 -22 -22 -38 -40
-35 -40 14 0 86 55 100 76 19 30 56 31 125 5 71 -27 122 -76 226 -220 103
-143 104 -133 -17 -152 -84 -13 -160 0 -228 40 -85 50 -246 110 -259 97 -3 -3
0 -6 7 -6 25 0 162 -62 221 -100 69 -46 156 -73 210 -68 l38 3 -43 -40 c-56
-53 -77 -87 -95 -154 -14 -53 -17 -56 -49 -59 -45 -5 -144 23 -195 55 -23 14
-63 48 -91 77 -27 29 -63 62 -80 75 -23 17 -29 29 -27 54 3 41 -14 124 -45
220 -14 43 -21 82 -17 86 8 8 200 93 234 104 26 9 60 7 60 -3z m417 -16 c124
-25 134 -31 223 -138 98 -118 96 -124 -50 -116 -58 2 -129 47 -158 99 -25 43
-118 133 -163 157 -16 8 -29 17 -29 20 0 7 82 -3 177 -22z m4716 11 c131 -20
308 -60 341 -77 23 -12 16 -14 -72 -15 -157 -2 -366 -60 -543 -149 l-87 -43
13 43 c16 53 68 157 107 214 28 41 31 42 84 42 30 0 100 -7 157 -15z m-4119
-17 c8 -12 13 -25 10 -30 -8 -12 -44 21 -44 39 0 20 17 16 34 -9z m384 10 c-3
-7 -18 -15 -34 -20 l-29 -7 25 19 c29 22 43 25 38 8z m-438 -48 c0 -5 -4 -10
-10 -10 -5 0 -10 5 -10 10 0 6 5 10 10 10 6 0 10 -4 10 -10z m611 -20 c15 -9
69 -97 69 -114 0 -3 -12 2 -27 10 -16 7 -35 14 -44 14 -18 0 -29 28 -29 73 0
30 3 32 31 17z m-246 -25 c-49 -23 -115 -33 -115 -17 0 13 41 31 80 35 82 9
87 6 35 -18z m-115 0 c-7 -8 -23 -15 -35 -15 -12 0 -28 7 -35 15 -11 13 -6 15
35 15 41 0 46 -2 35 -15z m213 -19 c12 -37 -3 -46 -55 -33 l-41 10 34 28 c40
33 50 32 62 -5z m-384 15 c9 -6 -6 -12 -45 -19 -33 -6 -70 -14 -83 -18 -21 -6
-22 -5 -12 14 6 11 21 23 33 25 41 8 93 7 107 -2z m2197 -7 c-3 -9 -6 -38 -6
-65 0 -47 -1 -49 -27 -49 -54 0 -58 13 -19 64 20 26 36 52 36 57 0 5 5 9 11 9
6 0 8 -7 5 -16z m2507 -39 l-36 -56 -43 42 c-24 24 -42 44 -40 47 5 5 94 19
129 21 l27 1 -37 -55z m-4943 38 c0 -5 -7 -16 -14 -25 -12 -16 -15 -16 -36 7
l-23 25 36 0 c20 0 37 -3 37 -7z m63 -33 c-6 -21 -47 -53 -57 -43 -10 11 -7
22 14 43 26 26 50 26 43 0z m4412 -19 c-55 -22 -129 -55 -165 -74 -75 -40
-240 -74 -240 -48 0 22 227 106 380 140 129 29 135 24 25 -18z m309 12 c19 -9
48 -35 64 -57 l30 -41 -37 -72 c-36 -71 -37 -73 -166 -156 -71 -46 -197 -121
-280 -167 -178 -98 -288 -168 -370 -236 -134 -111 -188 -137 -227 -110 -30 21
-146 22 -174 1 -21 -16 -104 -20 -104 -5 0 5 30 45 68 87 111 129 139 167 213
289 95 158 104 168 173 213 46 29 76 41 121 46 106 12 189 36 245 70 31 19 78
44 105 56 55 24 273 97 292 98 7 1 28 -6 47 -16z m-4460 -19 c15 -40 8 -49
-36 -46 -24 2 -82 -1 -130 -5 -68 -7 -88 -6 -88 3 0 46 238 90 254 48z m76 2
c0 -2 -3 -11 -6 -20 -9 -23 -24 -20 -24 4 0 11 7 20 15 20 8 0 15 -2 15 -4z
m100 -26 c-20 -13 -53 -13 -45 0 3 6 18 10 33 10 21 0 24 -2 12 -10z m150 -66
c0 -20 -5 -24 -30 -24 -35 0 -38 12 -10 40 24 24 40 18 40 -16z m730 31 c0 -6
-91 -45 -104 -44 -6 0 12 11 39 25 50 24 65 28 65 19z m-808 -28 c-6 -7 -9
-22 -6 -33 4 -16 -5 -25 -47 -44 -29 -14 -73 -39 -98 -57 -25 -18 -46 -31 -47
-30 -2 1 5 34 15 72 l17 70 73 12 c40 7 76 15 79 18 12 11 24 4 14 -8z m874
-15 c9 -13 4 -30 -24 -80 -34 -62 -35 -63 -54 -45 -28 24 -81 103 -75 109 9
10 122 41 132 37 6 -2 15 -11 21 -21z m954 -2 c17 -4 26 -16 31 -36 3 -16 16
-49 28 -72 12 -24 20 -50 17 -57 -12 -32 -398 -276 -413 -261 -3 2 -7 22 -10
43 -8 62 44 160 154 291 l95 112 37 -6 c20 -4 47 -10 61 -14z m-2073 -8 c10
-6 9 -21 -2 -67 -24 -103 -29 -112 -63 -107 -22 3 -35 14 -53 45 -12 23 -40
61 -62 84 l-38 42 28 4 c51 7 178 7 190 -1z m-1645 -48 c57 -25 132 -61 166
-81 59 -32 63 -37 57 -62 -3 -14 -9 -57 -12 -94 l-5 -69 -27 29 c-15 15 -73
68 -130 118 -113 98 -146 136 -153 178 -3 15 -4 27 -2 27 2 0 50 -20 106 -46z
m2539 19 c13 -15 12 -15 -11 -3 -34 17 -36 20 -18 20 9 0 22 -7 29 -17z m3894
-203 c96 -99 153 -175 142 -186 -3 -3 -45 -13 -93 -23 -49 -10 -106 -26 -128
-35 -48 -20 -46 -20 -46 4 0 10 -10 24 -22 31 -13 6 -38 25 -57 43 l-35 31 18
-30 c10 -16 29 -41 42 -56 13 -14 24 -28 24 -32 0 -3 -25 -34 -55 -68 -55 -62
-85 -128 -85 -190 0 -15 -9 -37 -19 -50 -19 -24 -21 -24 -223 -24 -137 -1
-217 -5 -248 -14 -38 -11 -53 -11 -110 5 -36 9 -67 18 -69 20 -8 7 99 122 176
189 45 40 137 110 204 156 68 46 147 106 178 134 55 51 144 175 154 217 4 13
20 31 37 42 17 10 29 20 26 23 -3 3 -12 0 -21 -7 -18 -15 -19 -7 -5 21 10 18
15 15 63 -38 28 -32 97 -105 152 -163z m-5179 161 l-16 -30 -46 14 c-72 21
-74 32 -8 45 33 6 64 13 69 14 17 5 17 -11 1 -43z m957 -16 c32 -35 64 -79 71
-97 12 -29 30 -118 40 -203 2 -16 14 -68 26 -114 11 -46 19 -85 17 -88 -8 -8
-242 248 -256 280 -11 26 -11 46 -2 107 6 41 11 99 11 128 0 72 20 69 93 -13z
m-893 35 c0 -16 -23 -60 -32 -60 -11 0 -10 27 2 51 11 20 30 26 30 9z m2605
-12 c6 -6 5 -12 -5 -18 -22 -14 -26 -13 -39 16 -10 24 -10 25 11 19 13 -4 27
-11 33 -17z m-1955 -25 c0 -34 -19 -163 -24 -163 -1 0 -35 11 -74 24 -39 14
-96 28 -127 31 -30 4 -58 11 -60 15 -11 18 214 129 263 130 19 0 22 -5 22 -37z
m953 -42 c37 -30 64 -58 60 -62 -5 -4 -41 -22 -82 -39 l-74 -32 -39 39 -39 40
36 66 c32 59 39 65 54 54 9 -6 47 -36 84 -66z m-423 27 c100 -45 167 -120 154
-172 l-6 -26 -57 48 c-31 26 -88 71 -126 99 -39 29 -79 61 -89 72 -18 20 -18
20 20 15 22 -4 68 -19 104 -36z m-1103 -34 c-1 -2 -21 2 -44 8 -39 10 -41 11
-31 34 l11 25 34 -33 c18 -17 31 -33 30 -34z m1862 7 c-7 -23 -14 -41 -17 -41
-9 0 -42 32 -42 41 0 8 63 50 68 44 2 -1 -2 -21 -9 -44z m-2169 1 c51 -29 55
-42 14 -42 -29 0 -124 -35 -150 -55 -12 -10 -4 -9 22 4 23 11 78 26 124 34 72
13 88 13 118 0 22 -9 32 -19 28 -28 -4 -12 -2 -13 14 -3 16 11 24 8 47 -13 15
-14 54 -44 85 -68 32 -24 73 -60 92 -82 l35 -38 -25 -45 -25 -44 -77 23 c-42
13 -115 28 -162 35 -47 6 -130 22 -185 35 -55 12 -139 26 -187 30 l-86 7 99
116 c83 97 150 162 167 162 1 0 25 -13 52 -28z m3994 -63 c-82 -127 -148 -211
-250 -319 -70 -74 -105 -119 -118 -153 l-18 -48 -61 7 c-34 4 -91 14 -126 23
l-65 16 3 61 c1 34 8 89 15 123 17 83 7 141 -33 191 l-32 40 63 0 c109 0 225
18 325 50 54 17 138 40 188 50 49 11 104 23 120 28 17 5 31 8 33 7 2 -2 -18
-36 -44 -76z m-1060 62 c3 -4 -17 -27 -44 -50 -42 -36 -50 -39 -50 -22 0 11
17 32 42 50 47 35 45 34 52 22z m-4110 -27 c188 -157 309 -284 403 -424 l31
-46 -84 -17 c-82 -17 -229 -66 -221 -73 2 -2 24 3 48 11 60 22 173 45 216 45
l35 0 -27 -37 c-48 -66 -99 -115 -132 -129 -48 -21 -118 -17 -207 12 -44 13
-112 30 -153 36 l-73 12 0 80 c1 104 17 196 69 381 51 182 49 175 57 175 3 0
20 -12 38 -26z m921 -83 c-42 -50 -78 -91 -80 -91 -10 0 18 56 46 94 27 38 99
99 108 91 2 -2 -31 -45 -74 -94z m5258 67 c-34 -60 -127 -143 -251 -221 -164
-105 -299 -214 -464 -375 l-136 -133 -39 24 c-37 23 -38 26 -35 70 4 43 7 48
46 67 23 11 80 52 127 90 119 99 204 157 358 240 127 69 241 143 356 231 28
21 51 39 53 39 2 0 -5 -14 -15 -32z m-5606 -213 c43 -20 55 -35 29 -35 -7 0
-25 -9 -39 -20 -24 -19 -32 -20 -89 -10 -35 6 -70 13 -80 16 -38 11 -62 145
-37 211 l10 27 82 -85 c46 -47 101 -93 124 -104z m3676 179 c3 -4 0 -18 -7
-33 -7 -14 -16 -71 -19 -126 -4 -55 -14 -144 -24 -199 l-18 -98 -155 -121
c-85 -67 -170 -138 -187 -157 -18 -19 -33 -32 -33 -29 0 28 69 237 108 329
112 261 124 282 195 344 61 54 114 94 128 95 3 1 8 -2 12 -5z m-1062 -111 c57
-84 65 -101 57 -123 -13 -36 -16 -36 -46 -7 -15 14 -71 52 -124 85 -91 55 -96
60 -80 75 22 20 104 67 117 67 6 0 40 -44 76 -97z m-1672 63 c31 -10 37 -17
52 -69 l17 -59 -71 68 c-40 37 -76 72 -82 77 -11 9 27 2 84 -17z m2397 -83
c-7 -21 -27 -59 -42 -84 -45 -70 -138 -298 -185 -448 -35 -115 -43 -132 -55
-120 -7 8 -43 79 -79 159 -59 130 -66 150 -63 199 3 55 3 55 63 98 33 23 96
65 140 92 44 28 112 77 150 109 77 65 95 63 71 -5z m585 11 c23 -37 26 -90 10
-184 -6 -36 -11 -82 -11 -103 0 -38 0 -39 -32 -32 -59 12 -66 15 -72 37 -3 12
-1 42 5 68 6 25 10 92 10 150 0 67 3 107 11 111 18 11 57 -12 79 -47z m-2673
7 c103 -29 187 -73 185 -96 -1 -11 -5 -50 -8 -87 -6 -62 -9 -68 -30 -68 -24 0
-165 97 -202 140 -30 35 -57 96 -50 114 8 20 23 20 105 -3z m750 -32 c-15 -10
-28 -2 -28 17 0 12 4 12 20 2 13 -8 16 -15 8 -19z m290 -46 c-9 -12 -17 -9
-41 16 -20 20 -28 35 -23 47 6 15 11 13 41 -16 27 -26 32 -36 23 -47z m3827
57 c16 -11 56 -22 87 -26 32 -4 58 -10 58 -14 0 -3 -32 -13 -70 -22 l-70 -15
-25 45 c-14 24 -25 46 -25 48 0 9 17 3 45 -16z m-4026 -77 l63 -57 -6 -54 c-4
-29 -13 -67 -22 -84 l-15 -30 -29 39 c-26 35 -75 144 -94 210 -6 20 -3 24 34
32 3 0 34 -25 69 -56z m261 -4 c25 -46 -8 -60 -46 -18 -13 15 -14 22 -5 33 15
18 38 11 51 -15z m-2453 -49 l42 -10 -16 -45 c-8 -25 -18 -45 -21 -45 -6 0
-72 93 -81 114 -2 4 5 6 15 3 11 -3 38 -11 61 -17z m227 -4 c-24 -20 -32 -22
-61 -13 -49 15 -21 33 55 36 l33 1 -27 -24z m221 10 c61 -8 146 -26 190 -40
44 -14 134 -37 201 -51 174 -36 225 -56 247 -93 l18 -30 -68 24 c-45 16 -108
27 -188 34 -174 15 -525 78 -547 99 -10 9 13 71 27 71 5 0 60 -6 120 -14z
m2085 -6 c0 -5 -4 -10 -10 -10 -5 0 -10 5 -10 10 0 6 5 10 10 10 6 0 10 -4 10
-10z m-2250 -31 c-7 -11 -14 -18 -17 -15 -3 3 0 12 7 21 18 21 23 19 10 -6z
m936 -10 l29 -31 -45 7 c-55 9 -54 8 -40 34 14 28 21 27 56 -10z m596 -121
c51 -48 89 -90 85 -94 -3 -4 -34 -24 -69 -45 l-62 -38 -39 67 c-85 146 -101
195 -81 247 6 14 12 11 40 -17 19 -18 76 -72 126 -120z m-1659 105 c9 -5 -88
-73 -105 -73 -5 0 3 22 17 50 24 47 27 49 51 39 15 -5 31 -12 37 -16z m92 -51
c-4 -12 -3 -12 8 -3 11 8 24 8 55 -3 97 -34 378 -88 532 -101 97 -9 181 -30
244 -62 96 -48 316 -238 316 -272 0 -7 -42 -32 -92 -56 -56 -26 -131 -74 -188
-119 -133 -105 -147 -110 -446 -146 -50 -6 -123 -19 -162 -29 -83 -22 -69 -31
-160 106 -83 124 -135 227 -176 353 -19 58 -40 120 -47 137 -11 28 -11 40 4
80 10 26 31 68 48 94 23 37 34 46 50 42 13 -4 18 -11 14 -21z m2211 -33 c27
-12 79 -45 116 -73 l67 -51 5 -60 c9 -97 10 -366 1 -417 l-8 -48 -28 24 c-15
13 -41 30 -58 37 -32 14 -41 43 -41 135 0 84 -24 138 -78 174 -25 16 -51 30
-59 30 -7 0 -13 4 -13 8 0 4 -21 39 -46 77 l-46 70 62 58 c33 31 64 57 69 57
5 0 30 -10 57 -21z m-2333 -11 c-6 -7 -14 -28 -18 -45 -3 -18 -10 -33 -13 -33
-7 0 -45 61 -40 64 29 15 74 33 77 30 2 -2 -1 -9 -6 -16z m1148 -33 l102 -15
81 -66 c44 -36 100 -87 123 -112 l41 -46 -70 -39 -70 -39 -57 60 c-31 34 -96
91 -146 127 -79 59 -133 113 -134 138 -1 10 15 9 130 -8z m-1216 -134 l38 -74
-12 -90 c-14 -105 -9 -125 9 -35 l12 63 27 -90 c15 -49 42 -123 59 -164 37
-85 36 -79 20 -78 -7 1 -44 -9 -83 -22 -57 -20 -93 -25 -192 -26 -67 -1 -127
1 -133 5 -8 5 -7 15 1 36 7 16 13 92 15 174 2 88 8 160 17 183 7 22 46 81 86
133 84 108 73 109 136 -15z m4663 33 c15 -10 22 -24 22 -44 0 -35 -2 -36 -37
-12 -14 9 -47 24 -72 32 -53 17 -59 32 -16 41 36 7 72 1 103 -17z m-714 -20
c12 -5 16 -21 16 -71 l0 -65 -32 6 c-41 8 -42 10 -30 45 7 19 7 42 2 61 -7 26
-6 30 10 30 10 0 25 -3 34 -6z m-184 -38 c0 -40 -16 -87 -33 -98 -7 -4 -21 -8
-32 -8 -42 0 -231 -82 -273 -118 -91 -78 -109 -89 -62 -38 64 68 366 296 393
296 4 0 7 -15 7 -34z m381 7 l66 -6 -12 -46 c-11 -44 -21 -67 -43 -99 -7 -10
-21 -7 -64 12 -47 21 -58 31 -72 65 -9 23 -16 53 -16 68 0 24 2 25 38 19 20
-4 67 -9 103 -13z m-4719 -13 c48 -10 97 -24 109 -30 36 -20 140 -31 177 -19
18 6 35 9 37 7 2 -2 -3 -26 -11 -53 -11 -36 -14 -71 -9 -125 6 -77 -9 -228
-23 -242 -5 -5 -21 -4 -36 2 -15 5 -77 16 -138 24 -159 21 -181 45 -193 211
-7 99 -18 178 -31 223 -8 28 2 28 118 2z m5078 -5 c94 -32 156 -67 151 -86 -2
-8 -10 -43 -17 -78 -17 -77 -13 -70 -66 -108 l-44 -31 -84 54 c-46 30 -94 57
-107 60 -16 4 -21 10 -14 18 5 6 15 49 21 96 6 46 14 88 16 92 10 15 69 8 144
-17z m-2566 -10 c22 -33 21 -40 -13 -89 -17 -24 -33 -55 -36 -69 -8 -29 -36
-58 -42 -42 -1 6 -21 39 -43 74 l-39 65 72 43 c40 23 75 43 78 43 4 0 14 -11
23 -25z m1126 -299 c-6 -23 -29 -73 -50 -111 l-38 -69 -6 35 c-24 138 -35 375
-20 414 4 10 26 -24 66 -105 59 -119 60 -123 48 -164z m2570 244 c30 -7 58
-15 62 -19 4 -4 -10 -40 -31 -81 -21 -41 -49 -104 -62 -140 -12 -36 -23 -66
-23 -67 -1 -1 -30 -6 -65 -12 l-63 -10 -201 103 c-111 57 -235 116 -274 131
-40 15 -73 31 -73 36 0 5 22 20 50 34 47 24 53 25 125 14 65 -10 85 -9 133 5
31 8 68 18 82 20 45 8 284 -2 340 -14z m-6323 -72 c-2 -13 -4 -3 -4 22 0 25 2
35 4 23 2 -13 2 -33 0 -45z m3061 46 c13 -9 28 -28 34 -43 13 -31 27 -164 17
-153 -13 12 -88 212 -80 212 3 0 17 -7 29 -16z m1632 6 c0 -5 -2 -10 -4 -10
-3 0 -8 5 -11 10 -3 6 -1 10 4 10 6 0 11 -4 11 -10z m723 -23 c16 -11 15 -15
-19 -47 l-36 -35 7 40 c10 60 17 65 48 42z m1193 -98 c184 -118 188 -121 148
-113 -26 5 -132 -4 -251 -22 -36 -6 -41 -4 -40 12 1 11 -6 20 -18 22 -15 2
-17 1 -6 -6 11 -8 10 -12 -5 -20 -15 -8 -112 -32 -129 -32 -9 0 38 150 65 209
27 57 32 63 54 57 13 -3 95 -52 182 -107z m-3842 -76 c25 -71 63 -175 86 -232
22 -57 39 -105 37 -108 -5 -5 -230 237 -253 271 -13 21 -13 31 2 92 9 38 26
86 37 106 19 36 21 37 34 18 7 -10 33 -77 57 -147z m-416 90 c40 -52 92 -135
92 -147 0 -6 -13 -26 -28 -45 l-28 -33 -54 27 c-79 40 -136 85 -154 122 -15
31 -15 33 7 47 30 19 120 65 129 66 3 0 20 -17 36 -37z m3319 -25 c98 -38 347
-158 366 -177 10 -10 -230 -91 -269 -91 -37 0 -122 26 -249 77 -55 22 -108 43
-118 46 -16 6 -5 21 65 97 46 49 86 90 90 90 4 0 55 -19 115 -42z m-1118 -35
c-12 -16 -44 -56 -71 -90 -27 -34 -93 -100 -148 -147 l-99 -86 -33 19 c-18 10
-48 22 -66 26 -25 5 -36 15 -48 43 l-15 37 71 67 c68 65 76 69 193 107 147 47
152 48 200 50 l38 1 -22 -27z m129 21 c31 -9 28 -16 -16 -39 -20 -12 -73 -41
-117 -65 l-80 -44 49 58 c80 93 103 106 164 90z m3552 -24 c0 -16 -103 -88
-151 -106 -30 -12 -95 -19 -209 -25 -91 -4 -189 -14 -217 -22 -57 -15 -65 -11
-32 19 12 10 32 37 45 60 25 42 71 70 129 77 69 9 435 7 435 -3z m-6130 -60
c15 -36 85 -102 168 -158 34 -24 62 -47 62 -53 0 -33 -110 -279 -154 -346
l-52 -78 -90 3 c-49 1 -102 -2 -119 -8 -27 -9 -26 -9 11 -4 56 7 167 -15 160
-31 -2 -7 -26 -43 -52 -79 l-48 -66 -30 28 c-42 39 -112 85 -166 109 -62 27
-106 67 -113 101 -3 16 3 65 13 108 23 93 25 150 7 194 -27 62 0 103 117 183
48 32 235 121 267 126 4 1 12 -12 19 -29z m-2101 -53 c1 -5 -3 -5 -9 -2 -5 3
-10 16 -9 28 0 21 1 21 9 2 5 -11 9 -24 9 -28z m5014 13 c32 -10 62 -22 67
-25 5 -3 -10 -45 -34 -94 -24 -48 -54 -121 -66 -162 -25 -80 -73 -156 -105
-163 -11 -3 -61 -10 -111 -17 l-92 -12 -84 51 c-46 28 -100 63 -120 79 -20 15
-44 33 -53 38 -15 9 -8 19 56 77 57 50 108 83 219 138 119 60 232 108 260 109
3 0 31 -8 63 -19z m1829 -9 c41 -10 129 -67 258 -168 l85 -66 -72 74 c-40 41
-73 78 -73 81 0 4 12 3 28 -2 15 -5 70 -16 122 -25 52 -9 112 -21 133 -27 l38
-11 -43 -45 c-88 -90 -135 -98 -363 -57 -77 14 -199 30 -272 35 -139 11 -167
15 -350 56 -109 25 -111 26 -92 45 10 10 43 23 78 28 32 5 83 22 112 37 46 23
61 26 114 21 33 -3 112 -21 175 -41 63 -19 116 -33 118 -31 4 4 -159 63 -215
78 -24 6 -43 15 -43 19 0 11 215 10 262 -1z m-3795 -146 c50 -100 87 -194 80
-201 -8 -9 -167 319 -167 345 0 13 50 -69 87 -144z m-582 65 c-18 -35 -21 -36
-34 -11 -8 15 -6 25 11 46 18 23 22 25 30 11 6 -10 3 -26 -7 -46z m3915 50
c-8 -5 -24 -9 -35 -9 -16 1 -16 2 5 9 35 11 48 11 30 0z m-3152 -65 c18 -19
38 -49 47 -65 14 -28 41 -178 32 -186 -2 -2 -19 33 -37 79 -19 45 -47 104 -63
132 -16 27 -33 60 -38 73 -8 20 -7 21 10 13 10 -6 32 -26 49 -46z m4292 31 c0
-2 -7 -7 -16 -10 -8 -3 -12 -2 -9 4 6 10 25 14 25 6z m607 -10 c3 -3 -10 -18
-28 -33 -19 -15 -63 -55 -99 -89 -123 -115 -161 -128 -324 -112 -120 11 -185
6 -324 -28 -81 -20 -106 -23 -118 -13 -12 9 -3 19 51 53 36 22 105 69 154 102
157 109 267 136 520 129 89 -2 165 -6 168 -9z m-1996 -22 l24 -27 -34 7 c-18
3 -58 6 -89 6 -30 0 -53 2 -51 5 4 4 103 32 120 34 3 1 16 -11 30 -25z m73 4
c-3 -5 -12 -4 -20 3 -19 16 -18 18 6 12 11 -3 17 -9 14 -15z m-5896 -19 c28
-6 52 -12 52 -14 0 -2 -24 -10 -52 -19 -52 -15 -53 -15 -91 11 -21 14 -40 30
-43 35 -6 9 41 4 134 -13z m4962 7 c0 -17 -76 -121 -114 -155 -31 -29 -31 -30
-6 39 14 37 34 67 63 92 45 41 57 46 57 24z m-5276 -2 c20 -8 21 -24 2 -24 -8
0 -16 7 -20 15 -6 17 -4 18 18 9z m7451 -18 c-39 -32 -90 -62 -81 -48 7 11 96
72 105 72 3 0 -7 -11 -24 -24z m-2100 -6 c10 -11 28 -20 41 -20 33 0 104 -33
144 -66 19 -16 31 -23 27 -17 -6 9 -3 11 7 7 9 -3 16 -7 16 -8 0 -1 -25 -28
-55 -60 -31 -32 -70 -85 -88 -116 -31 -57 -34 -59 -105 -83 l-74 -24 -78 40
c-75 37 -78 40 -69 64 5 13 9 38 9 54 0 23 16 45 78 107 43 43 84 92 91 110
15 37 30 40 56 12z m-3711 -44 c-3 -14 2 -38 12 -57 54 -105 -18 -307 -130
-366 -28 -14 -31 -14 -45 3 -9 11 -47 43 -86 73 -115 90 -202 170 -246 228
-22 30 -39 56 -37 58 12 12 168 37 278 45 120 9 228 25 238 35 13 13 22 3 16
-19z m-750 -14 c27 -15 51 -32 53 -38 5 -16 -101 -39 -177 -39 -51 0 -77 6
-122 28 -32 16 -58 32 -58 35 0 4 26 8 58 10 31 2 84 9 117 17 80 17 74 18
129 -13z m5111 4 c-22 -7 -69 -28 -105 -47 -36 -19 -67 -35 -71 -37 -3 -1 -15
16 -28 38 l-22 40 63 1 c35 1 77 5 93 9 17 4 48 8 70 8 l40 1 -40 -13z m-5445
-37 c58 -46 143 -79 204 -80 36 0 39 -2 21 -12 -11 -7 -50 -42 -87 -79 l-67
-66 -69 48 c-38 26 -92 70 -120 97 -52 47 -52 49 -42 85 11 37 22 44 82 47 17
1 44 -13 78 -40z m-435 7 c45 -10 50 -14 53 -41 2 -17 -3 -38 -10 -47 -12 -16
-18 -14 -75 25 -34 23 -66 52 -72 64 -11 25 -15 25 104 -1z m2481 -46 c50 -86
213 -316 374 -524 l130 -170 -2 -165 -3 -166 -60 -33 -60 -32 -241 3 -242 4
-46 33 c-57 41 -59 60 -14 188 31 89 34 93 58 87 57 -14 72 -14 28 1 -27 8
-48 20 -48 25 0 5 7 39 17 76 13 55 14 76 5 128 -16 84 -15 206 2 301 8 44 22
126 31 183 16 100 24 135 30 129 2 -2 20 -32 41 -68z m3642 43 c11 -16 27 -53
37 -83 10 -30 28 -78 41 -107 27 -62 30 -59 -97 -73 -89 -9 -151 -34 -206 -83
-13 -11 -25 -19 -27 -16 -2 2 -43 58 -90 123 l-87 119 43 29 c54 36 92 53 198
89 113 38 162 38 188 2z m195 -42 c53 -27 125 -59 161 -72 36 -13 66 -26 66
-30 0 -9 -269 -91 -283 -86 -7 3 -28 49 -47 103 -18 55 -39 111 -46 126 l-14
26 34 -9 c18 -5 76 -31 129 -58z m-6483 49 c0 -5 -7 -10 -16 -10 -8 0 -12 5
-9 10 3 6 10 10 16 10 5 0 9 -4 9 -10z m413 -9 c-4 -17 -8 -18 -24 -8 -26 16
-24 27 5 27 19 0 23 -4 19 -19z m3596 -96 c-51 -106 -52 -108 -46 -179 l6 -72
-62 -62 -63 -63 -12 51 c-7 28 -12 58 -12 65 0 8 38 69 83 137 46 68 99 149
118 180 18 31 35 56 36 54 2 -2 -20 -51 -48 -111z m-1579 46 c-1 -14 -8 -44
-16 -66 -39 -101 -65 -216 -71 -313 -6 -95 -7 -101 -23 -87 -9 9 -30 38 -45
66 -37 68 -32 126 17 206 19 32 52 103 73 157 34 90 39 98 51 81 8 -10 14 -30
14 -44z m4243 14 c60 -8 141 -22 180 -31 l72 -17 -90 -25 c-49 -13 -94 -24
-100 -25 -14 -1 -172 75 -215 102 l-35 23 40 -6 c22 -4 89 -13 148 -21z
m-6350 -21 c45 -23 67 -44 67 -65 0 -27 -19 -112 -29 -128 -11 -17 -51 -5 -51
15 0 8 -16 31 -35 53 -19 21 -35 41 -35 43 0 11 41 98 46 98 3 0 19 -7 37 -16z
m3892 6 c5 -8 -80 -130 -91 -130 -2 0 22 75 41 128 5 14 41 16 50 2z m-3136
-102 c67 -100 155 -194 254 -273 l48 -38 -28 -27 c-15 -14 -56 -56 -91 -93
-35 -37 -67 -67 -71 -67 -3 0 -45 39 -91 86 -87 88 -236 207 -335 266 -30 18
-55 36 -55 41 0 17 106 120 145 141 31 16 137 62 152 65 2 1 34 -45 72 -101z
m4653 64 l41 -38 -49 -31 c-27 -18 -69 -40 -94 -51 -45 -19 -120 -35 -120 -26
0 27 147 184 171 184 6 0 28 -17 51 -38z m-5655 -14 c65 -47 64 -55 -4 -63
-32 -3 -84 -10 -116 -16 -33 -6 -61 -8 -63 -6 -3 2 12 32 33 66 36 59 40 62
71 57 18 -3 54 -20 79 -38z m7016 21 c22 -6 37 -12 35 -14 -2 -2 -26 2 -53 10
-28 7 -43 14 -35 14 8 1 32 -4 53 -10z m-2681 -57 c-27 -4 -37 2 -27 17 4 8
13 7 28 -1 l22 -13 -23 -3z m3316 8 c51 -5 108 -16 128 -25 51 -21 116 -78
142 -123 l22 -39 -69 -47 c-57 -40 -79 -49 -139 -57 -69 -10 -72 -9 -199 36
-70 26 -138 53 -149 60 -32 21 -116 145 -101 150 6 2 36 11 65 20 44 14 80 20
197 34 6 0 52 -4 103 -9z m-7229 -74 c43 -35 92 -72 110 -82 17 -10 31 -23 31
-29 0 -15 -92 -162 -128 -204 l-29 -35 -26 70 c-27 72 -48 146 -44 151 2 1 27
-16 57 -38 l55 -40 -57 55 c-48 46 -58 61 -60 93 -3 54 1 123 7 123 3 0 41
-29 84 -64z m6540 45 l24 -7 -26 -17 c-25 -16 -28 -16 -79 7 l-53 24 55 0 c30
0 66 -3 79 -7z m-1191 -129 c18 -64 32 -120 32 -124 0 -8 -93 23 -138 46 -37
19 -45 42 -37 98 6 38 12 46 53 70 26 15 49 27 52 27 3 1 20 -52 38 -117z
m-5631 53 c12 -8 29 -38 39 -67 17 -51 17 -52 -6 -70 l-22 -18 -28 57 c-16 32
-39 74 -53 93 l-25 35 27 11 c22 9 28 8 36 -8 6 -10 20 -25 32 -33z m4360 19
c35 -20 65 -39 68 -44 3 -5 -9 -12 -27 -15 -76 -17 -186 -82 -306 -182 -63
-53 -102 -67 -102 -38 0 9 -9 34 -21 56 l-20 40 38 42 c21 23 60 72 87 109
l49 66 85 1 c80 0 90 -3 149 -35z m2606 19 c4 -3 -2 -17 -14 -29 -18 -19 -25
-21 -52 -12 l-30 11 22 19 c23 18 62 24 74 11z m183 -48 c26 -31 45 -58 42
-60 -2 -3 -27 2 -54 10 -37 11 -55 24 -74 52 -35 54 -35 53 3 53 31 0 42 -8
83 -55z m-116 -5 c9 -17 8 -20 -13 -20 -31 0 -39 9 -24 26 17 18 25 17 37 -6z
m-326 2 c9 -14 -357 -233 -369 -220 -2 2 -19 30 -39 63 l-36 60 111 43 c61 24
130 47 153 52 55 11 174 12 180 2z m-6534 -22 c0 -5 -5 -10 -11 -10 -5 0 -7 5
-4 10 3 6 8 10 11 10 2 0 4 -4 4 -10z m5260 -24 c0 -14 4 -36 9 -49 l10 -25
-87 -7 -87 -8 85 -14 c55 -9 92 -10 105 -4 15 6 30 4 50 -6 16 -9 56 -24 89
-34 55 -16 57 -18 26 -18 -19 -1 -108 4 -197 11 -138 10 -166 15 -187 32 -24
20 -24 23 -11 59 7 21 15 40 17 43 6 5 148 43 166 43 6 1 12 -10 12 -23z
m1435 -12 c-1 -23 -87 -174 -105 -184 -13 -7 -46 -9 -88 -5 -47 4 -81 2 -112
-9 l-45 -14 58 5 c34 4 81 0 111 -7 46 -11 58 -10 84 3 l31 15 6 -37 c7 -40
30 -79 124 -202 l63 -84 -33 -13 c-74 -30 -90 -28 -175 28 l-79 53 55 -6 c69
-7 36 8 -40 18 -74 10 -117 36 -170 105 -27 35 -62 66 -87 79 -24 11 -43 24
-43 28 0 5 31 27 68 50 37 23 118 79 181 126 l115 84 40 -12 c23 -7 41 -16 41
-21z m-1102 -112 c-26 -19 -36 -10 -60 54 -33 89 -28 93 27 23 45 -58 48 -65
33 -77z m-5577 40 c7 -28 27 -81 44 -118 16 -36 27 -70 24 -75 -10 -17 -30 -9
-67 29 -35 36 -39 46 -52 132 -8 51 -12 97 -9 102 13 20 48 -21 60 -70z m6861
43 c27 -5 37 -16 69 -73 35 -63 139 -212 149 -212 2 0 -15 28 -39 63 -24 34
-60 95 -80 135 -31 61 -34 73 -19 68 10 -2 45 -13 78 -22 49 -14 73 -29 130
-83 47 -44 54 -49 23 -15 -27 27 -48 53 -48 56 0 12 157 -59 204 -92 60 -41
101 -95 136 -181 36 -86 35 -88 -65 -136 -84 -40 -138 -43 -275 -12 -62 14
-133 22 -203 23 l-107 1 -36 60 c-20 33 -49 76 -65 96 -39 49 -69 117 -69 156
0 37 32 115 65 159 23 30 26 31 72 23 26 -5 62 -11 80 -14z m-5567 -1 c0 -27
67 -82 145 -118 67 -31 165 -107 165 -127 0 -17 -133 -209 -145 -209 -39 0
-154 115 -204 205 -19 33 -49 81 -68 106 -39 55 -41 65 -10 72 12 4 40 24 62
47 42 43 55 49 55 24z m-763 -197 c45 -43 106 -105 134 -138 l51 -59 -62 -70
c-34 -39 -66 -70 -70 -70 -5 0 -18 15 -29 34 -18 29 -39 40 -144 81 -94 37
-301 132 -325 151 -2 1 23 38 56 81 32 43 74 104 92 135 l34 57 90 -62 c49
-34 127 -97 173 -140z m4468 193 c-3 -5 -14 -10 -23 -10 -15 0 -15 2 -2 10 20
13 33 13 25 0z m1080 -81 c21 -33 35 -62 33 -64 -2 -2 -44 -20 -93 -39 -89
-34 -91 -34 -155 -21 -61 12 -126 33 -106 34 4 1 -2 9 -14 19 l-23 18 50 37
c37 27 66 39 114 47 35 5 78 14 94 19 55 17 62 13 100 -50z m-4251 16 c4 -19
31 -67 61 -107 46 -61 55 -80 55 -114 0 -40 -37 -149 -53 -153 -19 -6 -75 14
-105 37 -32 25 -132 154 -132 171 0 12 119 172 139 188 24 19 28 16 35 -22z
m-1964 -22 l0 -48 -22 34 c-21 33 -21 34 -3 47 10 8 20 14 22 14 2 0 3 -21 3
-47z m4847 21 c-3 -3 -12 -4 -19 -1 -8 3 -5 6 6 6 11 1 17 -2 13 -5z m-188
-18 c10 -12 5 -16 -24 -26 -46 -15 -41 -21 9 -10 47 10 57 7 85 -30 l21 -30
-37 -16 c-32 -13 -66 -15 -213 -11 -96 3 -186 9 -198 14 -23 9 -23 10 15 36
28 19 78 36 169 56 153 35 158 35 173 17z m201 -10 c0 -2 -19 -19 -41 -37
l-41 -32 -19 24 c-26 33 -24 37 19 42 64 6 82 7 82 3z m128 -30 c-1 -2 -16 -6
-31 -10 -26 -6 -27 -5 -17 14 9 17 14 18 31 9 12 -6 19 -12 17 -13z m-3815
-80 c19 -29 56 -93 80 -142 25 -49 61 -105 81 -123 63 -61 50 -64 -86 -22
-106 33 -216 86 -266 129 l-34 28 89 92 c48 51 91 92 94 92 3 0 22 -24 42 -54z
m5142 -52 c13 -5 52 -64 42 -64 -3 0 -63 19 -117 37 -10 3 -6 9 15 18 36 16
39 17 60 9z m-4490 -94 c23 -38 36 -74 40 -111 9 -80 0 -86 -76 -56 -35 14
-83 30 -106 37 -24 6 -43 15 -43 21 0 5 27 50 61 100 69 103 67 103 124 9z
m3407 -7 c20 -43 39 -89 43 -102 6 -21 5 -23 -11 -16 -66 27 -303 75 -368 75
-37 0 -45 4 -49 22 -4 13 -1 26 6 30 6 4 64 19 127 33 63 15 120 28 125 30 6
2 28 4 51 4 l41 1 35 -77z m188 35 c52 -17 106 -41 119 -53 l23 -23 -49 -39
c-27 -21 -74 -47 -104 -57 -84 -29 -103 -16 -145 103 -19 51 -34 97 -34 102 0
14 90 -1 190 -33z m1020 -13 c13 -14 21 -25 18 -25 -2 0 -15 11 -28 25 -13 14
-21 25 -18 25 2 0 15 -11 28 -25z m-6378 -62 c-22 -27 -74 -81 -114 -121 l-74
-72 -44 45 c-24 24 -42 46 -39 48 48 41 151 98 214 119 44 14 84 26 88 27 5 1
-9 -20 -31 -46z m7788 33 c0 -6 -140 -96 -150 -96 -5 0 -10 6 -10 13 0 6 32
29 72 50 67 34 88 42 88 33z m-7688 -33 c50 -55 117 -154 152 -228 41 -87 87
-153 121 -175 l25 -16 -53 -13 c-28 -8 -83 -33 -122 -57 -38 -23 -95 -54 -126
-68 -63 -28 -68 -26 -137 38 -45 41 -62 76 -62 125 0 22 -4 51 -10 65 -15 41
44 177 129 294 24 34 48 62 51 62 3 0 18 -12 32 -27z m5935 -70 c104 -103 154
-167 247 -321 85 -141 110 -196 146 -322 17 -63 36 -122 42 -130 8 -12 9 -12
4 3 -8 27 -34 167 -40 216 l-4 43 31 -29 c30 -27 103 -84 160 -125 21 -15 25
-28 31 -100 6 -64 4 -94 -8 -128 -9 -25 -16 -55 -16 -67 0 -13 -3 -23 -6 -23
-4 0 -52 31 -108 68 -138 93 -175 113 -323 178 -144 63 -197 93 -298 173 -130
103 -175 151 -217 236 -39 76 -40 84 -46 200 l-5 122 34 25 c23 17 64 31 123
42 48 10 98 21 110 26 11 5 26 9 32 9 6 1 56 -43 111 -96z m-1347 77 c0 -5
-12 -10 -27 -9 l-28 1 25 8 c14 4 26 8 28 9 1 1 2 -3 2 -9z m-2833 -40 c14
-11 43 -25 64 -30 l38 -11 -31 -52 c-17 -29 -33 -54 -34 -55 -2 -2 -19 1 -39
8 -30 10 -35 15 -29 33 8 25 7 81 -1 108 -8 24 1 24 32 -1z m-991 -44 l53 -55
-34 -11 c-26 -9 -47 -30 -86 -86 -46 -65 -69 -83 -69 -53 0 6 -12 35 -26 65
l-26 56 28 31 c64 71 98 107 103 107 2 0 28 -24 57 -54z m5459 -20 l59 -24 39
-91 c22 -51 41 -90 43 -88 2 2 -10 39 -26 82 -17 43 -29 79 -28 80 2 2 20 -4
41 -12 30 -12 52 -37 111 -123 l75 -108 0 -172 0 -172 -47 43 c-56 51 -87 99
-155 234 -28 55 -65 123 -83 151 -55 85 -75 125 -69 135 4 5 -2 9 -12 9 -10 0
-45 27 -78 60 l-58 59 64 -19 c36 -11 91 -31 124 -44z m-6042 0 c42 -24 114
-60 160 -81 80 -35 85 -39 105 -86 l21 -50 -25 -55 c-22 -51 -27 -55 -50 -50
-69 18 -149 100 -192 197 -11 26 -38 74 -60 108 -23 34 -40 61 -38 61 1 0 37
-20 79 -44z m6314 -12 c-6 -7 -97 38 -97 48 0 5 23 -3 51 -18 28 -14 49 -27
46 -30z m1002 13 c-2 -2 -42 -29 -88 -60 l-84 -56 -29 22 -30 22 39 6 c47 8
144 51 162 73 10 12 17 14 24 7 6 -6 9 -12 6 -14z m-1305 -182 c44 -60 93
-136 180 -280 14 -23 8 -19 -24 15 -23 25 -85 110 -138 190 -52 80 -117 174
-144 210 l-50 65 63 -65 c34 -36 85 -96 113 -135z m-6373 134 c-6 -13 -18 -50
-27 -82 l-16 -59 -24 36 c-13 19 -24 38 -24 41 0 8 94 94 98 90 1 -1 -2 -13
-7 -26z m-232 -21 c20 -17 44 -43 55 -56 l19 -24 -64 -66 -64 -67 68 65 c75
72 71 72 108 -7 25 -53 25 -147 0 -139 -76 25 -491 191 -491 197 0 13 278 123
324 128 4 1 25 -13 45 -31z m7492 8 c101 -23 180 -54 193 -75 13 -20 -106 -54
-189 -55 -69 0 -94 6 -180 38 -55 21 -116 46 -134 56 l-35 17 33 18 c28 14 35
14 42 3 6 -8 9 -9 9 -1 0 30 127 29 261 -1z m449 14 c0 -5 -9 -10 -21 -10 -11
0 -17 5 -14 10 3 6 13 10 21 10 8 0 14 -4 14 -10z m-2072 -67 c5 -29 6 -53 3
-53 -4 0 -19 13 -34 28 l-28 29 22 27 c12 15 23 26 24 24 2 -2 8 -27 13 -55z
m-558 2 c76 -19 156 -35 176 -35 41 0 203 -67 247 -103 l28 -22 -20 -47 c-25
-60 -79 -111 -161 -152 -36 -17 -83 -44 -105 -59 -22 -15 -43 -27 -47 -27 -5
0 -23 24 -42 53 -18 28 -68 102 -111 162 -87 124 -145 224 -145 248 0 24 22
22 180 -18z m2656 -7 c73 -78 134 -227 133 -322 -1 -110 -6 -111 -88 -26 -95
99 -142 161 -191 249 -22 41 -40 75 -40 77 0 1 19 14 43 28 60 37 105 34 143
-6z m-1060 -20 c22 -24 44 -78 44 -107 0 -16 -12 1 -71 102 -31 51 -16 53 27
5z m-5448 -15 c23 -9 12 -21 -35 -39 -27 -10 -75 -37 -109 -60 -43 -29 -78
-44 -120 -52 -93 -16 -96 -3 -18 84 51 57 77 78 117 93 57 20 43 23 165 -26z
m5879 -65 c79 -32 114 -65 145 -137 25 -59 18 -72 -15 -28 -15 20 -78 75 -140
123 -115 89 -114 93 10 42z m-7972 -7 c-12 -12 -105 -52 -105 -46 0 6 92 54
105 55 6 0 6 -3 0 -9z m357 -57 c208 -80 359 -146 453 -199 l70 -39 -85 -26
c-47 -15 -116 -30 -155 -34 -38 -4 -113 -18 -165 -31 -194 -48 -261 -42 -390
35 -70 42 -212 110 -229 110 -26 0 2 60 46 102 29 28 248 147 270 148 7 0 90
-30 185 -66z m1957 47 c10 -7 11 -13 1 -32 l-11 -24 18 22 c18 21 22 21 153
13 151 -9 174 -15 165 -39 -4 -9 -13 -36 -21 -61 -12 -40 -18 -47 -51 -56 -35
-9 -47 -6 -156 46 -65 31 -115 58 -112 62 3 3 -6 3 -19 1 -14 -3 -33 -3 -41 1
-14 5 -12 11 11 41 27 36 39 41 63 26z m-797 -94 c-7 -5 -19 -7 -27 -5 -12 2
-10 11 7 48 l22 45 5 -40 c4 -27 2 -43 -7 -48z m1242 10 c28 -17 77 -51 108
-75 l57 -44 -21 -29 c-12 -16 -28 -29 -35 -29 -7 0 -59 16 -115 36 -57 19
-111 38 -121 41 -21 7 -18 30 14 101 21 50 29 50 113 -1z m-3290 -57 c60 -5
114 -10 120 -10 6 0 4 -5 -4 -11 -12 -9 -11 -9 5 -4 37 13 90 23 163 30 l72 6
-17 -35 c-9 -20 -24 -36 -32 -36 -12 0 -13 -2 -3 -8 10 -7 10 -15 2 -36 -5
-15 -13 -58 -16 -97 -7 -72 -14 -81 -36 -51 -20 27 -77 66 -145 101 -77 38
-219 123 -253 151 l-25 20 30 -5 c17 -3 79 -9 139 -15z m1941 -9 c-6 -4 -72
-48 -149 -96 l-139 -88 -43 24 c-24 13 -44 27 -44 31 0 3 15 11 33 17 18 6 64
30 102 52 39 23 86 48 105 55 39 15 150 19 135 5z m-1482 -134 c42 -23 103
-63 135 -88 58 -47 152 -89 200 -89 l27 -1 -25 -15 c-37 -24 -89 -98 -110
-157 -20 -57 -64 -139 -83 -155 -20 -17 -221 -36 -243 -24 -18 10 -19 23 -16
184 2 95 5 174 5 175 1 0 44 -3 96 -8 51 -6 95 -8 98 -6 2 3 -27 12 -64 20
-37 9 -84 22 -104 31 l-36 15 9 68 c9 75 14 93 25 93 4 0 43 -19 86 -43z
m2127 -12 c-86 -24 -137 -30 -178 -19 -13 4 -21 12 -19 18 3 10 103 21 227 23
l55 2 -85 -24z m1628 3 c63 -15 97 -28 103 -40 8 -14 6 -18 -9 -18 -42 0 -238
77 -202 79 8 1 57 -9 108 -21z m-2712 -53 l29 -25 -40 0 c-22 0 -58 5 -80 12
l-40 11 30 13 c45 19 69 17 101 -11z m2169 -29 c43 -39 47 -46 35 -61 -24 -29
-48 -37 -72 -24 -33 16 -78 61 -78 75 0 12 46 54 59 54 3 -1 28 -20 56 -44z
m-1575 28 c0 -8 -112 -56 -118 -50 -3 3 19 17 49 31 55 25 69 29 69 19z m266
-25 l43 -20 -25 -36 c-30 -44 -31 -52 -38 -173 -5 -86 -35 -242 -49 -257 -11
-10 -111 57 -186 125 -70 63 -72 66 -66 101 7 39 44 115 71 149 16 18 188 130
203 132 3 0 24 -9 47 -21z m647 -53 c56 -35 122 -73 147 -86 25 -12 46 -24 48
-25 7 -6 -32 -70 -67 -109 -49 -55 -72 -93 -69 -113 2 -12 -6 -19 -27 -23 -39
-8 -71 -26 -137 -76 -29 -23 -77 -53 -106 -68 -54 -27 -70 -42 -28 -26 24 9
147 72 220 112 49 27 90 27 144 -1 63 -32 122 -134 122 -209 0 -61 -8 -66 -93
-58 -87 8 -265 49 -309 72 -33 17 -288 84 -320 84 -11 0 -57 16 -103 36 l-84
36 15 46 c20 67 54 247 54 287 0 47 26 97 61 118 43 24 247 58 402 66 20 1 62
-20 130 -63z m-1786 -1 c-15 -14 -25 -25 -22 -25 14 0 65 31 65 40 0 16 60 11
130 -10 47 -14 79 -18 115 -13 l50 6 -16 -24 c-19 -28 -121 -87 -237 -135 -46
-19 -143 -65 -215 -102 -265 -135 -293 -147 -323 -133 -14 6 -53 14 -85 18
-32 3 -59 7 -59 9 0 2 16 25 36 51 19 25 48 72 64 102 59 114 130 163 296 205
106 26 139 32 194 34 l35 1 -28 -24z m6133 -29 c-1 -20 -2 -20 -15 4 -19 33
-19 46 0 30 8 -7 15 -22 15 -34z m260 -71 c180 -64 206 -77 357 -178 l123 -82
0 -63 c0 -56 -2 -62 -17 -54 -20 10 -43 5 -43 -9 0 -4 6 -6 13 -3 17 6 44 -45
39 -74 -3 -20 -7 -22 -35 -17 -49 11 -95 42 -187 130 -47 44 -105 97 -130 117
-48 38 -159 101 -200 113 -14 4 -46 23 -72 42 -40 29 -46 38 -38 53 6 10 10
35 10 55 0 32 3 36 18 30 9 -5 82 -31 162 -60z m-5630 18 c-1 -5 -9 -22 -18
-40 l-17 -32 -42 40 -42 39 59 0 c33 0 60 -3 60 -7z m-168 -85 c29 -29 67 -70
83 -91 28 -38 29 -39 16 -99 -16 -81 -40 -138 -56 -138 -8 0 -44 16 -82 36
l-68 36 -121 -12 c-178 -18 -174 -22 -108 113 l55 112 87 35 c48 20 96 41 107
48 29 16 27 17 87 -40z m1661 -75 c73 -39 72 -35 41 -108 -12 -31 -16 -32 -84
-39 -93 -8 -137 -27 -153 -65 l-13 -31 -37 45 c-21 24 -58 56 -82 71 -25 14
-45 32 -45 38 0 7 20 44 45 82 25 38 50 83 57 100 l11 31 96 -44 c53 -25 126
-61 164 -80z m785 -19 c33 -28 36 -35 36 -87 1 -32 -2 -57 -6 -57 -13 0 -208
220 -208 235 0 13 15 8 71 -22 39 -21 87 -52 107 -69z m3979 -43 c23 -31 59
-75 79 -99 20 -23 34 -45 31 -48 -6 -7 -75 27 -149 75 -51 32 -58 40 -58 69 0
18 7 47 16 65 16 29 18 30 28 13 6 -10 30 -44 53 -75z m-6832 -21 c-35 -72
-55 -97 -55 -70 0 5 -16 18 -37 28 l-36 19 59 16 c58 15 58 15 19 16 l-40 1
60 40 c32 21 61 37 64 34 3 -2 -13 -40 -34 -84z m5931 33 c-3 -10 -14 -56 -25
-102 -11 -46 -23 -86 -26 -89 -17 -17 3 122 26 181 12 29 34 38 25 10z m-6206
-57 c0 -2 -26 -20 -57 -41 -45 -30 -70 -40 -113 -43 -30 -2 -53 -2 -50 1 6 6
200 85 213 86 4 1 7 -1 7 -3z m900 -76 c42 -42 42 -44 -8 -55 -18 -4 -46 -18
-63 -32 l-31 -26 18 39 c9 21 21 56 27 77 6 20 12 37 14 37 2 0 21 -18 43 -40z
m1735 -5 l50 -45 -30 0 c-16 0 -47 3 -68 6 -36 7 -38 8 -31 38 12 59 14 59 79
1z m-2615 15 c0 -5 -8 -10 -17 -10 -15 0 -16 2 -3 10 19 12 20 12 20 0z m7068
-46 c53 -47 112 -129 100 -139 -2 -1 -32 1 -68 6 -36 4 -80 6 -98 2 l-33 -5 6
63 c9 95 15 129 23 129 4 0 35 -25 70 -56z m-7533 -4 c7 -11 -130 -93 -205
-121 -55 -21 -84 -21 -188 -2 -30 5 -33 8 -27 32 9 39 38 58 115 75 85 20 124
21 114 4 -4 -7 2 -5 12 5 14 13 36 17 96 17 42 0 79 -4 83 -10z m2780 -9 l30
-6 -3 -75 c-2 -41 -8 -90 -15 -107 l-11 -33 -84 0 -84 0 7 37 c4 20 10 68 14
106 4 42 13 72 22 78 16 10 78 10 124 0z m4967 -121 c63 -125 179 -461 160
-460 -9 1 -81 101 -115 160 -27 47 -97 231 -97 255 0 8 8 12 23 9 17 -4 15 -2
-6 8 -20 9 -35 29 -51 69 l-23 57 36 -12 c31 -10 41 -22 73 -86z m-4765 69 c6
-6 57 -13 114 -16 57 -3 110 -10 117 -16 22 -17 74 -98 68 -104 -3 -3 -29 -1
-58 5 -46 9 -60 7 -115 -13 -34 -13 -98 -27 -142 -31 l-81 -7 0 38 c0 25 12
56 36 96 37 61 43 66 61 48z m-3427 -24 c0 -8 -9 -15 -20 -15 -22 0 -27 15 -7
23 21 9 27 7 27 -8z m767 -67 c-23 -27 -53 -63 -67 -79 -18 -21 -55 -41 -125
-68 -55 -21 -102 -37 -104 -35 -8 7 55 80 131 156 82 80 99 88 175 79 l33 -3
-43 -50z m-213 3 c-78 -74 -140 -112 -222 -137 -42 -13 -78 -22 -80 -20 -2 3
-1 18 3 36 16 73 85 114 255 150 47 10 87 19 90 19 3 0 -18 -21 -46 -48z
m-764 2 c-1 -16 -252 -219 -308 -250 -51 -29 -70 -33 -139 -35 -45 -2 -85 0
-89 5 -4 4 6 22 23 40 16 17 40 47 52 64 48 70 165 129 322 162 103 21 139 25
139 14z m188 -8 c2 -2 -5 -38 -15 -81 l-18 -79 -69 -42 c-38 -23 -72 -41 -75
-41 -19 5 -168 -78 -243 -135 -49 -36 -92 -68 -97 -71 -16 -10 27 92 56 131
15 21 105 104 201 184 173 147 173 147 215 142 23 -3 43 -7 45 -8z m1253 -61
c12 -11 38 -23 59 -29 l39 -10 -57 -58 c-31 -32 -93 -80 -137 -106 -110 -65
-224 -151 -313 -235 -58 -54 -106 -118 -208 -273 -130 -197 -222 -306 -254
-301 -8 2 -28 28 -44 59 l-30 56 28 64 c37 88 102 198 175 299 34 47 100 160
146 253 l86 167 59 30 c33 17 62 30 66 30 3 0 -26 -34 -65 -76 -126 -135 -138
-162 -25 -54 127 120 212 186 201 154 -4 -10 9 1 30 25 56 66 83 74 161 46 35
-13 72 -31 83 -41z m-1142 27 l34 -6 -78 -52 c-44 -29 -80 -51 -82 -49 -3 3
26 106 34 119 3 5 17 5 32 1 14 -4 41 -10 60 -13z m1416 -45 c0 -5 -42 -27
-93 -47 -100 -41 -106 -32 -17 28 35 23 59 33 80 31 17 -2 30 -7 30 -12z
m-1312 -58 c-5 -45 -9 -50 -57 -78 -60 -35 -56 -39 9 -8 24 12 47 19 50 17 3
-3 8 -32 11 -65 l6 -60 -48 -26 c-105 -57 -173 -73 -290 -69 l-41 1 -10 51
-11 51 45 26 c24 15 110 69 190 119 81 51 148 92 149 90 1 -1 0 -23 -3 -49z
m2067 -9 c0 -5 -18 -9 -40 -9 -23 0 -54 -7 -70 -15 -17 -9 -30 -11 -30 -6 0 5
-3 16 -6 25 -5 12 4 15 43 18 60 4 103 -2 103 -13z m-1841 -36 c-15 -26 -42
-50 -87 -76 -36 -20 -66 -36 -67 -35 -1 2 -5 29 -8 60 l-5 57 46 6 c26 3 67
12 92 19 25 7 46 12 48 10 2 -1 -6 -20 -19 -41z m1461 17 c63 7 131 15 151 17
l35 5 12 -69 c6 -37 14 -95 17 -128 l5 -60 -79 -95 c-44 -52 -83 -105 -86
-118 -3 -13 -27 -49 -52 -80 -45 -55 -104 -167 -118 -225 -10 -38 -21 -26 -30
30 -10 70 -61 219 -97 283 -37 65 -58 138 -58 201 0 39 25 213 35 245 2 8 25
6 77 -4 62 -13 90 -13 188 -2z m536 -16 c60 -16 69 -21 120 -81 29 -35 54 -70
54 -76 -1 -25 -41 -59 -92 -79 -53 -20 -348 -72 -357 -62 -3 2 18 28 46 57 62
63 78 95 88 167 8 59 27 90 57 90 10 0 48 -7 84 -16z m4618 -33 c13 -40 13
-46 -2 -67 -9 -12 -37 -32 -62 -43 -65 -29 -112 -72 -180 -161 -33 -44 -65
-82 -72 -86 -33 -21 84 128 167 212 42 43 82 95 100 131 17 33 31 60 32 59 1
-1 8 -21 17 -45z m-5504 -59 c-16 -88 -54 -157 -105 -191 -22 -16 -85 -50
-140 -76 -84 -41 -113 -62 -180 -129 -126 -126 -226 -278 -266 -405 -13 -40
-28 -75 -34 -76 -46 -12 -278 -23 -308 -14 -21 5 -37 12 -37 14 0 6 96 163
164 270 99 154 203 290 261 344 54 49 245 174 254 166 2 -2 -16 -28 -40 -57
l-43 -53 42 40 c24 22 53 55 65 73 16 24 48 46 116 79 111 54 255 104 260 91
1 -5 -2 -39 -9 -76z m684 41 c-8 -44 -41 -110 -60 -117 -16 -6 -35 135 -19
146 5 4 27 8 48 8 l38 0 -7 -37z m-1594 11 c0 -4 -20 -48 -45 -98 -47 -97 -76
-127 -138 -144 -39 -11 -111 -57 -141 -91 -11 -11 -22 -21 -25 -21 -3 0 -5 45
-3 99 l3 100 44 25 c24 14 46 26 49 26 8 0 -19 -70 -53 -138 -17 -34 -29 -62
-27 -62 7 0 103 172 111 198 7 24 51 50 149 88 66 25 76 27 76 18z m-820 -158
l0 -45 -47 -6 c-27 -4 -74 -13 -106 -20 -32 -7 -55 -10 -50 -6 57 49 171 119
196 121 4 0 7 -20 7 -44z m3958 -30 c7 -7 17 -38 21 -70 5 -39 17 -70 40 -101
l32 -44 -40 -21 c-22 -11 -44 -20 -49 -20 -15 0 -76 52 -195 167 l-113 108
145 -3 c101 -3 150 -8 159 -16z m-3549 -120 l-5 -114 -45 -57 c-24 -31 -49
-63 -56 -72 -10 -13 -15 -13 -40 5 -15 11 -50 31 -78 45 -27 13 -58 34 -68 44
-17 19 -14 22 78 104 87 77 198 159 214 159 3 0 4 -51 0 -114z m1385 -107 c48
-90 74 -164 102 -297 l17 -84 -49 -41 c-27 -23 -86 -75 -131 -114 -75 -67 -86
-73 -126 -73 -24 0 -100 15 -169 34 -158 44 -275 66 -344 66 -30 0 -54 3 -54
8 0 4 18 40 40 80 63 115 177 270 260 352 72 72 100 90 244 156 33 15 78 46
100 68 l41 41 12 -56 c6 -30 32 -93 57 -140z m-1796 109 c-3 -27 2 -58 13 -84
22 -52 12 -64 -50 -64 -26 0 -77 -7 -116 -16 -38 -8 -105 -21 -148 -28 l-78
-13 7 56 c7 64 11 74 26 65 5 -4 7 -20 4 -38 -4 -22 -3 -27 4 -16 5 8 10 31
10 51 0 49 19 63 125 93 100 28 124 33 174 35 l33 1 -4 -42z m192 32 c0 -9
-107 -110 -117 -110 -15 0 -33 47 -33 85 l0 34 75 -2 c41 -1 75 -4 75 -7z
m410 -130 c-40 -62 -91 -152 -113 -201 l-41 -89 -27 28 -26 27 32 100 c31 94
36 103 95 158 56 53 137 103 149 92 2 -2 -29 -54 -69 -115z m2410 39 c0 -19
-39 -86 -62 -106 -97 -86 -133 -121 -151 -148 -14 -21 -3 -14 36 23 31 29 73
60 92 68 20 8 49 29 65 47 l29 32 1 -25 c0 -14 3 -42 6 -62 6 -35 4 -37 -34
-57 -22 -11 -93 -70 -158 -130 -142 -133 -167 -142 -313 -123 -108 15 -165 15
-211 2 -28 -8 -38 -7 -54 8 -44 38 -60 45 -31 13 30 -32 30 -33 10 -48 -11 -8
-46 -28 -78 -44 l-58 -30 -44 37 c-25 20 -45 41 -45 48 0 6 19 24 41 40 46 32
137 150 192 247 26 46 48 72 82 93 l46 29 27 -26 c15 -14 63 -44 107 -66 44
-22 98 -56 120 -75 l40 -34 -35 -39 -35 -38 37 34 38 35 32 -30 32 -29 -26 36
-27 36 25 24 c14 13 58 67 96 119 108 146 120 156 168 152 22 -2 40 -8 40 -13z
m232 -7 l136 -5 4 -64 c5 -105 7 -103 -124 -103 -62 0 -130 -4 -150 -9 -36 -8
-37 -8 -44 22 -8 37 -7 110 2 150 4 22 10 27 22 21 10 -3 79 -9 154 -12z
m-406 -24 c-9 -13 -27 -43 -40 -68 -25 -47 -112 -170 -121 -170 -3 0 -33 23
-67 51 -35 28 -83 61 -108 74 -25 13 -56 35 -70 50 l-25 26 85 -6 c107 -9 239
9 305 40 28 13 52 24 54 24 2 1 -4 -9 -13 -21z m690 -55 c30 -31 54 -60 54
-64 0 -8 -52 -19 -90 -19 -23 0 -29 5 -34 31 -10 49 -7 109 5 109 6 0 35 -26
65 -57z m-3926 -23 c0 -36 -2 -40 -25 -40 -14 0 -25 3 -25 6 0 9 41 74 46 74
2 0 4 -18 4 -40z m-120 -30 c0 -5 -8 -10 -17 -10 -15 0 -16 2 -3 10 19 12 20
12 20 0z m421 -40 c-65 -57 -139 -90 -226 -102 -41 -6 -78 -9 -81 -5 -3 3 -1
30 6 60 l11 55 77 7 c42 3 102 10 132 14 30 5 71 9 90 9 l35 1 -44 -39z m-316
-47 c-4 -32 -10 -61 -13 -64 -4 -4 -24 -10 -44 -13 -49 -9 -49 -5 -3 122 2 6
19 12 36 12 l31 0 -7 -57z m777 -5 c-20 -20 -33 2 -15 27 17 22 18 22 21 3 2
-11 -1 -25 -6 -30z m-916 -95 c-11 -11 -17 4 -9 23 7 18 8 18 11 1 2 -10 1
-21 -2 -24z m964 -89 c-29 -77 -121 -217 -128 -196 -4 13 23 120 49 192 11 30
22 61 25 69 3 11 12 7 34 -14 23 -22 27 -32 20 -51z m3538 -38 c21 -13 69 -40
108 -59 116 -59 108 -39 87 -216 l-18 -153 -40 7 c-22 3 -85 13 -140 21 -209
30 -237 54 -311 252 -28 75 -50 139 -47 142 6 6 190 27 261 29 50 1 70 -4 100
-23z m-3468 -46 l20 -40 -51 -25 c-50 -26 -51 -26 -44 -5 11 34 45 110 50 110
3 0 14 -18 25 -40z m1561 -80 c5 0 9 -4 9 -9 0 -9 -81 -33 -88 -26 -2 1 2 21
8 43 l12 39 26 -24 c14 -12 29 -23 33 -23z m-1473 -20 c19 -16 21 -23 12 -39
-6 -12 -25 -28 -43 -37 -18 -9 -63 -48 -102 -87 -65 -66 -206 -180 -213 -173
-1 2 11 27 28 57 18 29 52 93 77 143 25 50 47 93 49 95 4 4 156 60 164 60 3 0
15 -8 28 -19z m1315 -10 c-6 -24 -8 -25 -48 -34 l-30 -7 35 30 c41 36 50 38
43 11z m-646 -60 c48 -12 128 -40 177 -63 l89 -42 -45 -23 c-25 -12 -81 -27
-124 -32 -104 -13 -169 -33 -285 -86 -110 -50 -164 -57 -195 -23 -23 26 -103
73 -110 66 -3 -3 3 -10 14 -16 11 -6 35 -34 53 -63 18 -29 37 -56 42 -59 8 -5
-172 -123 -238 -156 -11 -6 -63 -13 -115 -17 -82 -6 -113 -3 -230 22 -74 16
-148 35 -163 44 l-29 14 87 54 c113 69 223 151 310 231 122 112 197 143 387
157 206 16 282 14 375 -8z m1108 -53 c38 -25 115 -68 115 -63 0 2 -24 19 -52
37 -52 33 -52 34 -24 37 49 6 92 -7 117 -34 39 -43 96 -74 133 -74 19 0 37 -4
40 -9 3 -5 -20 -33 -52 -62 -61 -57 -54 -57 16 -1 24 19 44 33 45 30 1 -2 19
-22 40 -44 l39 -42 -18 -33 c-9 -19 -74 -92 -143 -164 -70 -71 -155 -163 -190
-203 -97 -111 -110 -115 -326 -117 -128 -1 -201 -6 -253 -18 -84 -19 -189 -22
-247 -6 -22 6 -98 37 -170 69 -71 32 -143 64 -160 70 l-30 12 85 42 c47 23
104 55 127 69 50 31 61 34 42 10 -10 -14 -8 -13 11 2 13 11 30 25 37 30 26 20
276 290 303 327 l28 39 88 5 c121 6 209 26 295 67 88 42 80 40 104 24z m-565
-104 c0 -13 -81 -125 -178 -246 -126 -157 -142 -167 -68 -45 24 40 55 107 70
148 23 63 35 81 74 112 42 33 102 51 102 31z m-275 -115 c-4 -24 -21 -72 -36
-108 -34 -75 -66 -99 -248 -190 -103 -51 -116 -54 -176 -35 -11 3 -5 -2 13
-12 l32 -19 -87 -41 c-116 -55 -172 -62 -253 -29 -33 14 -78 39 -99 55 -21 17
-57 41 -80 55 l-42 23 28 11 c33 13 304 12 296 0 -2 -5 0 -15 7 -23 9 -10 7
-16 -7 -24 -23 -13 -2 -14 31 -1 16 6 26 17 26 29 0 28 27 44 265 164 116 58
237 124 270 146 33 22 62 41 63 41 2 0 1 -19 -3 -42z m-180 16 c-33 -25 -308
-160 -392 -192 -71 -27 -223 -66 -230 -58 -6 6 452 228 507 247 30 10 73 18
95 18 38 0 39 0 20 -15z m-1280 -224 c3 -5 -1 -10 -9 -10 -9 0 -16 5 -16 10 0
6 4 10 9 10 6 0 13 -4 16 -10z m469 -70 c-7 -7 -19 -7 -35 -1 -23 9 -22 10 11
10 23 1 31 -2 24 -9z"/>
<path d="M5908 7853 c7 -3 16 -2 19 1 4 3 -2 6 -13 5 -11 0 -14 -3 -6 -6z"/>
<path d="M9301 7464 c0 -11 3 -14 6 -6 3 7 2 16 -1 19 -3 4 -6 -2 -5 -13z"/>
<path d="M9690 3496 c0 -2 8 -10 18 -17 15 -13 16 -12 3 4 -13 16 -21 21 -21
13z"/>
<path d="M7250 3050 c8 -5 20 -10 25 -10 6 0 3 5 -5 10 -8 5 -19 10 -25 10 -5
0 -3 -5 5 -10z"/>
<path d="M498 2643 c7 -3 16 -2 19 1 4 3 -2 6 -13 5 -11 0 -14 -3 -6 -6z"/>
</g>
</svg>
