<?xml version="1.0" standalone="no"?>
<!DOCTYPE svg PUBLIC "-//W3C//DTD SVG 20010904//EN"
 "http://www.w3.org/TR/2001/REC-SVG-20010904/DTD/svg10.dtd">
<svg version="1.0" xmlns="http://www.w3.org/2000/svg"
 width="1280.000000pt" height="960.000000pt" viewBox="0 0 1280.000000 960.000000"
 preserveAspectRatio="xMidYMid meet">
<metadata>
Created by potrace 1.15, written by Peter Selinger 2001-2017
</metadata>
<g transform="translate(0.000000,960.000000) scale(0.100000,-0.100000)"
fill="#000000" stroke="none">
<path d="M5810 9015 c-210 -46 -396 -215 -533 -483 -102 -199 -139 -342 -138
-537 1 -191 56 -361 178 -544 99 -148 224 -258 383 -337 39 -19 70 -37 70 -40
0 -3 -9 -40 -19 -82 -42 -166 -36 -317 17 -421 30 -61 63 -90 113 -100 30 -6
35 -11 39 -46 3 -22 1 -50 -4 -62 -6 -16 -5 -32 3 -49 10 -22 9 -25 -6 -20
-101 30 -127 29 -283 -10 -121 -31 -198 -31 -297 1 -86 27 -211 94 -280 151
-90 74 -191 231 -227 353 -18 61 -21 176 -6 215 13 35 52 58 84 50 15 -3 52
-29 82 -56 68 -63 70 -54 3 17 -77 81 -133 92 -185 34 -68 -76 -55 -277 26
-440 89 -178 215 -298 419 -401 136 -68 260 -83 447 -51 99 17 102 16 155 -4
42 -16 55 -25 57 -44 2 -13 8 -28 13 -33 13 -14 11 -50 -3 -64 -9 -9 -8 -21 2
-52 11 -34 11 -44 0 -66 -11 -20 -12 -29 -2 -44 15 -24 16 -57 2 -65 -5 -3
-10 -17 -10 -30 0 -13 5 -27 10 -30 6 -3 10 -23 10 -44 0 -30 -4 -40 -20 -44
-31 -8 -37 -54 -10 -83 13 -13 22 -25 19 -27 -41 -34 -184 -137 -191 -137 -4
0 -8 -112 -8 -249 l0 -248 53 -7 c63 -8 263 -8 331 1 l48 6 -73 -86 c-41 -48
-81 -87 -89 -87 -8 0 -31 5 -50 10 -19 6 -111 26 -204 46 -396 82 -460 138
-581 499 -153 456 -312 733 -465 808 -65 31 -164 35 -221 8 -24 -11 -51 -26
-60 -32 -13 -10 -25 -4 -69 30 -73 57 -183 108 -266 122 -204 35 -406 -80
-515 -294 -49 -97 -51 -97 -91 -7 -15 33 -22 74 -26 151 -7 163 22 267 158
559 123 266 157 395 139 542 -17 150 -64 239 -173 328 -117 96 -279 160 -405
160 -218 0 -513 -168 -676 -384 -157 -210 -175 -446 -53 -679 20 -38 63 -93
113 -142 106 -107 199 -155 365 -189 22 -4 25 -10 25 -48 2 -131 11 -218 23
-218 6 0 12 -9 12 -20 0 -11 -7 -20 -15 -20 -8 0 -15 5 -15 12 0 6 -2 9 -5 7
-2 -3 1 -19 7 -37 9 -24 9 -36 -1 -55 -11 -20 -11 -31 0 -61 11 -29 11 -41 1
-56 -15 -24 -16 -57 -2 -65 14 -8 13 -41 -2 -64 -9 -15 -9 -28 2 -60 9 -28 10
-44 3 -53 -6 -7 -11 -44 -11 -81 0 -57 -3 -71 -20 -82 -28 -21 -32 -49 -11
-81 l18 -29 -97 -62 c-53 -35 -103 -63 -109 -63 -7 0 -13 -10 -13 -22 0 -32
-39 -436 -45 -476 -5 -24 -3 -32 7 -31 7 2 51 -3 98 -9 198 -29 346 -33 337
-8 -3 6 6 121 19 256 l23 245 -23 20 c-13 11 -55 49 -95 84 l-71 64 25 29 c30
35 30 39 6 69 -16 21 -18 32 -9 84 6 41 5 67 -2 86 -9 21 -9 36 1 62 7 20 9
42 4 53 -5 11 -7 30 -6 44 1 14 4 126 7 250 4 124 7 249 8 278 1 47 3 52 23
52 42 0 118 32 151 63 18 18 46 60 63 93 38 82 38 104 -1 27 -43 -85 -103
-138 -174 -153 -30 -6 -61 -8 -68 -4 -6 4 -34 8 -62 10 -110 4 -238 69 -340
170 -102 103 -165 231 -181 372 -34 297 262 639 635 733 101 26 170 22 259
-14 148 -60 263 -153 313 -255 31 -63 33 -72 32 -172 -1 -129 -16 -175 -147
-435 -156 -313 -192 -427 -192 -620 0 -161 27 -240 127 -372 l39 -52 -10 -57
c-38 -203 19 -403 136 -475 52 -32 124 -23 166 22 18 18 23 26 12 17 -11 -9
-39 -21 -63 -28 -56 -14 -103 7 -149 68 -51 68 -66 136 -61 273 3 64 8 121 12
127 4 7 27 -3 64 -27 76 -49 152 -82 297 -126 374 -114 443 -146 492 -221 66
-102 83 -124 123 -149 39 -24 40 -27 40 -78 0 -40 5 -59 20 -75 20 -22 21 -30
16 -375 -5 -328 -8 -393 -22 -489 -4 -25 -1 -44 9 -59 15 -21 13 -24 -76 -100
-51 -43 -98 -79 -105 -79 -9 0 -10 -11 -6 -41 l7 -40 -54 8 c-106 15 -307 8
-404 -16 -127 -30 -284 -111 -440 -227 -142 -106 -221 -148 -305 -164 -48 -9
-57 -8 -67 7 -12 16 -14 16 -26 -1 -13 -18 -17 -18 -98 -1 -46 9 -110 30 -142
47 -195 104 -337 423 -273 615 26 78 94 156 170 193 63 31 68 32 173 28 123
-5 196 -27 271 -81 94 -67 134 -178 97 -273 -23 -60 -58 -100 -129 -146 -76
-49 -61 -49 29 0 113 62 163 147 152 259 -19 185 -231 322 -483 311 -77 -3
-101 -9 -155 -35 -216 -107 -290 -297 -218 -561 80 -292 257 -471 513 -520
l87 -17 -6 -42 c-4 -26 -1 -49 6 -61 10 -16 10 -29 -1 -62 -11 -33 -11 -46 -2
-61 15 -23 16 -56 2 -64 -13 -8 -13 -62 0 -70 5 -3 10 -17 10 -30 0 -13 -5
-27 -10 -30 -13 -8 -13 -62 0 -70 13 -8 13 -52 0 -60 -14 -9 -13 -51 2 -75 10
-16 10 -24 0 -40 -8 -14 -10 -41 -6 -90 7 -67 6 -71 -20 -95 -31 -29 -33 -55
-6 -80 11 -10 20 -22 20 -26 0 -9 -195 -159 -207 -159 -4 0 -9 -123 -9 -273
l-2 -272 234 0 c129 0 234 3 234 6 0 4 9 9 20 12 18 5 20 15 22 123 5 201 -2
384 -14 384 -6 0 -62 38 -125 85 l-114 86 21 26 c27 35 26 69 -5 89 -20 13
-25 24 -25 60 0 23 4 46 10 49 13 8 13 52 0 60 -13 8 -13 62 0 70 13 8 13 52
0 60 -5 3 -10 17 -10 30 0 13 5 27 10 30 13 8 13 62 0 70 -13 8 -13 52 0 60
13 8 13 62 0 70 -13 8 -13 52 0 60 14 8 13 51 -2 75 -9 15 -9 24 1 43 7 13 12
37 11 53 -4 59 -4 59 63 61 134 6 223 40 411 163 238 154 338 186 541 176 66
-3 147 -12 180 -18 l60 -13 -4 -107 -3 -108 93 -1 c231 -2 339 0 348 5 5 3 7
15 4 26 -8 29 4 25 92 -29 168 -104 364 -281 403 -364 5 -12 15 -53 22 -90 23
-125 53 -190 241 -514 71 -122 129 -229 129 -237 0 -46 -129 -659 -185 -878
-35 -139 -80 -343 -100 -453 -21 -110 -50 -238 -67 -285 -41 -117 -45 -147
-21 -153 10 -3 200 -7 423 -8 465 -4 820 8 820 26 0 6 -23 41 -52 76 -72 90
-112 183 -159 371 -22 90 -58 224 -79 298 -46 159 -66 248 -79 350 -9 65 -8
77 7 93 42 47 101 83 210 127 187 76 229 97 288 143 102 80 138 150 251 482
137 404 313 723 552 1000 l86 100 3 -75 c2 -55 -1 -82 -14 -106 -12 -22 -15
-39 -9 -60 4 -16 8 -49 9 -74 1 -25 5 -53 10 -62 6 -13 -10 -30 -71 -78 -43
-35 -93 -72 -111 -84 l-33 -21 3 -283 3 -283 238 3 238 3 0 283 0 283 -35 24
c-119 81 -187 139 -179 154 4 9 8 39 8 68 0 28 3 55 8 59 12 12 8 49 -8 70
-10 14 -14 47 -15 121 l0 102 86 73 c192 164 335 251 467 284 79 21 206 15
262 -11 89 -42 172 -152 220 -290 20 -56 31 -228 21 -300 -6 -39 -10 -45 -24
-39 -31 14 -110 16 -166 4 -142 -29 -276 -144 -355 -302 -78 -160 -86 -272
-21 -320 17 -12 30 -30 30 -41 0 -10 13 -31 28 -45 l28 -27 2 -316 c2 -273 0
-318 -13 -329 -17 -14 -20 -66 -4 -76 6 -3 9 -17 6 -30 -2 -13 0 -21 4 -18 5
3 9 12 9 20 0 19 26 18 34 -2 13 -34 7 -47 -20 -41 -24 4 -26 2 -21 -23 5 -25
-2 -33 -93 -101 l-99 -74 -1 -252 0 -253 53 0 c243 -3 382 1 385 10 2 6 42 10
93 10 l89 0 0 235 0 235 -89 0 c-49 0 -91 3 -93 8 -1 4 -47 39 -100 79 l-97
72 3 60 c1 33 5 63 9 67 12 12 8 61 -6 72 -10 9 -13 83 -15 331 l-2 320 30 29
c17 17 30 37 30 45 0 9 16 21 38 28 136 44 296 192 404 374 46 77 95 220 109
321 15 106 5 279 -21 379 -43 159 -161 330 -273 393 -108 61 -170 77 -307 76
-202 0 -369 -54 -567 -180 l-53 -34 0 41 c0 29 7 50 25 70 34 41 41 88 20 132
-14 30 -16 63 -13 209 l3 173 36 16 c71 33 108 124 75 188 -15 29 -15 36 -1
83 28 94 13 230 -40 376 -15 41 -24 79 -22 86 6 16 191 141 407 276 169 105
251 161 354 238 l58 45 52 -12 c225 -50 476 -289 591 -561 70 -167 107 -387
87 -522 -7 -42 -21 -102 -33 -133 -72 -194 -413 -338 -640 -272 -127 38 -178
107 -179 242 0 96 10 135 49 197 60 94 163 129 276 94 69 -21 68 -12 -2 14
-116 44 -229 9 -299 -93 -41 -59 -54 -101 -61 -193 -11 -143 43 -235 175 -297
58 -27 80 -32 169 -35 132 -5 225 15 346 76 155 77 241 181 284 342 24 91 24
315 -1 430 -79 368 -300 678 -586 820 -36 18 -66 34 -68 35 -7 6 109 155 121
155 27 0 125 -31 250 -79 287 -110 401 -117 573 -32 242 120 425 433 428 731
1 145 -19 208 -87 276 -122 121 -322 135 -511 36 -77 -40 -199 -152 -254 -234
-25 -36 -9 -23 71 57 111 111 191 163 292 189 169 45 343 -14 407 -138 19 -34
22 -57 22 -141 0 -130 -21 -211 -92 -355 -49 -101 -67 -126 -141 -201 -94 -94
-171 -140 -272 -161 -83 -17 -164 6 -319 92 -69 38 -162 83 -205 101 -44 17
-81 33 -83 34 -2 2 10 29 26 61 49 97 140 336 176 461 70 242 103 551 93 863
-4 102 -13 217 -21 257 -80 390 -348 630 -625 559 -150 -38 -315 -167 -406
-315 l-40 -65 -3 40 c-12 169 -68 343 -133 417 -60 69 -101 90 -173 91 -118 2
-218 -84 -304 -258 -84 -171 -123 -361 -123 -604 0 -166 6 -221 47 -452 31
-175 35 -316 10 -410 -16 -61 -33 -93 -135 -258 -79 -127 -150 -347 -171 -529
-17 -155 18 -365 95 -563 24 -63 36 -114 41 -174 l7 -84 -119 -130 c-66 -71
-120 -128 -121 -127 -1 0 3 69 9 152 13 184 -3 735 -27 913 -22 157 -59 341
-91 442 -58 184 -179 376 -288 457 -35 27 -49 45 -56 75 -31 120 -95 261 -150
328 -75 91 -225 120 -342 66 -35 -16 -84 -52 -124 -92 l-67 -65 -56 21 c-145
53 -290 169 -377 300 -163 244 -194 489 -99 775 80 239 199 413 353 514 93 61
159 83 247 84 121 0 234 -70 288 -177 27 -55 57 -156 57 -195 0 -38 -20 -120
-35 -139 -13 -18 -14 -18 -38 4 -35 33 -77 133 -89 211 -14 91 -20 102 -28 56
-14 -75 16 -191 69 -269 58 -84 110 -76 147 24 37 103 2 298 -69 392 -104 136
-266 198 -427 163z m2037 -584 c38 -28 84 -107 116 -197 30 -86 32 -95 32
-249 0 -152 -1 -163 -26 -215 -35 -72 -62 -100 -100 -100 -17 0 -39 -4 -49
-10 -15 -8 -25 -4 -51 17 -49 42 -79 115 -80 198 -1 88 -17 51 -18 -44 -1 -76
21 -129 73 -180 28 -27 33 -38 26 -55 -13 -34 0 -74 32 -101 16 -14 33 -25 37
-25 4 0 7 -82 6 -182 -1 -101 2 -198 6 -216 4 -19 3 -35 -3 -38 -6 -4 -7 -22
-3 -43 3 -20 6 -47 6 -61 0 -14 -3 -41 -6 -61 -4 -23 -3 -39 4 -43 18 -12 12
-37 -14 -62 -32 -29 -34 -77 -4 -97 18 -13 20 -23 17 -76 l-5 -61 -84 -63
c-46 -35 -94 -69 -106 -75 -18 -10 -20 -18 -16 -52 6 -39 5 -40 -25 -40 -57 0
-130 -21 -177 -51 l-47 -30 7 33 c8 39 53 134 129 273 137 248 152 449 62 822
-55 230 -71 360 -62 513 13 244 84 458 183 552 51 49 92 55 140 19z m920 -167
c105 -51 207 -198 252 -364 71 -258 42 -800 -60 -1105 -60 -178 -288 -605
-324 -605 -35 0 -199 -96 -274 -160 l-81 -70 0 189 0 189 -86 7 c-47 4 -93 13
-103 20 -9 8 -58 48 -110 90 l-94 76 -4 60 c-4 52 -1 62 18 78 28 22 28 69 1
91 -18 15 -19 26 -17 140 2 76 -2 131 -8 141 -8 13 -8 25 1 44 15 32 16 72 2
80 -5 3 -10 17 -10 30 0 13 5 27 10 30 6 3 10 19 10 35 0 16 -4 32 -10 35 -5
3 -10 17 -10 30 0 13 5 27 10 30 6 3 10 19 10 35 0 16 -4 32 -10 35 -27 17 -4
49 61 82 3 2 6 -34 6 -79 5 -365 230 -628 493 -578 144 27 304 149 367 280
121 252 120 483 -2 629 -38 44 -48 39 -20 -11 45 -81 58 -150 53 -277 -10
-244 -116 -429 -296 -518 -69 -34 -84 -38 -156 -38 -71 0 -88 4 -135 30 -150
83 -230 287 -218 555 13 263 115 502 286 663 148 139 300 174 448 101z m-807
-634 c0 -5 -2 -10 -4 -10 -3 0 -8 5 -11 10 -3 6 -1 10 4 10 6 0 11 -4 11 -10z
m-22 -51 c4 -47 -23 -80 -69 -85 -53 -5 -96 41 -83 91 6 23 10 24 44 19 21 -4
46 -1 56 5 32 18 49 9 52 -30z m-60 -187 c2 -15 -2 -22 -12 -22 -11 0 -16 9
-16 26 0 31 23 28 28 -4z m-1667 -83 c19 -7 46 -23 61 -37 27 -25 72 -109 84
-156 l6 -25 -83 30 c-46 17 -131 45 -189 62 -58 17 -107 32 -109 34 -10 7 46
55 93 78 55 28 86 31 137 14z m1667 -51 c-5 -32 -28 -35 -28 -4 0 17 5 26 16
26 10 0 14 -7 12 -22z m2 -133 c0 -16 -6 -25 -15 -25 -9 0 -15 9 -15 25 0 16
6 25 15 25 9 0 15 -9 15 -25z m-1645 -216 c40 -16 94 -43 120 -60 l48 -30 -6
-92 c-7 -134 8 -267 44 -379 29 -91 47 -127 162 -323 26 -45 63 -125 82 -179
34 -93 35 -104 33 -210 l-3 -111 -122 160 c-152 201 -267 330 -373 420 -91 78
-195 148 -246 167 -35 12 -42 22 -24 33 7 4 8 35 4 84 l-7 77 45 17 c53 20
101 65 131 121 16 31 22 59 22 117 0 68 -3 79 -28 112 -31 41 -59 62 -97 71
-18 5 -14 1 12 -14 55 -30 81 -73 86 -142 5 -72 -15 -132 -61 -176 -38 -37
-103 -67 -112 -51 -5 7 -11 7 -20 -1 -18 -15 -57 2 -84 36 -63 80 -67 254 -10
430 l20 62 156 -54 c85 -30 188 -68 228 -85z m1645 86 c0 -16 -6 -25 -15 -25
-9 0 -15 9 -15 25 0 16 6 25 15 25 9 0 15 -9 15 -25z m0 -130 c0 -16 -6 -25
-15 -25 -9 0 -15 9 -15 25 0 16 6 25 15 25 9 0 15 -9 15 -25z m18 -117 c7 -7
12 -21 12 -33 0 -12 -5 -26 -12 -33 -7 -7 -21 -12 -33 -12 -12 0 -26 5 -33 12
-7 7 -12 21 -12 33 0 12 5 26 12 33 7 7 21 12 33 12 12 0 26 -5 33 -12z m-31
-145 c-3 -10 -5 -2 -5 17 0 19 2 27 5 18 2 -10 2 -26 0 -35z m-1257 -50 c25
-57 81 -235 76 -241 -8 -7 -54 83 -74 143 -22 65 -37 145 -28 145 3 0 14 -21
26 -47z m1294 -188 c4 -12 -4 -15 -39 -15 -33 0 -45 4 -45 15 0 11 11 15 39
15 25 0 41 -5 45 -15z m-1954 -30 c0 -8 -7 -15 -15 -15 -8 0 -15 7 -15 15 0 8
7 15 15 15 8 0 15 -7 15 -15z m2130 -241 c0 -200 -3 -255 -12 -252 -10 4 -14
66 -18 251 -5 236 -3 254 23 256 4 1 7 -114 7 -255z m-58 6 c3 -238 3 -240
-18 -240 -18 0 -22 8 -27 59 -4 33 -14 77 -22 99 -12 28 -17 78 -18 173 l-2
134 35 6 c19 4 38 7 42 8 4 0 9 -107 10 -239z m-222 185 l0 -46 -30 16 c-17 9
-28 20 -25 24 3 5 -4 7 -15 4 -16 -4 -20 0 -20 21 0 24 3 26 45 26 l45 0 0
-45z m110 -61 l0 -106 -45 49 c-41 45 -44 52 -45 106 l0 57 45 0 45 0 0 -106z
m337 100 c23 -6 23 -8 22 -193 0 -214 -3 -223 -89 -256 -25 -9 -51 -19 -57
-22 -10 -4 -13 47 -13 236 l0 241 58 0 c31 0 67 -3 79 -6z m-5277 -130 c0 -34
-4 -53 -10 -49 -5 3 -10 28 -10 56 0 27 5 49 10 49 6 0 10 -25 10 -56z m4668
-172 l-3 -199 37 -11 c21 -7 82 -12 137 -12 59 0 102 -4 106 -10 11 -17 -24
-60 -59 -75 -39 -17 -79 -9 -156 29 -31 16 -48 21 -40 12 8 -8 45 -30 83 -49
l67 -33 -116 -80 c-63 -43 -124 -85 -134 -93 -18 -12 -22 -9 -51 55 -85 189
-129 329 -129 414 0 118 120 246 233 249 l29 1 -4 -198z m127 137 c-4 -5 -3
-9 2 -8 31 5 33 -2 33 -145 l0 -144 -45 -4 -45 -3 0 173 0 173 30 -16 c17 -9
28 -20 25 -26z m-1815 -66 c0 -20 -24 -11 -28 10 -2 12 1 15 12 11 9 -3 16
-13 16 -21z m1930 -56 c23 -46 30 -74 30 -119 l0 -58 -45 0 -45 0 0 131 c0
150 6 154 60 46z m-4910 53 c0 -11 -4 -20 -10 -20 -5 0 -10 9 -10 20 0 11 5
20 10 20 6 0 10 -9 10 -20z m1065 5 c80 -21 146 -59 216 -125 l60 -55 -21 -80
c-15 -55 -22 -114 -23 -191 l-2 -111 -45 14 c-25 8 -126 34 -225 58 -209 51
-293 79 -370 126 -66 40 -66 44 -3 153 50 85 110 147 177 181 91 46 147 53
236 30z m2064 -122 c72 -72 168 -186 248 -293 136 -182 263 -365 263 -379 0
-4 -40 -38 -89 -74 -97 -73 -276 -231 -328 -290 -18 -20 -35 -37 -38 -37 -3 0
-6 60 -5 133 2 317 1 367 -13 367 -8 0 -53 30 -101 66 l-88 66 22 23 c26 28
21 68 -10 85 -22 12 -29 73 -10 85 14 8 13 41 -2 65 -10 16 -10 24 0 40 6 11
12 29 12 40 0 11 -6 29 -12 40 -10 16 -10 24 0 40 15 24 16 57 2 65 -23 14 -4
75 23 75 6 0 62 -53 126 -117z m-151 15 c-2 -13 -7 -23 -13 -23 -5 0 -11 10
-13 23 -2 15 2 22 13 22 11 0 15 -7 13 -22z m-1349 -13 c115 -59 235 -307 348
-715 91 -330 141 -412 343 -554 85 -60 240 -131 401 -183 l146 -47 -52 -105
c-29 -59 -63 -135 -74 -171 -68 -207 -13 -403 132 -477 46 -23 60 -25 128 -20
l77 5 -20 -62 c-48 -157 -114 -397 -154 -565 -24 -101 -46 -186 -48 -188 -6
-6 -32 52 -53 117 -10 31 -18 121 -24 280 -4 129 -15 269 -23 312 -33 173
-122 382 -237 558 -64 97 -164 203 -373 394 -117 107 -164 165 -220 266 -30
56 -43 102 -86 311 -80 393 -152 579 -302 786 -34 47 -36 53 -20 62 25 15 79
13 111 -4z m1351 -105 c0 -11 -7 -20 -15 -20 -8 0 -15 9 -15 20 0 11 7 20 15
20 8 0 15 -9 15 -20z m-2980 -26 c0 -31 -23 -28 -28 4 -2 15 2 22 12 22 11 0
16 -9 16 -26z m1494 -191 c19 -45 44 -117 56 -160 12 -43 24 -86 26 -96 4 -13
-9 -8 -53 20 -32 21 -80 49 -106 63 l-47 25 0 67 c0 65 22 208 36 230 9 14 45
-46 88 -149z m3546 132 c-55 -30 -59 -30 -53 -6 5 18 22 24 83 29 8 1 -5 -10
-30 -23z m-2060 -36 c0 -10 -7 -19 -15 -19 -15 0 -21 31 -9 43 11 10 24 -3 24
-24z m-2980 -24 c0 -16 -6 -25 -15 -25 -15 0 -21 31 -8 43 13 14 23 6 23 -18z
m3000 -110 c23 -28 8 -50 -35 -50 -30 0 -41 4 -43 18 -5 25 16 47 43 47 12 0
28 -7 35 -15z m-3000 -15 c0 -11 -7 -20 -15 -20 -8 0 -15 9 -15 20 0 11 7 20
15 20 8 0 15 -9 15 -20z m0 -120 c0 -11 -7 -20 -15 -20 -8 0 -15 9 -15 20 0
11 7 20 15 20 8 0 15 -9 15 -20z m-19 -97 c-9 -16 -10 -16 -11 -1 0 9 3 25 7
35 7 16 8 17 11 1 2 -10 -1 -25 -7 -35z m3069 -3 c0 -6 -33 -10 -80 -10 -47 0
-80 4 -80 10 0 6 33 10 80 10 47 0 80 -4 80 -10z m-3040 -50 c15 -28 -5 -67
-25 -50 -8 6 -23 9 -33 6 -24 -8 -33 10 -21 42 11 29 63 31 79 2z m3040 -195
l0 -215 -85 0 -85 0 0 215 0 215 85 0 85 0 0 -215z m656 53 c19 -37 14 -93
-16 -191 -29 -94 -136 -333 -146 -327 -11 6 -11 53 -2 95 6 25 4 24 -12 -10
-22 -45 -25 -87 -9 -113 9 -14 2 -36 -31 -109 l-43 -92 -71 65 c-39 36 -105
86 -146 111 -41 26 -77 48 -79 49 -7 6 149 193 242 290 71 75 282 264 294 264
1 0 10 -14 19 -32z m-3833 -95 c-7 -2 -19 -2 -25 0 -7 3 -2 5 12 5 14 0 19 -2
13 -5z m107 -3 c20 -6 14 -8 -27 -9 -29 -1 -53 3 -53 9 0 12 44 12 80 0z
m-111 -26 c5 -4 -27 -371 -35 -416 -5 -23 -11 -28 -35 -28 -35 0 -35 -16 -9
250 11 113 20 207 20 209 0 4 53 -9 59 -15z m99 -4 c33 0 34 -1 28 -37 -3 -21
-13 -122 -22 -225 l-17 -188 -54 0 c-36 0 -53 4 -53 13 0 6 9 104 20 217 11
113 20 211 20 219 0 9 7 11 23 7 12 -3 37 -6 55 -6z m1622 -135 c0 -5 -5 -3
-10 5 -5 8 -10 20 -10 25 0 6 5 3 10 -5 5 -8 10 -19 10 -25z m17 -67 c-3 -8
-6 -5 -6 6 -1 11 2 17 5 13 3 -3 4 -12 1 -19z m13 -42 c0 -8 -4 -18 -10 -21
-5 -3 -10 3 -10 14 0 12 5 21 10 21 6 0 10 -6 10 -14z m248 -456 c96 -143 226
-303 352 -435 102 -106 107 -113 134 -195 31 -95 36 -178 17 -301 -21 -133 -9
-128 -114 -51 -176 131 -298 203 -408 241 l-31 11 3 89 3 89 -97 77 c-90 71
-110 96 -88 109 14 9 19 40 9 66 -14 37 -19 156 -19 460 0 151 0 277 1 280 0
2 38 -72 84 -166 46 -93 116 -217 154 -274z m-248 385 c0 -14 -4 -25 -10 -25
-5 0 -10 11 -10 25 0 14 5 25 10 25 6 0 10 -11 10 -25z m-13 -77 c-3 -7 -5 -2
-5 12 0 14 2 19 5 13 2 -7 2 -19 0 -25z m13 -53 c0 -14 -4 -25 -10 -25 -5 0
-10 11 -10 25 0 14 5 25 10 25 6 0 10 -11 10 -25z m-13 -77 c-3 -7 -5 -2 -5
12 0 14 2 19 5 13 2 -7 2 -19 0 -25z m13 -59 c0 -10 -4 -19 -10 -19 -5 0 -10
12 -10 26 0 14 4 23 10 19 6 -3 10 -15 10 -26z m-13 -76 c-3 -10 -5 -4 -5 12
0 17 2 24 5 18 2 -7 2 -21 0 -30z m1441 -6 c84 -62 212 -201 212 -229 0 -33
-251 -238 -290 -238 -41 0 -90 90 -90 165 0 71 97 325 125 325 6 0 25 -10 43
-23z m1534 -163 c8 -148 7 -157 -12 -181 -13 -17 -20 -41 -20 -70 0 -36 6 -50
30 -75 26 -25 30 -37 30 -81 -1 -51 -1 -52 -52 -87 -292 -197 -669 -634 -842
-974 -36 -70 -80 -178 -105 -256 -71 -227 -87 -262 -142 -302 -28 -21 -209
-89 -209 -79 0 3 6 40 14 81 8 41 31 181 51 310 45 290 78 440 156 696 33 109
76 253 95 318 41 142 59 169 216 322 118 115 156 141 373 253 122 63 253 153
348 241 28 26 54 46 56 44 2 -2 8 -74 13 -160z m-2962 116 c0 -11 -4 -20 -10
-20 -5 0 -10 9 -10 20 0 11 5 20 10 20 6 0 10 -9 10 -20z m-13 -77 c-3 -10 -5
-4 -5 12 0 17 2 24 5 18 2 -7 2 -21 0 -30z m13 -53 c0 -11 -4 -20 -10 -20 -5
0 -10 9 -10 20 0 11 5 20 10 20 6 0 10 -9 10 -20z m5 -80 c0 -25 -5 -36 -18
-38 -21 -4 -31 19 -23 54 10 40 41 28 41 -16z m13 -104 c3 -35 1 -38 -12 -27
-8 7 -24 10 -36 6 -17 -5 -20 -2 -20 23 0 36 8 44 40 40 21 -3 25 -9 28 -42z
m2992 -41 c16 0 29 8 36 23 l12 23 6 -26 c19 -76 -58 -140 -98 -83 -17 23 -21
64 -10 93 6 14 8 13 18 -7 7 -15 20 -23 36 -23z m10 -131 c0 -8 -4 -14 -10
-14 -5 0 -10 9 -10 21 0 11 5 17 10 14 6 -3 10 -13 10 -21z m0 -54 c0 -11 -4
-20 -10 -20 -5 0 -10 9 -10 20 0 11 5 20 10 20 6 0 10 -9 10 -20z m-3072 -72
c2 -28 0 -37 -10 -34 -7 3 -39 10 -70 16 -52 10 -58 14 -58 36 0 24 2 25 68
22 l67 -3 3 -37z m52 -4 c0 -59 -24 -55 -28 4 -2 33 0 42 12 42 12 0 16 -11
16 -46z m160 -20 c0 -58 -2 -65 -17 -60 -10 3 -38 10 -63 16 l-45 11 3 50 4
49 59 0 59 0 0 -66z m-275 -282 l60 -18 3 -67 3 -67 -77 0 c-65 0 -75 2 -70
16 3 9 6 47 6 85 0 38 3 69 8 69 4 0 34 -8 67 -18z m113 -90 c-2 -33 -8 -57
-15 -60 -10 -3 -13 14 -13 62 0 55 2 64 15 59 12 -4 15 -18 13 -61z m101 12
c39 -17 61 -33 61 -43 0 -13 -10 -15 -65 -13 l-65 4 0 39 c0 21 2 39 4 39 3 0
32 -12 65 -26z m2921 -24 c0 -11 -4 -20 -10 -20 -5 0 -10 9 -10 20 0 11 5 20
10 20 6 0 10 -9 10 -20z m0 -65 c0 -14 -4 -25 -10 -25 -5 0 -10 11 -10 25 0
14 5 25 10 25 6 0 10 -11 10 -25z m0 -65 c0 -11 -4 -20 -10 -20 -5 0 -10 9
-10 20 0 11 5 20 10 20 6 0 10 -9 10 -20z m20 -59 c15 -30 -3 -68 -32 -66 -40
3 -39 85 1 85 11 0 25 -9 31 -19z m-4540 -62 c0 -24 -23 -21 -28 4 -2 10 3 17
12 17 10 0 16 -9 16 -21z m5559 -22 c8 -11 6 -28 -8 -69 -69 -201 -275 -425
-399 -434 -21 -1 -49 -5 -64 -9 -37 -9 -42 16 -24 105 40 190 176 358 329 405
57 18 151 19 166 2z m-1025 -13 c14 -37 7 -54 -24 -54 -26 0 -30 4 -30 28 0
16 3 32 7 35 12 13 41 7 47 -9z m-4534 -90 c0 -31 -23 -28 -28 4 -2 15 2 22
12 22 11 0 16 -9 16 -26z m0 -118 c0 -14 -5 -28 -10 -31 -13 -8 -24 20 -16 40
9 24 26 17 26 -9z m4580 -336 l0 -260 -69 0 -70 0 -1 254 -1 255 38 4 c21 2
53 4 71 5 l32 2 0 -260z m-177 243 l-23 -4 0 -244 0 -244 28 -4 c25 -4 25 -4
-5 -6 l-33 -1 0 255 0 255 28 -1 c23 -2 24 -2 5 -6z m235 0 c-16 -4 -17 -25
-17 -240 0 -130 -3 -238 -5 -241 -3 -2 -5 106 -5 242 l0 246 22 -1 c16 -1 18
-2 5 -6z m-4638 -38 c0 -16 -6 -25 -15 -25 -9 0 -15 9 -15 25 0 16 6 25 15 25
9 0 15 -9 15 -25z m4417 -108 c-2 -23 -3 -1 -3 48 0 50 1 68 3 42 2 -26 2 -67
0 -90z m230 81 c-2 -13 -4 -5 -4 17 -1 22 1 32 4 23 2 -10 2 -28 0 -40z
m-4647 -103 c0 -16 -6 -25 -15 -25 -9 0 -15 9 -15 25 0 16 6 25 15 25 9 0 15
-9 15 -25z m0 -130 c0 -16 -6 -25 -15 -25 -9 0 -15 9 -15 25 0 16 6 25 15 25
9 0 15 -9 15 -25z m5136 5 c48 0 57 -15 27 -42 -15 -13 -41 -16 -74 -9 -6 1
-29 47 -29 58 0 3 7 2 16 -1 9 -3 36 -6 60 -6z m-9 -102 c-3 -8 -6 -5 -6 6 -1
11 2 17 5 13 3 -3 4 -12 1 -19z m-1 -65 c-11 -11 -19 6 -11 24 8 17 8 17 12 0
3 -10 2 -21 -1 -24z m-5111 11 c9 -9 15 -26 13 -38 -2 -17 -9 -20 -32 -18 -16
2 -32 -2 -36 -9 -6 -8 -11 -5 -20 10 -9 18 -8 27 5 47 18 28 47 31 70 8z
m5112 -66 c-3 -7 -5 -2 -5 12 0 14 2 19 5 13 2 -7 2 -19 0 -25z m3 -48 c0 -11
-4 -20 -9 -20 -7 0 -8 17 -2 38 4 10 11 -2 11 -18z m-3 -72 c-3 -7 -5 -2 -5
12 0 14 2 19 5 13 2 -7 2 -19 0 -25z m9 -64 c-5 -13 -10 -14 -18 -6 -6 6 -8
18 -4 28 5 13 10 14 18 6 6 -6 8 -18 4 -28z m-5068 -276 l-3 -253 -90 0 -90 0
1 33 c0 17 1 131 2 252 l2 220 90 0 90 0 -2 -252z m5059 220 c-3 -7 -5 -2 -5
12 0 14 2 19 5 13 2 -7 2 -19 0 -25z m-4890 -75 c-4 -54 -7 -162 -7 -240 0
-89 -4 -143 -10 -143 -6 0 -10 87 -10 240 0 216 2 240 17 240 14 0 15 -11 10
-97z m4903 22 c0 -8 -4 -17 -10 -20 -6 -4 -10 5 -10 20 0 15 4 24 10 20 6 -3
10 -12 10 -20z m-13 -67 c-3 -7 -5 -2 -5 12 0 14 2 19 5 13 2 -7 2 -19 0 -25z
m13 -53 c0 -8 -4 -17 -10 -20 -6 -4 -10 5 -10 20 0 15 4 24 10 20 6 -3 10 -12
10 -20z m-13 -67 c-3 -8 -6 -5 -6 6 -1 11 2 17 5 13 3 -3 4 -12 1 -19z m28
-68 c0 -28 -4 -36 -21 -38 -28 -4 -48 22 -40 54 5 20 12 25 34 22 24 -3 27 -7
27 -38z m-5068 -147 c-3 -10 -5 -2 -5 17 0 19 2 27 5 18 2 -10 2 -26 0 -35z
m5133 -408 l0 -235 -90 0 -90 0 0 235 0 235 90 0 90 0 0 -235z m110 0 l0 -235
-40 0 -40 0 0 235 0 235 40 0 40 0 0 -235z m190 0 l0 -226 -83 3 -82 3 -3 223
-3 222 85 0 86 0 0 -225z"/>
<path d="M7843 6363 c9 -2 25 -2 35 0 9 3 1 5 -18 5 -19 0 -27 -2 -17 -5z"/>
<path d="M7721 6303 c0 -11 3 -13 6 -5 7 19 51 15 56 -5 4 -14 5 -12 6 5 1 19
-4 22 -34 22 -27 0 -35 -4 -34 -17z"/>
<path d="M7722 6150 c0 -19 2 -27 5 -17 2 9 2 25 0 35 -3 9 -5 1 -5 -18z"/>
<path d="M8352 1123 l3 -228 2 220 c3 160 7 221 16 227 8 5 7 8 -5 8 -17 0
-18 -17 -16 -227z"/>
</g>
</svg>
