<?xml version="1.0" standalone="no"?>
<!DOCTYPE svg PUBLIC "-//W3C//DTD SVG 20010904//EN"
 "http://www.w3.org/TR/2001/REC-SVG-20010904/DTD/svg10.dtd">
<svg version="1.0" xmlns="http://www.w3.org/2000/svg"
 width="1280.000000pt" height="1254.000000pt" viewBox="0 0 1280.000000 1254.000000"
 preserveAspectRatio="xMidYMid meet">
<metadata>
Created by potrace 1.15, written by Peter Selinger 2001-2017
</metadata>
<g transform="translate(0.000000,1254.000000) scale(0.100000,-0.100000)"
fill="#000000" stroke="none">
<path d="M5 12528 c-3 -7 -4 -2828 -3 -6268 l3 -6255 6398 -3 6397 -2 0 6270
0 6270 -6395 0 c-5107 0 -6397 -3 -6400 -12z m11760 -469 c-22 -11 -825 -370
-1785 -798 l-1745 -779 -7 -188 c-4 -104 -12 -1055 -18 -2114 -6 -1059 -15
-2463 -20 -3120 -5 -657 -10 -1526 -12 -1930 l-3 -734 235 -93 c129 -51 847
-331 1595 -623 2479 -968 2235 -870 2235 -896 l0 -24 -5737 0 c-3155 0 -5734
2 -5732 5 3 2 160 65 349 139 190 74 1089 425 1999 780 910 356 1656 648 1658
650 3 3 -6 1411 -28 4406 -6 828 -14 1993 -17 2590 l-7 1085 -220 98 c-121 54
-951 425 -1845 824 -894 399 -1632 729 -1640 734 -8 5 2347 8 5385 8 5385 0
5400 0 5360 -20z m209 -1829 c9 -718 18 -1360 21 -1428 4 -97 3 -124 -8 -128
-35 -13 -2023 -380 -2030 -375 -24 23 -35 2677 -11 2701 6 6 459 202 1005 434
l994 423 7 -161 c3 -89 14 -748 22 -1466z m-9963 1137 l994 -423 6 -109 c18
-308 5 -2583 -15 -2602 -5 -5 -2026 374 -2033 381 -4 4 1 595 10 1314 20 1479
27 1862 37 1862 4 0 454 -190 1001 -423z m7802 -3097 c-4 -4 -327 -67 -718
-140 -390 -72 -721 -134 -734 -137 l-24 -6 5 1167 c3 642 8 1169 11 1172 2 3
330 143 728 313 l724 308 8 -1335 c4 -734 4 -1338 0 -1342z m-5928 2300 c391
-166 712 -304 715 -307 3 -3 7 -529 10 -1169 4 -913 2 -1164 -7 -1164 -29 0
-1458 272 -1464 278 -3 4 -4 607 -1 1340 4 1226 6 1333 21 1329 9 -2 336 -141
726 -307z m8099 -2652 c9 -495 35 -2440 37 -2693 l1 -200 -29 3 c-15 1 -329
27 -698 58 -1178 98 -1314 110 -1322 118 -4 4 -10 628 -12 1386 l-3 1379 23 6
c23 5 374 61 1444 230 264 42 485 78 490 80 6 2 22 4 36 4 l27 1 6 -372z
m-10602 248 c222 -36 662 -106 978 -156 316 -50 588 -94 603 -98 l29 -7 -2
-1380 c0 -759 -4 -1383 -8 -1386 -8 -8 -2045 -179 -2051 -173 -6 6 39 3264 45
3264 2 0 184 -29 406 -64z m8427 -1898 c0 -582 0 -1058 -1 -1058 -2 0 -322 27
-713 60 -390 33 -721 60 -734 60 l-24 0 5 1190 c2 654 6 1191 9 1194 2 2 328
55 724 118 l720 114 6 -311 c4 -170 7 -786 8 -1367z m-5919 1499 l705 -113 7
-44 c7 -50 13 -2329 6 -2336 -5 -4 -1405 -124 -1448 -124 -20 0 -20 8 -20 518
0 284 3 898 7 1365 6 764 8 847 22 847 9 -1 333 -51 721 -113z m5136 -2817
c870 -100 781 -86 789 -118 10 -45 24 -2228 15 -2515 -4 -148 -10 -271 -13
-273 -2 -3 -342 118 -753 268 l-749 274 0 302 c0 857 5 2142 9 2142 2 0 318
-36 702 -80z m-4396 -477 c0 -274 3 -824 7 -1223 l6 -725 -734 -268 c-404
-147 -743 -270 -755 -273 -20 -5 -21 -1 -27 87 -18 245 -4 2707 15 2724 2 1
334 41 738 88 404 47 738 85 743 86 4 1 7 -223 7 -496z m6388 248 c563 -65
1025 -121 1028 -124 6 -6 13 -436 33 -1957 6 -426 14 -923 17 -1104 l6 -329
-23 6 c-12 3 -494 178 -1071 389 l-1048 383 0 715 c0 393 -3 1036 -7 1428 l-6
712 24 0 c13 0 484 -54 1047 -119z m-8023 -1368 c-4 -786 -9 -1430 -10 -1431
-5 -6 -2129 -781 -2132 -779 -1 2 2 291 8 642 5 352 16 1114 24 1694 8 580 16
1055 18 1057 2 2 455 55 1007 119 553 63 1014 117 1025 119 11 2 31 4 44 5
l23 1 -7 -1427z"/>
</g>
</svg>
