<svg width="91" height="68" viewBox="0 0 91 68" fill="none" xmlns="http://www.w3.org/2000/svg">
<g clip-path="url(#clip0_152_1408)">
<path d="M77.0858 5.69489C71.107 2.99612 64.7953 1.08152 58.3118 0C57.4246 1.56372 56.6218 3.17258 55.9069 4.81984C49.0007 3.79379 41.9776 3.79379 35.0715 4.81984C34.3562 3.17275 33.5534 1.56391 32.6666 0C26.179 1.09065 19.8631 3.0098 13.8783 5.70901C1.99686 23.0407 -1.224 39.9419 0.386434 56.6032C7.34448 61.6718 15.1325 65.5266 23.412 68C25.2763 65.5278 26.926 62.9052 28.3435 60.1598C25.6511 59.1684 23.0524 57.9452 20.5776 56.5044C21.229 56.0386 21.866 55.5587 22.4815 55.093C29.6826 58.4319 37.5423 60.1631 45.4999 60.1631C53.4576 60.1631 61.3172 58.4319 68.5183 55.093C69.141 55.594 69.7781 56.0739 70.4222 56.5044C67.9426 57.9475 65.3392 59.173 62.6421 60.1669C64.0578 62.9109 65.7076 65.5314 67.5736 68C75.8601 65.5365 83.6541 61.6836 90.6134 56.6102C92.503 37.2885 87.3854 20.5425 77.0858 5.69489ZM30.3834 46.3566C25.8956 46.3566 22.1881 42.3412 22.1881 37.4014C22.1881 32.4616 25.7668 28.411 30.3691 28.411C34.9713 28.411 38.6502 32.4616 38.5715 37.4014C38.4928 42.3412 34.957 46.3566 30.3834 46.3566ZM60.6165 46.3566C56.1216 46.3566 52.4284 42.3412 52.4284 37.4014C52.4284 32.4616 56.0071 28.411 60.6165 28.411C65.2259 28.411 68.8762 32.4616 68.7975 37.4014C68.7188 42.3412 65.1901 46.3566 60.6165 46.3566Z" fill="#F5DFB3"/>
</g>
<defs>
<clipPath id="clip0_152_1408">
<rect width="91" height="68" fill="white"/>
</clipPath>
</defs>
</svg>
