<svg width="115" height="107" viewBox="0 0 115 107" fill="none" xmlns="http://www.w3.org/2000/svg">
<g clip-path="url(#clip0_152_1401)" filter="url(#filter0_d_152_1401)">
<path d="M52.1589 79.2246C52.5705 79.2252 52.978 79.3069 53.358 79.4649C53.738 79.6229 54.0832 79.8543 54.3738 80.1458C54.6645 80.4372 54.8948 80.7831 55.0518 81.1635C55.2088 81.544 55.2892 81.9517 55.2887 82.3633C55.2881 82.7749 55.2064 83.1823 55.0484 83.5624C54.8903 83.9424 54.659 84.2876 54.3675 84.5782C54.0761 84.8688 53.7302 85.0992 53.3497 85.2562C52.9693 85.4131 52.5616 85.4936 52.15 85.493C51.3188 85.4919 50.522 85.1605 49.9351 84.5719C49.3481 83.9833 49.0191 83.1856 49.0202 82.3544C49.0214 81.5231 49.3528 80.7264 49.9414 80.1395C50.53 79.5525 51.3277 79.2234 52.1589 79.2246ZM101.308 59.8442C100.896 59.844 100.488 59.7626 100.108 59.6048C99.7282 59.447 99.3828 59.2159 99.092 58.9247C98.8012 58.6334 98.5706 58.2878 98.4133 57.9074C98.2561 57.527 98.1753 57.1194 98.1756 56.7078C98.1759 56.2962 98.2572 55.8887 98.415 55.5086C98.5728 55.1284 98.8039 54.7831 99.0952 54.4922C99.3864 54.2014 99.7321 53.9708 100.112 53.8136C100.493 53.6563 100.9 53.5755 101.312 53.5758C102.143 53.5764 102.94 53.9072 103.528 54.4954C104.115 55.0836 104.445 55.881 104.444 56.7123C104.443 57.5435 104.113 58.3405 103.524 58.9278C102.936 59.5152 102.139 59.8448 101.308 59.8442ZM101.308 47.0221C98.7377 47.0244 96.2738 48.0464 94.4566 49.8635C92.6394 51.6807 91.6175 54.1446 91.6152 56.7145C91.6152 57.7533 91.789 58.7876 92.1279 59.7952L60.1126 76.8394C59.2249 75.5504 58.037 74.4967 56.6514 73.7689C55.2658 73.0412 53.724 72.6613 52.1589 72.662C48.463 72.662 45.0969 74.7797 43.4652 78.0833L14.7045 62.916C11.6639 61.32 9.39012 56.3177 9.63087 51.7613C9.7557 49.385 10.576 47.5392 11.8288 46.8259C12.6224 46.3801 13.5765 46.4157 14.593 46.9463L14.7802 47.0488C22.404 51.0613 47.3439 64.2 48.3961 64.686C50.0145 65.4395 50.915 65.7426 53.6792 64.4319L105.235 37.6194C105.993 37.3341 106.876 36.6074 106.876 35.5062C106.876 33.9815 105.298 33.3796 105.293 33.3796C102.36 31.9752 97.8524 29.8664 93.4565 27.8067C84.0583 23.4063 73.4073 18.4219 68.7305 15.9698C64.6913 13.8565 61.4412 15.6399 60.8616 15.9965L59.7381 16.5538C38.6858 26.964 10.5092 40.9186 8.90416 41.895C6.03745 43.6427 4.25858 47.1246 4.02674 51.4447C3.67008 58.2972 7.16095 65.4439 12.1587 68.061L42.5735 83.7454C42.9085 86.0493 44.0613 88.1558 45.8213 89.68C47.5812 91.2042 49.8307 92.0443 52.1589 92.0468C54.7016 92.0425 57.1411 91.0405 58.9528 89.2563C60.7645 87.4722 61.8037 85.0483 61.8469 82.506L95.3468 64.3472C97.041 65.6757 99.1497 66.4025 101.308 66.4025C103.877 66.4001 106.341 65.3782 108.159 63.561C109.976 61.7438 110.998 59.2799 111 56.71C110.998 54.1402 109.976 51.6762 108.159 49.8591C106.341 48.0419 103.877 47.02 101.308 47.0176" fill="#F5DFB3"/>
</g>
<defs>
<filter id="filter0_d_152_1401" x="0" y="0" width="115" height="118" filterUnits="userSpaceOnUse" color-interpolation-filters="sRGB">
<feFlood flood-opacity="0" result="BackgroundImageFix"/>
<feColorMatrix in="SourceAlpha" type="matrix" values="0 0 0 0 0 0 0 0 0 0 0 0 0 0 0 0 0 0 127 0" result="hardAlpha"/>
<feOffset dy="7"/>
<feGaussianBlur stdDeviation="2"/>
<feComposite in2="hardAlpha" operator="out"/>
<feColorMatrix type="matrix" values="0 0 0 0 0 0 0 0 0 0 0 0 0 0 0 0 0 0 0.25 0"/>
<feBlend mode="normal" in2="BackgroundImageFix" result="effect1_dropShadow_152_1401"/>
<feBlend mode="normal" in="SourceGraphic" in2="effect1_dropShadow_152_1401" result="shape"/>
</filter>
<clipPath id="clip0_152_1401">
<rect width="107" height="107" fill="white" transform="translate(4)"/>
</clipPath>
</defs>
</svg>
