<svg xmlns="http://www.w3.org/2000/svg" xmlns:xlink="http://www.w3.org/1999/xlink" width="553" height="600" viewBox="0 0 553 600">
  <defs>
    <style>
      .cls-1 {
        fill: #fff;
        stroke: #c69c6d;
        stroke-width: 1px;
        fill-rule: evenodd;
      }
    </style>
  </defs>
  <rect width="553" height="600" fill="black"/>
<!--   aries -->
  <g>
    <circle r="1" cx="122" cy="145" fill="white"/>
    <circle r="1" cx="119" cy="135" fill="white"/>
    <circle r="1" cx="101" cy="125" fill="white"/>
    <circle r="1" cx="63" cy="117" fill="white"/>
    <path d="m122,145 L 119,135 L101, 125 L 63, 117" stroke="#fff" opacity=".8"/>
  </g>
<!--   sagittarius -->
  <g>
    <circle fill="white" r="1" cx="169" cy="447"/>
    <circle fill="white" r="1" cx="148" cy="462"/>
    <circle fill="white" r="1" cx="139" cy="482"/>
    <circle fill="white" r="1" cx="136" cy="419"/>
    <circle fill="white" r="1" cx="134" cy="457"/>
    <circle fill="white" r="1" cx="132" cy="475"/>
    <circle fill="white" r="1" cx="128" cy="441"/>
    <circle fill="white" r="1" cx="110" cy="449"/>
    <circle fill="white" r="1" cx="100" cy="446"/>
    <circle fill="white" r="1" cx="97" cy="460"/>
    <circle fill="white" r="1" cx="97" cy="421"/>
    <circle fill="white" r="1" cx="91" cy="519"/>
    <circle fill="white" r="1" cx="91" cy="453"/>
    <circle fill="white" r="1" cx="90" cy="426"/>
    <circle fill="white" r="1" cx="88" cy="507"/>
    <circle fill="white" r="1" cx="81" cy="424"/>
    <circle fill="white" r="1" cx="71" cy="515"/>
    <circle fill="white" r="1" cx="66" cy="415"/>
    <circle fill="white" r="1" cx="62" cy="446"/>
    <circle fill="white" r="1" cx="42" cy="468"/>
    <path d="m169, 447 L 148, 462 L 134,457 L 132, 475 L 139, 482 M 134,457 L 128,441 L 136,419 M 128, 441 L 110, 449 L 100,446 L 90,426 L 97,421 M 90,426 L 81,424 L 66,415 M 110, 449 L 97, 460 L 91, 453 L 100,446 M 91,453 L 62, 446 L 42, 468 L 71, 515 L 88,507 M 71,515 L 91,519" stroke="#fff" opacity=".8"/>

  </g>
<!--   capricon -->
  <g>
    <circle fill="white" r="1" cx="254" cy="492"/>
    <circle fill="white" r="1" cx="253" cy="483"/>
    <circle fill="white" r="1" cx="241" cy="498"/>
    <circle fill="white" r="1" cx="232" cy="424"/>
    <circle fill="white" r="1" cx="231" cy="414"/>
    <circle fill="white" r="1" cx="221" cy="510"/>
    <circle fill="white" r="1" cx="212" cy="481"/>
    <circle fill="white" r="1" cx="202" cy="514"/>
    <circle fill="white" r="1" cx="201" cy="495"/>
    <circle fill="white" r="1" cx="191" cy="511"/>
    <circle fill="white" r="1" cx="189" cy="519"/>
    <path d="M 254, 492 L 241, 498 L 221, 510 L 202,514 L 189, 519 L 191, 511 L 201,495 L 212, 481 L 232, 424 L 231 414 M 232, 424 L 253, 483" stroke="#fff" opacity=".8"/>

  </g>
<!--   aquarius -->
  <g>
    <circle fill="white" r="2" cx="378" cy="406 "/>
    <circle fill="white" r="2" cx="372" cy="530 "/>
    <circle fill="white" r="2" cx="354" cy="517 "/>
    <circle fill="white" r="2" cx="347" cy="512 "/>
    <circle fill="white" r="2" cx="339" cy="435 "/>
    <circle fill="white" r="2" cx="335" cy="476 "/>
    <circle fill="white" r="2" cx="325" cy="515 "/>
    <circle fill="white" r="2" cx="319" cy="534 "/>
    <circle fill="white" r="2" cx="302" cy="459 "/>
    <circle fill="white" r="2" cx="302" cy="480 "/>
    <circle fill="white" r="2" cx="292" cy="484 "/>
    <circle fill="white" r="2" cx="289" cy="492 "/>
    <circle fill="white" r="2" cx="365" cy="472 "/>
    <path d="M378, 406 L 339, 435 L 302, 459 L 302, 480 L 292 484 L 289, 492 L 319 534 L 325,515 L 347,512 L 354,517 L 372,530 M 302,459 L 335,476 L 365 472" fill="none" stroke="#fff" opacity=".8"/>

  </g>
<!--   pisces -->
  <g>
    <circle fill="white" r="1" cx="523" cy="547 "/>
    <circle fill="white" r="1" cx="502" cy="526 "/>
    <circle fill="white" r="1" cx="495" cy="541 "/>
    <circle fill="white" r="1" cx="482" cy="502 "/>
    <circle fill="white" r="1" cx="475" cy="484 "/>
    <circle fill="white" r="1" cx="474" cy="417 "/>
    <circle fill="white" r="1" cx="471" cy="400 "/>
    <circle fill="white" r="1" cx="468" cy="427 "/>
    <circle fill="white" r="1" cx="465" cy="539 "/>
    <circle fill="white" r="1" cx="459" cy="445 "/>
    <circle fill="white" r="1" cx="457" cy="395 "/>
    <circle fill="white" r="1" cx="454" cy="425 "/>
    <circle fill="white" r="1" cx="448" cy="401 "/>
    <circle fill="white" r="1" cx="445" cy="413 "/>
    <circle fill="white" r="1" cx="425" cy="541 "/>
    <circle fill="white" r="1" cx="415" cy="553 "/>
    <circle fill="white" r="1" cx="400" cy="544 "/>
    <path d="m400, 544 L 415, 553 L 425,541 L465, 539 L 495, 541 L 523, 547 L 502, 526 L 482, 502 L 475, 484 L 459, 445 L 454, 425 L 445, 413 L 448, 401 L 457, 395 L 471, 400 L 474, 417 L 468, 427 L 454 425 " stroke="#fff" opacity=".8" fill="none"/>

  </g>
<!--   scorpio -->
  <g>
    <circle fill="white" r="1" cx="513" cy="256 "/>
    <circle fill="white" r="1" cx="513" cy="268 "/>
    <circle fill="white" r="1" cx="510" cy="24/3 "/>
    <circle fill="white" r="1" cx="489" cy="264 "/>
    <circle fill="white" r="1" cx="481" cy="268 "/>
    <circle fill="white" r="1" cx="475" cy="274 "/>
    <circle fill="white" r="1" cx="458" cy="296 "/>
    <circle fill="white" r="1" cx="456" cy="314 "/>
    <circle fill="white" r="1" cx="452" cy="328 "/>
    <circle fill="white" r="1" cx="435" cy="333 "/>
    <circle fill="white" r="1" cx="419" cy="304 "/>
    <circle fill="white" r="1" cx="415" cy="332 "/>
    <circle fill="white" r="1" cx="410" cy="313 "/>
    <circle fill="white" r="1" cx="405" cy="320 "/>
    <circle fill="white" r="1" cx="513" cy="281 "/>
        <path d="m419, 304 L 410, 313 L 405, 320 L 415, 332 L 435, 333 L  452, 328 L 456, 314 L 458, 296 L 475, 274 L 481, 268 L 489, 264 L 513, 256 L 510, 248 M 513, 256 L 513, 268 L 513 281" stroke="#fff" opacity=".8"/>

  </g>
<!--   libra -->
  <g>
    <circle fill="white" r="1" cx="361" cy="272 "/>
    <circle fill="white" r="1" cx="356" cy="307 "/>
    <circle fill="white" r="1" cx="335" cy="329 "/>
    <circle fill="white" r="1" cx="335" cy="321 "/>
    <circle fill="white" r="1" cx="333" cy="252 "/>
    <circle fill="white" r="1" cx="324" cy="276 "/>
    <circle fill="white" r="1" cx="318" cy="281 "/>
    <circle fill="white" r="1" cx="309" cy="287 "/>
        <path d="M 309, 287 L 318, 281 L 324, 276 L 333, 252 L 361, 272, 356, 307 L  335, 321 L 335, 329 M 356, 307 L 333, 252 " stroke="#fff" opacity=".8" fill="none"/>

  </g>
<!--   virgo -->
  <g>
    <circle fill="white" r="1" cx="261" cy="296 "/>
    <circle fill="white" r="1" cx="251" cy="225 "/>
    <circle fill="white" r="1" cx="248" cy="276 "/>
    <circle fill="white" r="1" cx="246" cy="244 "/>
    <circle fill="white" r="1" cx="241" cy="327 "/>
    <circle fill="white" r="1" cx="231" cy="324 "/>
    <circle fill="white" r="1" cx="225" cy="249 "/>
    <circle fill="white" r="1" cx="223" cy="285 "/>
    <circle fill="white" r="1" cx="221" cy="342 "/>
    <circle fill="white" r="1" cx="207" cy="299 "/>
    <circle fill="white" r="1" cx="198" cy="242 "/>
    <circle fill="white" r="1" cx="188" cy="330 "/>
    <path d="m221, 342 L 231, 324 L 241, 327 L 261, 296 L 248, 276 L  246, 244 L 251, 225 M 246, 244 L 225, 249 L 198, 242 M 225, 249 L 223, 285 L 261, 296 M 223, 285 L 207 299 L 188 330" stroke="#fff" opacity=".8" fill="none"/>
  </g>
<!--   leo -->
  <g>
    <circle fill="white" r="1" cx="136" cy="276 "/>
    <circle fill="white" r="1" cx="120" cy="264 "/>
    <circle fill="white" r="1" cx="108" cy="224 "/>
    <circle fill="white" r="1" cx="102" cy="265 "/>
    <circle fill="white" r="1" cx="94" cy="226 "/>
    <circle fill="white" r="1" cx="92" cy="253 "/>
    <circle fill="white" r="1" cx="80" cy="324 "/>
    <circle fill="white" r="1" cx="64" cy="307 "/>
    <circle fill="white" r="1" cx="61" cy="344 "/>
    <path d="m108,224 L 94, 226 L 92, 253 L 102, 265 L 120 264 L  136 276 L 80 324 L 61 344L 64 307 L 102 265 M 80 324 L 120 264" stroke="#fff" opacity=".8" fill="none"/>
  </g>
<!--   cancer -->
  <g>
    <circle fill="white" r="1" cx="491" cy="143 "/>
    <circle fill="white" r="1" cx="443" cy="123 "/>
    <circle fill="white" r="1" cx="440" cy="157 "/>
    <circle fill="white" r="1" cx="437" cy="112 "/>
    <circle fill="white" r="1" cx="418" cy="88 "/>
    <path d="m491 143 L 443, 123 L 437 112 L 418 88 M 442 123 L 440 157   " stroke="#fff" opacity=".8" fill="none"/>
  </g>
<!--   gemini -->
  <g>
    <circle fill="white" r="1" cx="386" cy="116 "/>
    <circle fill="white" r="1" cx="377" cy="115 "/>
    <circle fill="white" r="1" cx="374" cy="128 "/>
    <circle fill="white" r="1" cx="365" cy="144 "/>
    <circle fill="white" r="1" cx="359" cy="109 "/>
    <circle fill="white" r="1" cx="359" cy="162 "/>
    <circle fill="white" r="1" cx="334" cy="132 "/>
    <circle fill="white" r="1" cx="324" cy="89 "/>
    <circle fill="white" r="1" cx="319" cy="125 "/>
    <circle fill="white" r="1" cx="315" cy="87 "/>
    <circle fill="white" r="1" cx="306" cy="86 "/>
    <circle fill="white" r="1" cx="297" cy="116 "/>
    <circle fill="white" r="1" cx="295" cy="106 "/>
    <path d="m386 , 116 L 377, 115 L 374, 128 L 365, 144 L 334, 132 L  319, 125 L 297 116 L 295 106 L 306 86 L 315 87 L 324 89 L 359 109 L 377 115 M 365 144 L 359 162" stroke="#fff" opacity=".8" fill="none"/>
  </g>
<!--   taurus -->
  <g>
    <circle fill="white" r="1" cx="262" cy="184 "/>
    <circle fill="white" r="1" cx="259" cy="175 "/>
    <circle fill="white" r="1" cx="228" cy="154 "/>
    <circle fill="white" r="1" cx="214" cy="139 "/>
    <circle fill="white" r="1" cx="214" cy="129 "/>
    <circle fill="white" r="1" cx="210" cy="127 "/>
    <circle fill="white" r="1" cx="210" cy="121 "/>
    <circle fill="white" r="1" cx="207" cy="135 "/>
    <circle fill="white" r="1" cx="203" cy="100 "/>
    <circle fill="white" r="1" cx="201" cy="131 "/>
    <circle fill="white" r="1" cx="184" cy="67 "/>
    <circle fill="white" r="1" cx="164" cy="93 "/>
    <path d="m262 184 L 259 175 L 228 154 L 214 139 L 214 129 L 210 127 L 210 121 L 203 100 L 184 67 M 214 139 L 207 135 L 201 131 L 164 93" stroke="#fff" opacity=".8" fill="none"/>
  </g>
</svg>
