<svg width="70" height="46" viewBox="0 0 70 46" fill="none" xmlns="http://www.w3.org/2000/svg">
<path d="M57.146 0.657904C56.8739 0.610894 56.6152 0.793379 56.5682 1.06549C56.5212 1.3376 56.7036 1.5963 56.9758 1.64331L57.146 0.657904ZM11.3121 17.1965L11.6486 17.5663L11.3121 17.1965ZM19.9581 11.1394C20.0187 10.87 19.8494 10.6025 19.58 10.5419L15.1895 9.55514C14.9201 9.49459 14.6526 9.66391 14.592 9.93333C14.5314 10.2027 14.7008 10.4702 14.9702 10.5308L18.8728 11.4079L17.9957 15.3106C17.9352 15.58 18.1045 15.8475 18.3739 15.908C18.6433 15.9686 18.9108 15.7993 18.9714 15.5299L19.9581 11.1394ZM67.1685 8.02281C69.146 12.2636 67.5436 17.8334 63.0528 23.4923C58.5828 29.1249 51.345 34.7105 42.3904 38.8862L42.813 39.7925C51.8778 35.5655 59.2506 29.892 63.8361 24.1139C68.4008 18.3619 70.2986 12.3692 68.0748 7.6002L67.1685 8.02281ZM42.3904 38.8862C33.4357 43.0618 24.5046 45.0159 17.3164 44.8195C10.0949 44.6222 4.79812 42.2695 2.82062 38.0287L1.91432 38.4513C4.13812 43.2203 9.94875 45.6185 17.2891 45.8191C24.6629 46.0206 33.7482 44.0195 42.813 39.7925L42.3904 38.8862ZM56.9758 1.64331C61.9968 2.51071 65.61 4.68058 67.1685 8.02281L68.0748 7.6002C66.3212 3.83961 62.3301 1.55347 57.146 0.657904L56.9758 1.64331ZM2.82062 38.0287C1.53671 35.2753 1.7575 31.9698 3.30968 28.4225C4.86207 24.8748 7.7294 21.1313 11.6486 17.5663L10.9757 16.8266C6.98728 20.4545 4.0185 24.3081 2.39355 28.0217C0.768408 31.7356 0.470659 35.3554 1.91432 38.4513L2.82062 38.0287ZM11.6486 17.5663C13.9942 15.4327 16.7113 13.3679 19.7377 11.4522L19.2029 10.6073C16.1313 12.5515 13.3674 14.651 10.9757 16.8266L11.6486 17.5663Z" fill="url(#paint0_linear_500_7097)"/>
<defs>
<linearGradient id="paint0_linear_500_7097" x1="8.5" y1="14.5" x2="59" y2="50" gradientUnits="userSpaceOnUse">
<stop stop-color="white" stop-opacity="0.4"/>
<stop offset="0.21784" stop-color="white"/>
<stop offset="0.578937" stop-color="white" stop-opacity="0.44"/>
<stop offset="1" stop-color="white" stop-opacity="0"/>
</linearGradient>
</defs>
</svg>
