<svg xmlns="http://www.w3.org/2000/svg" width="128" height="128" viewBox="0 0 128 128" fill="none">
  <path fill-rule="evenodd" clip-rule="evenodd" d="M128 64C128 28.6538 99.3462 0 64 0C28.6538 0 0 28.6538 0 64C0 99.3462 28.6538 128 64 128C99.3462 128 128 99.3462 128 64ZM56 64C56 92.0866 58.2616 115.947 61.4073 124.564C60.8133 123.948 60.1713 123.099 59.4938 121.953C57.7199 118.952 56.0531 114.476 54.6266 108.77C51.7812 97.3882 50 81.5588 50 64C50 46.4412 51.7812 30.6118 54.6266 19.2302C56.0531 13.5241 57.7199 9.04824 59.4938 6.0471C60.1713 4.90091 60.8133 4.05186 61.4073 3.43588C58.2615 12.0525 56 35.9134 56 64ZM68.5062 121.953C67.8287 123.099 67.1867 123.948 66.5927 124.564C69.7384 115.947 72 92.0866 72 64C72 35.9134 69.7384 12.0525 66.5927 3.43587C67.1867 4.05184 67.8287 4.9009 68.5062 6.0471C70.2801 9.04824 71.9469 13.5241 73.3734 19.2302C76.2188 30.6118 78 46.4412 78 64C78 81.5588 76.2188 97.3882 73.3734 108.77C71.9469 114.476 70.2801 118.952 68.5062 121.953ZM58.1573 123.599C57.4909 123.047 56.8227 122.397 56.1546 121.644C53.5034 118.653 51.0245 114.212 48.9021 108.553C44.6629 97.248 42 81.4968 42 64C42 46.5032 44.6629 30.752 48.9021 19.4474C51.0245 13.7878 53.5034 9.34658 56.1546 6.35625C56.8227 5.60276 57.4909 4.95254 58.1573 4.40135C52.2104 13.7365 48 36.9015 48 64C48 91.0985 52.2104 114.263 58.1573 123.599ZM69.8427 123.599C70.5091 123.047 71.1773 122.397 71.8454 121.644C74.4966 118.653 76.9755 114.212 79.0979 108.553C83.3371 97.248 86 81.4968 86 64C86 46.5032 83.3371 30.752 79.0979 19.4474C76.9755 13.7878 74.4966 9.34658 71.8454 6.35625C71.1773 5.60276 70.5091 4.95254 69.8427 4.40135C75.7896 13.7365 80 36.9014 80 64C80 91.0985 75.7896 114.263 69.8427 123.599ZM43.1614 108.36C46.4099 114.857 50.2456 119.689 54.3681 122.637C45.9088 112.742 40 90.2111 40 64C40 37.7889 45.9088 15.258 54.3681 5.36265C50.2456 8.31089 46.4099 13.1428 43.1614 19.6396C37.5367 30.8891 34 46.5701 34 64C34 81.4299 37.5367 97.1109 43.1614 108.36ZM84.8386 108.36C81.5901 114.857 77.7544 119.689 73.6319 122.637C82.0912 112.742 88 90.2111 88 64C88 37.7889 82.0912 15.258 73.6319 5.36265C77.7544 8.31089 81.5901 13.1428 84.8386 19.6396C90.4633 30.8891 94 46.5701 94 64C94 81.4299 90.4633 97.1109 84.8386 108.36ZM50.1436 121.705C45.407 118.655 41.0792 114.063 37.4117 108.195C30.4014 96.9783 26 81.3582 26 64C26 46.6418 30.4014 31.0217 37.4117 19.8052C41.0792 13.9372 45.407 9.34489 50.1436 6.29478C39.4091 16.624 32 38.5815 32 64C32 89.4185 39.4091 111.376 50.1436 121.705ZM77.8564 121.705C82.593 118.655 86.9208 114.063 90.5883 108.195C97.5986 96.9783 102 81.3582 102 64C102 46.6418 97.5986 31.0217 90.5883 19.8052C86.9208 13.9372 82.593 9.34488 77.8564 6.29478C88.5909 16.624 96 38.5815 96 64C96 89.4185 88.5909 111.376 77.8564 121.705ZM31.6589 108.055C35.663 113.394 40.3605 117.72 45.5322 120.785C32.7363 110.11 24 88.6874 24 64C24 39.3126 32.7363 17.8899 45.5322 7.21467C40.3605 10.2805 35.663 14.6063 31.6589 19.9452C23.2563 31.1487 18 46.7178 18 64C18 81.2822 23.2563 96.8513 31.6589 108.055ZM96.3411 108.055C92.337 113.394 87.6395 117.72 82.4678 120.785C95.2637 110.11 104 88.6874 104 64C104 39.3126 95.2637 17.8899 82.4678 7.21465C87.6395 10.2805 92.337 14.6063 96.3411 19.9452C104.744 31.1487 110 46.7178 110 64C110 81.2822 104.744 96.8513 96.3411 108.055ZM40.5231 119.836C22.5353 109.844 10 88.7191 10 64C10 39.2809 22.5353 18.1561 40.5231 8.16443C25.8879 19.1277 16 40.0242 16 64C16 87.9758 25.8879 108.872 40.5231 119.836ZM87.4769 119.836C105.465 109.844 118 88.7191 118 64C118 39.2809 105.465 18.1561 87.4769 8.16442C102.112 19.1276 112 40.0242 112 64C112 87.9758 102.112 108.872 87.4769 119.836ZM2 64C2 87.8965 15.5193 108.635 35.3267 118.986C18.9603 107.814 8 87.37 8 64C8 40.63 18.9602 20.1857 35.3267 9.01441C15.5193 19.3645 2 40.1035 2 64ZM126 64C126 87.8965 112.481 108.635 92.6733 118.986C109.04 107.814 120 87.37 120 64C120 40.63 109.04 20.1857 92.6733 9.01441C112.481 19.3645 126 40.1035 126 64ZM67.6723 109.007C69.1069 97.5303 70 81.6171 70 64C70 46.3829 69.1069 30.4697 67.6723 18.9932C66.9533 13.241 66.1073 8.68006 65.196 5.59627C65.1303 5.37397 65.0649 5.16173 65 4.95936V123.041C65.0649 122.838 65.1303 122.626 65.196 122.404C66.1073 119.32 66.9533 114.759 67.6723 109.007ZM63 4.95936V123.041C62.9351 122.838 62.8697 122.626 62.804 122.404C61.8927 119.32 61.0467 114.759 60.3277 109.007C58.8931 97.5303 58 81.6171 58 64C58 46.3829 58.8931 30.4697 60.3277 18.9932C61.0467 13.241 61.8927 8.68006 62.804 5.59627C62.8697 5.37397 62.9351 5.16172 63 4.95936Z" fill="url(#paint0_linear_205_161)" fill-opacity="0.5"/>
  <defs>
    <linearGradient id="paint0_linear_205_161" x1="37" y1="6" x2="85" y2="132" gradientUnits="userSpaceOnUse">
      <stop stop-color="white"/>
      <stop offset="1" stop-color="white" stop-opacity="0"/>
    </linearGradient>
  </defs>
</svg>