<svg xmlns="http://www.w3.org/2000/svg" width="180" height="180" viewBox="0 0 180 180" fill="none">
  <path d="M90 0C78.181 0 66.4778 2.32792 55.5585 6.85084C44.6392 11.3738 34.7177 18.0031 26.3604 26.3604C18.0031 34.7177 11.3738 44.6392 6.85084 55.5585C2.32792 66.4778 0 78.181 0 90H2.76923C2.76923 78.5447 5.02552 67.2016 9.40928 56.6182C13.793 46.0349 20.2184 36.4187 28.3185 28.3185C36.4187 20.2184 46.0349 13.793 56.6182 9.40928C67.2016 5.02552 78.5447 2.76923 90 2.76923C101.455 2.76923 112.798 5.02552 123.382 9.40928C133.965 13.793 143.581 20.2184 151.681 28.3185C159.782 36.4187 166.207 46.0349 170.591 56.6182C174.974 67.2015 177.231 78.5447 177.231 90H180C180 78.181 177.672 66.4778 173.149 55.5585C168.626 44.6392 161.997 34.7177 153.64 26.3604C145.282 18.0031 135.361 11.3738 124.442 6.85084C113.522 2.32792 101.819 0 90 0Z" fill="url(#paint0_linear_208_173)" fill-opacity="0.5"/>
  <path d="M90 11.0769C69.0683 11.0769 48.9939 19.392 34.193 34.1929C19.392 48.9939 11.0769 69.0683 11.0769 90H13.8462C13.8462 69.8027 21.8695 50.4327 36.1511 36.1511C50.4327 21.8695 69.8028 13.8462 90 13.8462C110.197 13.8462 129.567 21.8695 143.849 36.1511C158.131 50.4327 166.154 69.8027 166.154 90H168.923C168.923 69.0683 160.608 48.9939 145.807 34.193C131.006 19.392 110.932 11.0769 90 11.0769Z" fill="url(#paint1_linear_208_173)" fill-opacity="0.5"/>
  <path d="M42.0255 42.0255C54.7492 29.3019 72.0061 22.1538 90 22.1538C107.994 22.1538 125.251 29.3019 137.974 42.0255C150.698 54.7491 157.846 72.0061 157.846 90H155.077C155.077 72.7405 148.221 56.188 136.016 43.9837C123.812 31.7794 107.259 24.9231 90 24.9231C72.7405 24.9231 56.188 31.7794 43.9837 43.9837C31.7794 56.1879 24.9231 72.7405 24.9231 90H22.1538C22.1538 72.0061 29.3019 54.7491 42.0255 42.0255Z" fill="url(#paint2_linear_208_173)" fill-opacity="0.5"/>
  <path d="M90 33.2308C74.9439 33.2308 60.5044 39.2118 49.8581 49.8581C39.2118 60.5044 33.2308 74.9439 33.2308 90H36C36 75.6783 41.6893 61.9432 51.8162 51.8162C61.9432 41.6893 75.6783 36 90 36C104.322 36 118.057 41.6893 128.184 51.8162C138.311 61.9432 144 75.6783 144 90H146.769C146.769 74.9439 140.788 60.5044 130.142 49.8581C119.496 39.2118 105.056 33.2308 90 33.2308Z" fill="url(#paint3_linear_208_173)" fill-opacity="0.5"/>
  <path d="M57.6907 57.6907C66.2596 49.1217 77.8817 44.3077 90 44.3077C102.118 44.3077 113.74 49.1217 122.309 57.6907C130.878 66.2596 135.692 77.8816 135.692 90H132.923C132.923 78.6161 128.401 67.6984 120.351 59.6488C112.302 51.5992 101.384 47.0769 90 47.0769C78.6161 47.0769 67.6984 51.5992 59.6488 59.6488C51.5992 67.6984 47.0769 78.6161 47.0769 90H44.3077C44.3077 77.8816 49.1217 66.2596 57.6907 57.6907Z" fill="url(#paint4_linear_208_173)" fill-opacity="0.5"/>
  <path d="M90 55.3846C80.8194 55.3846 72.0149 59.0316 65.5232 65.5232C59.0316 72.0149 55.3846 80.8194 55.3846 90H58.1538C58.1538 81.5539 61.5091 73.4537 67.4814 67.4814C73.4537 61.5091 81.5539 58.1538 90 58.1538C98.4461 58.1538 106.546 61.5091 112.519 67.4814C118.491 73.4537 121.846 81.5539 121.846 90H124.615C124.615 80.8194 120.968 72.0149 114.477 65.5232C107.985 59.0316 99.1806 55.3846 90 55.3846Z" fill="url(#paint5_linear_208_173)" fill-opacity="0.5"/>
  <path d="M90 180C78.181 180 66.4778 177.672 55.5585 173.149C44.6392 168.626 34.7177 161.997 26.3604 153.64C18.0031 145.282 11.3738 135.361 6.85084 124.442C2.32792 113.522 0 101.819 0 90H2.76923C2.76923 101.455 5.02552 112.798 9.40928 123.382C13.793 133.965 20.2184 143.581 28.3185 151.681C36.4187 159.782 46.0349 166.207 56.6182 170.591C67.2016 174.974 78.5447 177.231 90 177.231C101.455 177.231 112.798 174.974 123.382 170.591C133.965 166.207 143.581 159.782 151.681 151.681C159.782 143.581 166.207 133.965 170.591 123.382C174.974 112.798 177.231 101.455 177.231 90H180C180 101.819 177.672 113.522 173.149 124.442C168.626 135.361 161.997 145.282 153.64 153.64C145.282 161.997 135.361 168.626 124.442 173.149C113.522 177.672 101.819 180 90 180Z" fill="url(#paint6_linear_208_173)" fill-opacity="0.5"/>
  <path d="M90 168.923C69.0683 168.923 48.9939 160.608 34.193 145.807C19.392 131.006 11.0769 110.932 11.0769 90H13.8462C13.8462 110.197 21.8695 129.567 36.1511 143.849C50.4327 158.131 69.8028 166.154 90 166.154C110.197 166.154 129.567 158.131 143.849 143.849C158.131 129.567 166.154 110.197 166.154 90H168.923C168.923 110.932 160.608 131.006 145.807 145.807C131.006 160.608 110.932 168.923 90 168.923Z" fill="url(#paint7_linear_208_173)" fill-opacity="0.5"/>
  <path d="M42.0255 137.974C54.7492 150.698 72.0061 157.846 90 157.846C107.994 157.846 125.251 150.698 137.974 137.974C150.698 125.251 157.846 107.994 157.846 90H155.077C155.077 107.259 148.221 123.812 136.016 136.016C123.812 148.221 107.259 155.077 90 155.077C72.7405 155.077 56.188 148.221 43.9837 136.016C31.7794 123.812 24.9231 107.259 24.9231 90H22.1538C22.1538 107.994 29.3019 125.251 42.0255 137.974Z" fill="url(#paint8_linear_208_173)" fill-opacity="0.5"/>
  <path d="M90 146.769C74.9439 146.769 60.5044 140.788 49.8581 130.142C39.2118 119.496 33.2308 105.056 33.2308 90H36C36 104.322 41.6893 118.057 51.8162 128.184C61.9432 138.311 75.6783 144 90 144C104.322 144 118.057 138.311 128.184 128.184C138.311 118.057 144 104.322 144 90H146.769C146.769 105.056 140.788 119.496 130.142 130.142C119.496 140.788 105.056 146.769 90 146.769Z" fill="url(#paint9_linear_208_173)" fill-opacity="0.5"/>
  <path d="M57.6907 122.309C66.2596 130.878 77.8817 135.692 90 135.692C102.118 135.692 113.74 130.878 122.309 122.309C130.878 113.74 135.692 102.118 135.692 90H132.923C132.923 101.384 128.401 112.302 120.351 120.351C112.302 128.401 101.384 132.923 90 132.923C78.6161 132.923 67.6984 128.401 59.6488 120.351C51.5992 112.302 47.0769 101.384 47.0769 90H44.3077C44.3077 102.118 49.1217 113.74 57.6907 122.309Z" fill="url(#paint10_linear_208_173)" fill-opacity="0.5"/>
  <path d="M90 124.615C80.8194 124.615 72.0149 120.968 65.5232 114.477C59.0316 107.985 55.3846 99.1806 55.3846 90H58.1538C58.1538 98.4461 61.5091 106.546 67.4814 112.519C73.4537 118.491 81.5539 121.846 90 121.846C98.4461 121.846 106.546 118.491 112.519 112.519C118.491 106.546 121.846 98.4461 121.846 90H124.615C124.615 99.1806 120.968 107.985 114.477 114.477C107.985 120.968 99.1806 124.615 90 124.615Z" fill="url(#paint11_linear_208_173)" fill-opacity="0.5"/>
  <defs>
    <linearGradient id="paint0_linear_208_173" x1="90" y1="0" x2="90" y2="94.1538" gradientUnits="userSpaceOnUse">
      <stop stop-color="white"/>
      <stop offset="1" stop-color="white" stop-opacity="0"/>
    </linearGradient>
    <linearGradient id="paint1_linear_208_173" x1="90" y1="0" x2="90" y2="94.1538" gradientUnits="userSpaceOnUse">
      <stop stop-color="white"/>
      <stop offset="1" stop-color="white" stop-opacity="0"/>
    </linearGradient>
    <linearGradient id="paint2_linear_208_173" x1="90" y1="0" x2="90" y2="94.1538" gradientUnits="userSpaceOnUse">
      <stop stop-color="white"/>
      <stop offset="1" stop-color="white" stop-opacity="0"/>
    </linearGradient>
    <linearGradient id="paint3_linear_208_173" x1="90" y1="0" x2="90" y2="94.1538" gradientUnits="userSpaceOnUse">
      <stop stop-color="white"/>
      <stop offset="1" stop-color="white" stop-opacity="0"/>
    </linearGradient>
    <linearGradient id="paint4_linear_208_173" x1="90" y1="0" x2="90" y2="94.1538" gradientUnits="userSpaceOnUse">
      <stop stop-color="white"/>
      <stop offset="1" stop-color="white" stop-opacity="0"/>
    </linearGradient>
    <linearGradient id="paint5_linear_208_173" x1="90" y1="0" x2="90" y2="94.1538" gradientUnits="userSpaceOnUse">
      <stop stop-color="white"/>
      <stop offset="1" stop-color="white" stop-opacity="0"/>
    </linearGradient>
    <linearGradient id="paint6_linear_208_173" x1="90" y1="180" x2="90" y2="85.8462" gradientUnits="userSpaceOnUse">
      <stop stop-color="white"/>
      <stop offset="1" stop-color="white" stop-opacity="0"/>
    </linearGradient>
    <linearGradient id="paint7_linear_208_173" x1="90" y1="180" x2="90" y2="85.8462" gradientUnits="userSpaceOnUse">
      <stop stop-color="white"/>
      <stop offset="1" stop-color="white" stop-opacity="0"/>
    </linearGradient>
    <linearGradient id="paint8_linear_208_173" x1="90" y1="180" x2="90" y2="85.8462" gradientUnits="userSpaceOnUse">
      <stop stop-color="white"/>
      <stop offset="1" stop-color="white" stop-opacity="0"/>
    </linearGradient>
    <linearGradient id="paint9_linear_208_173" x1="90" y1="180" x2="90" y2="85.8462" gradientUnits="userSpaceOnUse">
      <stop stop-color="white"/>
      <stop offset="1" stop-color="white" stop-opacity="0"/>
    </linearGradient>
    <linearGradient id="paint10_linear_208_173" x1="90" y1="180" x2="90" y2="85.8462" gradientUnits="userSpaceOnUse">
      <stop stop-color="white"/>
      <stop offset="1" stop-color="white" stop-opacity="0"/>
    </linearGradient>
    <linearGradient id="paint11_linear_208_173" x1="90" y1="180" x2="90" y2="85.8462" gradientUnits="userSpaceOnUse">
      <stop stop-color="white"/>
      <stop offset="1" stop-color="white" stop-opacity="0"/>
    </linearGradient>
  </defs>
</svg>