<svg xmlns="http://www.w3.org/2000/svg" width="277" height="99" viewBox="0 0 277 99" fill="none"><g filter="url(#a)"><path fill-rule="evenodd" clip-rule="evenodd" d="M208.922 99h-12.489l.113-11.201c-1.515-.025-3.028-.049-4.541-.07L191.898 99h-12.489c.031-3.812.059-7.625.088-11.439l-2.773-.03.08-11.095 2.777.06.101-13.178c.024-3.286 1.023-9.505 9.675-9.025 3.495.195 6.986.41 10.476.646 8.63.617 9.502 6.675 9.468 9.823L208.922 99Zm67.793-7.032c.002 5.95-.941 7.023-7.598 7.032h-20.264l.094-9.96c4.604.145 9.206.297 13.805.459.529.017.823-.075.826-.693l.018-3.192c.003-.669-.289-.943-.992-.98-3.301-.175-6.606-.343-9.912-.503-2.288-.11-3.692-.825-3.669-3.263l.128-13.64c.062-6.715 1.887-7.376 8.645-6.473a858.621 858.621 0 0 1 18.341 2.656l-.003 9.007c-4.57-.53-9.151-1.032-13.74-1.508-.641-.067-.876.064-.88.687l-.019 3.115c-.004.623.226 1.006.869 1.06 3.02.26 6.035.527 9.049.805 4.256.4 5.302 1.482 5.302 4.943v10.448ZM29.285 69.454c-2.694.246-5.385.499-8.074.76L21.441 99H8.012L7.91 71.593c-2.64.289-5.276.587-7.91.892v-8.983a863.757 863.757 0 0 1 29.188-4.06l.097 10.012ZM65.146 99H52.187L52 82.822c-1.884.07-3.767.142-5.65.215L46.532 99h-12.96l-.411-40.032c4.291-.502 8.59-.975 12.897-1.414l.169 14.708c1.88-.124 3.763-.244 5.647-.36L51.7 56.993a902.93 902.93 0 0 1 12.96-1.146L65.145 99Zm110.38-33.888a1235.25 1235.25 0 0 0-8.175-.222c-.063 11.37-.126 22.74-.191 34.11h-13.43l.105-34.356c-2.689-.034-5.377-.06-8.066-.075.007-3.89.012-7.778.017-11.668 9.948.081 19.891.323 29.82.728l-.08 11.483Zm-33.214 24.752c-.006 7.74-.95 9.136-7.606 9.136h-20.263l-.054-11.594c4.624-.032 9.248-.053 13.872-.066.533-.001.828-.13.827-.89l-.008-3.93c-.002-.825-.298-1.14-1.007-1.137-3.33.015-6.66.036-9.99.065-2.304.02-3.726-.722-3.739-3.557l-.074-15.88c-.037-7.806 1.799-8.886 8.693-9.01 6.26-.105 12.522-.147 18.784-.123l-.008 11.673c-4.666-.013-9.332.001-13.997.042-.653.005-.889.198-.888.957l.009 3.802c.002.76.239 1.203.891 1.197 3.061-.022 6.122-.035 9.183-.038 4.325-.001 5.39 1.275 5.386 5.777l-.011 13.576ZM244.144 99h-12.665l.134-11.764c.033-2.894-3.147-2.729-5.15-2.794L226.295 99h-12.606l.49-42.978c7.213.604 14.41 1.292 21.584 2.069 5.277.591 8.224 4.36 8.18 8.63l-.094 9.293c-.021 2.14-2.15 3.395-3.972 3.411 2.347.41 4.449 1.571 4.413 5.191L244.144 99ZM97.541 99H76.983c-3.063-.005-5.504-2.346-5.54-5.643l-.119-11.047c-.924.025-1.847.053-2.771.08l-.113-10.217 2.773-.13-.12-11.167c-.035-3.116 2.302-5.696 5.377-5.91a915.52 915.52 0 0 1 20.728-1.17l.087 11.44c-4.125.14-8.247.3-12.367.48-.946.043-1.237.485-1.229 1.403l.042 4.405c4.057-.15 8.117-.285 12.178-.402l.084 10.618c-4.056.072-8.11.155-12.162.248l.042 4.406c.01.979.308 1.342 1.31 1.328 4.09-.062 8.18-.116 12.272-.163L97.54 99Zm99.113-22.036.097-9.74c.009-.974-.989-1.632-2.231-1.69-1.242-.059-2.311.507-2.32 1.487l-.093 9.802c1.516.045 3.032.092 4.547.14Zm34.977-6.845c.027-2.387-.325-2.415-2.148-2.556-.901-.07-1.803-.136-2.704-.203l-.102 8.801 2.648.144c1.705.093 2.24-.33 2.258-1.922l.048-4.264Zm23.037-15.434a764.97 764.97 0 0 0-20.393-2.765c-3.05-.366-5.433-2.872-5.396-6.03.04-3.513.081-7.025.12-10.539a610.1 610.1 0 0 0-2.759-.416l.114-9.858c.92.158 1.839.318 2.758.48l.123-10.654c.035-2.984 2.406-4.776 5.443-4.072a417.89 417.89 0 0 1 20.309 5.19l-.08 9.785c-4.025-1-8.065-1.947-12.12-2.841-.931-.205-1.227.12-1.236.952l-.042 3.992c4.002.812 7.992 1.67 11.967 2.578l-.078 9.137a571.969 571.969 0 0 0-11.99-2.235l-.042 3.992c-.009.888.28 1.266 1.271 1.427 4.049.659 8.087 1.356 12.113 2.092l-.082 9.785Zm-204.125-3.71a775.016 775.016 0 0 0-20.45 2.553c-3.038.412-5.445-1.33-5.47-4.273l-.087-9.87c-.91.177-1.819.357-2.728.54l-.074-9.092c.906-.21 1.813-.417 2.72-.621l-.087-9.98c-.024-2.78 2.265-5.568 5.278-6.364a419.97 419.97 0 0 1 20.414-4.793l.122 10.604c-4.09.753-8.167 1.558-12.231 2.419-.934.196-1.221.65-1.212 1.484l.043 4.01a509.36 509.36 0 0 1 12.054-2.251l.113 9.823a577.628 577.628 0 0 0-12.064 1.951l.043 4.01c.01.891.305 1.178 1.3 1.023 4.055-.632 8.12-1.224 12.194-1.778l.122 10.605Zm38.863-3.349c-4.764.293-9.522.627-14.273 1.005-1.385-4.105-2.77-8.18-4.156-12.221a5456.808 5456.808 0 0 1-3.88 12.902c-4.744.425-9.479.894-14.205 1.406a2765.402 2765.402 0 0 0 8.696-23.473l1.404-1.263a942.071 942.071 0 0 0-9.765-17.556c4.585-.92 9.187-1.767 13.802-2.537 1.242 3.36 2.485 6.75 3.728 10.163 1.165-3.75 2.332-7.52 3.501-11.305a434.05 434.05 0 0 1 13.921-1.848 7898.43 7898.43 0 0 1-9.445 21.115c.479.312.957.625 1.435.941 3.084 7.44 6.164 15.005 9.237 22.671ZM222.53 50.58a768.47 768.47 0 0 0-12.673-1.246c.046-4.113.092-8.226.136-12.338.035-3.04-3.159-3.116-5.171-3.332l-.163 15.219c-4.217-.352-8.438-.67-12.665-.955l.417-44.56a429.568 429.568 0 0 1 21.77 3.296c5.314.964 8.266 5.187 8.215 9.708l-.114 9.833c-.026 2.265-2.161 3.4-3.99 3.26 2.354.632 4.459 2.058 4.415 5.889l-.177 15.225ZM122.441 27.433c.019 6.266-3.97 8.568-8.616 8.737-2.919.106-5.839.232-8.755.376l.065 10.27c-4.318.18-8.633.394-12.944.643l-.376-44.967A435.217 435.217 0 0 1 113.837.69c5.458-.306 8.533 3.529 8.546 8.461l.058 18.283Zm64.806 14.204c-.032 3.573-2.424 5.83-5.51 5.666a801.069 801.069 0 0 0-20.321-.843c-3.092-.088-5.465-2.602-5.453-6.145l.117-34.138c.012-3.225 2.421-5.726 5.541-5.557 6.836.365 13.664.892 20.474 1.58 3.107.317 5.47 3 5.441 6.263-.095 11.058-.192 22.116-.289 33.174Zm-34.931 4.613a804.414 804.414 0 0 0-25.596-.038L126.616.158c4.523-.122 9.049-.173 13.574-.154l-.013 34.453c4.058.01 8.116.059 12.171.145l-.032 11.649Zm22.278-31.802c.006-.936-.109-1.51-1.184-1.587-1.076-.076-2.151-.15-3.228-.219-1.075-.07-1.199.488-1.204 1.43l-.114 19.58c-.005.943.11 1.512 1.183 1.563 1.071.051 2.143.105 3.214.163 1.072.056 1.195-.499 1.202-1.436l.131-19.494Zm-64.758.253c-.015-2.638-.374-2.62-2.227-2.504-.898.056-1.794.115-2.691.177l.086 13.652c.934-.055 1.869-.106 2.803-.156 1.731-.09 2.085-.546 2.076-2.369l-.047-8.8Zm100.179 4.324c.027-2.502-.325-2.558-2.16-2.825-.908-.13-1.815-.26-2.724-.384l-.098 9.2c.887.11 1.775.222 2.662.336 1.715.219 2.252-.185 2.271-1.855l.049-4.472Z" fill="#F5DFB3"/></g><defs><filter id="a" x="0" y="0" width="276.715" height="103" filterUnits="userSpaceOnUse" color-interpolation-filters="sRGB"><feFlood flood-opacity="0" result="BackgroundImageFix"/><feBlend in="SourceGraphic" in2="BackgroundImageFix" result="shape"/><feColorMatrix in="SourceAlpha" values="0 0 0 0 0 0 0 0 0 0 0 0 0 0 0 0 0 0 127 0" result="hardAlpha"/><feOffset dy="4"/><feGaussianBlur stdDeviation="2"/><feComposite in2="hardAlpha" operator="arithmetic" k2="-1" k3="1"/><feColorMatrix values="0 0 0 0 0 0 0 0 0 0 0 0 0 0 0 0 0 0 0.25 0"/><feBlend in2="shape" result="effect1_innerShadow_526_945"/></filter></defs></svg>