<svg width="73" height="73" viewBox="0 0 73 73" fill="none" xmlns="http://www.w3.org/2000/svg">
<g id="352332_explore_icon 1" clip-path="url(#clip0_152_1152)">
<path id="Vector" d="M36.5 32.485C34.2918 32.485 32.485 34.2918 32.485 36.5C32.485 38.7083 34.2918 40.515 36.5 40.515C38.7265 40.515 40.515 38.7083 40.515 36.5C40.515 34.2918 38.7265 32.485 36.5 32.485ZM36.5 0C16.3337 0 0 16.3337 0 36.5C0 56.648 16.3337 73 36.5 73C56.6663 73 73 56.648 73 36.5C73 16.3337 56.6663 0 36.5 0ZM44.4935 44.4935L14.6 58.4L28.5065 28.5065L58.4 14.6L44.4935 44.4935Z" fill="#02C8DB"/>
</g>
<defs>
<clipPath id="clip0_152_1152">
<rect width="73" height="73" fill="white"/>
</clipPath>
</defs>
</svg>
