<svg width="2725" height="1291" viewBox="0 0 2725 1291" fill="none" xmlns="http://www.w3.org/2000/svg">
<g clip-path="url(#clip0_57_1176)">
<path d="M1362.5 7.5C2107.8 7.5 2711.9 578.246 2717.46 1283.5H7.53699C13.103 578.246 617.207 7.5 1362.5 7.5Z" fill="#98161D"/>
<mask id="mask0_57_1176" style="mask-type:luminance" maskUnits="userSpaceOnUse" x="7" y="7" width="2711" height="1277">
<path d="M1362.5 7.5C2107.8 7.5 2711.9 578.246 2717.46 1283.5H7.53699C13.103 578.246 617.207 7.5 1362.5 7.5Z" fill="white"/>
</mask>
<g mask="url(#mask0_57_1176)">
<path fill-rule="evenodd" clip-rule="evenodd" d="M1309.6 1231.16L1293.76 1175.68L1234.45 -39.3518H1384.76L1325.44 1175.69L1309.6 1231.16Z" fill="#801318"/>
<path fill-rule="evenodd" clip-rule="evenodd" d="M1296.54 1232.52L1263.15 1182.18L786.542 -39.3518H946.848L1293.76 1175.68L1296.54 1232.52Z" fill="#801318"/>
<path fill-rule="evenodd" clip-rule="evenodd" d="M1284.35 1236.52L1235.72 1194.76L256.61 -39.3518H453.127L1263.15 1182.18L1284.35 1236.52Z" fill="#801318"/>
<path fill-rule="evenodd" clip-rule="evenodd" d="M1273.9 1242.88L1213.31 1212.55L-168.979 196.467V-11.1484L1235.72 1194.76L1273.9 1242.88Z" fill="#801318"/>
<path fill-rule="evenodd" clip-rule="evenodd" d="M1265.87 1251.18L1197.46 1234.34L-168.979 662.534V520.501L1213.31 1212.55L1265.87 1251.18Z" fill="#801318"/>
<path fill-rule="evenodd" clip-rule="evenodd" d="M1260.81 1260.85L1189.25 1258.64L-168.979 1013.93V897.898L1197.46 1234.34L1260.81 1260.85Z" fill="#801318"/>
<path d="M1248.23 1281.99H1248.21L1309.56 1280.1L1248.23 1281.99Z" fill="#801318"/>
<path fill-rule="evenodd" clip-rule="evenodd" d="M1248.21 1281.99H-168.979V1216.8L1189.25 1258.64L1306.68 1279.8L1309.56 1271.26V1280.1L1248.21 1281.99Z" fill="#801318"/>
<path fill-rule="evenodd" clip-rule="evenodd" d="M2788.1 1281.99H1368.77L1309.56 1280.17V1271.26L1310.91 1275.27L1312.46 1279.87L1429.88 1258.71L2788.1 1216.87V1281.99Z" fill="#801318"/>
<path d="M1429.88 1258.71L2788.1 1013.99L1429.88 1258.71H1429.88Z" fill="#801318"/>
<path fill-rule="evenodd" clip-rule="evenodd" d="M1312.46 1279.86L1429.88 1258.71H1429.88L1312.46 1279.86Z" fill="#801318"/>
<path fill-rule="evenodd" clip-rule="evenodd" d="M1358.33 1260.91L1421.69 1234.4L2788.1 897.965V1013.99L1429.88 1258.71L1358.33 1260.91Z" fill="#801318"/>
<path fill-rule="evenodd" clip-rule="evenodd" d="M1353.3 1251.24L1405.86 1212.6L2788.1 520.578V662.607L1421.69 1234.4L1353.3 1251.24Z" fill="#801318"/>
<path d="M1405.86 1212.6L2788.1 196.554L1405.86 1212.6H1405.86Z" fill="#801318"/>
<path fill-rule="evenodd" clip-rule="evenodd" d="M1353.29 1251.24L1405.86 1212.6H1405.86L1353.3 1251.24H1353.29Z" fill="#801318"/>
<path fill-rule="evenodd" clip-rule="evenodd" d="M1345.28 1242.93L1383.46 1194.8L2788.1 -11.0525V196.554L1405.86 1212.6L1345.28 1242.93Z" fill="#801318"/>
<path fill-rule="evenodd" clip-rule="evenodd" d="M1334.83 1236.55L1356.04 1182.21L2166.09 -39.3518H2362.6L1383.46 1194.8L1334.83 1236.55Z" fill="#801318"/>
<path fill-rule="evenodd" clip-rule="evenodd" d="M1322.67 1232.54L1325.44 1175.69L1672.36 -39.3518H1832.66L1356.04 1182.21L1322.67 1232.54Z" fill="#801318"/>
<path d="M1372.2 1249.55H1242.41V1281.99H1372.2V1249.55Z" fill="#801318"/>
<path d="M1311.98 1290.99C1370.95 1290.99 1418.75 1264.93 1418.75 1232.78C1418.75 1200.63 1370.95 1174.56 1311.98 1174.56C1253.02 1174.56 1205.22 1200.63 1205.22 1232.78C1205.22 1264.93 1253.02 1290.99 1311.98 1290.99Z" fill="#801318"/>
<path d="M1401.31 1271.23C1417.38 1271.23 1430.41 1266.02 1430.41 1259.59C1430.41 1253.16 1417.38 1247.95 1401.31 1247.95C1385.24 1247.95 1372.21 1253.16 1372.21 1259.59C1372.21 1266.02 1385.24 1271.23 1401.31 1271.23Z" fill="black"/>
<path d="M1401.31 1271.23C1417.38 1271.23 1430.41 1266.02 1430.41 1259.59C1430.41 1253.16 1417.38 1247.95 1401.31 1247.95C1385.24 1247.95 1372.21 1253.16 1372.21 1259.59C1372.21 1266.02 1385.24 1271.23 1401.31 1271.23Z" fill="#801318"/>
<path d="M1417.06 1242.65C1419.94 1242.65 1422.27 1240.05 1422.27 1236.84C1422.27 1233.62 1419.94 1231.02 1417.06 1231.02C1414.18 1231.02 1411.84 1233.62 1411.84 1236.84C1411.84 1240.05 1414.18 1242.65 1417.06 1242.65Z" fill="#801318"/>
<path d="M1217.49 1268.06C1233.56 1268.06 1246.59 1262.85 1246.59 1256.42C1246.59 1250 1233.56 1244.79 1217.49 1244.79C1201.42 1244.79 1188.39 1250 1188.39 1256.42C1188.39 1262.85 1201.42 1268.06 1217.49 1268.06Z" fill="#801318"/>
<path d="M1202.31 1241.91C1205.19 1241.91 1207.52 1239.3 1207.52 1236.09C1207.52 1232.88 1205.19 1230.27 1202.31 1230.27C1199.43 1230.27 1197.09 1232.88 1197.09 1236.09C1197.09 1239.3 1199.43 1241.91 1202.31 1241.91Z" fill="#801318"/>
</g>
<path d="M1362.5 7.5C2107.8 7.5 2711.9 578.246 2717.46 1283.5H7.53699C13.103 578.246 617.207 7.5 1362.5 7.5Z" stroke="#EA8F21" stroke-width="15"/>
<path d="M1362 750C1071.5 750 836 985.498 836 1276L1888 1276C1888 985.498 1652.5 750 1362 750Z" fill="#EA8F21"/>
<path d="M1362 772C1083.65 772 858 997.648 858 1276L1866 1276C1866 997.648 1640.35 772 1362 772Z" fill="#98161D"/>
<path fill-rule="evenodd" clip-rule="evenodd" d="M1358.87 926.322C1357.16 925.384 1356.01 923.574 1356.01 921.496C1356.01 918.468 1358.47 916 1361.5 916C1364.53 916 1366.99 918.468 1366.99 921.496C1366.99 923.635 1365.77 925.493 1363.98 926.401L1382.19 970.053L1407.37 944.736C1406.88 943.913 1406.6 942.95 1406.6 941.927C1406.6 938.892 1409.06 936.431 1412.09 936.431C1415.12 936.431 1417.59 938.892 1417.59 941.927C1417.59 944.955 1415.12 947.423 1412.09 947.423C1411.05 947.423 1410.08 947.136 1409.25 946.631L1383.3 972.716L1390.95 991.056H1427.22C1427.87 988.747 1430 987.059 1432.51 987.059C1435.54 987.059 1438 989.521 1438 992.555C1438 995.59 1435.54 998.051 1432.51 998.051C1429.88 998.051 1427.67 996.193 1427.14 993.719H1392.06L1410.5 1037.92C1411.01 1037.77 1411.54 1037.69 1412.09 1037.69C1415.12 1037.69 1417.59 1040.16 1417.59 1043.18C1417.59 1046.22 1415.12 1048.68 1412.09 1048.68C1409.46 1048.68 1407.26 1046.82 1406.72 1044.35H1362.67L1362.67 1059.13C1365.14 1059.67 1366.99 1061.87 1366.99 1064.5C1366.99 1067.53 1364.53 1070 1361.5 1070C1358.47 1070 1356.01 1067.53 1356.01 1064.5C1356.01 1061.99 1357.7 1059.87 1360 1059.22L1360.01 1044.35H1316.28C1315.74 1046.82 1313.54 1048.68 1310.91 1048.68C1307.88 1048.68 1305.41 1046.22 1305.41 1043.18C1305.41 1040.16 1307.88 1037.69 1310.91 1037.69C1311.35 1037.69 1311.79 1037.74 1312.2 1037.84L1330.66 993.719H1295.86C1295.33 996.193 1293.13 998.051 1290.49 998.051C1287.47 998.051 1285 995.59 1285 992.555C1285 989.521 1287.47 987.059 1290.49 987.059C1293 987.059 1295.13 988.747 1295.78 991.056H1331.78L1339.43 972.777L1313.54 946.752C1312.76 947.179 1311.86 947.423 1310.91 947.423C1307.88 947.423 1305.41 944.955 1305.41 941.927C1305.41 938.892 1307.88 936.431 1310.91 936.431C1313.94 936.431 1316.4 938.892 1316.4 941.927C1316.4 943.042 1316.07 944.078 1315.5 944.943L1340.54 970.12L1358.87 926.322ZM1362.66 1061.92L1362.66 1063.6L1360 1063.59L1360 1062.1C1359.2 1062.6 1358.67 1063.49 1358.67 1064.5C1358.67 1066.06 1359.94 1067.34 1361.5 1067.34C1363.06 1067.34 1364.33 1066.06 1364.33 1064.5C1364.33 1063.35 1363.65 1062.37 1362.66 1061.92ZM1311.15 1040.36C1311.07 1040.36 1310.99 1040.35 1310.91 1040.35C1309.35 1040.35 1308.08 1041.62 1308.08 1043.18C1308.08 1044.74 1309.35 1046.02 1310.91 1046.02C1312.06 1046.02 1313.05 1045.33 1313.49 1044.35H1309.48L1311.15 1040.36ZM1409.51 1044.35C1409.96 1045.33 1410.95 1046.02 1412.09 1046.02C1413.65 1046.02 1414.92 1044.74 1414.92 1043.18C1414.92 1041.62 1413.65 1040.35 1412.09 1040.35C1411.9 1040.35 1411.72 1040.37 1411.54 1040.41L1413.18 1044.35H1409.51ZM1316.19 1041.68C1316.09 1041.31 1315.94 1040.94 1315.76 1040.61L1360.04 996.095L1360.01 1041.68H1316.19ZM1407.13 1040.83C1407 1041.1 1406.89 1041.39 1406.81 1041.68H1362.67L1362.7 996.169L1407.13 1040.83ZM1364.02 993.719L1407.34 1037.27L1389.18 993.719H1364.02ZM1333.55 993.719L1315.33 1037.26L1358.64 993.719H1333.55ZM1429.93 993.719C1430.37 994.7 1431.36 995.389 1432.51 995.389C1434.07 995.389 1435.34 994.115 1435.34 992.555C1435.34 990.995 1434.07 989.722 1432.51 989.722C1431.5 989.722 1430.61 990.252 1430.11 991.056H1432.49V993.719H1429.93ZM1292.89 991.056C1292.39 990.252 1291.51 989.722 1290.49 989.722C1288.93 989.722 1287.66 990.995 1287.66 992.555C1287.66 994.115 1288.93 995.389 1290.49 995.389C1291.64 995.389 1292.63 994.7 1293.07 993.719H1290.47V991.056H1292.89ZM1334.67 991.056H1357.61L1341.46 974.818L1334.67 991.056ZM1365.05 991.056H1388.06L1381.27 974.757L1365.05 991.056ZM1342.57 972.161L1360.04 989.722L1360.07 930.337L1342.57 972.161ZM1362.7 989.637L1380.16 972.094L1362.74 930.337L1362.7 989.637ZM1411.24 944.626C1411.51 944.711 1411.8 944.76 1412.09 944.76C1413.65 944.76 1414.92 943.487 1414.92 941.927C1414.92 940.361 1413.65 939.093 1412.09 939.093C1410.53 939.093 1409.26 940.361 1409.26 941.927C1409.26 942.201 1409.3 942.469 1409.38 942.725L1411.13 940.964L1413.02 942.847L1411.24 944.626ZM1313.54 942.975C1313.67 942.652 1313.74 942.298 1313.74 941.927C1313.74 940.361 1312.47 939.093 1310.91 939.093C1309.35 939.093 1308.08 940.361 1308.08 941.927C1308.08 943.487 1309.35 944.76 1310.91 944.76C1311.11 944.76 1311.3 944.736 1311.49 944.699L1309.65 942.847L1311.54 940.964L1313.54 942.975ZM1362.95 923.927C1363.78 923.434 1364.33 922.532 1364.33 921.496C1364.33 919.936 1363.06 918.663 1361.5 918.663C1359.94 918.663 1358.67 919.936 1358.67 921.496C1358.67 922.465 1359.16 923.324 1359.91 923.836L1361.41 920.241L1362.95 923.927Z" fill="#F5DFB3"/>
</g>
<defs>
<clipPath id="clip0_57_1176">
<rect width="2725" height="1291" fill="white"/>
</clipPath>
</defs>
</svg>
