<svg width="308" height="313" viewBox="0 0 308 313" fill="none" xmlns="http://www.w3.org/2000/svg">
<g filter="url(#filter0_d_73_2280)">
<path fill-rule="evenodd" clip-rule="evenodd" d="M148.837 20.2417C145.497 18.4016 143.228 14.8527 143.228 10.7781C143.228 4.83938 148.061 0 154.001 0C159.94 0 164.772 4.83938 164.772 10.7781C164.772 14.9722 162.366 18.6167 158.861 20.3971L194.567 106L243.948 56.3517C242.982 54.7386 242.427 52.8507 242.427 50.8432C242.427 44.8926 247.26 40.0652 253.2 40.0652C259.14 40.0652 263.972 44.8926 263.972 50.8432C263.972 56.7819 259.14 61.6213 253.2 61.6213C251.162 61.6213 249.254 61.0596 247.628 60.0678L196.744 111.222L211.746 147.188H282.866C284.146 142.66 288.307 139.35 293.228 139.35C299.168 139.35 304 144.177 304 150.128C304 156.078 299.168 160.906 293.228 160.906C288.07 160.906 283.746 157.261 282.699 152.41H213.925L250.082 239.088C251.069 238.79 252.116 238.634 253.2 238.634C259.14 238.634 263.972 243.474 263.972 249.412C263.972 255.363 259.14 260.19 253.2 260.19C248.043 260.19 243.72 256.546 242.672 251.695H156.301L156.284 280.683C161.132 281.734 164.772 286.06 164.772 291.222C164.772 297.161 159.94 302 154.001 302C148.061 302 143.228 297.161 143.228 291.222C143.228 286.287 146.547 282.129 151.064 280.85L151.079 251.695H65.3288C64.2816 256.546 59.9595 260.19 54.8012 260.19C48.8613 260.19 44.0281 255.363 44.0281 249.412C44.0281 243.474 48.8613 238.634 54.8012 238.634C55.6744 238.634 56.5238 238.742 57.3375 238.933L93.5391 152.41H25.3007C24.2535 157.261 19.9314 160.906 14.7742 160.906C8.83435 160.906 4 156.078 4 150.128C4 144.177 8.83435 139.35 14.7742 139.35C19.6944 139.35 23.8544 142.66 25.1339 147.188H95.7251L110.72 111.341L59.9536 60.3068C58.4227 61.1432 56.6668 61.6213 54.8012 61.6213C48.8613 61.6213 44.0281 56.7819 44.0281 50.8432C44.0281 44.8926 48.8613 40.0652 54.8012 40.0652C60.741 40.0652 65.573 44.8926 65.573 50.8432C65.573 53.0299 64.9202 55.0612 63.7968 56.7579L112.901 106.131L148.837 20.2417ZM156.282 286.156L156.28 289.442L151.059 289.43L151.06 286.514C149.493 287.494 148.449 289.238 148.449 291.222C148.449 294.281 150.94 296.778 154.001 296.778C157.062 296.778 159.552 294.281 159.552 291.222C159.552 288.964 158.208 287.028 156.282 286.156ZM55.2693 243.88C55.1157 243.868 54.9596 243.856 54.8012 243.856C51.7407 243.856 49.2496 246.353 49.2496 249.412C49.2496 252.471 51.7407 254.969 54.8012 254.969C57.0504 254.969 58.991 253.63 59.8607 251.695H51.9992L55.2693 243.88ZM248.139 251.695C249.01 253.63 250.952 254.969 253.2 254.969C256.261 254.969 258.752 252.471 258.752 249.412C258.752 246.353 256.261 243.856 253.2 243.856C252.828 243.856 252.465 243.892 252.114 243.964L255.338 251.695H248.139ZM65.162 246.473C64.9547 245.732 64.6664 245.015 64.3102 244.358L151.132 157.07L151.083 246.473H65.162ZM243.468 244.788C243.214 245.326 243.002 245.887 242.838 246.473H156.303L156.353 157.214L243.468 244.788ZM158.939 152.41L243.886 237.81L208.267 152.41H158.939ZM99.199 152.41L63.4799 237.786L148.401 152.41H99.199ZM288.167 152.41C289.038 154.334 290.979 155.684 293.228 155.684C296.289 155.684 298.778 153.187 298.778 150.128C298.778 147.069 296.289 144.571 293.228 144.571C291.247 144.571 289.504 145.611 288.522 147.188H293.188V152.41H288.167ZM19.4787 147.188C18.4971 145.611 16.7554 144.571 14.7742 144.571C11.7126 144.571 9.22152 147.069 9.22152 150.128C9.22152 153.187 11.7126 155.684 14.7742 155.684C17.0222 155.684 18.9629 154.334 19.8325 152.41H14.7325V147.188H19.4787ZM101.385 147.188H146.373L114.705 115.344L101.385 147.188ZM160.969 147.188H206.087L192.758 115.225L160.969 147.188ZM116.886 110.134L151.139 144.571L151.203 28.1161L116.886 110.134ZM156.359 144.404L190.581 110.003L156.424 28.1161L156.359 144.404ZM251.532 56.1366C252.059 56.3038 252.619 56.3995 253.2 56.3995C256.261 56.3995 258.752 53.9022 258.752 50.8432C258.752 47.7723 256.261 45.2869 253.2 45.2869C250.14 45.2869 247.647 47.7723 247.647 50.8432C247.647 51.3809 247.726 51.9066 247.875 52.4085L251.308 48.9552L255.011 52.6475L251.532 56.1366ZM59.9548 52.8984C60.2121 52.2651 60.3527 51.5721 60.3527 50.8432C60.3527 47.7723 57.8628 45.2869 54.8012 45.2869C51.7407 45.2869 49.2496 47.7723 49.2496 50.8432C49.2496 53.9022 51.7407 56.3995 54.8012 56.3995C55.1931 56.3995 55.5767 56.3516 55.946 56.2799L52.3304 52.6475L56.0318 48.9552L59.9548 52.8984ZM156.841 15.5457C158.463 14.5778 159.552 12.8094 159.552 10.7781C159.552 7.7191 157.062 5.22172 154.001 5.22172C150.94 5.22172 148.449 7.7191 148.449 10.7781C148.449 12.678 149.412 14.3627 150.875 15.3664L153.824 8.31663L156.841 15.5457Z" fill="#02C8DB"/>
</g>
<defs>
<filter id="filter0_d_73_2280" x="0" y="0" width="308" height="313" filterUnits="userSpaceOnUse" color-interpolation-filters="sRGB">
<feFlood flood-opacity="0" result="BackgroundImageFix"/>
<feColorMatrix in="SourceAlpha" type="matrix" values="0 0 0 0 0 0 0 0 0 0 0 0 0 0 0 0 0 0 127 0" result="hardAlpha"/>
<feOffset dy="7"/>
<feGaussianBlur stdDeviation="2"/>
<feComposite in2="hardAlpha" operator="out"/>
<feColorMatrix type="matrix" values="0 0 0 0 0 0 0 0 0 0 0 0 0 0 0 0 0 0 0.25 0"/>
<feBlend mode="normal" in2="BackgroundImageFix" result="effect1_dropShadow_73_2280"/>
<feBlend mode="normal" in="SourceGraphic" in2="effect1_dropShadow_73_2280" result="shape"/>
</filter>
</defs>
</svg>
