<svg width="74" height="216" viewBox="0 0 74 216" fill="none" xmlns="http://www.w3.org/2000/svg">
<g id="mars 2" opacity="0.5" clip-path="url(#clip0_526_963)">
<g id="Group">
<path id="Vector" d="M107.63 215.828C166.902 215.828 214.951 167.779 214.951 108.507C214.951 49.2357 166.902 1.18652 107.63 1.18652C48.3588 1.18652 0.309692 49.2357 0.309692 108.507C0.309692 167.779 48.3588 215.828 107.63 215.828Z" fill="#DF121C"/>
<path id="Vector_2" fill-rule="evenodd" clip-rule="evenodd" d="M8.15375 104.067C9.34754 105.748 11.0045 107.712 11.7365 109.622C12.5432 111.728 11.8977 113.913 11.783 116.076C11.5943 119.62 12.7973 118.6 15.4326 119.014C17.0607 119.27 17.5083 119.856 18.5536 121.062C22.534 125.649 27.4725 129.069 32.0435 133.024C36.7876 137.129 38.6367 140.09 39.392 146.297C39.7777 149.466 40.1606 151.949 43.6448 152.26C45.2715 152.405 46.9763 152.121 48.534 152.779C52.3075 154.373 51.5825 157.672 51.5227 160.904C51.5002 162.083 51.9366 163.313 51.8598 164.779C51.6937 167.95 50.8927 168.332 54.1819 169.376C61.7592 171.779 64.8267 179.886 63.3437 187.205C68.6692 187.712 74.6698 188.031 79.0395 190.902C83.5549 193.869 84.2215 199.194 83.9413 204.195C90.2523 204.325 97.2341 204.998 102.522 208.383C105.218 210.109 106.594 212.312 107.039 214.714C123.096 214.653 139.393 210.987 154.734 203.303C163.561 198.882 171.505 193.406 178.507 187.115C177.144 183.098 175.454 179.242 173.258 175.744C169.768 177.586 165.858 178.405 162.226 180.049C160.642 180.765 158.576 179.642 158.772 177.767C159.476 171.012 157.909 166.005 155.348 159.918C153.833 156.316 152.267 152.514 152.628 148.541C152.912 145.413 154.035 142.287 153.949 139.128C153.814 134.259 148.461 137.502 145.713 138.826C144.006 139.647 142.257 138.341 142.259 136.544C142.271 127.314 137.068 120.64 132.798 112.942C131.282 110.207 130.418 105.893 128.099 104.076C126.51 102.831 124.936 102.631 124.557 100.288C124.131 97.66 126.28 95.7201 127.785 93.8583C129.246 92.0515 128.904 91.3469 128.983 89.1121C129.012 88.2864 129.732 85.5877 129.126 84.919C129.527 85.3611 127.807 85.228 127.38 85.2858C125.475 85.5434 123.564 86.2613 121.765 86.8913C119.722 87.6072 117.195 85.6067 118.695 83.4599C124.764 74.774 118.664 66.4288 115.139 58.1328C113.523 54.3305 112.648 50.7808 112.717 46.6356C112.81 41.0996 113.723 35.5551 107.845 32.7375C106.715 32.1955 106.467 30.3908 107.152 29.437C109.282 26.468 111.129 23.3231 113.537 20.5927C109.494 15.1686 104.036 11.1009 100.017 5.68032C98.9192 4.20005 98.0844 2.66207 97.4601 1.07764C84.5439 2.23904 71.6206 5.77675 59.3048 11.8864C60.569 15.3347 61.5762 18.8802 61.893 22.1209C62.2984 26.2731 60.2747 30.193 58.13 33.5871C57.0087 35.3616 55.4011 37.2191 54.8746 39.2977C54.5325 40.6477 54.8682 40.9476 55.6524 42.5735C57.9716 47.386 60.6464 52.6017 60.6464 58.0653C60.6464 62.0577 59.1007 64.6423 64.8697 64.9204C68.0646 65.0745 70.8935 63.1191 73.5197 61.5643C78.1829 58.805 83.0861 56.8504 87.3059 61.4812C89.685 64.0912 90.1172 66.4429 89.6259 69.8419C88.9241 74.6987 87.6902 77.8661 91.7931 81.4792C95.0451 84.3426 96.3092 85.9988 97.042 90.3966C97.5319 93.3332 97.2883 102.38 100.523 103.14C103.069 103.738 105.607 102.118 107.931 104.146C109.765 105.745 109.955 108.418 109.35 110.623C108.952 112.068 108.374 113.06 108.314 114.569C108.277 115.489 108.496 116.411 108.496 117.331C108.495 119.305 108.075 121.21 107.85 123.164C107.481 126.366 107.585 128.388 110.645 130.11C111.833 130.779 113.18 131.095 114.281 131.935C118.989 135.527 117.071 145.627 114.392 150.025C114.255 150.248 114.097 150.422 113.932 150.573C113.99 150.702 114.058 150.82 114.113 150.955C115.27 153.782 110.999 155.938 109.836 153.098C107.432 147.223 100.792 146.594 97.4861 141.579C93.7373 135.889 92.2725 128.364 87.1799 123.69C85.808 125.367 84.3454 126.97 83.0889 128.736C80.6007 132.235 81.2089 134.503 84.4073 137.284C85.5969 138.32 84.9577 140.398 83.6964 141.016C82.157 141.769 80.0186 142.955 78.2371 142.695C75.7017 142.325 75.3181 139.393 74.2376 137.495C71.3947 132.499 65.3715 127.634 65.1773 121.597C64.9914 115.833 67.3762 108.439 61.3953 104.914C56.2345 101.873 46.6884 101.42 43.307 107.263C42.3406 108.933 40.0206 108.497 39.1668 107.034C36.3709 102.246 35.9606 96.1741 34.8449 90.8485C34.2713 88.1118 33.7511 85.0134 32.2497 82.6019C30.5914 79.9377 28.6494 80.6711 26.2646 82.1359C24.8808 82.9862 23.1809 81.8578 22.8508 80.4705C21.4416 74.5431 24.9385 67.1601 21.79 61.7487C19.5799 57.9484 15.0532 58.5875 14.1888 54.0876C14.1867 54.075 14.1846 54.0609 14.1825 54.0482C6.23849 67.6979 1.39016 82.9693 0.00140381 98.6975C3.29979 99.369 5.95483 100.969 8.15375 104.067Z" fill="#9C0000"/>
<path id="Vector_3" fill-rule="evenodd" clip-rule="evenodd" d="M211.791 82.8088C203.75 83.1692 204.642 76.5485 202.467 70.8238C200.347 65.2456 195.596 64.1573 190.448 65.0119C189.861 64.4706 189.215 63.9398 188.504 63.4162C186.027 61.5903 183.405 65.6017 185.879 67.4248C185.979 67.4987 186.074 67.5705 186.169 67.643C186.003 69.0845 186.987 70.626 188.729 70.2677C189.23 71.2271 189.314 72.3329 188.835 73.8223C188.224 75.7172 187.378 77.4157 187.366 79.4562C187.344 83.2009 190.018 86.9715 191.765 90.2699C191.729 93.0383 192.968 95.9073 192.884 98.6623C192.514 99.2874 192.43 100.045 192.887 100.771C197.924 108.773 200.384 118.061 205.362 126.086C207.185 129.024 209.274 131.531 211.642 133.628C208.286 146.971 202.395 159.651 194.199 170.885C193.862 166.64 193.747 162.454 195.736 158.438C196.517 156.859 195.471 154.071 193.267 154.793C190.845 155.588 188.078 156.421 186.374 154.015C185.16 152.3 185.144 149.534 185.119 147.538C185.066 143.05 185.896 138.586 186.61 134.171C186.864 132.599 185.159 131.423 183.756 131.677C181.446 132.096 179.301 132.846 177.191 133.863C175.672 134.595 173.604 136.18 171.819 136.036C167.039 135.653 166.016 129.87 165.647 126.237C165.344 123.252 165.095 119.882 162.606 117.829C160.36 115.978 157.439 116.16 154.693 116.847C154.449 111.106 152.935 105.285 150.983 99.9786C149.689 96.4577 147.201 92.7068 147.51 88.815C147.71 86.286 149.416 85.0042 151.262 83.4803C155 80.3931 158.757 77.1088 158.482 71.8458C158.244 67.2692 155.427 65.2153 151.317 63.9405C144.438 61.8071 141.507 55.841 140.02 49.1056C138.619 42.7572 137.174 36.3984 135.848 30.0388C134.247 22.3517 131.975 12.3031 123.782 10.2675C123.723 10.0352 123.632 9.79731 123.473 9.55377C121.314 6.25186 118.353 3.58837 115.26 1.04736C151.807 3.64328 186.03 24.8012 203.574 59.801C207.329 67.291 210.094 75.0147 211.965 82.8278C211.906 82.8243 211.851 82.806 211.791 82.8088ZM126.723 134.213C128.189 143.573 132.74 156.11 128.427 165.222C127.772 166.606 129.131 168.323 130.542 168.357C132.372 168.4 135.828 168.164 136.918 170.011C137.469 170.942 137.099 172.537 137.114 173.574C137.151 176.211 137.56 178.465 139.382 180.477C141.448 182.759 144.311 184.011 147.15 185.034C148.35 185.468 150.199 185.758 151.122 186.688C152.847 188.424 151.498 191.282 150.786 193.265C150.277 194.68 151.374 196.356 152.901 196.4C157.087 196.518 160.568 197.499 161.244 200.517C159.317 201.635 157.35 202.708 155.33 203.719C153.305 204.733 151.263 205.673 149.207 206.548C147.387 205.685 145.403 205.057 143.784 203.874C140.789 201.687 141.158 198.532 142.065 195.211C142.535 193.49 141.175 191.768 139.33 192.117C135.711 192.802 132.798 192.779 131.608 188.922C130.798 186.295 131.004 183.307 131.005 180.59C131.005 179.325 130.134 178.104 128.771 178.054C126.217 177.961 123.715 177.641 121.184 177.615C120.455 173.613 118.321 170.695 113.941 169.591C111.457 168.965 108.847 169 106.349 168.449C106.085 168.391 105.1 168.234 104.567 168.022C104.543 167.898 104.516 167.761 104.481 167.591C104.221 166.35 104.367 165.205 103.857 163.987C101.645 158.703 96.2437 159.392 91.8951 161.143C88.7199 162.422 88.047 161.544 85.5848 159.2C83.3521 157.075 81.2898 154.731 79.39 152.307C76.2591 148.313 73.3303 145.42 69.1971 142.332C67.0045 140.694 64.0813 138.97 62.6623 136.554C61.5867 134.724 61.3748 132.28 60.9687 130.222C60.2529 126.593 60.3507 120.73 58.2672 117.564C56.4815 114.851 49.4652 115.291 46.6595 114.804C39.6784 113.589 33.7616 111.234 31.4332 104.08C30.4836 101.162 29.2455 98.4631 27.4203 95.9721C24.457 91.9283 19.8811 89.9215 20.4076 84.1736C20.5286 82.8517 19.4376 81.767 18.1741 81.6382C13.8495 81.199 14.7047 74.9302 13.9741 71.7403C13.2519 68.5869 11.816 66.01 9.38055 64.132C10.8995 60.7752 12.5846 57.4888 14.4478 54.2946C14.4499 54.3072 14.452 54.3213 14.4541 54.334C15.3185 58.8409 19.8585 58.199 22.0736 62.0035C25.2284 67.4219 21.7182 74.8176 23.1288 80.7542C23.4589 82.1429 25.163 83.2727 26.5517 82.4202C28.9435 80.9527 30.8912 80.2171 32.5537 82.8848C34.0579 85.2991 34.5781 88.4018 35.1525 91.1434C36.2688 96.4768 36.6771 102.558 39.4785 107.352C40.3344 108.816 42.6608 109.252 43.6307 107.579C47.0241 101.726 56.5969 102.175 61.7711 105.218C67.7675 108.746 65.3729 116.152 65.5559 121.926C65.7488 127.972 71.7867 132.841 74.6353 137.844C75.7171 139.746 76.1007 142.681 78.6432 143.051C80.4296 143.311 82.575 142.122 84.1194 141.366C85.3849 140.747 86.0262 138.665 84.8338 137.628C81.6276 134.844 81.0188 132.572 83.5154 129.068C84.7761 127.298 86.2444 125.692 87.6198 124.012C92.725 128.691 94.1905 136.228 97.9471 141.924C101.26 146.946 107.919 147.573 110.327 153.455C111.491 156.3 115.776 154.138 114.618 151.308C114.562 151.173 114.494 151.055 114.436 150.925C114.602 150.773 114.761 150.6 114.897 150.376C117.586 145.969 119.514 135.853 114.795 132.258C113.69 131.417 112.34 131.101 111.149 130.432C108.081 128.707 107.978 126.683 108.348 123.477C108.575 121.519 108.997 119.611 108.999 117.633C109 116.712 108.781 115.789 108.818 114.867C108.879 113.356 109.46 112.363 109.859 110.914C110.466 108.706 110.276 106.029 108.439 104.428C106.109 102.398 103.562 104.022 101.01 103.424C97.7669 102.665 98.0154 93.6035 97.5255 90.662C96.792 86.2578 95.5257 84.5995 92.2654 81.7326C88.1526 78.116 89.3914 74.9436 90.0974 70.0784C90.5916 66.6737 90.1594 64.3192 87.7746 61.7057C83.545 57.07 78.627 59.0296 73.9497 61.7958C71.3151 63.3542 68.477 65.3138 65.2736 65.1604C59.4877 64.8845 61.0398 62.2956 61.0412 58.2968C61.0433 52.8249 58.3636 47.6021 56.0401 42.7833C55.2546 41.1552 54.9181 40.8554 55.2616 39.5025C55.7903 37.4204 57.4035 35.5587 58.5291 33.7814C60.6808 30.3809 62.7122 26.454 62.3075 22.2954C61.9914 19.0498 60.9828 15.4995 59.7165 12.0469C63.1141 10.3618 66.5596 8.87945 70.0368 7.58008C74.0616 10.8039 73.3162 20.0606 73.0065 24.167C72.5687 29.96 71.7339 37.1853 68.2912 42.097C67.7063 42.9311 67.7942 44.2692 68.5129 45.0012C70.1072 46.623 71.3805 48.206 72.5926 50.117C73.5682 51.655 74.4347 53.6357 76.3485 54.032C80.3085 54.852 84.7198 52.7221 88.7875 53.7667C92.2612 54.6578 94.6163 58.1188 96.7308 60.7611C99.4675 64.1806 102.197 67.5536 104.699 71.1617C105.768 72.7039 107.181 74.3911 107.801 76.1719C108.669 78.6629 108.617 81.7136 108.978 84.3158C109.348 86.98 109.647 89.7286 110.764 92.1873C112.156 95.2485 114.273 97.9929 115.979 100.88C121.761 110.663 124.976 123.062 126.723 134.213Z" fill="#BE0000"/>
<g id="Vector_4" style="mix-blend-mode:multiply">
<path fill-rule="evenodd" clip-rule="evenodd" d="M209.491 77.1841C209.101 75.9628 208.688 74.7465 208.252 73.5352C210.329 169.388 63.0016 220.905 5.04895 138.607C5.42341 139.948 5.82181 141.286 6.24696 142.617C7.28729 145.877 8.4853 149.102 9.86913 152.279L9.85998 152.28L10.0043 152.588C10.6913 154.149 11.4184 155.699 12.1856 157.235C12.3186 157.503 12.4496 157.771 12.5861 158.037C13.3153 159.467 14.0833 160.883 14.8843 162.29C15.0821 162.639 15.2735 162.991 15.4762 163.339C16.254 164.669 17.0726 165.984 17.9152 167.289C18.1587 167.668 18.3861 168.051 18.6346 168.426C19.7192 170.06 20.8447 171.679 22.0315 173.27C23.3393 175.024 24.7048 176.707 26.0978 178.355C26.5131 178.846 26.9404 179.324 27.3634 179.806C28.4058 180.995 29.468 182.155 30.5527 183.286C30.9989 183.75 31.441 184.218 31.8943 184.674C33.2978 186.086 34.7274 187.46 36.1964 188.777L36.4878 189.051C38.0645 190.455 39.6855 191.792 41.3305 193.09C41.7937 193.455 42.2667 193.805 42.7347 194.161C43.9785 195.109 45.2384 196.027 46.5167 196.914C47.02 197.263 47.5211 197.614 48.0293 197.953C49.6025 199.004 51.1961 200.016 52.815 200.977L53.2838 201.266C55.085 202.321 56.918 203.308 58.7706 204.252C59.2309 204.486 59.6976 204.705 60.1621 204.932C61.5995 205.637 63.0495 206.31 64.5135 206.949C65.0344 207.175 65.5539 207.404 66.0783 207.622C67.7971 208.339 69.5294 209.015 71.2792 209.638L71.8304 209.845C73.8055 210.537 75.8024 211.162 77.8134 211.737C78.2315 211.857 78.6531 211.961 79.0733 212.075C80.6817 212.514 82.2985 212.915 83.9238 213.278C84.4376 213.393 84.95 213.507 85.4653 213.614C87.2827 213.992 89.1071 214.328 90.9415 214.611L91.5496 214.713C93.6401 215.024 95.7412 215.267 97.8479 215.454C98.2027 215.486 98.5596 215.503 98.915 215.531C100.651 215.668 102.39 215.762 104.132 215.815C104.629 215.83 105.125 215.843 105.622 215.851C107.466 215.881 109.312 215.867 111.159 215.802C111.396 215.794 111.632 215.796 111.869 215.785C114.001 215.697 116.131 215.542 118.26 215.325L118.496 215.308L118.48 215.298C124.142 214.71 129.777 213.655 135.337 212.153L135.356 212.18C135.808 212.058 136.253 211.91 136.703 211.783C137.431 211.575 138.16 211.363 138.886 211.139C139.772 210.866 140.656 210.577 141.538 210.28C142.263 210.036 142.988 209.79 143.709 209.53C144.581 209.215 145.448 208.88 146.314 208.542C147.037 208.26 147.761 207.981 148.479 207.682C149.333 207.326 150.179 206.947 151.026 206.568C151.746 206.246 152.467 205.932 153.181 205.595C154.018 205.198 154.844 204.774 155.673 204.354C156.385 203.994 157.101 203.646 157.807 203.268C158.632 202.828 159.446 202.354 160.263 201.889C160.7 201.642 161.141 201.407 161.575 201.152L161.579 201.154L161.648 201.111C161.881 200.974 162.117 200.842 162.348 200.703C163.23 200.175 164.097 199.609 164.969 199.053C165.195 198.909 165.423 198.771 165.649 198.625C165.889 198.47 166.134 198.327 166.373 198.169C167.122 197.674 167.857 197.148 168.598 196.633C169.365 196.099 170.139 195.582 170.897 195.025L170.895 195.022L171.23 194.784C188.595 181.927 200.916 164.84 207.861 146.049L207.867 146.066L207.967 145.774C208.53 144.237 209.054 142.689 209.545 141.132L209.652 140.806L209.732 140.561L209.753 140.497C210.898 136.782 211.834 133.013 212.565 129.206L212.608 128.961C212.941 127.203 213.227 125.438 213.471 123.667C213.509 123.392 213.539 123.117 213.574 122.842C213.783 121.239 213.956 119.634 214.09 118.023C214.116 117.706 214.141 117.388 214.164 117.07C214.285 115.46 214.368 113.846 214.415 112.232C214.423 111.956 214.433 111.681 214.439 111.405C214.476 109.656 214.471 107.907 214.421 106.157L214.415 105.784C214.107 96.1537 212.474 86.5281 209.491 77.1841Z" fill="#BE0000"/>
</g>
<path id="Vector_5" fill-rule="evenodd" clip-rule="evenodd" d="M208.368 69.6078C204.924 60.5841 200.217 51.8736 194.193 43.7332C168.971 9.64703 127.647 -5.27595 88.7432 1.6791L88.7361 1.66291L88.3202 1.74948C86.6491 2.05497 84.9837 2.40339 83.3233 2.79052C83.1213 2.83768 82.9179 2.87429 82.7151 2.92285C78.9381 3.82593 75.1956 4.94581 71.4995 6.27403C71.0131 6.4486 70.531 6.64427 70.046 6.82658C68.7332 7.32 67.4247 7.83243 66.1254 8.38075C65.5123 8.63907 64.9041 8.91359 64.2946 9.18388C63.1268 9.70334 61.9647 10.2418 60.8097 10.8056C60.1614 11.1224 59.5152 11.444 58.8712 11.7756C57.7478 12.352 56.6335 12.9567 55.5249 13.5775C54.8964 13.9294 54.2657 14.2758 53.6413 14.6418C52.4708 15.3281 51.3164 16.0516 50.1649 16.7865C49.8362 16.997 49.5004 17.1849 49.1738 17.3982L49.1668 17.3968L49.0971 17.446C48.919 17.5622 48.7423 17.6832 48.5642 17.8008C46.9017 18.9045 45.2553 20.0504 43.6364 21.259C41.9062 22.5499 40.2408 23.8957 38.6107 25.2697L38.377 25.4562L38.3826 25.4661C37.9293 25.8497 37.4922 26.2438 37.0473 26.6338C35.7529 27.7677 34.4915 28.9263 33.2633 30.1103C32.8832 30.477 32.4974 30.8395 32.1244 31.2104C28.9358 34.3765 25.9816 37.708 23.2611 41.1837L23.019 41.4751L23.0274 41.4899C18.372 47.4813 14.4169 53.8888 11.1741 60.5954L11.1642 60.558C11.0389 60.8164 10.9312 61.0817 10.8081 61.3415C10.3667 62.2734 9.94439 63.2131 9.52981 64.157C9.24755 64.7996 8.966 65.4423 8.69641 66.0899C8.28816 67.0704 7.90032 68.0579 7.52234 69.049C7.28795 69.6613 7.05426 70.273 6.83183 70.8882C6.45103 71.9419 6.09275 73.0013 5.74574 74.0641C5.56273 74.6251 5.37761 75.184 5.20446 75.7478C4.85252 76.8853 4.52662 78.0284 4.21269 79.1764C4.07754 79.6705 3.94029 80.164 3.81288 80.6602C3.49614 81.8864 3.20684 83.1181 2.93303 84.3535C2.83801 84.7814 2.74158 85.208 2.65218 85.6366C2.37908 86.9423 2.13624 88.2523 1.9117 89.5664C1.84906 89.9345 1.78289 90.3027 1.72376 90.6722C1.50486 92.0405 1.31551 93.4131 1.14869 94.7892C1.10928 95.1165 1.06634 95.4431 1.02974 95.7704C0.872069 97.1718 0.746778 98.5761 0.644011 99.9831L0.589812 100.569L0.60037 100.576C-0.17953 112.091 0.91219 123.748 3.84808 135.101C-14.9786 31.6053 147.464 -31.4772 208.368 69.6078Z" fill="#FF7D7D"/>
<g id="Vector_6" style="mix-blend-mode:multiply">
<path fill-rule="evenodd" clip-rule="evenodd" d="M209.491 77.1841C209.101 75.9628 208.688 74.7465 208.252 73.5352C210.329 169.388 63.0016 220.905 5.04895 138.607C5.42341 139.948 5.82181 141.286 6.24696 142.617C7.28729 145.877 8.4853 149.102 9.86913 152.279L9.85998 152.28L10.0043 152.588C10.6913 154.149 11.4184 155.699 12.1856 157.235C12.3186 157.503 12.4496 157.771 12.5861 158.037C13.3153 159.467 14.0833 160.883 14.8843 162.29C15.0821 162.639 15.2735 162.991 15.4762 163.339C16.254 164.669 17.0726 165.984 17.9152 167.289C18.1587 167.668 18.3861 168.051 18.6346 168.426C19.7192 170.06 20.8447 171.679 22.0315 173.27C23.3393 175.024 24.7048 176.707 26.0978 178.355C26.5131 178.846 26.9404 179.324 27.3634 179.806C28.4058 180.995 29.468 182.155 30.5527 183.286C30.9989 183.75 31.441 184.218 31.8943 184.674C33.2978 186.086 34.7274 187.46 36.1964 188.777L36.4878 189.051C38.0645 190.455 39.6855 191.792 41.3305 193.09C41.7937 193.455 42.2667 193.805 42.7347 194.161C43.9785 195.109 45.2384 196.027 46.5167 196.914C47.02 197.263 47.5211 197.614 48.0293 197.953C49.6025 199.004 51.1961 200.016 52.815 200.977L53.2838 201.266C55.085 202.321 56.918 203.308 58.7706 204.252C59.2309 204.486 59.6976 204.705 60.1621 204.932C61.5995 205.637 63.0495 206.31 64.5135 206.949C65.0344 207.175 65.5539 207.404 66.0783 207.622C67.7971 208.339 69.5294 209.015 71.2792 209.638L71.8304 209.845C73.8055 210.537 75.8024 211.162 77.8134 211.737C78.2315 211.857 78.6531 211.961 79.0733 212.075C80.6817 212.514 82.2985 212.915 83.9238 213.278C84.4376 213.393 84.95 213.507 85.4653 213.614C87.2827 213.992 89.1071 214.328 90.9415 214.611L91.5496 214.713C93.6401 215.024 95.7412 215.267 97.8479 215.454C98.2027 215.486 98.5596 215.503 98.915 215.531C100.651 215.668 102.39 215.762 104.132 215.815C104.629 215.83 105.125 215.843 105.622 215.851C107.466 215.881 109.312 215.867 111.159 215.802C111.396 215.794 111.632 215.796 111.869 215.785C114.001 215.697 116.131 215.542 118.26 215.325L118.496 215.308L118.48 215.298C124.142 214.71 129.777 213.655 135.337 212.153L135.356 212.18C135.808 212.058 136.253 211.91 136.703 211.783C137.431 211.575 138.16 211.363 138.886 211.139C139.772 210.866 140.656 210.577 141.538 210.28C142.263 210.036 142.988 209.79 143.709 209.53C144.581 209.215 145.448 208.88 146.314 208.542C147.037 208.26 147.761 207.981 148.479 207.682C149.333 207.326 150.179 206.947 151.026 206.568C151.746 206.246 152.467 205.932 153.181 205.595C154.018 205.198 154.844 204.774 155.673 204.354C156.385 203.994 157.101 203.646 157.807 203.268C158.632 202.828 159.446 202.354 160.263 201.889C160.7 201.642 161.141 201.407 161.575 201.152L161.579 201.154L161.648 201.111C161.881 200.974 162.117 200.842 162.348 200.703C163.23 200.175 164.097 199.609 164.969 199.053C165.195 198.909 165.423 198.771 165.649 198.625C165.889 198.47 166.134 198.327 166.373 198.169C167.122 197.674 167.857 197.148 168.598 196.633C169.365 196.099 170.139 195.582 170.897 195.025L170.895 195.022L171.23 194.784C188.595 181.927 200.916 164.84 207.861 146.049L207.867 146.066L207.967 145.774C208.53 144.237 209.054 142.689 209.545 141.132L209.652 140.806L209.732 140.561L209.753 140.497C210.898 136.782 211.834 133.013 212.565 129.206L212.608 128.961C212.941 127.203 213.227 125.438 213.471 123.667C213.509 123.392 213.539 123.117 213.574 122.842C213.783 121.239 213.956 119.634 214.09 118.023C214.116 117.706 214.141 117.388 214.164 117.07C214.285 115.46 214.368 113.846 214.415 112.232C214.423 111.956 214.433 111.681 214.439 111.405C214.476 109.656 214.471 107.907 214.421 106.157L214.415 105.784C214.107 96.1537 212.474 86.5281 209.491 77.1841Z" fill="#BE0000"/>
</g>
<path id="Vector_7" fill-rule="evenodd" clip-rule="evenodd" d="M208.368 69.6078C204.924 60.5841 200.217 51.8736 194.193 43.7332C168.971 9.64703 127.647 -5.27595 88.7432 1.6791L88.7361 1.66291L88.3202 1.74948C86.6491 2.05497 84.9837 2.40339 83.3233 2.79052C83.1213 2.83768 82.9179 2.87429 82.7151 2.92285C78.9381 3.82593 75.1956 4.94581 71.4995 6.27403C71.0131 6.4486 70.531 6.64427 70.046 6.82658C68.7332 7.32 67.4247 7.83243 66.1254 8.38075C65.5123 8.63907 64.9041 8.91359 64.2946 9.18388C63.1268 9.70334 61.9647 10.2418 60.8097 10.8056C60.1614 11.1224 59.5152 11.444 58.8712 11.7756C57.7478 12.352 56.6335 12.9567 55.5249 13.5775C54.8964 13.9294 54.2657 14.2758 53.6413 14.6418C52.4708 15.3281 51.3164 16.0516 50.1649 16.7865C49.8362 16.997 49.5004 17.1849 49.1738 17.3982L49.1668 17.3968L49.0971 17.446C48.919 17.5622 48.7423 17.6832 48.5642 17.8008C46.9017 18.9045 45.2553 20.0504 43.6364 21.259C41.9062 22.5499 40.2408 23.8957 38.6107 25.2697L38.377 25.4562L38.3826 25.4661C37.9293 25.8497 37.4922 26.2438 37.0473 26.6338C35.7529 27.7677 34.4915 28.9263 33.2633 30.1103C32.8832 30.477 32.4974 30.8395 32.1244 31.2104C28.9358 34.3765 25.9816 37.708 23.2611 41.1837L23.019 41.4751L23.0274 41.4899C18.372 47.4813 14.4169 53.8888 11.1741 60.5954L11.1642 60.558C11.0389 60.8164 10.9312 61.0817 10.8081 61.3415C10.3667 62.2734 9.94439 63.2131 9.52981 64.157C9.24755 64.7996 8.966 65.4423 8.69641 66.0899C8.28816 67.0704 7.90032 68.0579 7.52234 69.049C7.28795 69.6613 7.05426 70.273 6.83183 70.8882C6.45103 71.9419 6.09275 73.0013 5.74574 74.0641C5.56273 74.6251 5.37761 75.184 5.20446 75.7478C4.85252 76.8853 4.52662 78.0284 4.21269 79.1764C4.07754 79.6705 3.94029 80.164 3.81288 80.6602C3.49614 81.8864 3.20684 83.1181 2.93303 84.3535C2.83801 84.7814 2.74158 85.208 2.65218 85.6366C2.37908 86.9423 2.13624 88.2523 1.9117 89.5664C1.84906 89.9345 1.78289 90.3027 1.72376 90.6722C1.50486 92.0405 1.31551 93.4131 1.14869 94.7892C1.10928 95.1165 1.06634 95.4431 1.02974 95.7704C0.872069 97.1718 0.746778 98.5761 0.644011 99.9831L0.589812 100.569L0.60037 100.576C-0.17953 112.091 0.91219 123.748 3.84808 135.101C-14.9786 31.6053 147.464 -31.4772 208.368 69.6078Z" fill="#FF7D7D"/>
</g>
</g>
<defs>
<clipPath id="clip0_526_963">
<rect width="214.951" height="216" fill="white"/>
</clipPath>
</defs>
</svg>
