<svg width="72" height="72" viewBox="0 0 72 72" fill="none" xmlns="http://www.w3.org/2000/svg">
<g id="moon_circle 1" clip-path="url(#clip0_152_1206)">
<g id="Group">
<g id="Group_2">
<g id="Group_3">
<path id="Vector" d="M32.9491 0.121797C26.3898 0.670949 19.9525 3.17264 14.461 7.26078C12.3559 8.84722 8.81691 12.3557 7.26098 14.4608C3.11183 20.0438 0.70166 26.3591 0.121999 33.2235C-0.762747 43.8099 3.05081 54.2133 10.5864 61.7794C13.3932 64.5862 16.444 66.7828 20.1051 68.6133C22.6067 69.8642 24.8034 70.6879 27.6101 71.4201L29.5932 71.9388L35.7254 71.9998L41.8576 72.0303L43.6576 71.6642C54.8542 69.376 64.4949 61.5659 69.2542 51.0404C70.1389 49.0574 71.1762 45.854 71.6339 43.6879L72 41.8879L71.9695 35.7557L71.9084 29.6235L71.3898 27.6404C69.9864 22.3015 67.6678 17.6032 64.3728 13.515C56.8372 4.11841 45.061 -0.915492 32.9491 0.121797ZM40.3322 8.54214L40.9423 8.63366L39.5084 9.82349C32.6135 15.5286 29.8983 24.8947 32.644 33.4676C35.0847 41.0337 41.4915 46.6777 49.3932 48.2642C51.4678 48.6608 55.3728 48.7218 57.2949 48.3252C58.8508 48.0201 60.4983 47.532 61.8406 46.9523C62.4203 46.7387 62.9084 46.5557 62.9389 46.5862C62.9695 46.6167 62.8169 47.0438 62.6034 47.532C58.9728 55.6777 51.6203 61.6269 42.8949 63.4574C31.5152 65.8676 19.7389 60.8642 13.5152 50.9489C8.99996 43.7489 8.0542 34.5049 11.0135 26.5421C14.8271 16.2913 24.3457 9.15231 35.1762 8.38959C36.7322 8.29807 39.1118 8.35909 40.3322 8.54214ZM44.6034 25.1387C44.7559 25.3523 45.2135 25.5659 46.1593 25.8099C46.8305 25.993 46.861 25.993 46.4339 26.0845C45.5186 26.2981 44.8169 26.6337 44.6034 26.9387C44.4813 27.1218 44.2983 27.5794 44.2067 28.0065L43.9932 28.7693L43.8406 28.1286C43.4745 26.6947 43.322 26.5421 41.8576 26.1455L41.2169 25.9625L41.7661 25.8404C43.2 25.5354 43.444 25.2913 43.8101 23.8879L43.9932 23.2472L44.2067 24.1015C44.3898 24.5591 44.5423 25.0167 44.6034 25.1387ZM57.4169 29.8676C57.9356 31.8811 58.2101 32.1862 60.2237 32.7659C60.8339 32.9489 61.444 33.1015 61.5661 33.132C61.6881 33.1625 61.2305 33.3455 60.5898 33.5286C59.0339 33.9252 58.4542 34.1998 58.0881 34.6269C57.844 34.932 57.5389 35.9082 57.1423 37.5862C57.0508 37.9523 56.9898 37.8608 56.7457 36.732C56.3491 35.115 56.0745 34.4743 55.6474 34.2303C55.2203 33.9557 53.7254 33.4676 52.9322 33.3455C52.5661 33.315 52.322 33.2235 52.3525 33.193C52.383 33.1625 52.9932 32.9794 53.7559 32.7964C54.4881 32.6133 55.3118 32.3387 55.5559 32.2167C56.105 31.9421 56.4711 31.1794 56.8067 29.532C56.9593 28.8913 57.0813 28.3726 57.0813 28.4032C57.0508 28.4642 57.2339 29.1049 57.4169 29.8676Z" fill="#02C8DB"/>
</g>
</g>
</g>
</g>
<defs>
<clipPath id="clip0_152_1206">
<rect width="72" height="72" fill="white"/>
</clipPath>
</defs>
</svg>
