<svg width="95" height="141" viewBox="0 0 95 141" fill="none" xmlns="http://www.w3.org/2000/svg">
<g id="Group" opacity="0.35">
<path id="Vector" d="M24.3107 133.904C59.3514 133.904 87.7574 105.498 87.7574 70.4569C87.7574 35.4163 59.3514 7.01025 24.3107 7.01025C-10.7299 7.01025 -39.1359 35.4163 -39.1359 70.4569C-39.1359 105.498 -10.7299 133.904 24.3107 133.904Z" fill="#00182E"/>
<path id="Vector_2" fill-rule="evenodd" clip-rule="evenodd" d="M92.6182 73.4226C91.8997 90.0157 85.2524 105.097 74.7467 116.598C75.4988 117.757 75.3676 119.323 74.3511 120.339C73.3387 121.351 71.7822 121.485 70.6241 120.744C59.1343 131.362 44.0139 138.107 27.3589 138.88C26.9811 140.1 25.844 140.986 24.5 140.986C23.1672 140.986 22.0383 140.115 21.6512 138.911C4.83618 138.306 -10.4539 131.616 -22.0783 120.982C-23.1654 121.437 -24.4662 121.224 -25.351 120.339C-26.2294 119.461 -26.4472 118.172 -26.0051 117.09C-36.8269 105.472 -43.6706 90.1015 -44.3419 73.1712C-45.3246 72.6806 -46 71.6659 -46 70.493C-46 69.3225 -45.3273 68.3096 -44.3478 67.8179C-43.7108 50.8493 -36.8736 35.44 -26.0419 23.7927C-26.4301 22.7326 -26.2019 21.4977 -25.351 20.6469C-24.4955 19.7916 -23.2518 19.5651 -22.1878 19.962C-10.5383 9.2592 4.81391 2.52579 21.7017 1.93152C22.1299 0.80263 23.2209 0 24.5 0C25.7904 0 26.8899 0.81662 27.31 1.96117C44.0296 2.72518 59.2055 9.50785 70.718 20.1869C71.8653 19.5105 73.3656 19.6616 74.3511 20.6469C75.3428 21.6385 75.4895 23.1517 74.798 24.3016C85.3045 35.8285 91.9395 50.942 92.6247 67.565C93.9812 67.8493 95 69.0521 95 70.493C95 71.9363 93.978 73.1407 92.6182 73.4226ZM73.848 25.2816C72.6898 26.0246 71.132 25.8912 70.1191 24.8785C69.0997 23.8591 68.9701 22.2876 69.7292 21.1272C58.5051 10.7418 43.7403 4.13026 27.4726 3.33256C27.3035 4.82467 26.0375 5.98427 24.5 5.98427C22.9519 5.98427 21.6786 4.80883 21.5235 3.30185C5.17572 3.93194 -9.69247 10.4314 -21.0284 20.7472C-19.9547 21.9214 -19.9827 23.7422 -21.1191 24.8785C-22.2595 26.0188 -24.0896 26.043 -25.2633 24.9576C-35.6739 36.2603 -42.2659 51.131 -42.9698 67.5019C-41.3346 67.5222 -40.0151 68.8532 -40.0151 70.493C-40.0151 72.1308 -41.3312 73.4604 -42.9634 73.484C-42.226 89.8362 -35.6133 104.684 -25.1916 115.964C-24.016 114.944 -22.2364 114.99 -21.1191 116.108C-20.0079 117.219 -19.9556 118.985 -20.9577 120.161C-9.62656 130.443 5.2206 136.918 21.5416 137.542C21.7592 136.104 23.0009 135.002 24.5 135.002C25.9885 135.002 27.2226 136.089 27.4532 137.512C43.7023 136.72 58.453 130.127 69.6747 119.767C68.9802 118.616 69.1261 117.101 70.1191 116.108C71.1077 115.119 72.6146 114.97 73.7634 115.654C84.041 104.392 90.5455 89.63 91.2551 73.3897C89.9667 73.056 89.0151 71.8857 89.0151 70.493C89.0151 69.0982 89.9698 67.9262 91.2614 67.5947C90.5851 51.3434 84.1065 36.5653 73.848 25.2816Z" fill="#0075BF"/>
<path id="Vector_3" opacity="0.3" d="M24.2513 116.288C49.563 116.288 70.0821 95.7689 70.0821 70.4572C70.0821 45.1456 49.563 24.6265 24.2513 24.6265C-1.0603 24.6265 -21.5794 45.1456 -21.5794 70.4572C-21.5794 95.7689 -1.0603 116.288 24.2513 116.288Z" fill="#00A8FF"/>
<path id="Vector_4" opacity="0.3" d="M24.2513 116.288C49.563 116.288 70.0821 95.7689 70.0821 70.4572C70.0821 45.1456 49.563 24.6265 24.2513 24.6265C-1.0603 24.6265 -21.5794 45.1456 -21.5794 70.4572C-21.5794 95.7689 -1.0603 116.288 24.2513 116.288Z" fill="#00A8FF"/>
<path id="Vector_5" d="M24.2502 111.248C46.4831 111.248 64.5064 93.2249 64.5064 70.992C64.5064 48.7591 46.4831 30.7358 24.2502 30.7358C2.01733 30.7358 -16.006 48.7591 -16.006 70.992C-16.006 93.2249 2.01733 111.248 24.2502 111.248Z" fill="#F6DFB4"/>
<path id="Vector_6" fill-rule="evenodd" clip-rule="evenodd" d="M62.4798 80.6376C57.0461 101.619 35.6099 114.234 14.6006 108.814C-6.40874 103.394 -19.0354 81.9902 -13.6018 61.0084C-8.16815 40.0266 13.268 27.4115 34.2775 32.832C55.2867 38.2525 67.9134 59.6557 62.4798 80.6376Z" fill="#00A4B3"/>
<g id="Vector_7" style="mix-blend-mode:screen">
<path fill-rule="evenodd" clip-rule="evenodd" d="M62.4129 80.2667C67.8209 59.3837 55.2077 38.0695 34.2406 32.6599C13.2734 27.2503 -8.10789 39.7939 -13.5159 60.6769C-16.4472 71.9958 -14.0834 83.4411 -7.96552 92.4122C-12.2915 84.5558 -13.742 75.1085 -11.3194 65.7536C-6.26919 46.2519 13.6978 34.5379 33.2781 39.5897C52.8582 44.6415 64.6371 64.5459 59.5869 84.0475C58.3549 88.8044 56.2352 93.0975 53.4504 96.7975C57.6172 92.2484 60.7606 86.6468 62.4129 80.2667Z" fill="#80E2EB"/>
</g>
<path id="Vector_8" fill-rule="evenodd" clip-rule="evenodd" d="M60.91 67.1279C60.9901 67.3422 61.07 67.5561 61.1497 67.7708C61.1003 68.1299 61.0513 68.4896 61.0015 68.8486C60.3996 68.3055 60.5218 67.7235 60.91 67.1279ZM59.7717 81.0609C59.3396 79.7741 59.7715 78.7267 60.6687 77.8075C60.7468 78.996 60.5259 80.1018 59.7717 81.0609ZM58.3157 58.252C58.9595 58.909 59.2084 59.7475 59.4022 60.6117C59.1123 60.5777 58.8219 60.5432 58.5318 60.5091C58.46 59.7568 58.3876 59.0042 58.3157 58.252ZM58.5898 79.0264C58.4968 79.3841 58.404 79.7419 58.3106 80.0996C57.9885 80.5891 57.6657 81.0787 57.3429 81.5674C56.0798 80.6426 56.2018 78.9617 57.6039 77.9601C57.6795 77.5701 57.8519 77.3468 58.2811 77.5676L58.2823 77.5679C58.5434 78.0208 58.6343 78.5095 58.5898 79.0264ZM57.5397 58.1931C57.2285 58.2143 56.999 58.1643 56.835 58.0568C56.5382 57.8625 56.4564 57.4802 56.494 56.9939C56.7751 56.4652 57.2741 56.7474 57.6787 56.6777C57.8597 57.0496 58.0402 57.4214 58.2213 57.7928C58.2076 57.9023 58.1877 58.0107 58.1606 58.1172C57.9538 58.1428 57.7469 58.1681 57.5397 58.1931ZM56.8282 89.4932C56.6635 90.3737 55.8013 90.899 55.6599 91.7922C55.3354 92.2821 55.0111 92.7729 54.6863 93.2634C54.5977 93.2053 54.5078 93.1481 54.418 93.0925C54.723 91.4695 55.8994 90.3394 56.7224 89.0097C56.7579 89.1708 56.7929 89.3318 56.8282 89.4932ZM53.0799 61.1451C53.1131 61.3066 53.1473 61.4692 53.181 61.6307C53.1969 61.6403 53.2122 61.6499 53.2271 61.6596C53.9083 62.1058 53.5256 62.69 53.5021 63.3013C53.47 64.1257 53.2882 65.0316 53.8002 65.8163C53.7711 66.0767 53.7411 66.3367 53.7116 66.5971C53.3264 67.1836 52.9417 67.7704 52.5568 68.3572C52.2607 68.1665 51.965 67.976 51.6698 67.7859C51.337 67.9049 51.0339 67.8493 50.7528 67.6654C50.7308 67.6509 50.709 67.6357 50.6873 67.6198C50.4496 67.0603 50.1221 66.6338 49.6953 66.3542C49.2955 66.0924 48.8083 65.9594 48.2262 65.9669C47.0974 65.207 46.9926 64.1389 47.3168 62.9417C47.3771 62.8627 47.4469 62.794 47.523 62.7326C47.4772 62.7173 47.4321 62.6982 47.3882 62.6708C47.104 62.2898 46.8808 61.892 47.0446 61.3907C47.6288 61.1261 48.2601 60.9282 48.5951 60.3064C48.8886 59.7373 48.7106 59.2141 48.2282 58.5935C49.3061 58.5215 50.1882 58.3995 50.9845 58.9211C51.0276 58.9492 51.0704 58.9794 51.113 59.0113L51.1132 59.0234L51.114 59.024L51.1131 59.0111C51.1786 58.9187 51.2451 58.8269 51.313 58.7361C51.8054 58.8406 52.4946 58.4886 52.9135 58.763C53.0979 58.8838 53.23 59.1261 53.2697 59.5823C53.5604 59.7761 53.8502 59.9691 54.1406 60.1632C54.0981 60.8272 53.519 60.9108 53.0799 61.1451ZM53.288 50.4316C53.1616 50.3488 53.0191 50.2942 52.8767 50.2396C52.7342 50.1851 52.5918 50.1305 52.4653 50.0477C52.3865 49.9961 52.3139 49.9335 52.2514 49.8532C51.8559 49.3018 51.3512 48.7904 51.5718 48.0118C51.5721 47.8307 51.5723 47.6499 51.5724 47.4692C52.4126 48.4378 53.5469 49.2028 53.744 50.6159C53.6088 50.566 53.4732 50.5163 53.3377 50.4664C53.3216 50.4542 53.3049 50.4427 53.288 50.4316ZM50.0914 52.8949C50.0328 52.9875 49.9763 53.0818 49.9219 53.1767C49.5146 53.7916 49.0803 54.3319 48.2545 53.7909C48.2512 53.7888 48.2479 53.7866 48.2446 53.7845C47.8234 53.7897 47.4914 53.694 47.2272 53.521C46.7913 53.2355 46.5407 52.7394 46.3814 52.1398C46.3179 51.7581 46.1503 51.5336 45.9297 51.3891C45.5652 51.1504 45.0558 51.1305 44.632 50.9813C45.2368 49.8385 45.8411 48.6952 46.4462 47.552C46.712 47.6256 46.9781 47.6992 47.2442 47.7731C47.3075 47.7078 47.3735 47.6432 47.4442 47.5796C47.9672 47.4914 48.3515 47.5918 48.6607 47.7943C49.2914 48.2073 49.6099 49.0456 50.1549 49.5764C50.2399 49.6427 50.3259 49.7052 50.4148 49.765C50.1578 50.1192 50.0111 50.4926 49.9904 50.8879C50.1008 51.022 50.2174 51.1449 50.3521 51.2331C50.3681 51.2436 50.3845 51.2536 50.401 51.2631C50.5682 51.4887 50.6113 51.7513 50.6223 52.0227C50.6587 52.1776 50.6955 52.333 50.7317 52.4881C50.5178 52.6232 50.3053 52.7592 50.0922 52.8947L50.0914 52.8949ZM44.5914 59.244C45.0118 59.1153 45.4106 59.1988 45.7931 59.4493C45.7938 59.4499 45.7945 59.4503 45.7952 59.4508C46.0603 59.6876 46.0368 60.0149 46.0628 60.3271C46.1926 60.5548 46.3231 60.7822 46.4534 61.0103L46.4536 61.0099C46.5533 61.0728 46.6534 61.1357 46.7537 61.1991C46.8921 61.8165 47.2273 62.3894 47.1824 63.051C47.1328 63.3967 47.0912 63.7466 46.7881 63.9351C46.7293 64.2927 46.5039 64.5196 46.1898 64.6782C46.0291 64.7444 45.8602 64.7756 45.6874 64.7795C45.62 64.7708 45.555 64.762 45.4909 64.7532C45.2242 64.8059 44.9546 64.875 44.7056 64.8294C43.2472 64.5639 42.9366 65.2419 43.2604 66.4961C43.3088 66.6529 43.2998 66.8056 43.2331 66.9562C43.1615 67.0511 43.0747 67.124 42.9744 67.1792C43.2357 67.7149 42.9044 68.2858 43.0222 68.8303C42.779 69.6799 42.5416 70.375 41.7882 69.8816C41.64 69.7845 41.4715 69.641 41.2792 69.4439C41.1961 69.3587 41.1101 69.2876 41.0215 69.2295C40.42 68.8357 39.7096 69.0521 39.1354 69.6489C38.8214 69.9709 38.4501 70.0224 38.038 69.8821C37.9228 69.8235 37.8107 69.7625 37.7072 69.6946C37.699 69.6894 37.6909 69.6839 37.6828 69.6784C36.6911 69.7512 35.8367 69.4908 35.079 68.9945C34.6935 68.742 34.333 68.4285 33.9923 68.0666C33.8575 67.6674 33.3566 67.3455 33.4225 66.904C33.3974 66.8815 33.372 66.8604 33.3468 66.8366C33.0426 66.4912 32.7478 66.1385 32.3801 65.8542C30.9054 64.3624 30.8494 63.9546 31.9008 62.4204C32.0943 62.169 32.3091 61.9535 32.5955 61.8569C32.2567 61.6151 31.9809 61.2973 31.6637 61.0287C31.6431 61.1042 31.612 61.1786 31.5689 61.2514C31.1732 61.7012 30.6758 61.9345 30.0778 61.954C29.9168 61.9733 29.7591 61.9541 29.6046 61.9046C29.569 61.8781 29.5336 61.8509 29.4982 61.8239C29.2443 61.9517 28.976 62.0236 28.7028 62.0762C28.8367 62.0759 28.97 62.0834 29.1013 62.1104C29.2567 62.1755 29.4035 62.2533 29.5417 62.3438C29.7005 62.4478 29.8481 62.5686 29.9848 62.7066C30.9181 64.2867 30.6905 65.7725 29.6205 67.1905C29.2117 67.9497 28.8597 68.7298 28.2099 69.3465C27.6114 69.9138 27.037 70.1101 26.3628 69.6684C26.3184 69.6394 26.2735 69.6075 26.2282 69.5728C26.1456 69.4824 26.0842 69.3799 26.0394 69.2694C25.9181 69.7974 25.7306 70.1681 25.2567 69.8578C25.1779 69.806 25.0909 69.7355 24.9951 69.6435C24.9696 69.7201 24.9313 69.7921 24.8794 69.8595C24.259 70.3034 23.4727 69.9345 22.8306 70.2772C22.5745 70.3393 22.3249 70.4441 22.0588 70.4448C22.1734 71.2752 21.6131 71.6619 21.0096 72.0199C21.2571 72.435 21.6107 72.8158 21.4636 73.3612C21.6318 73.3679 21.7931 73.4204 21.9474 73.5189C22.4173 74.1362 23.4273 74.3436 23.3551 75.3725C23.2973 75.4639 23.2241 75.543 23.1436 75.6162C23.4378 76.6405 22.7442 76.6921 22.08 76.773C22.0705 76.8385 22.0647 76.9067 22.0679 76.9823C21.9064 77.1688 21.7302 77.3347 21.4776 77.3898C21.132 77.4437 21.0035 77.6402 21.0934 77.9787C20.7682 79.3646 20.1529 80.3456 18.4811 79.8609C18.3851 79.7939 18.3103 79.718 18.2502 79.6359C17.5753 80.0005 16.9532 79.9172 16.366 79.5326C16.257 79.4612 16.149 79.3792 16.0423 79.288C15.8463 79.16 15.6504 79.0323 15.4546 78.9043C14.9806 78.4964 14.8791 78.01 15.1462 77.4454C15.0831 76.7025 15.4108 76.2164 16.1106 75.9744C16.6253 76.1453 17.3547 75.9877 17.7931 76.2749C18.0401 76.4367 18.1947 76.7396 18.1667 77.3216C18.3625 77.9759 18.0072 78.3257 17.5976 78.6457C17.7887 78.6058 17.98 78.6108 18.1718 78.6631C18.3859 78.1981 18.5419 77.7185 18.4426 77.183C18.487 77.0548 18.5543 76.9401 18.6415 76.8387C18.6071 76.8208 18.5753 76.8022 18.5455 76.7827C18.1062 76.495 18.1501 76.0339 18.339 75.521C18.3603 75.4122 18.4744 75.3874 18.6033 75.3756C18.6192 75.3488 18.6349 75.3218 18.6509 75.2948L18.6474 75.2959C18.4315 75.2507 18.2614 75.181 18.1264 75.0925C17.3759 74.601 17.7091 73.529 17.3284 72.8384C17.3735 71.8905 16.6894 71.4203 16.0639 70.9119C16.3766 70.4475 16.6635 69.9639 17.007 69.5239C17.3962 69.0252 17.7828 68.8844 18.1462 69.1225C18.2971 69.2213 18.444 69.3854 18.5853 69.6163C18.8114 69.4849 19.0379 69.3527 19.2637 69.2206C19.2245 68.9141 19.3403 68.7107 19.6516 68.638C20.0898 68.6306 20.5369 68.6773 20.9644 68.606C21.9798 68.436 21.2525 68.1171 21.0072 67.8462C21.2822 66.9065 21.7987 66.1247 22.5435 65.492C22.7055 65.4591 22.8676 65.426 23.0301 65.3931C23.2707 65.346 23.5032 65.3574 23.721 65.4747C23.9569 64.8697 24.2697 64.5869 24.7216 64.883C24.8739 64.9828 25.042 65.1482 25.2282 65.3892C25.3044 65.4878 25.3888 65.5669 25.4809 65.6273C25.6724 65.7528 25.8974 65.7968 26.1526 65.7662C26.2384 65.7679 26.3113 65.7887 26.3719 65.8283C26.4294 65.866 26.4757 65.9207 26.5111 65.992C26.5433 66.0106 26.5753 66.0288 26.6074 66.0472C26.7552 65.8048 26.9809 65.6694 27.2548 65.5932C27.8569 65.4254 27.763 65.0516 27.5099 64.6579C27.4269 64.5287 27.3419 64.4369 27.2557 64.3804C27.0261 64.23 26.7874 64.3307 26.5511 64.6456C26.2536 65.0427 25.9112 65.3335 25.3637 65.1405C24.8805 64.824 24.4383 64.4573 23.9561 64.1414C23.9536 64.1398 23.9511 64.1381 23.9486 64.1365C23.9469 64.1354 23.9452 64.1344 23.9436 64.1332C22.9636 63.4915 22.7715 62.7506 23.7728 61.933C23.8389 61.9202 23.9055 61.908 23.9721 61.8955L23.9716 61.89C23.6593 61.9246 23.4114 61.8606 23.2086 61.7277C22.9421 61.5532 22.7532 61.2597 22.5979 60.9151C22.5028 60.8513 22.4082 60.7872 22.314 60.7222C22.4576 60.4996 22.6012 60.277 22.7448 60.0544C22.4369 59.7457 22.2799 59.4243 22.5056 59.0726C21.8912 58.9937 21.2985 58.8853 20.8442 58.5877C20.4325 58.3179 20.1343 57.8929 20.0368 57.1942C20.1106 56.1784 20.9333 55.4183 20.9974 54.3961C21.4691 53.5823 20.6813 51.9529 22.5279 52.0301C22.59 51.9375 22.6536 51.8459 22.7189 51.7555C22.9788 51.7854 23.2382 51.8147 23.4981 51.8447C24.8426 52.3548 26.2057 52.1413 27.3081 51.4116C28.3913 50.6946 29.1914 50.9491 30.028 51.497C30.1221 51.5586 30.2167 51.6241 30.3122 51.6922C30.4739 51.6595 30.6357 51.6261 30.7972 51.5933C31.1978 51.6518 31.5313 51.7891 31.8207 51.9787C32.3831 52.3471 32.7786 52.9124 33.1738 53.4777C33.5691 54.043 33.9644 54.6083 34.5268 54.9767C34.7022 55.0915 34.8937 55.1872 35.1066 55.2578C35.1718 55.4357 35.1755 55.6143 35.1193 55.7948C35.4509 56.2712 35.7043 56.8396 36.1776 57.1496C36.3883 57.2877 36.6427 57.3745 36.9671 57.379C36.967 57.3545 36.9658 57.3302 36.9674 57.3055C37.0243 57.1472 37.1176 57.0119 37.2472 56.9038C37.6004 56.7538 37.9196 56.5581 38.1173 56.2122C38.232 56.0306 38.2696 55.8329 38.2315 55.6207C39.411 56.2313 39.4912 54.2528 40.57 54.6255C40.8947 54.9796 41.2189 55.3334 41.5437 55.6881C41.9695 56.1071 42.3954 56.5258 42.8206 56.9446C43.1446 56.8776 43.4681 56.8103 43.7922 56.7434C44.1387 56.8054 44.3871 56.8972 44.5617 57.0115C45.3407 57.5218 44.6452 58.4809 44.5914 59.244ZM32.646 54.904C32.648 54.9474 32.6511 54.9906 32.6548 55.0337L32.6676 55.0322C32.6602 54.9897 32.6519 54.9489 32.646 54.904ZM34.9737 65.6535L34.9725 65.6722L35.0086 65.6826C34.9977 65.6728 34.9851 65.6632 34.9737 65.6535ZM36.8046 37.5863C37.0751 37.7394 37.3664 37.8681 37.6234 38.0363C37.9159 38.228 38.1641 38.4712 38.2863 38.8609C37.989 38.6704 37.6919 38.4799 37.3948 38.2888C37.1975 38.0544 37.0009 37.8199 36.8046 37.5863ZM29.028 36.7482C28.384 37.1003 27.7309 36.9358 27.0776 36.7814C26.4768 36.5257 25.6903 36.5754 25.1495 36.2212C24.8701 36.0382 24.6563 35.7473 24.5678 35.2507C25.2373 35.1892 25.907 35.1274 26.5765 35.0659C27.3359 35.314 28.1115 35.3954 28.9047 35.2928C28.9977 35.3609 29.0903 35.4299 29.1836 35.4983C29.4942 35.9601 29.458 36.3783 29.028 36.7482ZM6.36056 81.6179C6.35089 81.6138 6.34094 81.6084 6.331 81.6019C6.26131 81.5563 6.18961 81.457 6.19383 81.3908C6.20641 81.1957 6.34438 81.1397 6.49343 81.2373C6.49879 81.2408 6.50408 81.2446 6.50953 81.2485C6.57526 81.2956 6.57781 81.4295 6.60957 81.5239C6.52176 81.5606 6.41864 81.6425 6.36056 81.6179ZM11.3055 83.3225C11.0113 83.1306 10.7174 82.9385 10.4237 82.7469C10.7056 82.4937 11.0122 82.3558 11.3257 82.5611C11.3643 82.5863 11.403 82.6169 11.4418 82.653C11.7246 82.9159 11.5192 83.1323 11.3055 83.3225ZM17.4234 66.7875C17.6399 67.2879 17.5319 67.7581 17.2744 68.2145C17.0942 68.4573 16.854 68.6065 16.5584 68.6631C16.2891 68.6887 16.0338 68.6051 15.777 68.5489C14.5956 68.3585 13.5637 68.7335 12.6097 69.3997C11.4418 69.547 10.5032 69.9678 10.2627 71.2848C10.1654 71.816 9.85291 72.1931 9.3417 72.3851C9.32824 72.4304 9.31178 72.4752 9.28908 72.5194C8.72367 73.1199 7.88954 73.3126 7.20042 73.6003C5.7135 74.2202 5.57254 75.0966 6.13796 76.3749C6.09686 76.7257 5.99515 77.044 5.66247 77.2315C5.81909 77.4103 5.89079 77.6069 5.87566 77.8216C5.91596 77.8875 5.95538 77.9548 5.99331 78.0253C6.01706 78.2191 5.98899 78.4042 5.91174 78.5831C5.32125 79.1164 4.95029 79.1569 4.67682 78.9778C4.2477 78.6967 4.05914 77.8749 3.64005 77.5702C3.59501 77.5395 3.54969 77.5091 3.50446 77.4784C3.37943 77.5234 3.24851 77.5405 3.11239 77.5289C3.00777 77.5033 2.91793 77.4645 2.84103 77.4141C2.63522 77.2793 2.52163 77.0621 2.46154 76.7974C2.4281 76.6342 2.39493 76.4699 2.36123 76.3062C2.20857 76.1889 2.05036 76.079 1.88873 75.9731C1.66322 75.8254 1.43111 75.6858 1.19908 75.5462C0.967055 75.4067 0.735115 75.2673 0.509513 75.1195C-0.0646114 74.7434 -0.597468 74.3139 -0.983122 73.6958C-1.92794 72.7574 -1.69644 71.6533 -1.56208 70.5625C-1.61048 70.5354 -1.65852 70.5076 -1.70648 70.4792C-2.13295 70.2446 -2.48552 70.0633 -2.78512 69.9406C-2.70506 70.1238 -2.70813 70.3157 -2.85041 70.5008C-3.0717 70.7882 -3.3288 70.7942 -3.56804 70.6376C-3.62119 70.6028 -3.67345 70.5598 -3.72422 70.5103C-3.96628 70.2747 -3.92818 69.9906 -3.71208 69.776C-4.22497 69.8865 -4.52712 70.4841 -4.97823 71.7046L-4.99029 71.7383C-4.90204 71.7474 -4.80718 71.7668 -4.70661 71.7949C-4.68382 71.8073 -4.66209 71.8203 -4.64133 71.834C-4.35923 72.0188 -4.25128 72.3122 -4.18423 72.6295C-4.12352 72.7758 -4.09166 72.9308 -4.07987 73.0883C-4.06016 73.3792 -4.18431 73.6616 -4.13425 73.9552C-4.07864 74.1583 -4.00368 74.3506 -3.88498 74.5273C-3.01486 74.3605 -2.23089 74.4411 -1.56921 74.8745C-1.15294 75.1472 -0.785062 75.5594 -0.474814 76.1374C0.016161 76.4594 0.507048 76.7813 0.997848 77.1036C1.07413 77.5331 0.900095 77.7518 0.566971 77.8362C0.782014 77.8745 0.965909 77.9401 1.11417 78.0371C1.47272 78.2719 1.62204 78.6909 1.49709 79.3521C1.43577 79.506 1.35403 79.6372 1.24536 79.7376L1.25073 79.7569C1.30264 79.9924 1.32596 80.2296 1.29692 80.47C1.34787 80.4904 1.396 80.5164 1.44202 80.5465C1.58192 80.6382 1.70184 80.7681 1.8223 80.8971C2.15305 81.5091 2.52885 82.1105 3.09488 82.4812C3.24507 82.5797 3.40864 82.6617 3.5884 82.7235C3.83829 82.8096 4.058 82.9174 4.25245 83.0447C4.90445 83.4718 5.2689 84.1174 5.51421 84.8896C5.58847 84.5955 5.663 84.3006 5.73691 84.0066C5.57474 83.6162 5.41249 83.2261 5.25006 82.836L5.25693 82.8347C5.53911 82.1577 5.80386 82.0662 6.06123 82.2348C6.20861 82.3313 6.35353 82.5131 6.49783 82.7191C6.86157 82.1502 7.54885 82.2491 8.17603 82.2246C8.49719 81.8742 8.86736 81.2571 9.29621 81.538C9.36994 81.5864 9.44553 81.6612 9.52278 81.7687C9.96334 82.3811 9.52472 82.7899 9.04175 83.1365C9.18931 83.1834 9.32586 83.2477 9.45116 83.3298C9.58886 83.4199 9.71301 83.5316 9.82361 83.6654C9.83435 83.716 9.84772 83.7664 9.86251 83.8168C10.1636 83.6849 10.3887 83.6688 10.5388 83.7671C10.7368 83.8967 10.8043 84.2256 10.7433 84.7503C10.6248 85.0218 10.6322 85.2682 10.7556 85.4922C10.8897 85.5047 11.0208 85.5373 11.1446 85.6183C11.1521 85.6233 11.1596 85.6284 11.1671 85.6337C11.2377 85.718 11.2943 85.8036 11.3433 85.8896C11.376 85.7062 11.4298 85.5252 11.4824 85.3439C12.415 84.7509 12.3429 83.4831 13.1739 82.8176C13.3275 82.7175 13.4932 82.6603 13.674 82.639C13.9613 82.6607 14.1986 82.7385 14.3922 82.8654C14.7013 83.0678 14.8996 83.3954 15.0125 83.8195C15.1642 84.3983 15.7314 84.7572 15.8553 85.3523C16.4661 85.1531 17.0881 85.0758 17.7437 85.3469C17.9743 85.4742 18.2504 85.5651 18.4647 85.7054C18.6434 85.8226 18.7792 85.9741 18.8093 86.2095C19.0891 86.1914 19.359 86.234 19.61 86.3922C19.7438 86.5088 19.842 86.6509 19.9058 86.8173C19.913 87.0075 19.824 87.1365 19.6522 87.2122C19.0247 88.0726 18.6249 89.1213 17.619 89.6676C17.3254 89.4779 17.0315 89.2881 16.7377 89.0986C16.4829 89.7763 15.5938 90.0294 15.5628 90.8574C15.1093 90.9278 14.7578 90.7449 14.4213 90.5246C14.3629 90.4863 14.305 90.4469 14.2471 90.4075C14.1892 90.3682 14.1313 90.3289 14.073 90.2907C14.0212 90.2568 13.9691 90.2238 13.9163 90.1924C13.7278 89.504 14.0976 88.6279 13.339 88.1312C13.2952 88.1024 13.2473 88.0749 13.1956 88.0487C13.0852 88.0427 12.9942 88.0109 12.9175 87.9606C12.8024 87.8853 12.7191 87.7683 12.6495 87.634C12.6503 87.2889 12.5191 87.101 12.3324 86.9788C12.1096 86.8328 11.8077 86.7806 11.5578 86.6663C11.579 87.1819 11.4215 87.7118 11.3737 88.2332C11.3375 88.3074 11.3008 88.3812 11.2644 88.4545C10.8437 88.4999 10.3779 88.4214 10.0112 88.6166C10.0249 88.6266 10.0376 88.6376 10.0519 88.6472C10.1424 88.7248 10.2361 88.7945 10.3325 88.8577C10.7923 89.1588 11.314 89.3121 11.8429 89.47C12.3717 89.6279 12.9074 89.7904 13.3952 90.1099C13.4735 90.1612 13.5505 90.2164 13.6262 90.2764C14.5291 90.9935 15.4732 91.6561 16.2696 92.5054C16.3588 92.6662 16.3961 92.8378 16.3827 93.0207C16.3364 93.1954 16.2527 93.3502 16.1317 93.484C15.8646 93.7207 15.5761 93.8752 15.2441 93.8617C15.251 93.9218 15.2555 93.9822 15.256 94.0429C15.1989 94.7114 14.8314 95.3602 15.1271 96.0535C15.1143 96.0751 15.103 96.0977 15.0907 96.1194C15.1281 96.182 15.1593 96.2469 15.183 96.3146C15.357 96.1381 15.5751 96.0515 15.8289 96.0357C16.4102 96.0744 16.9543 96.2046 17.4255 96.5133C17.572 96.6092 17.7115 96.7225 17.8429 96.8554C17.9663 96.994 18.0505 97.1544 18.0954 97.3344C18.1336 97.7263 17.9271 98.0068 17.6725 98.2644C16.9227 98.5743 17.0021 99.5181 16.4047 99.9473C15.6409 100.295 14.8387 100.426 14.0031 100.358C13.6304 100.209 13.3019 100.269 13.0231 100.565C12.3965 100.524 11.8776 100.238 11.377 99.9101C11.2735 99.8424 11.1707 99.7728 11.068 99.7032C10.9952 99.4776 10.8411 99.3428 10.6678 99.2293C10.6144 99.1943 10.5591 99.1613 10.5039 99.1283C10.4486 99.0954 10.3934 99.0625 10.3399 99.0275C10.2922 98.9962 10.2457 98.9632 10.202 98.9271C8.92947 97.8764 8.96397 97.1215 10.3353 95.962C10.5586 95.9249 10.7267 95.9759 10.8685 96.0687C10.878 96.075 10.8874 96.0813 10.8966 96.088C11.0054 95.9236 11.1143 95.7593 11.2227 95.5956C11.0495 95.2572 10.5209 95.1986 10.532 94.7153C10.4614 94.3909 10.3906 94.0663 10.32 93.7419C10.351 93.4841 10.3829 93.227 10.414 92.9691C9.91468 92.9968 9.51803 92.809 9.14733 92.5663C8.9066 92.4086 8.67677 92.2277 8.43709 92.0675C8.26068 92.435 7.84203 92.5245 7.57507 92.7883C6.77746 93.6131 5.28227 93.4246 4.79754 94.7026C4.55874 94.5636 4.31932 94.424 4.08052 94.285C3.99385 93.8792 3.70182 93.6386 3.3855 93.4174L3.24006 93.324L3.09822 93.2268C2.87596 93.5502 2.71644 93.8903 2.81252 94.2987C2.53096 95.0263 1.94707 94.8866 1.60778 94.6644C1.519 94.6063 1.44703 94.5425 1.40154 94.487C1.02557 94.0276 0.550341 93.6881 0.0610371 93.3676C-0.0269508 93.31 -0.11547 93.2529 -0.203986 93.196C-0.29259 93.1388 -0.38119 93.0818 -0.469267 93.0241C-1.09706 92.6128 -1.69706 92.1731 -2.08711 91.4904C-2.20572 91.4198 -2.32239 91.3474 -2.4366 91.2726C-3.15679 90.8009 -3.77402 90.2317 -4.08436 89.3736C-4.47512 89.116 -4.86561 88.8586 -5.25637 88.6016C-5.47757 87.9672 -5.93009 87.3821 -5.66754 86.6462C-5.67704 86.6274 -5.68733 86.6097 -5.69763 86.592C-5.74373 86.6333 -5.79662 86.6753 -5.85785 86.7184C-6.16432 86.7361 -6.40611 86.6748 -6.59643 86.5501C-6.86761 86.3726 -7.03399 86.0663 -7.13272 85.6775C-8.37819 84.272 -9.63775 82.8783 -10.8603 81.4529C-11.2979 80.9424 -11.3793 80.3074 -11.1979 79.6519C-11.2947 79.5861 -11.3899 79.5188 -11.4852 79.4507C-11.7975 79.692 -12.1104 79.934 -12.423 80.1762C-12.6587 79.7121 -12.8102 79.2166 -12.9171 78.7038C-12.9477 78.5567 -12.7912 77.3832 -12.7068 77.4387C-12.7057 77.4393 -12.7047 77.4402 -12.7036 77.4414C-12.7814 77.3586 -12.8645 77.2814 -12.9461 77.2019C-12.9435 76.9436 -12.9404 76.6846 -12.9373 76.426C-13.4839 75.8456 -13.4077 75.1848 -13.1853 74.5049C-13.745 73.6759 -13.1757 72.785 -13.327 71.9338C-13.2303 71.1544 -13.1335 70.3745 -13.0367 69.5947C-13.0419 69.4757 -13.0151 69.3642 -12.956 69.2605C-13.0964 68.8433 -13.0396 68.436 -12.8921 68.0343C-12.9354 67.3773 -12.8213 66.7458 -12.5794 66.1358C-12.5569 66.2162 -12.5341 66.2963 -12.5114 66.3769C-12.5104 66.2927 -12.5264 66.2113 -12.5794 66.1358C-12.7024 65.4466 -12.5891 64.7841 -12.3553 64.1347C-12.2999 64.0323 -12.2449 63.9296 -12.1898 63.8277C-12.3905 62.8456 -11.5518 62.1879 -11.4075 61.3134C-11.4299 61.3011 -11.4515 61.288 -11.4727 61.2742C-11.54 61.2301 -11.601 61.1783 -11.6559 61.1186C-11.5141 60.8528 -11.3718 60.5868 -11.2295 60.3207C-11.2947 60.2449 -11.3583 60.168 -11.4203 60.0894C-11.1304 59.4441 -10.8405 58.7989 -10.5505 58.153C-10.3325 57.772 -10.1149 57.3914 -9.89714 57.0106C-9.90294 56.8306 -9.90884 56.6505 -9.91438 56.4704C-9.34774 55.421 -8.781 54.3718 -8.21445 53.3226C-7.52717 52.2595 -6.83998 51.1962 -6.15244 50.1328C-6.0289 50.1247 -5.92253 50.1499 -5.83304 50.2085C-5.77039 50.2495 -5.71602 50.307 -5.66991 50.3809C-5.29279 51.7043 -6.16511 52.0781 -7.16765 52.3526C-7.18921 52.4033 -7.21314 52.4529 -7.23514 52.5035C-7.07676 52.4957 -6.96466 52.507 -6.88257 52.5607C-6.6919 52.6857 -6.66365 53.04 -6.5959 53.919C-6.58288 54.1995 -6.55578 54.4806 -6.60364 54.7603C-6.69322 55.0225 -6.8369 55.2571 -6.98692 55.4877C-6.99915 55.5058 -7.01112 55.5241 -7.02344 55.5421C-6.89594 55.7783 -6.88441 56.0556 -6.90069 56.3432C-6.80135 56.4074 -6.70193 56.4717 -6.6025 56.5361C-6.37575 56.4006 -6.14936 56.2658 -5.9227 56.1311C-5.64483 55.2829 -4.50794 55.5288 -4.17261 54.7544C-3.78318 54.2074 -3.40764 54.1012 -3.11059 54.2958C-2.92978 54.4142 -2.778 54.6439 -2.66995 54.9535C-2.34184 55.8934 -2.25895 56.906 -2.99366 57.7693C-3.13743 57.9941 -3.28375 58.2192 -3.42075 58.4475C-3.8145 58.9454 -3.82418 59.4864 -3.67284 60.0888C-3.50892 60.7412 -3.5632 61.3243 -4.18819 61.5986C-3.85832 61.875 -3.76945 62.2611 -3.73707 62.6712C-3.70425 63.2687 -3.45366 63.6023 -3.112 63.8262C-2.7282 64.0775 -2.22957 64.1901 -1.79631 64.3815C-1.78276 64.3176 -1.76472 64.254 -1.73569 64.1903C-1.67717 64.0445 -1.62816 63.8965 -1.58267 63.7476C-1.65174 63.5655 -1.6792 63.3658 -1.65958 63.1464C-1.56508 62.6826 -1.50533 62.1964 -1.1576 61.8974C-1.12945 61.7766 -1.09971 61.6564 -1.06671 61.5368C-0.65871 60.88 -0.35805 60.1819 -0.134472 59.4537C-0.210053 59.1896 -0.409615 58.9173 -0.799051 58.6324C-0.684402 58.4363 -0.56993 58.2407 -0.455809 58.0445C-0.539134 57.6299 -0.634158 57.2126 -0.164916 56.944C-0.0314379 56.7569 0.10239 56.5698 0.235693 56.3835C0.398999 56.349 0.56222 56.3144 0.725263 56.2796C1.3249 56.2032 1.76793 55.7068 2.37918 55.661C2.54169 55.6277 2.70483 55.5937 2.86769 55.5604C2.99906 55.3734 3.13122 55.1862 3.26267 54.9992C3.32347 54.8961 3.38445 54.7928 3.44534 54.6896C4.05897 53.9675 4.67277 53.2454 5.28649 52.5233C5.41311 52.3231 5.53902 52.123 5.66546 51.9228C5.89185 51.7908 6.11886 51.6589 6.34508 51.5273C6.4138 51.4467 6.47697 51.3627 6.53575 51.2748C6.70003 51.2913 6.82858 51.3364 6.93003 51.4028C7.20455 51.5827 7.28092 51.9197 7.33231 52.2768C7.37824 52.7334 7.72395 53.0315 7.93353 53.4027C8.30836 53.3237 8.72833 53.3957 9.04896 53.1277C9.20787 53.0741 9.36924 53.0554 9.53571 53.0624C10.3297 53.2765 11.2454 53.11 11.9589 53.5774C12.1133 53.6785 12.2583 53.8093 12.3904 53.98C12.4597 54.1596 12.4784 54.3429 12.4516 54.533C12.2938 54.9775 12.0983 55.38 11.6787 55.5341C11.8274 55.6475 11.9534 55.7889 12.0627 55.9514C12.1964 56.3031 12.3538 56.6306 12.5821 56.8841C12.7937 57.0231 13.005 57.1621 13.2164 57.301C13.3202 57.3354 13.4319 57.3616 13.5549 57.3763C14.0812 57.4312 14.6975 57.3839 15.0997 57.6473C15.3386 57.8038 15.5019 58.0701 15.5259 58.5327C15.5702 59.3897 15.0011 59.7656 14.292 59.9415C14.3517 59.9995 14.402 60.0669 14.4413 60.1454C14.505 60.7114 14.4741 61.2806 14.503 61.8488C14.4243 62.588 13.7748 63.1139 13.751 63.8767C13.7397 63.8996 13.7269 63.9202 13.7146 63.9418C13.7195 63.945 13.7243 63.9482 13.7292 63.9514C13.735 63.9552 13.7409 63.959 13.7468 63.9629C13.754 63.9675 13.761 63.9721 13.7681 63.9767C13.7733 63.9801 13.7785 63.9836 13.7836 63.987C13.8956 63.9584 13.9931 63.972 14.0766 64.0267C14.0892 64.035 14.1014 64.0441 14.1134 64.0542C14.6243 64.1581 15.1349 64.262 15.6456 64.3664C16.1264 63.7078 16.7741 63.572 17.4944 63.8508C17.5937 63.8893 17.68 63.9335 17.7551 63.9826C18.3175 64.351 18.2407 64.998 18.1826 65.6211C17.9296 66.0099 17.6766 66.3988 17.4234 66.7875ZM-12.0856 67.3458C-12.0712 67.5306 -12.1292 67.6823 -12.2493 67.8056C-12.1805 67.7913 -12.1121 67.7861 -12.0438 67.7868C-12.0836 67.6351 -12.0785 67.495 -12.0122 67.3704C-12.0368 67.3632 -12.0613 67.3549 -12.0856 67.3458ZM-7.59307 82.6989L-7.58586 82.7036L-7.58507 82.6919L-7.59307 82.6989ZM4.45069 70.2314C4.3561 70.2388 4.2624 70.2524 4.16992 70.2742C4.2499 70.5494 4.22395 70.8552 4.21955 71.1549C4.299 70.8139 4.4133 70.4958 4.71659 70.3014C4.62491 70.2915 4.53674 70.2659 4.45069 70.2314ZM11.5932 64.6711C11.6259 64.6863 11.6579 64.7042 11.6891 64.7246C11.7391 64.7573 11.7871 64.7967 11.8331 64.8425C11.8476 64.7202 11.8785 64.6088 11.928 64.5095C11.8087 64.5424 11.6981 64.599 11.5932 64.6711ZM12.0798 60.3227L12.0813 60.3237L12.0815 60.3221L12.0798 60.3227ZM8.36045 50.8266C8.25566 50.7579 8.14365 50.6554 8.02337 50.5134C8.08347 50.4165 8.14304 50.3203 8.20313 50.2236C8.61923 49.9902 9.03709 49.977 9.45811 50.2116C9.16326 50.7558 8.8348 51.1373 8.36045 50.8266ZM8.66278 47.5835C8.62486 47.0199 8.74699 46.3763 9.34558 46.3727C9.44553 46.3721 9.51812 46.3913 9.57003 46.4253C9.81437 46.5853 9.6003 47.0736 9.63215 47.3754C9.30879 47.4449 8.98579 47.5143 8.66278 47.5835ZM13.2542 37.9985C13.1836 38.09 13.1154 38.1823 13.0484 38.2761C12.8536 38.4757 12.6355 38.532 12.3833 38.3859C12.3463 38.3252 12.3183 38.2676 12.2978 38.2126C11.3419 38.6536 10.2609 38.8236 9.4223 39.5212C9.10835 39.6535 8.85592 39.8966 8.52922 40.0047C8.07784 40.0814 7.6291 40.1245 7.20851 40.359C6.88155 40.5413 6.57182 40.6058 6.33927 40.4535C6.20042 40.3626 6.08912 40.1942 6.01812 39.9276C7.72923 38.5691 9.88433 38.1193 11.7697 37.1182C12.3692 37.209 12.9053 36.6352 13.5263 36.952C13.4 37.1388 13.274 37.3251 13.148 37.5116C13.1834 37.6737 13.2186 37.8362 13.2542 37.9985ZM2.79563 42.4915C2.71151 43.0181 2.39766 43.2222 1.88169 43.1422C1.72323 43.0416 1.5644 42.9412 1.4055 42.8409C2.51503 41.8383 3.70481 40.9751 5.19983 40.6375C4.66054 41.5963 3.52822 41.7842 2.79563 42.4915ZM-4.13777 91.716C-3.77209 91.9556 -3.68964 92.6279 -3.39743 92.9799C-3.36593 93.1367 -3.33496 93.294 -3.30381 93.4512C-3.63166 93.4321 -3.91102 93.3367 -4.15114 93.1794C-4.39839 93.0175 -4.60384 92.79 -4.77744 92.5125C-4.88857 92.2936 -4.9997 92.075 -5.11136 91.8565C-4.63869 91.5835 -4.34349 91.5813 -4.13777 91.716ZM-0.922764 98.803C-0.722062 98.8623 -0.527344 98.9285 -0.364125 99.0354C-0.167647 99.1641 -0.0167456 99.3517 0.0441418 99.6576C-0.493291 99.4739 -1.0045 99.299 -1.51545 99.1241C-1.59182 99.1213 -1.64787 99.1056 -1.68773 99.0795C-1.78153 99.0181 -1.78522 98.8991 -1.75108 98.7558C-1.47515 98.7716 -1.19878 98.7871 -0.922764 98.803ZM5.23053 101.187C5.35187 101.266 5.44733 101.389 5.53304 101.562C5.25341 101.687 5.02323 101.628 4.69424 101.412C4.57933 101.337 4.45227 101.242 4.30692 101.13C4.7429 101.043 5.02411 101.051 5.23053 101.187ZM9.07052 105.354C10.29 105.087 11.2605 105.748 12.2825 106.216C12.3524 106.53 12.4216 106.844 12.4915 107.158C10.9048 107.054 9.47527 106.524 8.16609 105.666C8.05117 105.591 7.93714 105.513 7.82407 105.433C7.72535 105.412 7.65241 105.384 7.60191 105.351C7.43886 105.244 7.5075 105.08 7.68849 104.887C8.23481 104.788 8.64448 105.094 9.07052 105.354ZM19.2086 89.9841C19.6988 90.0394 20.142 90.2338 20.5352 90.4914C20.6669 90.5775 20.7929 90.6708 20.9131 90.7684C21.5892 91.3163 21.8656 91.9726 20.8286 92.498C20.4714 92.4058 20.1138 92.3134 19.7557 92.2207C19.3652 92.2804 19.0471 92.2285 18.8004 92.0668C18.5534 91.9051 18.3779 91.6335 18.2729 91.2542C18.1481 91.0277 18.0239 90.8003 17.8991 90.5735C18.156 89.9768 18.6561 89.9222 19.2086 89.9841ZM19.8978 96.089C20.1943 96.2831 20.3839 96.6354 20.6391 96.872C20.1933 96.5799 19.7476 96.2881 19.2502 95.9622C19.5228 95.9183 19.7279 95.9776 19.8978 96.089ZM19.9791 83.0935C20.0962 82.854 20.2893 82.7136 20.5471 82.6587C21.5685 83.4038 22.8454 84.0309 21.9381 85.669C21.8735 85.765 21.8095 85.8609 21.7459 85.9573C21.2616 85.636 20.7775 85.3149 20.2934 84.9941C20.1447 84.3678 19.8866 83.7602 19.9791 83.0935ZM23.0067 85.9485C23.5438 86 24.0234 86.1936 24.4645 86.4825C24.5325 86.527 24.5997 86.5738 24.6659 86.6227C24.7695 86.7139 24.8753 86.8013 24.9861 86.8811C25.3332 87.1075 25.7176 87.2111 26.1289 87.2298C26.1976 87.2492 26.2657 87.2691 26.3338 87.2886C25.8335 89.0787 25.5358 89.1696 23.7123 88.0921C23.6479 88.1897 23.5836 88.2871 23.5199 88.3844C23.3196 88.5564 23.12 88.7285 22.9199 88.9004C22.988 88.5021 23.0565 88.104 23.1246 87.7053C22.8316 87.1371 22.712 86.5566 23.0067 85.9485ZM23.7224 89.3572C24.1784 89.516 24.6338 89.6743 25.089 89.8324C25.3852 89.7899 25.6976 89.686 25.9406 89.8453C26.0239 89.8999 26.0993 89.9855 26.1628 90.1151C26.3925 90.406 26.6218 90.6968 26.8518 90.9876C27.1484 91.1827 27.4456 91.3775 27.7427 91.5724C27.7835 91.5693 27.8244 91.5663 27.8666 91.5646C28.1456 91.5171 28.4002 91.5661 28.6291 91.716C28.6592 91.7356 28.6889 91.7572 28.7182 91.7804C29.0481 92.1978 29.2202 92.6277 28.8101 93.0983C27.978 93.2354 27.4763 93.9312 26.7805 94.2996C26.4081 94.5072 26.0231 94.8701 25.684 94.648C25.6073 94.5978 25.5329 94.5175 25.4615 94.3988C25.1588 94.8555 24.8564 95.312 24.5541 95.7685C23.968 95.3878 23.3816 95.0063 22.7948 94.6252C22.3188 93.6369 22.1757 92.6349 22.6701 91.6066C21.7712 90.271 23.389 90.1153 23.7224 89.3572ZM23.7781 92.6021C23.964 92.6651 24.1564 92.7029 24.3518 92.7181C24.3315 92.5917 24.2883 92.5098 24.2089 92.4578C24.0906 92.3804 23.892 92.3692 23.5692 92.3755L23.5693 92.3764C23.5413 92.4555 23.4972 92.518 23.4443 92.5717C23.5538 92.5636 23.6651 92.5731 23.7781 92.6021ZM25.0339 97.2695C25.0812 97.3005 25.1217 97.3532 25.1556 97.4277C25.1883 97.4537 25.2213 97.4773 25.2546 97.4991C25.7104 97.7976 26.2107 97.7195 26.7145 97.6115C27.0055 97.8903 27.0731 98.2167 26.9186 98.5897C26.8539 98.685 26.789 98.7812 26.7251 98.8778C26.2053 98.7717 25.6299 98.7353 25.2323 98.4749C24.9189 98.2696 24.7161 97.9252 24.7381 97.2976C24.856 97.2268 24.9545 97.2174 25.0339 97.2695ZM25.5666 107.523C25.7266 107.469 25.8925 107.448 26.0619 107.455C26.7132 107.362 27.3631 107.257 28.008 107.112C28.3608 107.023 28.712 106.954 29.0677 107.098C29.1232 107.124 29.1755 107.154 29.2248 107.186C29.4157 107.311 29.5598 107.481 29.6564 107.698C29.7633 108.259 29.4961 108.623 29.0331 108.883C27.9582 109.013 26.883 109.144 25.8082 109.274C25.6097 109.184 25.4108 109.094 25.2128 109.004C25.0609 108.791 24.9337 108.568 24.9406 108.293C25.0046 107.919 25.2293 107.675 25.5666 107.523ZM31.5568 107.526C31.5609 107.528 31.5651 107.531 31.5692 107.534C31.5999 107.566 31.6318 107.592 31.6648 107.614C31.885 107.758 32.1511 107.686 32.4171 107.613C32.6832 107.541 32.9492 107.469 33.1697 107.613C33.2619 107.674 33.3462 107.772 33.4191 107.924C33.1223 108.129 32.8247 108.333 32.527 108.537C32.0544 108.633 31.5809 108.728 31.1077 108.824C30.8407 108.808 30.5739 108.791 30.307 108.776C30.1017 108.735 29.9551 108.68 29.8565 108.616C29.5272 108.4 29.7344 108.068 30.0742 107.706C30.5473 107.46 31.0149 107.171 31.5568 107.526ZM32.2356 99.7151C32.2816 99.7452 32.3278 99.7868 32.3738 99.8414C32.4444 99.9251 32.4117 100.237 32.3364 100.278C32.1633 100.372 32.0354 100.346 31.9247 100.273C31.8553 100.228 31.7926 100.164 31.7297 100.1C31.6669 100.036 31.6039 99.9722 31.5338 99.9264C31.5255 99.9209 31.5172 99.9158 31.5087 99.9109L31.5091 99.9104C31.7404 99.7177 31.9872 99.5524 32.2356 99.7151ZM30.271 98.7488C29.9312 98.5261 29.9415 97.9525 30.1056 97.28C30.3879 96.1212 31.2587 95.2623 31.8451 94.2565C31.8375 93.8759 32.0368 93.6359 32.3618 93.4837C32.5047 93.4405 32.6525 93.4365 32.795 93.4683C32.8232 93.4764 32.8478 93.4877 32.8689 93.5014C32.9219 93.5361 32.9515 93.587 32.9528 93.6443C32.9594 93.6307 32.9755 93.6258 32.9755 93.6258C32.9755 93.6258 32.98 93.4509 32.9795 93.4312C33.0622 93.0973 33.2653 92.9218 33.5861 92.8819C33.8799 93.0736 34.1734 93.2648 34.4671 93.4561C35.1928 93.9571 34.774 94.9477 35.2318 95.563C35.2377 95.4746 35.2415 95.3858 35.2401 95.2961C35.6607 94.5155 36.2438 94.2341 37.0696 94.6931C37.0781 94.6998 37.0881 94.7066 37.0986 94.7134C37.1029 94.7162 37.1073 94.7192 37.1117 94.722C37.1161 94.7248 37.1205 94.7276 37.1248 94.7305C37.1588 94.7528 37.1909 94.7763 37.1935 94.8027C37.3415 96.2897 37.817 97.4656 38.9697 98.2206C39.3077 98.4419 39.7041 98.6272 40.1675 98.7734C40.2495 98.7993 40.3248 98.8352 40.3921 98.8793C40.907 99.2166 40.9554 100.029 39.9799 100.424L39.98 100.425C39.7839 100.296 39.5881 100.168 39.3919 100.04C38.7103 100.14 38.2775 100.569 37.858 101.085C37.1901 101.905 36.7826 102.178 36.3411 101.889C36.0911 101.725 35.8301 101.381 35.5048 100.853C35.2111 100.66 34.9176 100.467 34.624 100.275C35.1738 99.6131 34.8906 98.9184 34.7028 98.2281C33.6831 97.9279 32.6448 97.1598 31.6858 98.3503C31.6203 98.4484 31.5554 98.5463 31.4908 98.6449C30.8861 98.8893 30.4994 98.8983 30.271 98.7488ZM42.4248 77.5426C42.4072 77.5326 42.3902 77.5222 42.374 77.5115C42.0561 77.3032 41.9937 76.9903 42.2238 76.6643C42.4444 76.3515 42.7431 76.3255 43.0139 76.5029C43.0509 76.5272 43.0874 76.5551 43.123 76.5867C43.3602 76.7963 43.3819 77.0904 43.1877 77.3683C42.9807 77.6374 42.7089 77.7053 42.4248 77.5426ZM44.5187 79.044L44.3729 78.9493C44.3486 78.8978 44.3209 78.8472 44.2999 78.794C44.0629 78.1842 43.8916 77.5681 44.4939 77.0689C44.6261 76.9594 44.7876 76.9627 44.9109 77.0434C44.9749 77.0853 45.0287 77.148 45.0628 77.2266C45.3754 77.9468 45.5752 78.6659 44.6629 79.1389L44.5187 79.044ZM37.5682 102.806C37.6962 102.863 37.8144 102.928 37.9241 103C38.4725 103.359 38.8098 103.89 39.1067 104.454C39.2097 104.37 39.3108 104.283 39.4088 104.193C39.632 103.961 39.9189 103.813 40.1772 103.627C40.3691 103.485 40.5845 103.396 40.8181 103.352C40.9822 103.349 41.1484 103.304 41.3142 103.267C41.4909 102.866 41.6675 102.466 41.8441 102.065C41.9875 102.082 42.131 102.099 42.2744 102.115C42.3249 101.966 42.3988 101.829 42.4931 101.702C43.4611 100.969 44.521 100.877 45.6425 101.227C45.5132 99.9697 46.9911 99.9527 47.4321 99.1349C48.3869 98.937 48.78 98.1679 49.1822 97.4061C49.8658 96.9043 50.3249 96.1954 50.8816 95.5743C51.2934 94.9246 51.844 94.4094 52.4545 93.9598C52.8443 93.6729 53.2389 93.4907 53.5981 93.726C53.7099 93.7992 53.8183 93.9128 53.922 94.0764C53.8434 95.0158 53.1309 95.5104 52.5219 96.0783L52.5247 96.0606C52.1306 96.6376 51.7369 97.2149 51.3431 97.7921C51.2332 97.8071 51.1749 97.8698 51.1692 97.9804C51.1106 97.9847 51.052 97.9864 50.9934 97.9892C50.7508 98.2999 50.479 98.5907 50.339 98.9706C50.2439 99.0996 50.1344 99.2146 50.0122 99.3183C49.6643 99.531 49.3818 99.8699 48.9937 100.008C48.9469 100.069 48.9035 100.133 48.8665 100.2C48.7823 100.182 48.7046 100.149 48.6334 100.103C48.6174 100.092 48.6017 100.081 48.5864 100.069C47.9903 100.211 47.7117 100.708 47.3834 101.149C47.0377 101.395 46.7985 101.809 46.3089 101.826C46.2687 101.821 46.2301 101.813 46.1927 101.804C46.1228 101.957 46.0527 102.11 45.9828 102.262C45.3009 102.674 44.7544 103.326 43.9013 103.433L43.9011 103.433V103.433C43.7249 103.636 43.6209 103.953 43.2481 103.843C43.0477 104.236 42.6442 104.312 42.2861 104.457C42.1829 104.622 42.0795 104.786 41.9765 104.95C41.5068 105.008 41.1167 105.226 40.7753 105.544C39.9651 106.179 39.2932 107.35 38.118 106.58C38.0336 106.525 37.9464 106.459 37.8565 106.383C37.8288 106.48 37.7684 106.56 37.6703 106.619C37.6343 106.612 37.5998 106.608 37.5652 106.604C37.4763 106.756 37.3874 106.907 37.298 107.059C36.8154 107.174 36.3321 107.289 35.849 107.404C35.6968 107.408 35.544 107.412 35.3916 107.416C35.5147 106.052 34.5757 104.921 34.5546 103.588C35.5635 103.349 36.565 103.081 37.5682 102.806ZM42.205 103.476C42.2311 103.451 42.2569 103.427 42.2828 103.402C42.3237 103.388 42.3641 103.382 42.4042 103.38C42.3821 103.344 42.3606 103.308 42.3424 103.27C42.3105 103.343 42.2656 103.411 42.2023 103.472L42.205 103.476ZM57.3314 85.7662C57.3683 85.7601 57.4044 85.7564 57.4395 85.7548C57.0063 84.668 57.6906 84.2977 58.6179 84.0835C58.7195 83.961 58.8214 83.8387 58.9232 83.716C59.3038 84.367 58.3293 84.7616 58.6072 85.3928C58.7202 86.5734 57.9289 87.4041 57.4613 88.3605C57.4166 88.5907 57.2703 88.6314 57.0695 88.57C56.9193 88.3158 56.7695 88.062 56.6198 87.8081C56.6885 87.0688 56.4225 86.2124 57.3314 85.7662ZM61.2217 71.8929C61.2192 72.3202 61.2171 72.7469 61.215 73.1739C61.0051 73.0409 60.7954 72.9081 60.5856 72.7751C60.7703 72.4616 60.7745 72.0173 61.2217 71.8929Z" fill="#20D2E2"/>
<g id="Vector_9" style="mix-blend-mode:multiply" opacity="0.6">
<path fill-rule="evenodd" clip-rule="evenodd" d="M8.84827 36.8451C8.44115 37.041 8.03693 37.2447 7.63553 37.4562C40.9738 32.05 66.116 81.0387 40.2262 105.317C40.676 105.121 41.123 104.916 41.5668 104.702C42.6533 104.179 43.7204 103.603 44.7614 102.964L44.7621 102.967L44.8625 102.902C45.3738 102.585 45.8786 102.256 46.3774 101.912C46.4643 101.853 46.5514 101.794 46.6378 101.733C47.1011 101.409 47.5579 101.071 48.0094 100.722C48.1218 100.636 48.2352 100.552 48.3468 100.464C48.7729 100.127 49.1917 99.7767 49.6062 99.4184C49.7263 99.3149 49.8487 99.2165 49.9676 99.1113C50.4852 98.6523 50.9949 98.1798 51.4924 97.6872C52.0403 97.1445 52.561 96.585 53.0682 96.0175C53.2195 95.8482 53.3652 95.6756 53.5128 95.5041C53.8767 95.0819 54.2297 94.6538 54.5715 94.2193C54.7121 94.0407 54.8538 93.8632 54.9907 93.6827C55.4147 93.1231 55.8246 92.5561 56.2129 91.9782L56.2941 91.8629C56.7073 91.2432 57.0947 90.6113 57.4674 89.9728C57.5724 89.7929 57.6713 89.6107 57.7729 89.4296C58.0429 88.9485 58.3018 88.4631 58.549 87.973C58.6462 87.7801 58.7443 87.5876 58.838 87.3934C59.128 86.7921 59.4036 86.1858 59.6599 85.5727L59.7379 85.3949C60.0185 84.7137 60.2736 84.0246 60.5124 83.331C60.5718 83.1586 60.6253 82.9846 60.6822 82.8113C60.8583 82.2744 61.0224 81.7346 61.1738 81.1916C61.2278 80.9984 61.2819 80.8056 61.3325 80.6117C61.4989 79.9757 61.6504 79.3371 61.7829 78.6949L61.8281 78.4924C61.9736 77.7679 62.0944 77.0393 62.197 76.3083C62.2184 76.1562 62.2343 76.0038 62.2536 75.8514C62.3284 75.2677 62.3897 74.6828 62.4372 74.0968C62.4523 73.9116 62.4671 73.7268 62.4793 73.5415C62.5227 72.8878 62.551 72.2336 62.5606 71.5785L62.5667 71.3609C62.5733 70.6148 62.5561 69.8685 62.5188 69.1229C62.5126 68.9971 62.5012 68.8717 62.4937 68.7461C62.4569 68.1324 62.405 67.5199 62.3385 66.9082C62.3196 66.7339 62.3001 66.5598 62.2786 66.3858C62.1994 65.7395 62.1048 65.0949 61.9922 64.4525C61.9779 64.3701 61.967 64.2874 61.952 64.2052C61.8171 63.4643 61.6593 62.7269 61.4801 61.9932L61.4628 61.9116L61.4601 61.9177C60.9794 59.9669 60.3371 58.0485 59.5423 56.1783L59.551 56.1701C59.4866 56.0184 59.4134 55.8697 59.3469 55.7188C59.239 55.4741 59.1294 55.2301 59.0161 54.9871C58.8777 54.6903 58.7338 54.3958 58.5873 54.1021C58.4669 53.8604 58.346 53.6191 58.2201 53.3795C58.0678 53.0901 57.9088 52.8034 57.7486 52.5171C57.615 52.2782 57.4822 52.0388 57.343 51.8022C57.1775 51.5211 57.0038 51.2438 56.8305 50.9661C56.6834 50.7303 56.5387 50.4935 56.3859 50.2601C56.2071 49.9873 56.0188 49.719 55.8321 49.4498C55.6718 49.2184 55.5156 48.9853 55.3494 48.7568C55.1555 48.4897 54.9505 48.2285 54.7486 47.9655C54.641 47.8248 54.5377 47.6821 54.4277 47.5427L54.4283 47.5415L54.4097 47.5192C54.3508 47.4443 54.2932 47.3687 54.2335 47.2944C54.0066 47.012 53.7668 46.7364 53.5305 46.4589C53.4691 46.3869 53.4099 46.3138 53.348 46.2421C53.2822 46.1658 53.2201 46.0871 53.1535 46.0112C52.9446 45.7735 52.7251 45.542 52.5094 45.3083C52.2858 45.0662 52.0676 44.8209 51.8367 44.5831L51.8355 44.5838L51.7363 44.4783C46.4059 39.0356 39.8453 35.5627 32.9518 34.0522L32.9573 34.0494L32.8506 34.0289C32.2871 33.9071 31.7216 33.7994 31.1544 33.7038L31.0354 33.6822L30.946 33.6662L30.9226 33.662C29.571 33.4432 28.2106 33.2998 26.8469 33.2303L26.7593 33.2273C26.1299 33.1967 25.5003 33.1831 24.8704 33.1841C24.7729 33.1842 24.6754 33.1871 24.5777 33.1882C24.0085 33.1936 23.4399 33.2116 22.8716 33.2432C22.7594 33.2494 22.6473 33.2566 22.5353 33.2638C21.9676 33.3002 21.401 33.3499 20.8353 33.4125C20.7387 33.4232 20.6422 33.4329 20.5456 33.4443C19.9339 33.5166 19.3238 33.6039 18.7155 33.7068L18.5859 33.7274C15.2412 34.3051 11.9627 35.3463 8.84827 36.8451Z" fill="#00A4B3"/>
</g>
<g id="Vector_10" style="mix-blend-mode:multiply" opacity="0.6">
<path fill-rule="evenodd" clip-rule="evenodd" d="M60.3661 83.597C50.4556 90.2359 37.8603 92.7789 25.4015 89.5645C5.68307 84.477 -7.33332 66.6093 -7.05994 47.1323C-10.0045 51.0574 -12.2472 55.6097 -13.553 60.652C-18.9134 81.3515 -6.46197 102.465 14.2581 107.811C33.7519 112.84 53.6189 102.121 60.3661 83.597Z" fill="#00A4B3"/>
</g>
</g>
</svg>
