<svg width="73" height="73" viewBox="0 0 73 73" fill="none" xmlns="http://www.w3.org/2000/svg">
<g id="Play_the_game 1" clip-path="url(#clip0_152_1202)">
<g id="Group">
<g id="Group_2">
<path id="Vector" d="M36.5 73.1618C16.2428 73.1618 -0.161743 56.7573 -0.161743 36.5001C-0.161743 16.243 16.2428 -0.161621 36.5 -0.161621C56.7571 -0.161621 73.1617 16.243 73.1617 36.5001C73.1617 56.7573 56.7571 73.1618 36.5 73.1618ZM59.6155 43.8946L57.3785 35.7544C57.9999 34.4495 58.3727 33.0204 58.3727 31.498C58.3727 25.9676 53.8056 21.4937 48.182 21.4937C45.3858 21.4937 42.9003 22.5811 41.0361 24.352H31.9949C30.1619 22.5811 27.6452 21.4937 24.849 21.4937C19.2255 21.4937 14.6583 25.9676 14.6583 31.498C14.6583 33.0204 15.0311 34.4495 15.6525 35.7544L13.4155 43.8946C12.5456 47.1258 14.4719 50.4191 17.7342 51.2891C20.9964 52.128 24.383 50.2327 25.284 47.0015L26.7442 41.6265C27.987 41.9683 31.7775 42.9314 36.5311 42.9314C41.3157 42.9314 45.0751 41.9683 46.3179 41.6265L47.7781 47.0015C48.6481 50.2327 52.0346 52.159 55.328 51.2891C58.5592 50.4502 60.5165 47.1258 59.6155 43.8946ZM48.151 35.7855C45.7276 35.7855 43.7702 33.8592 43.7702 31.498C43.7702 29.1367 45.7276 27.2104 48.151 27.2104C50.5744 27.2104 52.5317 29.1367 52.5317 31.498C52.5317 33.8592 50.5744 35.7855 48.151 35.7855ZM26.3093 37.2147H23.3888V32.9271H19.008V30.0688H23.3888V25.7812H26.3093V30.0688H30.69V32.9271H26.2782L26.3093 37.2147Z" fill="#02C8DB"/>
</g>
</g>
</g>
<defs>
<clipPath id="clip0_152_1202">
<rect width="73" height="73" fill="white"/>
</clipPath>
</defs>
</svg>
