<svg width="73" height="73" viewBox="0 0 73 73" fill="none" xmlns="http://www.w3.org/2000/svg">
<g id="settings-cog-svgrepo-com 1" clip-path="url(#clip0_152_1145)">
<g id="Group">
<g id="Group_2">
<g id="Group_3">
<path id="Vector" d="M62.9931 27.4186L61.7499 24.4711C66.0075 14.8481 65.7252 14.5621 64.8984 13.7273L59.4593 8.41335L58.9196 7.95854H58.2895C57.9572 7.95854 56.9652 7.95854 48.6973 11.7086L45.6543 10.4817C41.7215 0.732422 41.3182 0.732422 40.1666 0.732422H32.4938C31.3435 0.732422 30.8964 0.731135 27.2489 10.5164L24.2191 11.7465C18.6318 9.38733 15.355 8.19302 14.4707 8.19302L13.7453 8.21555L7.89503 13.9515C7.00729 14.7863 6.69751 15.0806 11.1993 24.5548L9.96055 27.492C0 31.3426 0 31.7161 0 32.8944V40.4176C0 41.5977 0 42.0137 9.99402 45.5936L11.2325 48.5257C6.97554 58.1436 7.26151 58.4324 8.08854 59.2592L13.5276 64.5796L14.0686 65.0447H14.7017C15.0289 65.0447 16.0087 65.0447 24.2881 61.2869L27.3257 62.5222C31.2592 72.2702 31.6631 72.2678 32.8173 72.2678H40.4914C41.6649 72.2678 42.0811 72.2678 45.7395 62.4875L48.7848 61.256C54.3657 63.6159 57.6349 64.8141 58.5137 64.8141L59.2439 64.7935L65.1391 59.0223C65.9777 58.176 66.2714 57.8834 61.7947 48.4484L63.0249 45.5089C72.9998 41.6544 72.9998 41.2498 72.9998 40.0982V32.5833C72.9987 31.3993 72.9987 30.9859 62.9931 27.4186ZM36.4981 49.0152C29.4618 49.0152 23.7325 43.3972 23.7325 36.4942C23.7325 29.5963 29.462 23.9837 36.4981 23.9837C43.5305 23.9837 49.2478 29.5976 49.2478 36.4942C49.2465 43.3972 43.5292 49.0152 36.4981 49.0152Z" fill="#02C8DB"/>
</g>
</g>
</g>
</g>
<defs>
<clipPath id="clip0_152_1145">
<rect width="73" height="73" fill="white"/>
</clipPath>
</defs>
</svg>
