<svg width="393" height="1810" viewBox="0 0 393 1810" fill="none" xmlns="http://www.w3.org/2000/svg"><g opacity=".5" fill="#FBEFCD"><path d="M94.46 1342.61c-2.706-.92-5.999.04-7.522 2.69-1.183 2.06-7.066 10.82-7.066 10.82s3.237-10.04 3.853-12.33c.913-3.4-.2-5.88-2.7-7.52l-10.816-7.07c0 .01 10.073 3.13 12.334 3.85 3.613 1.16 6.009-.37 7.517-2.7 1.288-1.99 7.066-10.81 7.066-10.81s-3.057 10.09-3.844 12.33c-1.057 3.01.12 5.94 2.692 7.52 2.024 1.25 10.82 7.07 10.82 7.07s-10.084-3.1-12.334-3.85Z"/><path opacity=".5" fill-rule="evenodd" clip-rule="evenodd" d="M-451.306 1489.92a3.69 3.69 0 1 1 0-7.38 3.69 3.69 0 1 1 0 7.38Zm10.91-697.581a5.053 5.053 0 0 1-5.057-5.05 5.054 5.054 0 0 1 5.057-5.048 5.053 5.053 0 0 1 5.056 5.048c0 2.79-2.265 5.05-5.056 5.05Zm-.802-470.652a3.172 3.172 0 0 1-3.177-3.167 3.172 3.172 0 0 1 3.177-3.167 3.171 3.171 0 0 1 3.172 3.167 3.171 3.171 0 0 1-3.172 3.167Zm5.292 648.397a1.551 1.551 0 0 1-1.554-1.549 1.551 1.551 0 0 1 3.103 0c0 .857-.692 1.549-1.549 1.549Zm19.871 21.619a1.824 1.824 0 0 1-1.824-1.824 1.82 1.82 0 0 1 1.824-1.819 1.82 1.82 0 0 1 1.824 1.819 1.824 1.824 0 0 1-1.824 1.824Zm13.877 452.247a2.885 2.885 0 1 1 0-5.77 2.885 2.885 0 1 1 0 5.77Zm6.705-711.939a4.634 4.634 0 0 1-4.64-4.632 4.635 4.635 0 0 1 4.64-4.633 4.634 4.634 0 1 1 0 9.265Zm16.654 824.359a4.078 4.078 0 0 1-4.085-4.08c0-2.25 1.829-4.08 4.085-4.08a4.08 4.08 0 1 1 0 8.16Zm4.35-1315.288a4.89 4.89 0 0 1-4.897-4.887 4.889 4.889 0 0 1 4.897-4.884 4.887 4.887 0 0 1 4.891 4.884 4.89 4.89 0 0 1-4.891 4.887Zm4.871 1369.948a2.192 2.192 0 0 1-2.195-2.19 2.192 2.192 0 0 1 4.385 0 2.19 2.19 0 0 1-2.19 2.19Zm3.107-1377.105a4.386 4.386 0 0 1-4.39-4.384 4.385 4.385 0 0 1 4.39-4.383 4.385 4.385 0 0 1 4.39 4.383 4.386 4.386 0 0 1-4.39 4.384Zm-2.606 71.366a1.657 1.657 0 0 1-1.659-1.656c0-.913.742-1.654 1.659-1.654s1.659.741 1.659 1.654c0 .915-.742 1.656-1.659 1.656Zm11.521 266.722a2.525 2.525 0 0 1-2.525-2.522 2.524 2.524 0 0 1 2.525-2.521 2.524 2.524 0 0 1 2.526 2.521 2.525 2.525 0 0 1-2.526 2.522Zm8.505-68.794a4.634 4.634 0 0 1-4.636-4.631 4.632 4.632 0 0 1 4.636-4.63 4.636 4.636 0 0 1 4.641 4.63 4.638 4.638 0 0 1-4.641 4.631Zm1.153-78.318a1.665 1.665 0 0 1-1.669-1.662c0-.919.747-1.662 1.669-1.662.917 0 1.664.743 1.664 1.662 0 .918-.747 1.662-1.664 1.662Zm10.614 1227.809c-.917 0-1.664-.75-1.664-1.66a1.661 1.661 0 1 1 1.664 1.66Zm4.826-30.29a4.346 4.346 0 1 1 0-8.69c2.406 0 4.35 1.94 4.35 4.35a4.34 4.34 0 0 1-4.35 4.34Zm.431-736.946a4.498 4.498 0 0 1-4.495-4.496c0-2.48 2.015-4.49 4.495-4.49a4.495 4.495 0 0 1 4.501 4.49 4.5 4.5 0 0 1-4.501 4.496Zm4.511-275.048a3.165 3.165 0 0 1-3.168-3.161 3.166 3.166 0 0 1 3.168-3.162 3.165 3.165 0 0 1 3.167 3.162 3.164 3.164 0 0 1-3.167 3.161Zm-.607 164.628a2.013 2.013 0 0 1-2.014-2.012 2.013 2.013 0 0 1 4.024 0 2.012 2.012 0 0 1-2.01 2.012Zm5.237-346.252a4.747 4.747 0 0 1-4.751-4.741c0-2.62 2.13-4.742 4.751-4.742a4.744 4.744 0 0 1 4.751 4.742 4.744 4.744 0 0 1-4.751 4.741Zm1.504-57.28a3.558 3.558 0 1 1 0-7.114 3.56 3.56 0 0 1 3.563 3.558 3.559 3.559 0 0 1-3.563 3.556Zm1.418 1035.098a4.046 4.046 0 0 1-4.049-4.04c0-2.23 1.814-4.04 4.049-4.04a4.046 4.046 0 0 1 4.049 4.04c0 2.23-1.814 4.04-4.049 4.04Zm3.613-1194.456a4.788 4.788 0 0 1-4.796-4.785 4.789 4.789 0 0 1 4.796-4.784 4.788 4.788 0 0 1 4.791 4.784 4.787 4.787 0 0 1-4.791 4.785Zm3.523 324.442a4.712 4.712 0 0 1-4.715-4.71 4.712 4.712 0 0 1 4.715-4.711 4.717 4.717 0 0 1 4.721 4.711 4.717 4.717 0 0 1-4.721 4.71Zm-2.094-132.01a2.555 2.555 0 1 1 0-5.108 2.557 2.557 0 0 1 2.556 2.555 2.557 2.557 0 0 1-2.556 2.553Zm4.41-274.023a3.19 3.19 0 0 1-3.193-3.187 3.19 3.19 0 0 1 3.193-3.188 3.188 3.188 0 1 1 0 6.375Zm1.172 1193.307a2.066 2.066 0 0 1-2.069-2.07 2.072 2.072 0 0 1 4.144 0c0 1.15-.927 2.07-2.075 2.07Zm9.823-867.367a4.562 4.562 0 0 1-4.565-4.559 4.562 4.562 0 0 1 4.565-4.56 4.567 4.567 0 0 1 4.571 4.56 4.567 4.567 0 0 1-4.571 4.559Zm2.927 352.6a3.705 3.705 0 0 1-3.709-3.699 3.701 3.701 0 0 1 3.709-3.698 3.7 3.7 0 0 1 3.703 3.698 3.703 3.703 0 0 1-3.703 3.699Zm-.015 374.117c-1.228 0-2.22-.99-2.22-2.22 0-1.23.992-2.22 2.22-2.22a2.22 2.22 0 1 1 0 4.44Zm1.964-644.139a2.828 2.828 0 0 1-2.826-2.826 2.827 2.827 0 0 1 2.826-2.825 2.828 2.828 0 0 1 2.832 2.825 2.83 2.83 0 0 1-2.832 2.826Zm2.326 1270.439a4.294 4.294 0 1 1 0-8.59c2.375 0 4.3 1.92 4.3 4.29s-1.925 4.3-4.3 4.3Zm4.234-450.27a2.73 2.73 0 1 1 0-5.46 2.73 2.73 0 1 1 0 5.46Zm2.606-301.69a5.244 5.244 0 0 1-5.247-5.24c0-2.89 2.346-5.23 5.247-5.23 2.897 0 5.248 2.34 5.248 5.23 0 2.89-2.351 5.24-5.248 5.24Zm2.145-427.027a3.338 3.338 0 0 1-3.337-3.334 3.337 3.337 0 0 1 3.337-3.333 3.335 3.335 0 0 1 3.343 3.333 3.336 3.336 0 0 1-3.343 3.334Zm-.35-26.804a2.316 2.316 0 0 1-2.316-2.313 2.315 2.315 0 0 1 4.631 0 2.315 2.315 0 0 1-2.315 2.313Zm2.455-63.254a2.456 2.456 0 1 1 0-4.914 2.456 2.456 0 0 1 0 4.914Zm1.935 319.179a3.44 3.44 0 0 1-3.443-3.438 3.441 3.441 0 0 1 3.443-3.438 3.439 3.439 0 1 1 0 6.876Zm-1.008 859.896a1.924 1.924 0 0 1-1.929-1.92c0-1.06.862-1.92 1.929-1.92 1.063 0 1.93.86 1.93 1.92s-.867 1.92-1.93 1.92Zm1.729-1368.213a3.093 3.093 0 1 1 0-6.187 3.096 3.096 0 0 1 3.097 3.094 3.096 3.096 0 0 1-3.097 3.093Zm3.679 631.456a2.86 2.86 0 0 1-2.862-2.857 2.859 2.859 0 0 1 2.862-2.851 2.854 2.854 0 1 1 0 5.708Zm3.267 413.117a4.486 4.486 0 0 1-4.485-4.48 4.48 4.48 0 0 1 4.485-4.48c2.481 0 4.491 2 4.491 4.48 0 2.47-2.01 4.48-4.491 4.48Zm-.21-176.88a4.27 4.27 0 0 1-4.275-4.26c0-2.36 1.914-4.27 4.275-4.27a4.266 4.266 0 1 1 0 8.53Zm-1.975-772.056a2.056 2.056 0 0 1-2.059-2.054 2.057 2.057 0 0 1 4.114 0 2.052 2.052 0 0 1-2.055 2.054Zm6.671 1270.826a4.512 4.512 0 0 1-4.516-4.51c0-2.49 2.02-4.51 4.516-4.51a4.512 4.512 0 0 1 4.515 4.51c0 2.49-2.02 4.51-4.515 4.51Zm-2.145-1014.915a2.082 2.082 0 1 1 0-4.161c1.147 0 2.085.931 2.085 2.081 0 1.148-.938 2.08-2.085 2.08Zm2.09 1068.055c-1.128 0-2.04-.91-2.04-2.04 0-1.12.912-2.04 2.04-2.04 1.127 0 2.039.92 2.039 2.04 0 1.13-.912 2.04-2.039 2.04Zm4.004-1241.121a3.746 3.746 0 0 1-3.749-3.741 3.745 3.745 0 0 1 3.749-3.741 3.743 3.743 0 0 1 3.743 3.741 3.744 3.744 0 0 1-3.743 3.741Zm-.572 385.503a2.692 2.692 0 0 1-2.696-2.691 2.696 2.696 0 0 1 5.393 0 2.693 2.693 0 0 1-2.697 2.691Zm5.433-429.419a3.196 3.196 0 0 1-3.197-3.194 3.196 3.196 0 0 1 3.197-3.194 3.197 3.197 0 0 1 3.202 3.194 3.197 3.197 0 0 1-3.202 3.194Zm4.35-110.022a4.653 4.653 0 0 1-4.656-4.65 4.653 4.653 0 0 1 4.656-4.65 4.654 4.654 0 0 1 4.661 4.65 4.654 4.654 0 0 1-4.661 4.65Zm-.622 804.019a3.375 3.375 0 0 1-3.377-3.37c0-1.86 1.513-3.37 3.377-3.37a3.375 3.375 0 0 1 3.378 3.37c0 1.86-1.513 3.37-3.378 3.37Zm2.216-684.536a4.027 4.027 0 0 1-4.03-4.022 4.028 4.028 0 0 1 4.03-4.025 4.027 4.027 0 0 1 4.029 4.025 4.026 4.026 0 0 1-4.029 4.022Zm.38 1173.176a1.826 1.826 0 0 1-1.824-1.82 1.826 1.826 0 0 1 3.649 0c0 1-.817 1.82-1.825 1.82Zm5.719-19.2a4.154 4.154 0 1 1 0-8.31 4.16 4.16 0 0 1 4.159 4.16c0 2.29-1.864 4.15-4.159 4.15Zm-.822-1105.569a2.362 2.362 0 0 1-2.366-2.359 2.362 2.362 0 0 1 2.366-2.359 2.36 2.36 0 1 1 0 4.718Zm.3 745.799a2.317 2.317 0 0 1-2.315-2.31c0-1.28 1.037-2.32 2.315-2.32a2.32 2.32 0 0 1 2.316 2.32c0 1.27-1.038 2.31-2.316 2.31Zm2.175-351.951a1.913 1.913 0 1 1 0-3.824 1.913 1.913 0 1 1 0 3.824Zm2.326 80.541a3.132 3.132 0 0 1-3.137-3.13c0-1.73 1.403-3.13 3.137-3.13a3.13 3.13 0 1 1 0 6.26Zm-.536-849.43a1.903 1.903 0 1 1 0-3.804 1.903 1.903 0 1 1 0 3.804Zm4.615 498.812a4.31 4.31 0 1 1 0-8.619 4.31 4.31 0 1 1 0 8.619Zm2.436 937.848a2.485 2.485 0 1 1-.002-4.97 2.485 2.485 0 0 1 .002 4.97Zm5.402-238.65a1.815 1.815 0 0 1-1.819-1.82c0-1 .812-1.82 1.819-1.82 1.003 0 1.819.82 1.819 1.82 0 1.01-.816 1.82-1.819 1.82Zm6.159 247.03a5.135 5.135 0 1 1 0-10.27c2.842 0 5.142 2.3 5.142 5.13 0 2.84-2.3 5.14-5.142 5.14Zm-.711-415.8a4.264 4.264 0 0 1-4.265-4.26c0-2.35 1.909-4.26 4.265-4.26a4.265 4.265 0 0 1 4.265 4.26c0 2.35-1.91 4.26-4.265 4.26Zm2.225 467.93a3.443 3.443 0 0 1-3.443-3.44 3.443 3.443 0 0 1 6.886 0 3.44 3.44 0 0 1-3.443 3.44Zm2.005-868.404a2.433 2.433 0 0 1-2.436-2.43 2.433 2.433 0 0 1 4.866 0 2.429 2.429 0 0 1-2.43 2.43Zm-.376 682.324a1.902 1.902 0 0 1-1.905-1.9c0-1.05.852-1.91 1.905-1.91a1.91 1.91 0 0 1 1.904 1.91c0 1.05-.852 1.9-1.904 1.9Zm.05-988.705a1.731 1.731 0 0 1-1.734-1.727 1.731 1.731 0 0 1 3.463 0c0 .953-.772 1.727-1.729 1.727Zm.04 959.315a1.594 1.594 0 1 1 0-3.19 1.596 1.596 0 1 1 0 3.19Zm9.291-1269.856a2.951 2.951 0 0 1-2.957-2.946 2.952 2.952 0 0 1 5.904 0 2.946 2.946 0 0 1-2.947 2.946Zm0 1011.366a2.49 2.49 0 0 1-2.495-2.49c0-1.37 1.117-2.48 2.495-2.48a2.484 2.484 0 1 1 0 4.97Zm-.04-942.404a1.682 1.682 0 1 1 0-3.363c.927 0 1.684.753 1.684 1.681s-.757 1.682-1.684 1.682Zm1.874 270.267a1.977 1.977 0 0 1-1.979-1.975c0-1.09.887-1.975 1.979-1.975 1.093 0 1.98.885 1.98 1.975a1.978 1.978 0 0 1-1.98 1.975Zm1.975-86.754a2.749 2.749 0 0 1-2.751-2.745 2.75 2.75 0 0 1 5.497 0 2.744 2.744 0 0 1-2.746 2.745Zm4.646 1376.611a5.21 5.21 0 0 1-5.212-5.21c0-2.87 2.335-5.2 5.212-5.2 2.876 0 5.212 2.33 5.212 5.2a5.21 5.21 0 0 1-5.212 5.21Zm-2.556-870.222a1.942 1.942 0 1 1 .005-3.885 1.942 1.942 0 0 1-.005 3.885Zm3.348-642.135a5.249 5.249 0 0 1-5.253-5.247 5.25 5.25 0 0 1 5.253-5.247 5.254 5.254 0 0 1 5.257 5.247 5.253 5.253 0 0 1-5.257 5.247Zm.877 430.729a2.04 2.04 0 0 1-2.04-2.036 2.04 2.04 0 0 1 4.079 0 2.037 2.037 0 0 1-2.039 2.036Zm2.105 50.603a2.618 2.618 0 0 1-2.622-2.614 2.616 2.616 0 0 1 2.622-2.613 2.614 2.614 0 1 1 0 5.227Zm.095 175.136a1.855 1.855 0 1 1 0-3.709 1.853 1.853 0 1 1 0 3.709Zm.185 308.929a1.931 1.931 0 0 1-1.939-1.93c0-1.07.867-1.94 1.939-1.94 1.068 0 1.935.87 1.935 1.94a1.93 1.93 0 0 1-1.935 1.93Zm4.485 461.21a5.234 5.234 0 0 1-5.242-5.23c0-2.89 2.346-5.23 5.242-5.23 2.897 0 5.248 2.34 5.248 5.23 0 2.89-2.351 5.23-5.248 5.23Zm-2.135-91.22a2.26 2.26 0 0 1-2.26-2.26c0-1.24 1.013-2.25 2.26-2.25a2.258 2.258 0 0 1 2.261 2.25 2.26 2.26 0 0 1-2.261 2.26Zm2.436-454.73a4.213 4.213 0 0 1-4.21-4.21c0-2.32 1.885-4.2 4.21-4.2s4.21 1.88 4.21 4.2c0 2.32-1.885 4.21-4.21 4.21Zm-2.145 70.09a1.906 1.906 0 0 1-1.909-1.9c0-1.04.857-1.9 1.909-1.9 1.047 0 1.9.86 1.9 1.9 0 1.05-.853 1.9-1.9 1.9Zm1.609-151.2a1.84 1.84 0 0 1-1.834-1.84c0-1.01.821-1.83 1.834-1.83 1.012 0 1.834.82 1.834 1.83 0 1.01-.822 1.84-1.834 1.84Zm3.292 305.38a2.29 2.29 0 1 1 0-4.58 2.29 2.29 0 1 1 0 4.58Zm.451-406.643a1.993 1.993 0 0 1-1.994-1.994 1.996 1.996 0 0 1 3.994 0 1.998 1.998 0 0 1-2 1.994Zm.502 501.423a1.865 1.865 0 0 1 0-3.73c1.032 0 1.869.84 1.869 1.87a1.87 1.87 0 0 1-1.869 1.86Zm.581-86.83a2.286 2.286 0 1 1 0-4.57 2.286 2.286 0 1 1 0 4.57Zm2.095 123.24c-.962 0-1.739-.78-1.739-1.73 0-.97.777-1.74 1.739-1.74a1.736 1.736 0 0 1 0 3.47Zm2.781-516.33a3.46 3.46 0 0 1-3.458-3.46c0-1.91 1.549-3.45 3.458-3.45 1.91 0 3.463 1.54 3.463 3.45 0 1.91-1.553 3.46-3.463 3.46Zm-1.538-362.125a1.642 1.642 0 0 1-1.644-1.638 1.642 1.642 0 0 1 3.282 0 1.64 1.64 0 0 1-1.638 1.638Zm2.129 1074.605a2.252 2.252 0 0 1-2.25-2.25c0-1.24 1.008-2.24 2.25-2.24 1.248 0 2.256 1 2.256 2.24 0 1.24-1.008 2.25-2.256 2.25Zm1.128-826.741a2.888 2.888 0 0 1-2.892-2.882 2.889 2.889 0 0 1 2.892-2.887 2.888 2.888 0 0 1 2.887 2.887 2.887 2.887 0 0 1-2.887 2.882Zm.511 411.631a2.528 2.528 0 0 1-2.53-2.53c0-1.39 1.132-2.53 2.53-2.53a2.535 2.535 0 0 1 2.531 2.53c0 1.4-1.133 2.53-2.531 2.53Zm.005-318.507a2.229 2.229 0 0 1-2.23-2.23 2.233 2.233 0 0 1 4.466 0 2.233 2.233 0 0 1-2.236 2.23Zm2.235 538.147a2.474 2.474 0 1 1 0-4.95 2.475 2.475 0 1 1 0 4.95Zm.817-676.47a2.717 2.717 0 0 1-2.721-2.717 2.725 2.725 0 0 1 5.448 0 2.721 2.721 0 0 1-2.727 2.717Zm1.364 531.22a2.558 2.558 0 0 1-2.566-2.56c0-1.42 1.147-2.56 2.566-2.56a2.558 2.558 0 0 1 2.565 2.56c0 1.42-1.147 2.56-2.565 2.56Zm2.776 187.87a2.298 2.298 0 0 1-2.295-2.29 2.3 2.3 0 0 1 2.295-2.3 2.295 2.295 0 0 1 0 4.59Zm7.402-890.542a3.403 3.403 0 0 1-3.408-3.4c0-1.879 1.524-3.4 3.408-3.4a3.401 3.401 0 1 1 0 6.8Zm.922 674.472a2.31 2.31 0 1 1 0-4.62c1.283 0 2.32 1.03 2.32 2.31s-1.037 2.31-2.32 2.31Zm2.351-889.815a2.194 2.194 0 0 1-2.196-2.193c0-1.21.983-2.192 2.196-2.192 1.212 0 2.195.982 2.195 2.192a2.194 2.194 0 0 1-2.195 2.193Zm.275 380.355a1.779 1.779 0 0 1-1.779-1.774c0-.978.797-1.774 1.779-1.774a1.774 1.774 0 1 1 0 3.548Zm5.418 225.38c-1.138 0-2.06-.92-2.06-2.06 0-1.13.922-2.06 2.06-2.06 1.137 0 2.059.93 2.059 2.06 0 1.14-.922 2.06-2.059 2.06Zm3.798 526.32a3.666 3.666 0 0 1-3.668-3.66 3.666 3.666 0 0 1 7.332 0c0 2.02-1.639 3.66-3.664 3.66Zm.552-793.005a2.506 2.506 0 0 1-2.506-2.501 2.507 2.507 0 0 1 5.011 0 2.505 2.505 0 0 1-2.505 2.501Zm1.749 660.005a2.265 2.265 0 1 1 0-4.53 2.264 2.264 0 1 1 0 4.53Zm1.037-360.54c-1.098 0-1.99-.88-1.99-1.99 0-1.09.892-1.98 1.99-1.98a1.985 1.985 0 1 1 0 3.97Zm5.859-506.239a4.711 4.711 0 0 1-4.716-4.707 4.711 4.711 0 0 1 4.716-4.709 4.71 4.71 0 0 1 4.715 4.709 4.71 4.71 0 0 1-4.715 4.707Zm2.495 595.259a2.629 2.629 0 0 1-2.626-2.62c0-1.45 1.178-2.62 2.626-2.62a2.622 2.622 0 0 1 2.626 2.62c0 1.44-1.177 2.62-2.626 2.62Zm5.132-453.999a2.515 2.515 0 0 1-2.516-2.513 2.515 2.515 0 0 1 2.516-2.512 2.515 2.515 0 0 1 2.516 2.512 2.515 2.515 0 0 1-2.516 2.513Zm-.591-340.331a1.903 1.903 0 1 1 0-3.808c1.052 0 1.909.853 1.909 1.904a1.907 1.907 0 0 1-1.909 1.904Zm1.734 429.95a2.428 2.428 0 0 1-2.426-2.425 2.428 2.428 0 0 1 4.856 0 2.428 2.428 0 0 1-2.43 2.425Zm7.086-459.959a3.213 3.213 0 1 1 0-6.424 3.216 3.216 0 0 1 3.217 3.212 3.216 3.216 0 0 1-3.217 3.212Zm-1.589 630.249a1.55 1.55 0 0 1-1.553-1.55c0-.85.696-1.54 1.553-1.54s1.554.69 1.554 1.54c0 .86-.697 1.55-1.554 1.55Zm5.182-888.131a3.788 3.788 0 0 1-3.788-3.784 3.788 3.788 0 0 1 3.788-3.783 3.789 3.789 0 0 1 3.794 3.783 3.79 3.79 0 0 1-3.794 3.784Zm4.771 1178.191a3.085 3.085 0 1 1 0-6.17 3.086 3.086 0 1 1 0 6.17Zm2.797-432.365a2.03 2.03 0 0 1-2.03-2.025 2.03 2.03 0 0 1 4.059 0 2.026 2.026 0 0 1-2.029 2.025Zm4.455-54.912a5.088 5.088 0 0 1-5.092-5.086 5.088 5.088 0 0 1 5.092-5.082 5.088 5.088 0 0 1 5.092 5.082 5.088 5.088 0 0 1-5.092 5.086Zm.271-699.933a4.773 4.773 0 0 1-4.776-4.768 4.774 4.774 0 0 1 4.776-4.769 4.774 4.774 0 0 1 4.776 4.769 4.773 4.773 0 0 1-4.776 4.768Zm1.844 819.789a1.696 1.696 0 0 1-1.694-1.699c0-.932.757-1.689 1.694-1.689.937 0 1.699.757 1.699 1.689a1.7 1.7 0 0 1-1.699 1.699Zm3.343 613.261c-1.028 0-1.86-.83-1.86-1.86 0-1.03.832-1.86 1.86-1.86 1.032 0 1.864.83 1.864 1.86 0 1.03-.832 1.86-1.864 1.86Zm3.147-996.708a1.549 1.549 0 1 1 0-3.098 1.55 1.55 0 0 1 0 3.098Zm4.816 546.358a2.824 2.824 0 0 1-2.832-2.82 2.833 2.833 0 0 1 5.663 0c0 1.56-1.267 2.82-2.831 2.82Zm1.067 547.42a2.579 2.579 0 0 1-2.581-2.58c0-1.42 1.158-2.57 2.581-2.57a2.575 2.575 0 1 1 0 5.15Zm1.94-1036.478a2.516 2.516 0 1 1 0-5.031 2.516 2.516 0 1 1 0 5.031Zm.681 178.788a2.601 2.601 0 1 1 0-5.202 2.603 2.603 0 0 1 2.601 2.601 2.603 2.603 0 0 1-2.6 2.601Zm3.042-51.399a3.804 3.804 0 0 1-3.808-3.801 3.804 3.804 0 0 1 3.808-3.801c2.1 0 3.804 1.702 3.804 3.801a3.803 3.803 0 0 1-3.804 3.801Zm-.892-186.05a1.582 1.582 0 0 1-1.583-1.579 1.584 1.584 0 0 1 3.167 0c0 .873-.712 1.579-1.584 1.579Zm10.484 451.838a2.812 2.812 0 1 1 0-5.623 2.814 2.814 0 0 1 2.817 2.811 2.815 2.815 0 0 1-2.817 2.812Zm2.642-197.926a2.685 2.685 0 0 1-2.687-2.681 2.682 2.682 0 0 1 2.687-2.682 2.682 2.682 0 1 1 0 5.363Zm.666 558.457a2.261 2.261 0 0 1-2.27-2.26 2.269 2.269 0 1 1 4.535 0 2.26 2.26 0 0 1-2.265 2.26Zm3.443 281.71a2.244 2.244 0 0 1-2.24-2.24c0-1.24 1.002-2.24 2.24-2.24a2.239 2.239 0 1 1 0 4.48Zm3.167-822.847a2.637 2.637 0 0 1-2.64-2.636 2.64 2.64 0 0 1 2.64-2.636 2.64 2.64 0 0 1 2.641 2.636 2.637 2.637 0 0 1-2.64 2.636Zm5.929 542.787a2.353 2.353 0 0 1-2.356-2.35 2.353 2.353 0 0 1 4.706 0c0 1.3-1.052 2.35-2.35 2.35Zm-.526-221.18a1.58 1.58 0 0 1-1.589-1.58 1.588 1.588 0 1 1 3.177 0c0 .88-.711 1.58-1.588 1.58Zm.792-578.223a1.713 1.713 0 1 1 0-3.427 1.714 1.714 0 0 1 0 3.427Zm.842 623.383a2.338 2.338 0 0 1-2.336-2.33 2.34 2.34 0 0 1 2.336-2.34c1.287 0 2.34 1.05 2.34 2.34 0 1.28-1.053 2.33-2.34 2.33Zm8.229-1032.688a2.259 2.259 0 0 1-2.26-2.257 2.258 2.258 0 0 1 2.26-2.254c1.247 0 2.26 1.01 2.26 2.254a2.259 2.259 0 0 1-2.26 2.257ZM-59.038 1220a2.324 2.324 0 0 1-2.326-2.32c0-1.28 1.043-2.32 2.326-2.32a2.32 2.32 0 1 1 0 4.64Zm-.376 141.43c-1.058 0-1.91-.85-1.91-1.9 0-1.05.852-1.9 1.91-1.9 1.052 0 1.91.85 1.91 1.9 0 1.05-.858 1.9-1.91 1.9Zm1.263-894.167a2.445 2.445 0 0 1-2.446-2.442 2.445 2.445 0 0 1 2.446-2.441 2.442 2.442 0 1 1 0 4.883Zm2.962 298.357a2.471 2.471 0 0 1-2.476-2.468 2.472 2.472 0 0 1 2.476-2.47 2.47 2.47 0 1 1 0 4.938Zm3.072 366.58a2.491 2.491 0 0 1-2.486-2.49c0-1.37 1.113-2.48 2.486-2.48a2.482 2.482 0 0 1 2.485 2.48 2.49 2.49 0 0 1-2.485 2.49Zm-.802 286.76a1.576 1.576 0 0 1 0-3.15 1.574 1.574 0 0 1 0 3.15Zm4.485-960.896a4.057 4.057 0 0 1-4.06-4.053 4.059 4.059 0 0 1 4.06-4.055 4.06 4.06 0 0 1 4.064 4.055 4.059 4.059 0 0 1-4.064 4.053Zm1.058 30.618a2.517 2.517 0 0 1-2.521-2.515 2.516 2.516 0 0 1 2.52-2.513 2.515 2.515 0 1 1 0 5.028Zm-.005 1148.568a1.9 1.9 0 1 1 0-3.8 1.9 1.9 0 0 1 1.899 1.91c0 1.04-.847 1.89-1.9 1.89Zm3.778-336.21a1.821 1.821 0 1 1 .004-3.642 1.821 1.821 0 0 1-.004 3.642Zm1.72-247.41a2.214 2.214 0 1 1 0-4.43 2.22 2.22 0 0 1 2.224 2.22c0 1.22-.997 2.21-2.225 2.21Zm5.101-57.802a2.481 2.481 0 1 1 0-4.962 2.481 2.481 0 1 1 0 4.962Zm.401 293.492a2.692 2.692 0 0 1-2.701-2.69 2.7 2.7 0 1 1 5.397 0 2.69 2.69 0 0 1-2.696 2.69Zm1.89 297.69a2.35 2.35 0 0 1-2.356-2.35c0-1.29 1.052-2.34 2.355-2.34a2.345 2.345 0 1 1 0 4.69Zm-.412-214.5a1.69 1.69 0 0 1-1.689-1.68 1.686 1.686 0 1 1 1.69 1.68Zm10.404 145.11a2.828 2.828 0 0 1-2.836-2.83 2.837 2.837 0 0 1 5.673 0 2.83 2.83 0 0 1-2.837 2.83Zm2.276-996a2.38 2.38 0 0 1 0-4.76 2.382 2.382 0 0 1 2.385 2.38 2.382 2.382 0 0 1-2.385 2.38Zm3.077 476.694a1.741 1.741 0 0 1-1.744-1.739 1.74 1.74 0 0 1 1.744-1.739c.962 0 1.739.776 1.739 1.739 0 .962-.777 1.739-1.74 1.739Zm2.275 237.356c-1.138 0-2.06-.92-2.06-2.06 0-1.13.922-2.05 2.06-2.05 1.137 0 2.06.92 2.06 2.05 0 1.14-.923 2.06-2.06 2.06Zm2.927-329.068a3.61 3.61 0 1 1 0-7.221 3.614 3.614 0 0 1 3.618 3.608 3.618 3.618 0 0 1-3.618 3.613Zm-1.218-42.888a2.19 2.19 0 0 1-2.195-2.185 2.19 2.19 0 0 1 2.195-2.19 2.189 2.189 0 1 1 0 4.375Zm.902 402.866a2.863 2.863 0 0 1-2.867-2.86c0-1.58 1.283-2.86 2.867-2.86a2.862 2.862 0 0 1 2.861 2.86c0 1.58-1.283 2.86-2.861 2.86Zm4.275-646.968a2.35 2.35 0 1 1 0-4.7 2.351 2.351 0 0 1 2.355 2.35 2.351 2.351 0 0 1-2.355 2.35ZM4.573 1384.43a2.884 2.884 0 0 1-2.886-2.88c0-1.59 1.293-2.88 2.886-2.88a2.884 2.884 0 0 1 2.887 2.88c0 1.59-1.293 2.88-2.887 2.88ZM7.66 288.401a4.95 4.95 0 1 1 0-9.899 4.954 4.954 0 0 1 4.957 4.949c0 2.734-2.22 4.95-4.957 4.95ZM6.052 483.087a2.03 2.03 0 0 1-2.03-2.027 2.031 2.031 0 0 1 4.064 0c0 1.12-.912 2.027-2.034 2.027Zm5.212 603.453a5.306 5.306 0 1 1 0-10.61 5.302 5.302 0 0 1 5.312 5.3c0 2.94-2.376 5.31-5.312 5.31Zm-2.326 363.93a2.633 2.633 0 0 1-2.636-2.63c0-1.46 1.178-2.63 2.636-2.63a2.627 2.627 0 0 1 2.636 2.63c0 1.45-1.177 2.63-2.636 2.63Zm.286-619.076a2.103 2.103 0 1 1 0-4.205 2.103 2.103 0 1 1 0 4.205Zm1.123 425.676a2.738 2.738 0 0 1-2.747-2.74c0-1.51 1.228-2.74 2.747-2.74a2.744 2.744 0 0 1 2.746 2.74c0 1.52-1.228 2.74-2.746 2.74Zm.315-1121.591a2.056 2.056 0 0 1-2.06-2.054 2.056 2.056 0 0 1 4.115 0 2.055 2.055 0 0 1-2.055 2.054ZM11.5 983.76a2.635 2.635 0 0 1-2.636-2.631 2.631 2.631 0 0 1 2.636-2.626 2.627 2.627 0 0 1 2.631 2.626 2.63 2.63 0 0 1-2.63 2.631Zm1.323 263.7c-.887 0-1.603-.72-1.603-1.6 0-.89.716-1.6 1.603-1.6.882 0 1.599.71 1.599 1.6 0 .88-.717 1.6-1.599 1.6Zm1.875-117.22a2.645 2.645 0 0 1-2.652-2.64c0-1.46 1.188-2.64 2.652-2.64a2.644 2.644 0 0 1 2.646 2.64c0 1.46-1.188 2.64-2.646 2.64Zm-.291-817.595a2.211 2.211 0 0 1-2.21-2.208 2.212 2.212 0 0 1 4.425 0 2.212 2.212 0 0 1-2.215 2.208Zm4.03 241.075a2.112 2.112 0 0 1-2.116-2.109c0-1.166.947-2.109 2.115-2.109a2.11 2.11 0 0 1 2.11 2.109 2.11 2.11 0 0 1-2.11 2.109Zm.39 1007.75a2.213 2.213 0 0 1-2.215-2.21 2.213 2.213 0 0 1 4.425 0c0 1.22-.992 2.21-2.21 2.21Zm.722-218.94a1.49 1.49 0 0 1-1.484-1.49c0-.81.667-1.48 1.484-1.48.822 0 1.488.67 1.488 1.48 0 .82-.666 1.49-1.488 1.49ZM23.03 275.986a2.663 2.663 0 1 1 0-5.325 2.667 2.667 0 0 1 2.666 2.661 2.668 2.668 0 0 1-2.666 2.664Zm6.214 736.714a2.495 2.495 0 0 1-2.49-2.49c0-1.37 1.117-2.48 2.49-2.48 1.378 0 2.49 1.11 2.49 2.48 0 1.37-1.112 2.49-2.49 2.49Zm1.574 572.78a2.697 2.697 0 0 1-2.697-2.69 2.69 2.69 0 0 1 2.697-2.69 2.69 2.69 0 0 1 2.696 2.69c0 1.48-1.208 2.69-2.696 2.69Zm9.497-603.263a1.92 1.92 0 0 1 0-3.839 1.92 1.92 0 0 1 1.924 1.919c0 1.057-.862 1.92-1.925 1.92Zm5.883 289.603a2.781 2.781 0 0 1-2.791-2.78 2.79 2.79 0 0 1 2.791-2.79 2.79 2.79 0 0 1 2.791 2.79 2.78 2.78 0 0 1-2.791 2.78Zm1.248-1107.382a3.199 3.199 0 0 1-3.202-3.196 3.199 3.199 0 0 1 3.202-3.195 3.198 3.198 0 0 1 3.197 3.195 3.198 3.198 0 0 1-3.197 3.196Zm11.511 383.451c-1.217 0-2.2-.984-2.2-2.2a2.203 2.203 0 0 1 4.405 0c0 1.216-.987 2.2-2.204 2.2Zm2.897 926.241a1.819 1.819 0 1 1 0-3.64 1.82 1.82 0 1 1 0 3.64Zm2.185 149.98c-1.113 0-2.015-.9-2.015-2.01 0-1.11.903-2.01 2.015-2.01 1.118 0 2.02.9 2.02 2.01 0 1.11-.902 2.01-2.02 2.01Zm2.676-780.553a3.375 3.375 0 0 1-3.377-3.373 3.374 3.374 0 0 1 3.377-3.367 3.374 3.374 0 0 1 3.378 3.367 3.375 3.375 0 0 1-3.378 3.373Zm-1.012 76.612a2.241 2.241 0 0 1-2.245-2.241 2.245 2.245 0 0 1 4.49 0 2.244 2.244 0 0 1-2.245 2.241Zm9.236-516.278a2.717 2.717 0 0 1-2.721-2.714c0-1.5 1.218-2.715 2.721-2.715a2.716 2.716 0 0 1 2.716 2.715 2.716 2.716 0 0 1-2.716 2.714Zm2.967 1257.329a4.142 4.142 0 0 1-4.144-4.14c0-2.28 1.859-4.13 4.144-4.13 2.29 0 4.145 1.85 4.145 4.13a4.14 4.14 0 0 1-4.145 4.14Zm4.365-375.76a2.278 2.278 0 0 1-2.28-2.27 2.28 2.28 0 0 1 4.56 0c0 1.25-1.022 2.27-2.28 2.27Zm.466-650.235a1.701 1.701 0 1 1 0-3.401 1.701 1.701 0 1 1 0 3.401ZM86.021 816.7a4.526 4.526 0 0 1-4.53-4.52 4.526 4.526 0 0 1 4.53-4.52c2.5 0 4.525 2.024 4.525 4.52a4.522 4.522 0 0 1-4.525 4.52Zm-1.143 272.01a2.834 2.834 0 1 1 0-5.67 2.84 2.84 0 0 1 2.842 2.84c0 1.56-1.273 2.83-2.842 2.83Zm-.526-126.946a1.774 1.774 0 0 1-1.774-1.774 1.773 1.773 0 0 1 3.548 0c0 .983-.797 1.774-1.774 1.774Zm.346-279.024a1.681 1.681 0 1 1-.005-3.363 1.681 1.681 0 0 1 .005 3.363Zm1.328 370.96a2.683 2.683 0 0 1-2.686-2.68 2.683 2.683 0 0 1 5.366 0c0 1.48-1.197 2.68-2.68 2.68Zm1.363-94.998c-.987 0-1.79-.796-1.79-1.784 0-.987.803-1.784 1.79-1.784s1.789.797 1.789 1.784c0 .988-.802 1.784-1.79 1.784Zm.396-109.061a1.958 1.958 0 0 1-1.96-1.954 1.958 1.958 0 0 1 3.914 0 1.957 1.957 0 0 1-1.954 1.954Zm1.353 48.131a2.383 2.383 0 0 1-2.386-2.38 2.384 2.384 0 0 1 4.766 0 2.382 2.382 0 0 1-2.38 2.38Zm3.578-635.867a2.037 2.037 0 1 1 0-4.072 2.037 2.037 0 1 1 0 4.072Zm-.045 481.486c-.992 0-1.8-.803-1.8-1.793 0-.991.808-1.794 1.8-1.794s1.8.803 1.8 1.794c0 .99-.808 1.793-1.8 1.793Zm2.571-528.686a3.758 3.758 0 0 1-3.764-3.754 3.758 3.758 0 0 1 3.764-3.755 3.757 3.757 0 0 1 3.759 3.755 3.757 3.757 0 0 1-3.759 3.754Zm.752 497.692a2.708 2.708 0 0 1-2.712-2.706 2.708 2.708 0 0 1 2.712-2.706 2.71 2.71 0 0 1 2.71 2.706 2.71 2.71 0 0 1-2.71 2.706Zm6.044 961.993a2.452 2.452 0 0 1-2.451-2.45 2.449 2.449 0 0 1 4.896 0c0 1.35-1.097 2.45-2.445 2.45Zm2.766-1413.505a4.768 4.768 0 0 1-4.771-4.765 4.769 4.769 0 0 1 4.771-4.766 4.773 4.773 0 0 1 4.776 4.766 4.772 4.772 0 0 1-4.776 4.765Zm-.822 468.267a1.693 1.693 0 1 1 0-3.386 1.692 1.692 0 1 1 0 3.386Zm8.199 253.095a2.2 2.2 0 0 1-2.2-2.196c0-1.212.987-2.195 2.2-2.195a2.195 2.195 0 1 1 0 4.391Zm3.393 626.443a1.85 1.85 0 0 1-1.85-1.85c0-1.02.827-1.84 1.85-1.84 1.022 0 1.849.82 1.849 1.84a1.85 1.85 0 0 1-1.849 1.85Zm4.816-1030.093a4.934 4.934 0 0 1-4.936-4.932 4.935 4.935 0 0 1 4.936-4.933 4.937 4.937 0 0 1 4.941 4.933 4.935 4.935 0 0 1-4.941 4.932Zm-2.025-215.957c-1.188 0-2.15-.96-2.15-2.146 0-1.185.962-2.145 2.15-2.145s2.15.96 2.15 2.145a2.147 2.147 0 0 1-2.15 2.146Zm2.315 1053.14a2.448 2.448 0 0 1-2.455-2.44 2.452 2.452 0 0 1 4.906 0c0 1.35-1.097 2.44-2.451 2.44Zm.106-830.941a2.035 2.035 0 0 1-2.035-2.033 2.035 2.035 0 0 1 4.069 0 2.032 2.032 0 0 1-2.034 2.033Zm2.195 14.014a1.928 1.928 0 1 1 0-3.858 1.928 1.928 0 1 1 0 3.858Zm2.962 315.392a4.63 4.63 0 0 1-4.636-4.626 4.633 4.633 0 0 1 4.636-4.63 4.632 4.632 0 0 1 4.635 4.63 4.629 4.629 0 0 1-4.635 4.626Zm.25 533.625c-.932 0-1.689-.76-1.689-1.69 0-.93.757-1.68 1.689-1.68s1.689.75 1.689 1.68c0 .93-.757 1.69-1.689 1.69Zm4.095-291.7a2.467 2.467 0 0 1-2.461-2.46 2.46 2.46 0 0 1 4.921 0c0 1.35-1.102 2.46-2.46 2.46Zm4.65-485.549a2.844 2.844 0 1 1 0-5.686 2.843 2.843 0 1 1 0 5.686Zm.998 706.789a2.123 2.123 0 0 1-2.125-2.12c0-1.17.952-2.12 2.125-2.12 1.172 0 2.125.95 2.125 2.12 0 1.17-.953 2.12-2.125 2.12Zm2.836-1095.058a1.742 1.742 0 0 1-1.744-1.74c0-.96.782-1.738 1.744-1.738s1.744.778 1.744 1.738c0 .962-.782 1.74-1.744 1.74Zm5.227-60.149a4.152 4.152 0 1 1 0-8.302 4.154 4.154 0 0 1 4.16 4.151 4.153 4.153 0 0 1-4.16 4.151Zm-.531 599.404a2.082 2.082 0 1 1 0-4.165 2.083 2.083 0 1 1 0 4.165Zm4.355 492.103a2.283 2.283 0 0 1-2.285-2.29c0-1.26 1.022-2.28 2.285-2.28a2.285 2.285 0 1 1 0 4.57Zm-.491 323.98c-.917 0-1.659-.74-1.659-1.66 0-.92.742-1.66 1.659-1.66.922 0 1.664.74 1.664 1.66 0 .92-.742 1.66-1.664 1.66Zm2.155-659.869a2.305 2.305 0 0 1-2.305-2.305c0-1.268 1.032-2.3 2.305-2.3a2.304 2.304 0 0 1 2.305 2.3 2.305 2.305 0 0 1-2.305 2.305Zm3.744-386.061a4.887 4.887 0 0 1-4.892-4.883 4.887 4.887 0 0 1 4.892-4.883 4.887 4.887 0 0 1 4.891 4.883 4.887 4.887 0 0 1-4.891 4.883Zm-.837 48.453a3.498 3.498 0 0 1-3.498-3.495 3.497 3.497 0 0 1 3.498-3.495 3.499 3.499 0 0 1 3.503 3.495 3.5 3.5 0 0 1-3.503 3.495Zm.721 473.547a2.371 2.371 0 1 1 0-4.74 2.372 2.372 0 0 1 2.376 2.37c0 1.31-1.063 2.37-2.376 2.37Zm.421-148.031a2.062 2.062 0 0 1-2.065-2.06c0-1.138.923-2.06 2.065-2.06a2.06 2.06 0 1 1 0 4.12Zm1.594-731.741a2.519 2.519 0 0 1-2.521-2.517 2.518 2.518 0 0 1 2.521-2.516 2.518 2.518 0 0 1 2.521 2.516 2.519 2.519 0 0 1-2.521 2.517Zm5.528 957.792c0 1.16-.938 2.09-2.095 2.09a2.088 2.088 0 0 1-2.095-2.09c0-1.16.937-2.1 2.095-2.1 1.157 0 2.095.94 2.095 2.1Zm.005-435.464a2.435 2.435 0 0 1-2.436-2.43 2.434 2.434 0 0 1 4.866 0 2.43 2.43 0 0 1-2.43 2.43Zm1.393 290.884a2.586 2.586 0 0 1-2.586-2.58 2.588 2.588 0 1 1 5.177 0c0 1.42-1.158 2.58-2.591 2.58Zm1.889-549.08a2.858 2.858 0 1 1 0-5.715 2.861 2.861 0 0 1 2.862 2.857 2.861 2.861 0 0 1-2.862 2.858Zm3.739 1017.36a3.562 3.562 0 0 1-3.568-3.56 3.568 3.568 0 0 1 7.136 0c0 1.97-1.599 3.56-3.568 3.56Zm1.483 114.55a3.55 3.55 0 0 1-3.548-3.55c0-1.95 1.589-3.54 3.548-3.54 1.96 0 3.548 1.59 3.548 3.54a3.55 3.55 0 0 1-3.548 3.55Zm1.063-1123.689a1.89 1.89 0 0 1-1.895-1.887c0-1.042.847-1.888 1.895-1.888a1.888 1.888 0 1 1 0 3.775Zm2.295 986.069a2.07 2.07 0 0 1-2.07-2.06c0-1.14.927-2.06 2.07-2.06 1.138 0 2.06.92 2.06 2.06 0 1.13-.922 2.06-2.06 2.06Zm2.581 197.07a2.385 2.385 0 0 1-2.381-2.38c0-1.31 1.068-2.38 2.381-2.38a2.385 2.385 0 0 1 2.385 2.38c0 1.31-1.067 2.38-2.385 2.38Zm5.442-423.7c0 1.74-1.403 3.15-3.137 3.15a3.144 3.144 0 0 1 0-6.29 3.14 3.14 0 0 1 3.137 3.14Zm3.353-954a2.483 2.483 0 0 1-2.486-2.479 2.481 2.481 0 0 1 2.486-2.478 2.48 2.48 0 0 1 2.481 2.478 2.481 2.481 0 0 1-2.481 2.479Zm1.133 799.1a2.35 2.35 0 1 1 0-4.7 2.35 2.35 0 1 1 0 4.7Zm.085 259.38a1.836 1.836 0 0 1-1.839-1.84c0-1.02.822-1.84 1.839-1.84 1.022 0 1.844.82 1.844 1.84s-.822 1.84-1.844 1.84Zm4.926-868.899c-1.157 0-2.1-.937-2.1-2.094a2.098 2.098 0 0 1 4.195 0 2.094 2.094 0 0 1-2.095 2.094Zm5.012 74.634a2.56 2.56 0 1 1-.002-5.12 2.56 2.56 0 0 1 .002 5.12Zm.977 426.435a2.16 2.16 0 0 1-2.165-2.16c0-1.19.972-2.157 2.165-2.157s2.165.967 2.165 2.157c0 1.2-.972 2.16-2.165 2.16Zm3.453 617.28a5.117 5.117 0 0 1-5.122-5.12 5.124 5.124 0 0 1 10.249 0c0 2.83-2.296 5.12-5.127 5.12Zm-.892-519.29a2.58 2.58 0 1 1 0-5.16 2.581 2.581 0 1 1 0 5.16Zm13.546-73.7a3.533 3.533 0 0 1-3.533-3.53c0-1.95 1.584-3.53 3.533-3.53a3.533 3.533 0 0 1 3.538 3.53c0 1.95-1.583 3.53-3.538 3.53Zm2.972-553.952a4.643 4.643 0 1 1 0-9.286 4.644 4.644 0 0 1 4.651 4.643 4.646 4.646 0 0 1-4.651 4.643Zm-2.325 87.841a1.946 1.946 0 1 1 .002-3.892 1.946 1.946 0 0 1-.002 3.892Zm5.457-314.785a1.567 1.567 0 1 1-.003-3.133 1.567 1.567 0 0 1 .003 3.133Zm4.621 1460.026a2.382 2.382 0 0 1-2.386-2.38c0-1.32 1.073-2.38 2.386-2.38a2.378 2.378 0 0 1 2.385 2.38c0 1.32-1.067 2.38-2.385 2.38Zm.025-528.03a2.184 2.184 0 0 1-2.185-2.18c0-1.21.977-2.18 2.185-2.18a2.179 2.179 0 1 1 0 4.36Zm2.325 81.98a4.265 4.265 0 0 1-4.265-4.26c0-2.36 1.91-4.26 4.265-4.26 2.356 0 4.265 1.9 4.265 4.26 0 2.35-1.909 4.26-4.265 4.26Zm1.228-163.06a1.68 1.68 0 1 1 0-3.36 1.68 1.68 0 1 1 0 3.36Zm2.045 328.36a1.476 1.476 0 1 1 0-2.95 1.475 1.475 0 1 1 0 2.95Zm2.916-545.495a2.81 2.81 0 1 1 0-5.618 2.81 2.81 0 1 1 0 5.618Zm.356 247.605a1.79 1.79 0 0 1-1.789-1.79c0-.99.802-1.78 1.789-1.78.988 0 1.789.79 1.789 1.78s-.801 1.79-1.789 1.79Zm2.707-585.561a2.604 2.604 0 1 1 0-5.209 2.606 2.606 0 0 1 2.611 2.603 2.608 2.608 0 0 1-2.611 2.606Zm.395 609.521a2.069 2.069 0 0 1-2.069-2.07c0-1.14.922-2.06 2.069-2.06a2.06 2.06 0 0 1 2.065 2.06c0 1.14-.922 2.07-2.065 2.07Zm3.98-1027.255a4.454 4.454 0 0 1-4.456-4.45 4.453 4.453 0 0 1 4.456-4.451 4.454 4.454 0 0 1 4.46 4.451 4.455 4.455 0 0 1-4.46 4.45Zm5.988 1482.445a2.601 2.601 0 1 1 0-5.2 2.597 2.597 0 0 1 2.606 2.6c0 1.44-1.162 2.6-2.606 2.6Zm-.215-126.71a2.381 2.381 0 0 1-2.381-2.38c0-1.31 1.063-2.37 2.381-2.37 1.313 0 2.38 1.06 2.38 2.37s-1.067 2.38-2.38 2.38Zm5.643-572.592a4.921 4.921 0 0 1-4.927-4.916 4.925 4.925 0 0 1 4.927-4.921 4.924 4.924 0 0 1 4.926 4.921 4.92 4.92 0 0 1-4.926 4.916Zm.321-158.766a4.607 4.607 0 0 1-4.611-4.603 4.608 4.608 0 0 1 4.611-4.604 4.607 4.607 0 0 1 4.61 4.604 4.607 4.607 0 0 1-4.61 4.603Zm.947 441.118c-2.3 0-4.165-1.86-4.165-4.15 0-2.3 1.865-4.16 4.165-4.16a4.16 4.16 0 0 1 4.159 4.16c0 2.29-1.864 4.15-4.159 4.15Zm.892 437.01a4.517 4.517 0 0 1-4.521-4.51c0-2.49 2.025-4.51 4.521-4.51s4.52 2.02 4.52 4.51c0 2.49-2.024 4.51-4.52 4.51Zm-2.06-1125.149a2.086 2.086 0 1 1 0-4.174 2.09 2.09 0 0 1 2.09 2.087 2.09 2.09 0 0 1-2.09 2.087Zm1.839 809.479a2.058 2.058 0 0 1-2.059-2.06 2.063 2.063 0 0 1 4.124 0c0 1.14-.927 2.06-2.065 2.06Zm1.358-822.268a2.798 2.798 0 0 1-2.801-2.796 2.799 2.799 0 0 1 5.598 0 2.797 2.797 0 0 1-2.797 2.796Zm.487 678.278a3.104 3.104 0 0 1-3.108-3.1c0-1.71 1.389-3.11 3.108-3.11 1.713 0 3.107 1.4 3.107 3.11s-1.394 3.1-3.107 3.1Zm3.513-95.74c-.832 0-1.504-.68-1.504-1.5 0-.83.672-1.51 1.504-1.51s1.503.68 1.503 1.51c0 .82-.671 1.5-1.503 1.5Zm1.593 627.55a2.25 2.25 0 0 1-2.25-2.24c0-1.24 1.007-2.25 2.25-2.25a2.25 2.25 0 0 1 2.245 2.25c0 1.23-1.007 2.24-2.245 2.24Zm3.609-484.06a2.21 2.21 0 0 1 1.097-4.13c1.223 0 2.21.99 2.21 2.21 0 1.1-.797 2.01-1.844 2.18a2.869 2.869 0 0 1-1.213 5.47c-.892 0-1.689-.4-2.215-1.04a1.957 1.957 0 0 1-1.849 2.62c-1.083 0-1.96-.87-1.96-1.95s.877-1.96 1.96-1.96c.561 0 1.072.23 1.428.62a2.878 2.878 0 0 1 2.386-4.02Zm-3.047-412.158a2.523 2.523 0 1 1 0-5.046 2.524 2.524 0 1 1 0 5.046Zm4.595-480.456a2.72 2.72 0 0 1-2.726-2.72 2.721 2.721 0 0 1 2.726-2.719 2.72 2.72 0 1 1 0 5.439Zm8.946-113.552a3.216 3.216 0 0 1-3.218-3.211 3.217 3.217 0 0 1 6.435 0 3.215 3.215 0 0 1-3.217 3.211Zm2.12 433.001a2 2 0 0 1-2-1.998 2 2 0 0 1 3.999 0 1.997 1.997 0 0 1-1.999 1.998Zm.516-348.596a2.434 2.434 0 1 1 0-4.869 2.434 2.434 0 1 1 0 4.869Zm1.829 606.807a5.27 5.27 0 0 1-1.348-3.523c0-2.917 2.375-5.287 5.297-5.287a5.292 5.292 0 0 1 5.292 5.287 5.289 5.289 0 0 1-5.292 5.287c-.215 0-.421-.01-.626-.035a1.873 1.873 0 0 1-1.699 1.073 1.873 1.873 0 0 1-1.874-1.87c0-.341.09-.656.25-.932Zm3.859-69.364a2.56 2.56 0 0 1-2.566-2.556 2.559 2.559 0 0 1 2.566-2.556 2.558 2.558 0 0 1 2.561 2.556 2.559 2.559 0 0 1-2.561 2.556Zm4.626 520.578a5.203 5.203 0 0 1-5.202-5.2c0-2.86 2.33-5.19 5.202-5.19 2.871 0 5.202 2.33 5.202 5.19 0 2.87-2.331 5.2-5.202 5.2Zm.776-279.28a2.052 2.052 0 0 1-2.049-2.04c0-1.14.922-2.05 2.049-2.05a2.044 2.044 0 1 1 0 4.09Zm1.118 325.64a2.306 2.306 0 1 1 0-4.61 2.304 2.304 0 1 1 0 4.61Zm.241 176.34a2.379 2.379 0 0 1-2.386-2.38c0-1.32 1.067-2.39 2.386-2.39a2.387 2.387 0 0 1 2.385 2.39c0 1.32-1.067 2.38-2.385 2.38Zm3.603-90.58a5.28 5.28 0 1 1 0-10.56 5.285 5.285 0 0 1 5.282 5.28c0 2.92-2.365 5.28-5.282 5.28Zm4.57-183.16a2.317 2.317 0 0 1-2.315-2.31 2.31 2.31 0 0 1 2.315-2.31 2.307 2.307 0 0 1 2.311 2.31c0 1.27-1.033 2.31-2.311 2.31Zm2.376-11.97a3.853 3.853 0 0 1-3.859-3.85 3.86 3.86 0 0 1 3.859-3.85c2.13 0 3.854 1.73 3.854 3.85 0 2.13-1.724 3.85-3.854 3.85Zm2.445 447.23c-2.696 0-4.886-2.18-4.886-4.87s2.19-4.87 4.886-4.87a4.875 4.875 0 0 1 4.882 4.87c0 2.69-2.185 4.87-4.882 4.87Zm.056-534.12a1.886 1.886 0 1 1 0-3.77 1.884 1.884 0 1 1 0 3.77ZM304.95 7.745a3.874 3.874 0 0 1-3.879-3.873A3.874 3.874 0 0 1 304.95 0a3.873 3.873 0 1 1 0 7.745ZM302.995 406.6a1.756 1.756 0 1 1 0-3.511 1.756 1.756 0 1 1 0 3.511Zm3.203 1165.22c-2.02 0-3.659-1.63-3.659-3.64a3.66 3.66 0 0 1 3.659-3.66 3.66 3.66 0 0 1 3.658 3.66c0 2.01-1.639 3.64-3.658 3.64Zm3.092-1045.728a4.777 4.777 0 0 1-4.781-4.773 4.777 4.777 0 0 1 4.781-4.773 4.78 4.78 0 0 1 4.781 4.773 4.78 4.78 0 0 1-4.781 4.773Zm3.192 162.565a1.557 1.557 0 1 1 0-3.115 1.558 1.558 0 1 1 0 3.115Zm.1-250.695a1.484 1.484 0 0 1-1.483-1.48 1.483 1.483 0 0 1 2.967 0c0 .816-.662 1.48-1.484 1.48Zm2.992 473.386a2.164 2.164 0 1 1 0-4.33c1.198 0 2.17.968 2.17 2.165a2.166 2.166 0 0 1-2.17 2.165Zm.156-47.223c-1.108 0-2-.897-2-2s.892-1.995 2-1.995a1.998 1.998 0 1 1 0 3.995Zm1.428 401.855c-.947 0-1.714-.76-1.714-1.71a1.717 1.717 0 1 1 3.433 0c0 .95-.767 1.71-1.719 1.71Zm1.168-532.463a2.718 2.718 0 0 1-2.722-2.715 2.718 2.718 0 0 1 2.722-2.714 2.717 2.717 0 0 1 2.716 2.714c0 1.5-1.218 2.715-2.716 2.715Zm3.357 22.792a4.665 4.665 0 0 1-4.67-4.662 4.666 4.666 0 0 1 4.67-4.664 4.667 4.667 0 0 1 4.671 4.664 4.666 4.666 0 0 1-4.671 4.662Zm-2.34 354.641a2.17 2.17 0 1 1-.001-4.339 2.17 2.17 0 0 1 .001 4.339Zm-.045-169.096a1.87 1.87 0 0 1-1.874-1.87 1.87 1.87 0 0 1 1.874-1.874c1.037 0 1.879.837 1.879 1.874 0 1.033-.842 1.87-1.879 1.87Zm1.418-431.66a2.864 2.864 0 1 1 0-5.725 2.864 2.864 0 0 1 2.867 2.863 2.865 2.865 0 0 1-2.867 2.862Zm7.457 687.306a2.058 2.058 0 0 1-2.059-2.06c0-1.14.922-2.06 2.059-2.06 1.138 0 2.06.92 2.06 2.06 0 1.14-.922 2.06-2.06 2.06Zm2.371 372.68c-1.173 0-2.12-.96-2.12-2.12 0-1.18.947-2.12 2.12-2.12 1.177 0 2.125.94 2.125 2.12 0 1.16-.948 2.12-2.125 2.12Zm-.526-480.81a1.479 1.479 0 1 1 0-2.96c.816 0 1.483.66 1.483 1.48s-.667 1.48-1.483 1.48Zm1.453 189.95a2.729 2.729 0 0 1-2.731-2.73c0-1.5 1.222-2.72 2.731-2.72a2.725 2.725 0 1 1 0 5.45Zm-.155-243.99a2.49 2.49 0 0 1-2.501-2.49c0-1.39 1.117-2.5 2.501-2.5 1.383 0 2.5 1.11 2.5 2.5a2.49 2.49 0 0 1-2.5 2.49Zm.09 667.28a2.555 2.555 0 1 1 0-5.11 2.551 2.551 0 0 1 2.556 2.55c0 1.42-1.143 2.56-2.556 2.56Zm1.233-1343.547a2.046 2.046 0 1 1 2.049-2.044 2.047 2.047 0 0 1-2.049 2.044Zm.215 164.678a1.65 1.65 0 0 1-1.649-1.647 1.651 1.651 0 0 1 3.303 0c0 .91-.742 1.647-1.654 1.647Zm1.233 1079.529a1.974 1.974 0 1 1 0-3.95 1.974 1.974 0 1 1 0 3.95Zm2.009 78.19a2.764 2.764 0 0 1-2.761-2.76c0-1.52 1.238-2.76 2.761-2.76a2.765 2.765 0 0 1 2.762 2.76c0 1.52-1.238 2.76-2.762 2.76Zm.411-605.95c-1.323 0-2.4-1.08-2.4-2.4 0-1.32 1.077-2.39 2.4-2.39a2.393 2.393 0 0 1 2.396 2.39c0 1.32-1.073 2.4-2.396 2.4Zm1.384-757.421a3.152 3.152 0 0 1-3.153-3.148 3.153 3.153 0 0 1 3.153-3.149 3.153 3.153 0 0 1 3.157 3.149 3.152 3.152 0 0 1-3.157 3.148Zm-1.093 464.895a1.537 1.537 0 1 1 0-3.075 1.538 1.538 0 1 1 0 3.075Zm.917 208.985a1.871 1.871 0 1 1 0-3.744c1.033 0 1.875.837 1.875 1.87a1.875 1.875 0 0 1-1.875 1.874Zm2.015 96.431a2.248 2.248 0 0 1-2.245-2.24c0-1.24 1.007-2.24 2.245-2.24 1.238 0 2.245 1 2.245 2.24 0 1.23-1.007 2.24-2.245 2.24Zm.371-660.264a1.685 1.685 0 0 1-1.684-1.682 1.684 1.684 0 0 1 3.368 0c0 .929-.752 1.682-1.684 1.682Zm9.795-51.217a3.469 3.469 0 0 1-3.471-3.466 3.468 3.468 0 0 1 3.471-3.466 3.468 3.468 0 0 1 3.472 3.466 3.469 3.469 0 0 1-3.472 3.466Zm2.242 1316.021c-1.49 0-2.698-1.2-2.698-2.69a2.7 2.7 0 0 1 2.698-2.7 2.7 2.7 0 0 1 2.698 2.7c0 1.49-1.208 2.69-2.698 2.69Zm3.643-1468.148a5.075 5.075 0 0 1-5.077-5.072 5.074 5.074 0 0 1 5.077-5.07 5.074 5.074 0 0 1 5.078 5.07 5.075 5.075 0 0 1-5.078 5.072Zm-1.88 174.283a1.497 1.497 0 1 1 0-2.994 1.5 1.5 0 0 1 1.499 1.497 1.5 1.5 0 0 1-1.499 1.497Zm5.313 272.182a4.17 4.17 0 0 1-4.174-4.168 4.17 4.17 0 0 1 4.174-4.167 4.17 4.17 0 0 1 4.174 4.167 4.17 4.17 0 0 1-4.174 4.168Zm-.418 182.975a2.779 2.779 0 1 1 0-5.558 2.78 2.78 0 1 1 0 5.558Zm-.026-260.482a2.732 2.732 0 0 1-2.733-2.73 2.733 2.733 0 0 1 2.733-2.729 2.732 2.732 0 0 1 2.734 2.729 2.732 2.732 0 0 1-2.734 2.73Zm3.131 309.52a1.57 1.57 0 1 1 0-3.143 1.571 1.571 0 1 1 0 3.143Zm3.666-417.088a3.888 3.888 0 0 1-3.892-3.885 3.889 3.889 0 0 1 3.892-3.886 3.889 3.889 0 0 1 3.891 3.886 3.888 3.888 0 0 1-3.891 3.885Zm-1.848-92.414a1.708 1.708 0 0 1-1.709-1.707 1.709 1.709 0 0 1 3.42 0c0 .943-.766 1.707-1.711 1.707Zm.189 937.552a1.875 1.875 0 1 1 0-3.75c1.036 0 1.878.84 1.878 1.87 0 1.04-.842 1.88-1.878 1.88Zm5.807 68.34c0 1.64-1.329 2.97-2.966 2.97a2.97 2.97 0 0 1-2.967-2.97c0-1.64 1.33-2.96 2.967-2.96a2.96 2.96 0 0 1 2.966 2.96Zm3.726-937.222a3.647 3.647 0 0 1-3.649-3.644 3.646 3.646 0 0 1 3.649-3.643 3.646 3.646 0 0 1 3.649 3.643 3.647 3.647 0 0 1-3.649 3.644Zm1.185 856.242a4.147 4.147 0 0 1-4.155-4.15c0-2.29 1.86-4.15 4.155-4.15a4.154 4.154 0 0 1 4.156 4.15c0 2.3-1.861 4.15-4.156 4.15Zm.507-998.421a4.534 4.534 0 0 1-4.537-4.531 4.533 4.533 0 0 1 4.537-4.53 4.534 4.534 0 0 1 4.537 4.53 4.535 4.535 0 0 1-4.537 4.531Zm1.793 1151.521a2.403 2.403 0 0 1-2.409-2.41 2.409 2.409 0 0 1 4.818 0c0 1.34-1.08 2.41-2.409 2.41Zm.66-773.28a2.439 2.439 0 0 1-2.442-2.437 2.44 2.44 0 0 1 2.442-2.437 2.44 2.44 0 0 1 2.441 2.437 2.438 2.438 0 0 1-2.441 2.437Zm.363 231.807a2.72 2.72 0 1 1 0-5.443 2.723 2.723 0 1 1 0 5.443Zm1.437 263.873a2.261 2.261 0 1 1 0-4.52 2.26 2.26 0 1 1 0 4.52Zm-.538-400.057a1.499 1.499 0 0 1-1.499-1.498c0-.822.671-1.493 1.499-1.493.828 0 1.499.671 1.499 1.493 0 .827-.671 1.498-1.499 1.498Zm3.571-220.216a2.41 2.41 0 0 1-2.412-2.407 2.41 2.41 0 0 1 2.412-2.407 2.408 2.408 0 1 1 0 4.814Zm2.57 678.023a2.745 2.745 0 0 1-2.745-2.74 2.745 2.745 0 0 1 5.488 0c0 1.51-1.228 2.74-2.743 2.74Zm3.996 29.94a2.325 2.325 0 1 1 0-4.65 2.326 2.326 0 1 1 0 4.65Zm1.356-293.63a1.997 1.997 0 1 1 0-3.994 2 2 0 0 1 2.004 2 1.999 1.999 0 0 1-2.004 1.994Zm.219-99.514a1.931 1.931 0 1 1 0-3.864 1.93 1.93 0 0 1 1.934 1.93 1.935 1.935 0 0 1-1.934 1.934Zm1.053 656.924a2.762 2.762 0 0 1-2.771-2.76c0-1.53 1.241-2.76 2.771-2.76a2.76 2.76 0 1 1 0 5.52Zm3.757-247.88a1.66 1.66 0 1 1 0-3.32 1.66 1.66 0 1 1 0 3.32Zm4.96 25.21a4.726 4.726 0 0 1-4.724-4.72 4.72 4.72 0 0 1 4.724-4.72 4.72 4.72 0 0 1 4.725 4.72c0 2.6-2.116 4.72-4.725 4.72Zm5.831-405.798a2.243 2.243 0 0 1-2.245-2.24 2.243 2.243 0 0 1 2.245-2.241 2.243 2.243 0 0 1 2.245 2.241 2.243 2.243 0 0 1-2.245 2.24Zm.888 85.458a2.866 2.866 0 1 1 0-5.735 2.867 2.867 0 1 1 0 5.735Zm-.884 431.21a1.824 1.824 0 0 1-1.822-1.82c0-1.01.816-1.82 1.822-1.82 1.007 0 1.822.81 1.822 1.82 0 1-.815 1.82-1.822 1.82Zm6.087-1263.942a5.243 5.243 0 0 1-5.247-5.238 5.243 5.243 0 0 1 5.247-5.238 5.241 5.241 0 0 1 5.246 5.238 5.241 5.241 0 0 1-5.246 5.238Zm-3.483 1419.932c-.974 0-1.764-.8-1.764-1.77s.79-1.76 1.764-1.76c.975 0 1.765.79 1.765 1.76s-.79 1.77-1.765 1.77Zm4.442 9.2c-1.231 0-2.228-1-2.228-2.22 0-1.24.997-2.23 2.228-2.23a2.225 2.225 0 1 1 0 4.45Zm1.484-391.61a1.987 1.987 0 0 1-1.986-1.99c0-1.1.889-1.98 1.986-1.98a1.98 1.98 0 0 1 1.987 1.98c0 1.1-.89 1.99-1.987 1.99Zm3.292 514.54a4.271 4.271 0 0 1-4.274-4.27 4.27 4.27 0 0 1 4.274-4.26 4.27 4.27 0 0 1 4.275 4.26c0 2.36-1.914 4.27-4.275 4.27Zm1.132-366.03a2.8 2.8 0 1 1 0-5.6 2.8 2.8 0 1 1 0 5.6Zm.995-873.596a3.614 3.614 0 0 1-3.615-3.612 3.612 3.612 0 0 1 3.615-3.609 3.614 3.614 0 0 1 3.617 3.609 3.615 3.615 0 0 1-3.617 3.612Zm1.093 698.106a2.658 2.658 0 0 1-2.658-2.66c0-1.46 1.19-2.65 2.658-2.65 1.469 0 2.66 1.19 2.66 2.65a2.66 2.66 0 0 1-2.66 2.66Zm1.346-822.043a3.445 3.445 0 0 1-3.447-3.441 3.443 3.443 0 0 1 3.447-3.44 3.442 3.442 0 0 1 3.446 3.44c0 1.9-1.543 3.441-3.446 3.441Zm5.742 1360.673a2.74 2.74 0 0 1-2.75-2.74 2.75 2.75 0 0 1 2.75-2.75 2.75 2.75 0 0 1 2.752 2.75c0 1.52-1.231 2.74-2.752 2.74Zm7.261-161.03c-.889 0-1.61-.71-1.61-1.61 0-.88.721-1.61 1.61-1.61.89 0 1.612.73 1.612 1.61 0 .9-.722 1.61-1.612 1.61Zm4.248-1499.82a4.74 4.74 0 0 1-4.742-4.735 4.738 4.738 0 0 1 4.742-4.735 4.739 4.739 0 0 1 4.743 4.735 4.74 4.74 0 0 1-4.743 4.735Zm-2.676 1373.37c-.961 0-1.738-.78-1.738-1.74s.777-1.73 1.738-1.73c.96 0 1.738.77 1.738 1.73s-.778 1.74-1.738 1.74Zm4.431-267.74c-.444.19-.93.29-1.439.29a3.834 3.834 0 0 1-3.831-3.83c0-2.11 1.715-3.82 3.831-3.82a3.826 3.826 0 0 1 3.01 6.19 2.6 2.6 0 0 1-1.571 1.17Zm-.99-44.97a3.815 3.815 0 1 1 0-7.63 3.815 3.815 0 0 1 0 7.63Zm1.647-77.58a4.57 4.57 0 1 1 0-9.14 4.575 4.575 0 0 1 4.575 4.57c0 2.53-2.048 4.57-4.575 4.57Zm-.055-866.921a3.8 3.8 0 0 1-3.802-3.798 3.798 3.798 0 0 1 3.802-3.795 3.8 3.8 0 0 1 3.804 3.795 3.8 3.8 0 0 1-3.804 3.798Zm.92 504.051a4.401 4.401 0 0 1-4.404-4.398 4.4 4.4 0 0 1 4.404-4.395 4.398 4.398 0 0 1 4.402 4.395c0 2.43-1.97 4.398-4.402 4.398Zm.069 452.5a3.23 3.23 0 0 1-3.238-3.23 3.239 3.239 0 1 1 6.478 0 3.23 3.23 0 0 1-3.24 3.23Zm-.694 238.49a2.22 2.22 0 1 1 0-4.44 2.22 2.22 0 1 1 0 4.44Zm2.147-1080.652a2.893 2.893 0 1 1 0-5.784 2.894 2.894 0 0 1 2.896 2.891 2.895 2.895 0 0 1-2.896 2.893Zm1.071 1415.372a2.11 2.11 0 1 1 0-4.22 2.11 2.11 0 1 1 0 4.22Zm2.237-1194.91a2.066 2.066 0 0 1-2.067-2.065c0-1.14.926-2.064 2.067-2.064 1.142 0 2.069.924 2.069 2.064a2.067 2.067 0 0 1-2.069 2.065Zm2.137-100.721a2.646 2.646 0 0 1-2.647-2.643 2.646 2.646 0 0 1 5.293 0 2.645 2.645 0 0 1-2.646 2.643Zm1.601-92.087a2.113 2.113 0 0 1-2.114-2.11 2.11 2.11 0 0 1 2.114-2.108 2.108 2.108 0 1 1 0 4.218Zm.992 1075.968a1.66 1.66 0 0 1-1.654-1.65c0-.91.741-1.66 1.654-1.66.912 0 1.654.75 1.654 1.66 0 .9-.742 1.65-1.654 1.65Zm13.237-412.188a2.264 2.264 0 1 1 0-4.531 2.266 2.266 0 1 1 0 4.531Zm2.775-259.782a4.125 4.125 0 0 1-4.13-4.123 4.126 4.126 0 0 1 4.13-4.122 4.126 4.126 0 0 1 4.129 4.122 4.126 4.126 0 0 1-4.129 4.123Zm-.562 550.22a1.724 1.724 0 1 1 0-3.452 1.724 1.724 0 0 1 0 3.452Zm4.023-1028.47a4.433 4.433 0 0 1-4.436-4.43 4.433 4.433 0 0 1 4.436-4.429 4.433 4.433 0 0 1 4.436 4.429 4.433 4.433 0 0 1-4.436 4.43Zm-1.942 572.661a1.864 1.864 0 1 1 0-3.728 1.865 1.865 0 1 1 0 3.728Zm4.603 261.289a4.859 4.859 0 0 1-4.858-4.85c0-2.68 2.174-4.85 4.858-4.85a4.854 4.854 0 0 1 4.859 4.85 4.86 4.86 0 0 1-4.859 4.85Zm-1.064-813.395a3.768 3.768 0 0 1-3.77-3.764 3.768 3.768 0 0 1 3.77-3.766 3.767 3.767 0 0 1 3.77 3.766 3.767 3.767 0 0 1-3.77 3.764Zm-1.055 888.095a2.68 2.68 0 0 1-2.683-2.68c0-1.47 1.2-2.68 2.683-2.68a2.69 2.69 0 0 1 2.685 2.68c0 1.48-1.203 2.68-2.685 2.68Zm.097 262.92a2.55 2.55 0 0 1-2.55-2.55c0-1.4 1.142-2.54 2.55-2.54a2.546 2.546 0 0 1 2.549 2.54c0 1.41-1.141 2.55-2.549 2.55Zm1.861-915.228a3.876 3.876 0 0 1-3.878-3.874 3.877 3.877 0 0 1 3.878-3.874 3.877 3.877 0 0 1 3.881 3.874 3.877 3.877 0 0 1-3.881 3.874Zm-.768 888.328a2.282 2.282 0 0 1-2.285-2.28 2.29 2.29 0 0 1 2.285-2.29 2.29 2.29 0 0 1 2.286 2.29c0 1.26-1.023 2.28-2.286 2.28Zm1.315 59.62a2.376 2.376 0 1 1 0-4.75 2.375 2.375 0 1 1 0 4.75Zm2.31-814.512a1.641 1.641 0 1 1 0-3.28c.908 0 1.644.734 1.644 1.639 0 .907-.736 1.641-1.644 1.641Zm.459-429.173a1.67 1.67 0 1 1 0-3.338c.923 0 1.672.748 1.672 1.669s-.749 1.669-1.672 1.669Zm1.338 882.585c-.848 0-1.536-.68-1.536-1.52 0-.85.688-1.54 1.536-1.54.847 0 1.534.69 1.534 1.54 0 .84-.687 1.52-1.534 1.52Zm1.182 287.25a1.725 1.725 0 1 1 1.726-1.72c0 .95-.773 1.72-1.726 1.72Zm2.662-545.686a2.288 2.288 0 1 1 0-4.576 2.288 2.288 0 1 1 0 4.576Zm2.348-269.281a4.495 4.495 0 0 1-4.497-4.491c0-2.48 2.014-4.49 4.497-4.49a4.494 4.494 0 0 1 4.498 4.49 4.495 4.495 0 0 1-4.498 4.491Zm2.93 144.626a5.116 5.116 0 0 1-5.121-5.111 5.117 5.117 0 0 1 5.121-5.112 5.116 5.116 0 0 1 5.12 5.112 5.115 5.115 0 0 1-5.12 5.111Zm-2.45 614.271a2.165 2.165 0 1 1 0-4.33 2.164 2.164 0 1 1 0 4.33Zm4.115-74.11a4.382 4.382 0 0 1-4.385-4.38c0-2.42 1.963-4.38 4.385-4.38a4.382 4.382 0 0 1 4.385 4.38c0 2.42-1.963 4.38-4.385 4.38Zm-1.341-772.696a1.575 1.575 0 1 1 0-3.149c.871 0 1.578.704 1.578 1.574 0 .87-.707 1.575-1.578 1.575Zm1.775 1241.846a2.945 2.945 0 0 1-2.946-2.94 2.945 2.945 0 0 1 5.891 0c0 1.62-1.319 2.94-2.945 2.94Zm1.312-946.85a1.924 1.924 0 0 1-1.924-1.922 1.924 1.924 0 0 1 3.849 0 1.924 1.924 0 0 1-1.925 1.922Zm2.746-333.473a4.556 4.556 0 0 1-4.56-4.552 4.555 4.555 0 0 1 4.56-4.551 4.555 4.555 0 0 1 4.558 4.551 4.555 4.555 0 0 1-4.558 4.552Zm-1.048 33.964a1.893 1.893 0 1 1 0-3.784 1.893 1.893 0 1 1 0 3.784Zm1.171 430.316a2.648 2.648 0 1 1 0-5.297 2.648 2.648 0 1 1 0 5.297Zm.532-32.996a2.22 2.22 0 0 1-2.222-2.22 2.22 2.22 0 0 1 2.222-2.215 2.217 2.217 0 1 1 0 4.435Zm5.361 454.509a2.714 2.714 0 0 1-2.709-2.71c0-1.5 1.213-2.7 2.709-2.7 1.498 0 2.71 1.2 2.71 2.7 0 1.49-1.212 2.71-2.71 2.71Zm.879-1142.376a2.636 2.636 0 1 1 0-5.27c1.458 0 2.64 1.18 2.64 2.635a2.638 2.638 0 0 1-2.64 2.635Zm.672 1369.556a2.525 2.525 0 0 1-2.528-2.52c0-1.39 1.132-2.53 2.528-2.53a2.535 2.535 0 0 1 2.529 2.53c0 1.39-1.134 2.52-2.529 2.52Zm-.286 81.95a1.715 1.715 0 1 1 0-3.43 1.715 1.715 0 0 1 0 3.43Zm.868-599.21a2.484 2.484 0 1 1 0-4.97 2.484 2.484 0 1 1 0 4.97Zm1.32-953.752a1.949 1.949 0 1 1 0-3.895 1.949 1.949 0 1 1 0 3.895Zm5.236 405.674a4.988 4.988 0 0 1-4.991-4.984 4.986 4.986 0 0 1 4.991-4.984 4.986 4.986 0 0 1 4.992 4.984 4.988 4.988 0 0 1-4.992 4.984Zm-2.313 443.121a1.727 1.727 0 1 1 0-3.453 1.727 1.727 0 1 1 0 3.453Zm2.432 94.297a4.072 4.072 0 0 1-4.077-4.07c0-2.25 1.825-4.07 4.077-4.07a4.073 4.073 0 0 1 4.079 4.07c0 2.25-1.826 4.07-4.079 4.07Zm.983-734.055a3.866 3.866 0 0 1-3.869-3.863 3.868 3.868 0 0 1 3.869-3.864 3.867 3.867 0 0 1 3.87 3.864 3.866 3.866 0 0 1-3.87 3.863Zm9.088 440.862a1.921 1.921 0 0 1-3.84 0 1.921 1.921 0 0 1 3.84 0Zm-.96 154.594a2.684 2.684 0 1 1 0-5.367 2.685 2.685 0 0 1 2.688 2.681 2.687 2.687 0 0 1-2.688 2.686Zm.835-495.526a2.522 2.522 0 0 1-2.524-2.52 2.52 2.52 0 0 1 2.524-2.518 2.52 2.52 0 1 1 0 5.038Zm4.56 465.642a2.616 2.616 0 1 1 0-5.232 2.617 2.617 0 1 1 0 5.232Zm.244 566.853a2.16 2.16 0 1 1 0-4.32c1.197 0 2.166.96 2.166 2.16 0 1.19-.969 2.16-2.166 2.16Zm1.028 322.03a2.53 2.53 0 0 1-2.53-2.53 2.52 2.52 0 0 1 2.53-2.52 2.52 2.52 0 0 1 2.531 2.52c0 1.4-1.133 2.53-2.531 2.53Zm3.929-738.186a4.263 4.263 0 0 1-4.264-4.26c0-2.35 1.909-4.26 4.264-4.26a4.265 4.265 0 0 1 4.267 4.26c0 2.351-1.91 4.26-4.267 4.26Zm.807 663.986a3.27 3.27 0 0 1-3.267-3.26 3.266 3.266 0 1 1 3.267 3.26Zm2.233-1014.115a2.716 2.716 0 1 1 0-5.431 2.718 2.718 0 0 1 2.72 2.716c0 1.5-1.218 2.715-2.72 2.715Zm1.133 250.745a1.701 1.701 0 0 1-1.701-1.699 1.701 1.701 0 0 1 3.402 0 1.7 1.7 0 0 1-1.701 1.699Zm3.076 832.25a3.889 3.889 0 0 1-3.89-3.89c0-2.14 1.741-3.88 3.89-3.88s3.89 1.74 3.89 3.88c0 2.15-1.741 3.89-3.89 3.89Zm-.693-1272.357a2.805 2.805 0 1 1 0-5.609 2.807 2.807 0 0 1 2.809 2.805 2.806 2.806 0 0 1-2.809 2.804Zm-.258 998.017a1.851 1.851 0 1 1 0-3.702 1.851 1.851 0 0 1 0 3.702Zm1.36-143.64a1.766 1.766 0 1 1 .003-3.529 1.766 1.766 0 0 1-.003 3.529Zm2.335-558.946a1.545 1.545 0 1 1 0-3.089 1.545 1.545 0 1 1 0 3.089Zm5.868-335.517a3.227 3.227 0 0 1-3.229-3.225 3.226 3.226 0 0 1 3.229-3.224 3.227 3.227 0 0 1 3.23 3.224 3.228 3.228 0 0 1-3.23 3.225Zm-.574 818.613a1.905 1.905 0 1 1 0-3.81 1.906 1.906 0 1 1 0 3.81Zm2.344-1176.753a2.006 2.006 0 0 1-2.007-2.005c0-1.106.899-2.004 2.007-2.004 1.109 0 2.008.898 2.008 2.004a2.006 2.006 0 0 1-2.008 2.005Zm4.143 1069.343c0 1.64-1.329 2.97-2.966 2.97a2.97 2.97 0 0 1-2.967-2.97 2.968 2.968 0 0 1 5.933 0Zm-3.166 505.39a1.496 1.496 0 0 1 0-2.99 1.495 1.495 0 0 1 0 2.99Zm4.525-1079.723a4.13 4.13 0 0 1-4.133-4.128c0-2.28 1.85-4.126 4.133-4.126a4.13 4.13 0 0 1 4.135 4.126 4.132 4.132 0 0 1-4.135 4.128Zm4.585-136.059a4.32 4.32 0 0 1-4.323-4.315 4.319 4.319 0 0 1 4.323-4.315 4.319 4.319 0 0 1 4.323 4.315 4.32 4.32 0 0 1-4.323 4.315Zm-2.149 270.395a1.696 1.696 0 0 1 0-3.39c.937 0 1.699.759 1.699 1.695 0 .935-.762 1.695-1.699 1.695Zm9.468 385.717a4.538 4.538 0 1 1-9.074 0c0-2.5 2.033-4.54 4.537-4.54a4.544 4.544 0 0 1 4.537 4.54Zm-6.007 467a2.75 2.75 0 1 1 0-5.5 2.75 2.75 0 1 1 0 5.5Zm1.822-913.951a3.17 3.17 0 0 1-3.172-3.168 3.17 3.17 0 0 1 3.172-3.168 3.171 3.171 0 0 1 3.173 3.168 3.17 3.17 0 0 1-3.173 3.168Zm1.951 1004.061a4.581 4.581 0 1 1 0-9.16 4.581 4.581 0 1 1 0 9.16Zm-.357-777.054a3.35 3.35 0 0 1-3.353-3.348 3.35 3.35 0 0 1 3.353-3.348 3.35 3.35 0 0 1 3.352 3.348 3.35 3.35 0 0 1-3.352 3.348Zm2.314-669.669a5.294 5.294 0 0 1-5.298-5.29 5.294 5.294 0 0 1 5.298-5.289 5.295 5.295 0 0 1 5.298 5.289 5.294 5.294 0 0 1-5.298 5.29Zm.158 555.248a4.446 4.446 0 0 1-4.45-4.443 4.446 4.446 0 0 1 4.45-4.442 4.446 4.446 0 0 1 4.448 4.442 4.446 4.446 0 0 1-4.448 4.443Zm-.128 164.887a2.2 2.2 0 1 1 0-4.4 2.2 2.2 0 1 1 0 4.4Zm2.031-147.111a2.498 2.498 0 0 1-2.499-2.495 2.497 2.497 0 0 1 2.499-2.495 2.497 2.497 0 0 1 2.499 2.495 2.498 2.498 0 0 1-2.499 2.495Zm.659 422.719a1.046 1.046 0 0 1-2.094 0c0-.58.469-1.05 1.047-1.05s1.047.47 1.047 1.05Zm2.958-710.135a4.385 4.385 0 0 1-4.389-4.382 4.385 4.385 0 0 1 4.389-4.381 4.385 4.385 0 0 1 4.389 4.381 4.385 4.385 0 0 1-4.389 4.382Zm-.034-32.184a2.436 2.436 0 0 1-2.438-2.434 2.436 2.436 0 0 1 2.438-2.434 2.435 2.435 0 1 1 0 4.868Zm.438 1211.699a1.915 1.915 0 0 1 0-3.83 1.915 1.915 0 0 1 0 3.83Zm.76-800.165a2.18 2.18 0 1 1 0-4.36 2.18 2.18 0 1 1 0 4.36Zm4.546-595.421a5.206 5.206 0 0 1-5.211-5.202 5.208 5.208 0 0 1 5.211-5.203 5.207 5.207 0 0 1 5.211 5.203 5.205 5.205 0 0 1-5.211 5.202Zm-2.444 335.657a2.209 2.209 0 1 1 0-4.417 2.21 2.21 0 1 1 0 4.417Zm2.672-72.414a3.268 3.268 0 1 1 0-6.534 3.27 3.27 0 0 1 3.273 3.267 3.27 3.27 0 0 1-3.273 3.267Zm2.49 199.964a1.893 1.893 0 1 1 0-3.784 1.893 1.893 0 1 1 0 3.784ZM579.6 363.48a2.33 2.33 0 0 1-2.333-2.327 2.331 2.331 0 0 1 4.663 0 2.33 2.33 0 0 1-2.33 2.327Zm5.227 310.592a4.764 4.764 0 0 1-4.768-4.761 4.764 4.764 0 0 1 4.768-4.76 4.765 4.765 0 0 1 4.767 4.76 4.764 4.764 0 0 1-4.767 4.761Zm-1.372-451.595a2.474 2.474 0 0 1-2.476-2.472 2.474 2.474 0 0 1 2.476-2.473 2.475 2.475 0 0 1 2.476 2.473 2.474 2.474 0 0 1-2.476 2.472Zm.443 246.024a2.46 2.46 0 0 1-2.463-2.458 2.461 2.461 0 0 1 2.463-2.459 2.461 2.461 0 0 1 2.462 2.459 2.46 2.46 0 0 1-2.462 2.458Zm5.2-362.249a3.494 3.494 0 0 1 .384 6.594 4.464 4.464 0 0 1-3.202 1.347 4.473 4.473 0 0 1-4.476-4.469 4.473 4.473 0 0 1 4.476-4.469c1.068 0 2.048.374 2.818.997Zm-1.155 225.657a3.067 3.067 0 1 1 0-6.132 3.067 3.067 0 1 1 0 6.132Zm1.753 1132.161a1.815 1.815 0 1 1 0-3.63 1.815 1.815 0 1 1 0 3.63Zm1.794-633.698a2.192 2.192 0 0 1-2.193-2.19 2.193 2.193 0 0 1 4.387 0c0 1.208-.983 2.19-2.194 2.19Zm.652 860.218a2.316 2.316 0 0 1-2.323-2.32 2.322 2.322 0 0 1 4.646 0c0 1.29-1.04 2.32-2.323 2.32Zm1.03-697.904a3.253 3.253 0 1 1 0-6.505c1.8 0 3.259 1.453 3.259 3.252a3.258 3.258 0 0 1-3.259 3.253Zm1.763 365.984c-1.08 0-1.956-.87-1.956-1.95s.876-1.96 1.956-1.96a1.96 1.96 0 0 1 1.955 1.96c0 1.08-.876 1.95-1.955 1.95Zm.945 248.05a2.178 2.178 0 0 1-2.184-2.18 2.184 2.184 0 0 1 4.367 0c0 1.21-.978 2.18-2.183 2.18Zm2.047-1237.802a4.15 4.15 0 0 1-4.153-4.146 4.15 4.15 0 0 1 4.153-4.147 4.15 4.15 0 0 1 4.153 4.147 4.15 4.15 0 0 1-4.153 4.146Zm2.136 726.862c0 1.16-.938 2.09-2.094 2.09a2.09 2.09 0 0 1-2.094-2.09c0-1.15.939-2.1 2.094-2.1 1.156 0 2.094.95 2.094 2.1Zm1.205-75.43c-.91 0-1.646-.73-1.646-1.63 0-.92.736-1.65 1.646-1.65.91 0 1.646.73 1.646 1.65 0 .9-.736 1.63-1.646 1.63Zm5.304-700.609a3.634 3.634 0 0 1-3.636-3.632 3.633 3.633 0 0 1 3.636-3.629 3.633 3.633 0 0 1 3.636 3.629 3.634 3.634 0 0 1-3.636 3.632Zm2.138 340.257a3.048 3.048 0 0 1-3.05-3.045 3.048 3.048 0 0 1 3.05-3.045 3.047 3.047 0 0 1 3.05 3.045 3.048 3.048 0 0 1-3.05 3.045Zm.637-10.255a2.487 2.487 0 1 1 0-4.973 2.488 2.488 0 1 1 0 4.973Zm7.37-310.785a2.583 2.583 0 1 1 0-5.164 2.585 2.585 0 0 1 2.587 2.582 2.584 2.584 0 0 1-2.587 2.582Zm1.599 511.034a3.063 3.063 0 0 1-3.066-3.062 3.066 3.066 0 0 1 6.133 0 3.063 3.063 0 0 1-3.067 3.062Zm-.452-48.772a1.566 1.566 0 0 1-1.566-1.564c0-.867.701-1.563 1.566-1.563a1.564 1.564 0 1 1 0 3.127Zm1.767-143.923a1.864 1.864 0 1 1 0-3.726c1.031 0 1.867.835 1.867 1.864a1.865 1.865 0 0 1-1.867 1.862Zm9.356 486.323a5.318 5.318 0 0 1-5.321-5.31 5.32 5.32 0 0 1 5.321-5.32 5.32 5.32 0 0 1 5.321 5.32c0 2.93-2.382 5.31-5.321 5.31Zm-2.885-1027.756a2.2 2.2 0 1 1 0-4.399 2.2 2.2 0 1 1 0 4.399Zm2.117 1463.806a3.94 3.94 0 0 1-3.947-3.94 3.947 3.947 0 0 1 7.891 0 3.94 3.94 0 0 1-3.944 3.94Zm1.16-1203.467a1.985 1.985 0 0 1-1.986-1.984c0-1.095.89-1.983 1.986-1.983 1.098 0 1.988.888 1.988 1.983 0 1.096-.89 1.984-1.988 1.984Zm2.542 680.147a3.463 3.463 0 0 1-3.467-3.46c0-1.92 1.551-3.46 3.467-3.46a3.458 3.458 0 0 1 3.467 3.46c0 1.91-1.553 3.46-3.467 3.46Zm.003-559.363a1.711 1.711 0 0 1-1.712-1.709c0-.945.767-1.71 1.712-1.71a1.71 1.71 0 0 1 1.712 1.71c0 .943-.767 1.709-1.712 1.709Zm1.997 62.618a2.047 2.047 0 0 1-2.049-2.046c0-1.129.917-2.045 2.049-2.045 1.131 0 2.048.916 2.048 2.045 0 1.13-.917 2.046-2.048 2.046ZM637.459 1105a4.586 4.586 0 0 1-4.592-4.58c0-2.53 2.057-4.59 4.592-4.59a4.595 4.595 0 0 1 4.594 4.59c0 2.53-2.056 4.58-4.594 4.58Zm-1.665-582.236a2.492 2.492 0 0 1-2.495-2.491 2.492 2.492 0 0 1 2.495-2.489 2.493 2.493 0 0 1 2.494 2.489 2.493 2.493 0 0 1-2.494 2.491Zm1.466 526.406a3.75 3.75 0 0 1-3.748-3.75c0-2.06 1.678-3.74 3.748-3.74a3.748 3.748 0 0 1 3.749 3.74 3.75 3.75 0 0 1-3.749 3.75Zm2.366-605.668a3.763 3.763 0 0 1 3.758-3.995 3.763 3.763 0 0 1 3.765 3.76 3.761 3.761 0 0 1-3.241 3.723 4.696 4.696 0 0 1-4.545 5.889 4.696 4.696 0 0 1-4.7-4.692 4.695 4.695 0 0 1 4.963-4.685Zm9.621 42.938a2.883 2.883 0 0 1-2.883-2.881c0-1.59 1.291-2.88 2.883-2.88a2.882 2.882 0 0 1 2.885 2.88 2.883 2.883 0 0 1-2.885 2.881Zm.213 1191.18a2.236 2.236 0 1 1 0-4.47 2.236 2.236 0 1 1 0 4.47Zm.851-1102.209a2.4 2.4 0 0 1-2.401-2.398 2.399 2.399 0 0 1 2.401-2.397 2.398 2.398 0 1 1 0 4.795Zm.579-387.135a1.61 1.61 0 1 1 1.611-1.609 1.61 1.61 0 0 1-1.611 1.609Zm1.583 318.676a1.667 1.667 0 1 1 0-3.332c.922 0 1.67.745 1.67 1.666 0 .92-.748 1.666-1.67 1.666Zm7.054 844.268a5.195 5.195 0 0 1-5.204-5.19 5.204 5.204 0 0 1 10.407 0c0 2.87-2.329 5.19-5.203 5.19Zm2.621-10.62a2.273 2.273 0 0 1-2.271-2.27 2.273 2.273 0 0 1 4.543 0c0 1.25-1.016 2.27-2.272 2.27Zm.553 349.29a2.337 2.337 0 0 1-2.335-2.33 2.33 2.33 0 0 1 2.335-2.33c1.29 0 2.336 1.04 2.336 2.33 0 1.28-1.046 2.33-2.336 2.33Zm1.341-878.111a1.585 1.585 0 1 1 0-3.172 1.585 1.585 0 1 1 0 3.172Zm1.24-85.574a1.479 1.479 0 1 1 0-2.958 1.479 1.479 0 0 1 0 2.958Zm2.86-381.899a2.636 2.636 0 0 1-2.639-2.632 2.636 2.636 0 0 1 2.639-2.634 2.636 2.636 0 0 1 2.638 2.634 2.636 2.636 0 0 1-2.638 2.632Zm1.077 592.225a2.536 2.536 0 1 1 0-5.071 2.536 2.536 0 1 1 0 5.071Zm.7-747.481a.71.71 0 1 1-.001-1.419.71.71 0 0 1 .001 1.419Zm2.548 1396.53a2.885 2.885 0 1 1 0-5.77 2.885 2.885 0 1 1 0 5.77Zm-.554-338.37a2.252 2.252 0 0 1-2.251-2.25c0-1.24 1.007-2.24 2.251-2.24 1.242 0 2.249 1 2.249 2.24 0 1.24-1.007 2.25-2.249 2.25Zm.777 204.88c-.975 0-1.766-.78-1.766-1.76s.791-1.76 1.766-1.76a1.759 1.759 0 1 1 0 3.52Zm1.324-464.992a2.15 2.15 0 0 1-2.152-2.145 2.15 2.15 0 0 1 2.152-2.15 2.15 2.15 0 0 1 2.151 2.15 2.149 2.149 0 0 1-2.151 2.145Zm2.753-838.163a2.758 2.758 0 0 1-2.761-2.756 2.758 2.758 0 0 1 2.761-2.756 2.758 2.758 0 0 1 2.761 2.756 2.758 2.758 0 0 1-2.761 2.756Zm1.213 246.598a2.704 2.704 0 0 1-2.705-2.701 2.702 2.702 0 0 1 2.705-2.699 2.701 2.701 0 0 1 2.704 2.699 2.703 2.703 0 0 1-2.704 2.701Zm2.819 967.247c-1.27 0-2.3-1.02-2.3-2.29a2.3 2.3 0 0 1 4.599 0 2.29 2.29 0 0 1-2.299 2.29Zm5.108-848.321a3.46 3.46 0 0 1-3.464-3.458 3.46 3.46 0 0 1 3.464-3.457 3.459 3.459 0 0 1 3.462 3.457 3.46 3.46 0 0 1-3.462 3.458Zm-1.02-317.064a1.224 1.224 0 1 1 0-2.447 1.224 1.224 0 0 1 0 2.447Zm4.189 404.472a3.649 3.649 0 0 1-1.229-2.735 3.66 3.66 0 0 1 3.664-3.658 3.661 3.661 0 0 1 3.666 3.658 3.662 3.662 0 0 1-3.666 3.66 3.644 3.644 0 0 1-1.713-.423c.394.406.635.958.635 1.568a2.259 2.259 0 0 1-2.26 2.256 2.258 2.258 0 1 1 .903-4.326Zm-.183 1064.883a2.554 2.554 0 1 1 0-5.11 2.555 2.555 0 0 1 2.562 2.55c0 1.41-1.147 2.56-2.562 2.56Zm3.015-1347.395a2.854 2.854 0 0 1-2.856-2.853 2.854 2.854 0 0 1 2.856-2.851 2.854 2.854 0 0 1 2.856 2.851 2.854 2.854 0 0 1-2.856 2.853Zm1.819 1249.055a2.21 2.21 0 0 1-2.21-2.21c0-1.22.99-2.2 2.21-2.2 1.221 0 2.211.98 2.211 2.2 0 1.22-.99 2.21-2.211 2.21Zm.796-940.188a2.793 2.793 0 0 1-2.796-2.792 2.793 2.793 0 0 1 2.796-2.791 2.794 2.794 0 0 1 2.796 2.791 2.793 2.793 0 0 1-2.796 2.792Zm5.004 71.871a3.11 3.11 0 0 1-.001.355 3.142 3.142 0 1 1 .001-.355Zm.445-260.362a2.573 2.573 0 0 1-2.576-2.571 2.573 2.573 0 0 1 2.576-2.572 2.573 2.573 0 0 1 2.575 2.572 2.573 2.573 0 0 1-2.575 2.571Zm1.836 91.119a2.417 2.417 0 0 1-2.419-2.414 2.416 2.416 0 0 1 2.419-2.415 2.417 2.417 0 0 1 2.419 2.415 2.417 2.417 0 0 1-2.419 2.414Zm.304-210.211a2.512 2.512 0 0 1-2.514-2.51 2.512 2.512 0 0 1 2.514-2.509 2.51 2.51 0 1 1 0 5.019Zm2.161 1224.651a3.197 3.197 0 0 1-3.202-3.19 3.2 3.2 0 0 1 3.202-3.2c1.767 0 3.2 1.43 3.2 3.2 0 1.76-1.433 3.19-3.2 3.19Zm3.062 32.51a3.768 3.768 0 0 1-3.768-3.76c0-2.08 1.687-3.76 3.768-3.76 2.08 0 3.767 1.68 3.767 3.76 0 2.07-1.687 3.76-3.767 3.76Zm5.808-694.792a2.62 2.62 0 0 1-2.617 2.621 2.619 2.619 0 1 1 2.617-2.621Zm-2.918-246.357c-.987 0-1.789-.8-1.789-1.786s.802-1.784 1.789-1.784a1.786 1.786 0 1 1 0 3.57Zm3.909-424.453a5.284 5.284 0 0 1-5.289-5.279 5.285 5.285 0 0 1 5.289-5.281 5.285 5.285 0 0 1 5.288 5.281 5.283 5.283 0 0 1-5.288 5.279Zm1.103 538.856a1.92 1.92 0 1 1-3.84 0 1.92 1.92 0 0 1 3.84 0Zm.65-263.639a3.781 3.781 0 0 1-3.782-3.778 3.78 3.78 0 0 1 3.782-3.778 3.78 3.78 0 0 1 3.784 3.778 3.781 3.781 0 0 1-3.784 3.778Zm-1.5 1025.415a1.615 1.615 0 1 1 0-3.23 1.614 1.614 0 1 1 0 3.23Zm1.594 93.83a2.53 2.53 0 0 1-2.534-2.53c0-1.39 1.134-2.53 2.534-2.53a2.537 2.537 0 0 1 2.534 2.53 2.53 2.53 0 0 1-2.534 2.53Zm-.317 15.38c-.919 0-1.663-.74-1.663-1.65 0-.92.744-1.67 1.663-1.67.917 0 1.661.75 1.661 1.67 0 .91-.744 1.65-1.661 1.65Zm3.526-61.33a1.848 1.848 0 0 1-1.855-1.85c0-1.02.831-1.85 1.855-1.85 1.025 0 1.855.83 1.855 1.85 0 1.03-.83 1.85-1.855 1.85Zm2.354-569.999a3.607 3.607 0 1 1 0-7.212 3.606 3.606 0 1 1 0 7.212Zm1.735 375.299a4.495 4.495 0 1 1 0-8.99 4.495 4.495 0 1 1 0 8.99Zm.906 205.5c-1.118 0-2.023-.9-2.023-2.02a2.025 2.025 0 0 1 4.048 0 2.02 2.02 0 0 1-2.025 2.02Zm3.58-312.64a1.58 1.58 0 0 1-1.577-1.58c0-.87.706-1.57 1.577-1.57.872 0 1.578.7 1.578 1.57 0 .87-.706 1.58-1.578 1.58Zm4.635 224.64a4.845 4.845 0 0 1-4.844-4.84 4.845 4.845 0 0 1 9.69 0c0 2.67-2.168 4.84-4.846 4.84Zm.414-1086.381c-.963 0-1.744-.78-1.744-1.742 0-.961.781-1.741 1.744-1.741s1.744.78 1.744 1.741c0 .962-.781 1.742-1.744 1.742Zm3.926 1175.791c-.958 0-1.735-.78-1.735-1.74a1.736 1.736 0 0 1 3.472 0c0 .96-.778 1.74-1.737 1.74Zm4.528-976.832a2.808 2.808 0 0 1-2.811-2.806 2.808 2.808 0 0 1 2.811-2.807 2.809 2.809 0 0 1 2.812 2.807 2.809 2.809 0 0 1-2.812 2.806Zm-.024-487.012a2.062 2.062 0 0 1-2.063-2.06c0-1.137.924-2.059 2.063-2.059 1.139 0 2.063.922 2.063 2.059 0 1.138-.924 2.06-2.063 2.06Zm1.69 567.576a2.41 2.41 0 1 1 0-4.819 2.411 2.411 0 0 1 2.413 2.41 2.412 2.412 0 0 1-2.413 2.409Zm.107 306.847a2.122 2.122 0 1 1 0-4.244 2.123 2.123 0 1 1 0 4.244Zm5.445-717.751a3.203 3.203 0 0 1-3.207-3.201 3.205 3.205 0 0 1 3.207-3.203 3.205 3.205 0 0 1 3.207 3.203 3.203 3.203 0 0 1-3.207 3.201Zm.886-38.518a2.772 2.772 0 0 1-2.775-2.769 2.772 2.772 0 0 1 2.775-2.769 2.771 2.771 0 0 1 2.773 2.769 2.771 2.771 0 0 1-2.773 2.769Zm6.11 1346.41a2.992 2.992 0 0 1-2.993-2.99 2.992 2.992 0 0 1 5.986 0c0 1.65-1.34 2.99-2.993 2.99Zm3.811-650.83a1.633 1.633 0 0 1-1.634-1.629 1.635 1.635 0 0 1 3.268 0c0 .897-.732 1.629-1.634 1.629Zm1.569-419.276a2.473 2.473 0 0 1-2.474-2.471 2.473 2.473 0 0 1 2.474-2.472 2.473 2.473 0 1 1 0 4.943Zm3.228 182.643a5.221 5.221 0 0 1-5.225-5.216 5.22 5.22 0 0 1 5.225-5.215 5.218 5.218 0 0 1 5.223 5.215 5.22 5.22 0 0 1-5.223 5.216Zm-2.139-277.933a2.427 2.427 0 0 1-2.429-2.425 2.427 2.427 0 0 1 2.429-2.425 2.427 2.427 0 0 1 2.429 2.425 2.427 2.427 0 0 1-2.429 2.425Zm3.77 865.286c-1.75 0-3.17-1.42-3.17-3.17 0-1.74 1.42-3.16 3.17-3.16s3.169 1.42 3.169 3.16a3.17 3.17 0 0 1-3.169 3.17Zm2.139 458.69a3.531 3.531 0 0 1-3.533-3.53c0-1.95 1.582-3.53 3.533-3.53a3.531 3.531 0 0 1 3.533 3.53c0 1.95-1.582 3.53-3.533 3.53Zm8.588-1174.994a1.15 1.15 0 1 1-.001-2.3 1.15 1.15 0 0 1 .001 2.3Zm1.894-136.594a1.092 1.092 0 1 1 0-2.183 1.093 1.093 0 1 1 0 2.183Zm.494 175.325a1.576 1.576 0 1 1 0-3.15c.871 0 1.579.706 1.579 1.576 0 .869-.708 1.574-1.579 1.574Zm.807 569.123a2.014 2.014 0 1 1 0-4.03c1.115 0 2.017.91 2.017 2.02 0 1.11-.902 2.01-2.017 2.01Zm-.038 175.72a1.604 1.604 0 1 1-.001-3.211 1.604 1.604 0 0 1 .001 3.211Zm2.676-444.436a2.677 2.677 0 1 1 0-5.352 2.676 2.676 0 1 1 0 5.352Zm-1.689-309.485a.658.658 0 1 1-.002-1.316.658.658 0 0 1 .002 1.316Zm4.804-136.463a2.655 2.655 0 0 1-2.657-2.653 2.655 2.655 0 0 1 2.657-2.652 2.655 2.655 0 0 1 2.657 2.652 2.655 2.655 0 0 1-2.657 2.653Zm3.358 151.295a2.685 2.685 0 0 1-2.687-2.684 2.685 2.685 0 0 1 2.687-2.683 2.686 2.686 0 0 1 2.689 2.683 2.685 2.685 0 0 1-2.689 2.684Zm1.896-334.061a2.374 2.374 0 0 1-2.375-2.371 2.376 2.376 0 0 1 4.752 0 2.375 2.375 0 0 1-2.377 2.371Zm6.871 34.304a2.812 2.812 0 0 1-2.813-2.809 2.811 2.811 0 0 1 2.813-2.809 2.81 2.81 0 0 1 2.812 2.809c0 1.55-1.26 2.809-2.812 2.809Zm4.042 916.166a3.742 3.742 0 0 1-3.751-3.74 3.752 3.752 0 0 1 7.504 0c0 2.07-1.68 3.74-3.753 3.74Zm5.309-24.81c-1.12 0-2.027-.9-2.027-2.03a2.028 2.028 0 0 1 4.056 0c0 1.13-.908 2.03-2.029 2.03Zm5.693 231.56a2.052 2.052 0 0 1-2.053-2.05c0-1.14.918-2.05 2.053-2.05 1.133 0 2.052.91 2.052 2.05 0 1.13-.919 2.05-2.052 2.05Zm3.216-790.729a5.164 5.164 0 0 1-5.168-5.16 5.163 5.163 0 0 1 5.168-5.159 5.163 5.163 0 0 1 5.166 5.159 5.164 5.164 0 0 1-5.166 5.16Zm13.593 78.481a2.24 2.24 0 1 1 0-4.478 2.241 2.241 0 0 1 2.243 2.24 2.24 2.24 0 0 1-2.243 2.238Zm1.182 812.098a1.983 1.983 0 0 1-1.982-1.98c0-1.1.887-1.98 1.982-1.98 1.096 0 1.983.88 1.983 1.98 0 1.09-.887 1.98-1.983 1.98Zm8.57-211.03a4.995 4.995 0 0 1-5.005-4.99c0-2.76 2.241-5 5.005-5a5.004 5.004 0 0 1 5.006 5c0 2.76-2.242 4.99-5.006 4.99Zm-.37 126.18a1.7 1.7 0 1 1 0-3.4c.941 0 1.704.76 1.704 1.7s-.763 1.7-1.704 1.7Zm2.813-665.556a3.219 3.219 0 0 1-3.222-3.216 3.219 3.219 0 0 1 3.222-3.215 3.218 3.218 0 0 1 3.22 3.215 3.218 3.218 0 0 1-3.22 3.216Zm2.744 590.916a3.685 3.685 0 0 1-3.687-3.68c0-2.03 1.65-3.68 3.687-3.68a3.685 3.685 0 0 1 3.687 3.68c0 2.03-1.651 3.68-3.687 3.68Z"/></g></svg>