<svg width="73" height="73" viewBox="0 0 73 73" fill="none" xmlns="http://www.w3.org/2000/svg">
<circle cx="36.5" cy="36.5" r="36.5" fill="#02C8DB"/>
<path d="M28.8946 51.5804L20.8256 52.812C20.184 52.9092 19.5456 52.6143 19.2055 52.0614L16.1967 47.1699C16.0288 46.897 15.9521 46.5863 15.961 46.2771C15.9597 46.2513 15.9571 46.2261 15.9571 46.2V35.8525C15.9571 34.96 16.6805 34.2367 17.5729 34.2367C18.4652 34.2367 19.1887 34.96 19.1887 35.8525V40.1456L25.6484 28.6416L28.8946 34.1816V51.5804ZM55.4271 34.2365C54.5345 34.2365 53.8113 34.9597 53.8113 35.8523V40.1453L47.3518 28.6416L44.1056 34.1818V51.5806L52.1746 52.8122C52.8158 52.9096 53.4545 52.6145 53.7949 52.0614L56.8035 47.1699C56.9714 46.8972 57.0478 46.5865 57.039 46.2774C57.0403 46.2515 57.0429 46.2263 57.0429 46.2002V35.8527C57.0429 34.96 56.3194 34.2365 55.4271 34.2365ZM40.874 51.6487L38.1158 53.7055V56.3842C38.1158 57.2768 37.3925 58 36.5 58C35.6076 58 34.8842 57.2768 34.8842 56.3842V53.7055L32.1259 51.6487V33.7432C32.1259 33.456 32.0495 33.174 31.9043 32.9262L27.4811 25.3773L35.091 11.8247C35.3771 11.3154 35.9159 11 36.5 11C37.0843 11 37.6229 11.3154 37.909 11.8247L45.5189 25.3773L41.0957 32.9262C40.9505 33.174 40.874 33.456 40.874 33.7432V51.6487ZM40.8665 25.7819C41.5546 25.214 41.6522 24.1956 41.0845 23.507C40.8975 23.2802 39.1803 21.2915 36.5409 21.2915C33.9292 21.2915 32.1415 23.2483 31.9463 23.4715C31.3586 24.143 31.4223 25.1685 32.0941 25.756C32.4019 26.0253 32.782 26.1578 33.1603 26.1578C33.6073 26.1578 34.0517 25.9727 34.37 25.6089C34.6431 25.3068 35.5656 24.5228 36.5411 24.5228C37.6864 24.5228 38.5919 25.5636 38.5919 25.5636C39.1598 26.2522 40.1782 26.3498 40.8665 25.7819Z" fill="#00101C"/>
</svg>
